<svg viewBox="0 0 800 600" fill="none" stroke="none" stroke-linecap="square" stroke-miterlimit="10" xmlns:xlink="http://www.w3.org/1999/xlink" xmlns="http://www.w3.org/2000/svg"><clipPath id="p.0"><path d="m0 0h8e2v6e2H0V0z" clip-rule="nonzero"/></clipPath><g clip-path="url(#p.0)"><path fill="#000" fill-opacity="0" d="m0 0h8e2v6e2H0z" fill-rule="evenodd"/><path fill="#000" fill-opacity="0" d="m45.24803 285h653.98425" fill-rule="evenodd"/><path stroke="#000" stroke-width="2" stroke-linejoin="round" stroke-linecap="butt" d="m45.24803 285h653.98425" fill-rule="evenodd"/><path fill="#000" fill-opacity="0" d="m149.24803 85.50394v398.99213" fill-rule="evenodd"/><path stroke="#000" stroke-width="2" stroke-linejoin="round" stroke-linecap="butt" d="m149.24803 85.50394v398.99213" fill-rule="evenodd"/><path fill="#000" fill-opacity="0" d="m303.24802 83.50394v402.99213" fill-rule="evenodd"/><path stroke="#000" stroke-width="2" stroke-linejoin="round" stroke-linecap="butt" stroke-dasharray="2.0,6.0" d="m303.24802 83.50394v402.99213" fill-rule="evenodd"/><path fill="#000" fill-opacity="0" d="m518.24805 83.50394v402.99213" fill-rule="evenodd"/><path stroke="#000" stroke-width="2" stroke-linejoin="round" stroke-linecap="butt" stroke-dasharray="2.0,6.0" d="m518.24805 83.50394v402.99213" fill-rule="evenodd"/><path fill="#000" fill-opacity="0" d="m190.24803 284.99966c2.3333282 4.3333435 7 18.833344 14 26 7 7.166687 18.166672 19.5 28 17s20-17.833313 30.999985-32c11-14.1666565 25.333344-39.166656 35-53 9.666687-13.833328 14-20.166656 23-30 9-9.833328 20.333344-21.666656 31-29 10.666687-7.3333282 21.333344-11.5 33-15 11.666687-3.5 25.666687-4.8333282 37-6 11.3333435-1.1666565 20.833344-2.8333282 31-1 10.166687 1.8333435 21.333344 5.6666718 30 12 8.666687 6.3333435 15.166687 16.333344 22 26 6.8333435 9.666672 13.6666565 22.833344 19.00003 32 5.333313 9.166672 8.333313 14 13 23 4.666626 9 10.333313 22.666687 15 31 4.666626 8.3333435 7.333313 11.8333435 13 19 5.666626 7.166687 14.166626 18.5 21 24 6.833313 5.5 16.666626 7.5 20 9" fill-rule="evenodd"/><path stroke="#3d85c6" stroke-width="2" stroke-linejoin="round" stroke-linecap="butt" d="m190.24803 284.99966c2.3333282 4.3333435 7 18.833344 14 26 7 7.166687 18.166672 19.5 28 17s20-17.833313 30.999985-32c11-14.1666565 25.333344-39.166656 35-53 9.666687-13.833328 14-20.166656 23-30 9-9.833328 20.333344-21.666656 31-29 10.666687-7.3333282 21.333344-11.5 33-15 11.666687-3.5 25.666687-4.8333282 37-6 11.3333435-1.1666565 20.833344-2.8333282 31-1 10.166687 1.8333435 21.333344 5.6666718 30 12 8.666687 6.3333435 15.166687 16.333344 22 26 6.8333435 9.666672 13.6666565 22.833344 19.00003 32 5.333313 9.166672 8.333313 14 13 23 4.666626 9 10.333313 22.666687 15 31 4.666626 8.3333435 7.333313 11.8333435 13 19 5.666626 7.166687 14.166626 18.5 21 24 6.833313 5.5 16.666626 7.5 20 9" fill-rule="evenodd"/><path fill="#000" fill-opacity="0" d="m198.24803 338h72.50392v67.212585h-72.50392z" fill-rule="evenodd"/><path fill="#000" d="m220.2817 364.70123q0 .109375-.078125.171875-.0625.046875-.1875.0625-.125.03125-.375.03125-.234375.0-.375-.03125-.140625-.015625-.203125-.0625-.0625-.0625-.0625-.171875v-.8125q-.546875.5625-1.203125.890625-.65625.3125-1.390625.3125-.65625.0-1.1875-.171875-.515625-.15625-.890625-.46875-.359375-.328125-.5625-.796875t-.203125-1.0625q0-.6875.28125-1.1875.28125-.515625.796875-.84375.53125-.34375 1.296875-.515625t1.734375-.171875h1.125v-.640625q0-.46875-.109375-.828125-.09375-.375-.328125-.609375-.21875-.25-.578125-.359375-.34375-.125-.859375-.125-.5625.0-1 .140625-.4375.125-.78125.28125-.328125.15625-.546875.296875-.21875.125-.328125.125-.078125.0-.140625-.03125-.046875-.046875-.09375-.109375-.03125-.078125-.0625-.1875-.015625-.125-.015625-.25.0-.234375.03125-.359375.03125-.140625.15625-.25.125-.125.421875-.28125.3125-.171875.703125-.296875t.84375-.21875q.46875-.09375.953125-.09375.875.0 1.484375.203125.625.203125 1 .59375.390625.390625.5625.96875.171875.5625.171875 1.328125v5.53125zm-1.484375-3.75h-1.28125q-.625.0-1.078125.109375t-.765625.3125q-.296875.203125-.4375.5-.140625.28125-.140625.65625.0.625.40625 1.015625.40625.375 1.140625.375.59375.0 1.09375-.296875.5-.3125 1.0625-.921875v-1.75zm5.7489166 3.734375q0 .078125-.03125.140625-.03125.046875-.125.078125-.078125.03125-.21875.046875t-.375.015625q-.21875.0-.375-.015625-.140625-.015625-.234375-.046875-.078125-.03125-.109375-.078125-.03125-.0625-.03125-.140625v-12.15625q0-.078125.03125-.125.03125-.0625.109375-.09375.09375-.046875.234375-.0625.15625-.015625.375-.015625.234375.0.375.015625t.21875.0625q.09375.03125.125.09375.03125.046875.03125.125v12.15625zm8.953339.015625q0 .109375-.078125.171875-.0625.046875-.1875.0625-.125.03125-.375.03125-.234375.0-.375-.03125-.140625-.015625-.203125-.0625-.0625-.0625-.0625-.171875v-.8125q-.546875.5625-1.203125.890625-.65625.3125-1.390625.3125-.65625.0-1.1875-.171875-.515625-.15625-.890625-.46875-.359375-.328125-.5625-.796875t-.203125-1.0625q0-.6875.28125-1.1875.28125-.515625.796875-.84375.53125-.34375 1.296875-.515625t1.734375-.171875h1.125v-.640625q0-.46875-.109375-.828125-.09375-.375-.328125-.609375-.21875-.25-.578125-.359375-.34375-.125-.859375-.125-.5625.0-1 .140625-.4375.125-.78125.28125-.328125.15625-.546875.296875-.21875.125-.328125.125-.078125.0-.140625-.03125-.046875-.046875-.09375-.109375-.03125-.078125-.0625-.1875-.015625-.125-.015625-.25.0-.234375.03125-.359375.03125-.140625.15625-.25.125-.125.421875-.28125.3125-.171875.703125-.296875t.84375-.21875q.46875-.09375.953125-.09375.875.0 1.484375.203125.625.203125 1 .59375.390625.390625.5625.96875.171875.5625.171875 1.328125v5.53125zm-1.484375-3.75h-1.28125q-.625.0-1.078125.109375t-.765625.3125q-.296875.203125-.4375.5-.140625.28125-.140625.65625.0.625.40625 1.015625.40625.375 1.140625.375.59375.0 1.09375-.296875.5-.3125 1.0625-.921875v-1.75zm9.045792-3.921875q0 .203125-.015625.34375.0.125-.03125.203125t-.078125.125q-.03125.046875-.109375.046875-.0625.0-.171875-.046875t-.25-.078125q-.125-.046875-.296875-.078125-.15625-.046875-.34375-.046875-.21875.0-.4375.09375t-.46875.3125q-.234375.203125-.5.546875t-.59375.84375v5.390625q0 .078125-.03125.140625-.03125.046875-.125.078125-.078125.03125-.21875.046875t-.375.015625q-.21875.0-.375-.015625-.140625-.015625-.234375-.046875-.078125-.03125-.109375-.078125-.03125-.0625-.03125-.140625v-8.1875q0-.078125.03125-.125t.109375-.09375.203125-.046875q.140625-.015625.34375-.015625t.328125.015625q.140625.0.203125.046875.078125.046875.109375.09375t.03125.125v1.1875q.34375-.484375.640625-.796875t.546875-.484375q.265625-.1875.53125-.25.265625-.078125.515625-.078125.125.0.265625.015625.15625.015625.3125.0625.171875.03125.296875.078125.140625.046875.1875.09375.0625.046875.078125.09375.03125.03125.03125.09375.015625.0625.015625.1875.015625.125.015625.328125zm13.879181 7.65625q0 .078125-.046875.140625-.03125.046875-.125.078125-.078125.03125-.21875.046875t-.359375.015625q-.234375.0-.390625-.015625-.140625-.015625-.234375-.046875-.078125-.03125-.109375-.078125-.03125-.0625-.03125-.140625v-4.96875q0-.53125-.09375-.953125-.09375-.4375-.296875-.734375-.203125-.3125-.515625-.46875-.296875-.171875-.71875-.171875-.515625.0-1.046875.40625-.515625.390625-1.15625 1.171875v5.71875q0 .078125-.03125.140625-.03125.046875-.125.078125-.078125.03125-.234375.046875-.140625.015625-.359375.015625-.203125.0-.359375-.015625t-.25-.046875q-.078125-.03125-.109375-.078125-.03125-.0625-.03125-.140625v-4.96875q0-.53125-.109375-.953125-.09375-.4375-.296875-.734375-.1875-.3125-.5-.46875-.296875-.171875-.71875-.171875-.515625.0-1.046875.40625-.53125.390625-1.15625 1.171875v5.71875q0 .078125-.03125.140625-.03125.046875-.125.078125-.078125.03125-.21875.046875t-.375.015625q-.21875.0-.375-.015625-.140625-.015625-.234375-.046875-.078125-.03125-.109375-.078125-.03125-.0625-.03125-.140625v-8.1875q0-.078125.03125-.125t.109375-.09375.203125-.046875q.140625-.015625.34375-.015625t.328125.015625q.140625.0.203125.046875.078125.046875.109375.09375t.03125.125v1.078125q.6875-.765625 1.34375-1.125.65625-.375 1.3125-.375.515625.0.921875.125t.703125.34375q.3125.203125.53125.5t.375.65625q.40625-.4375.765625-.75.375-.3125.71875-.5t.65625-.28125q.328125-.09375.65625-.09375.796875.0 1.328125.28125.546875.28125.875.75t.46875 1.09375q.15625.609375.15625 1.3125v5.171875z" fill-rule="nonzero"/><path fill="#000" fill-opacity="0" d="m343.74915 104.50394h148v67.2126h-148z" fill-rule="evenodd"/><path fill="#000" d="m385.52646 123.53331q0 .203125-.015625.34375.0.125-.03125.203125t-.078125.125q-.03125.046875-.109375.046875-.0625.0-.171875-.046875t-.25-.078125q-.125-.046875-.296875-.078125-.15625-.046875-.34375-.046875-.21875.0-.4375.09375t-.46875.3125q-.234375.203125-.5.546875t-.59375.84375v5.390625q0 .078125-.03125.140625-.03125.046875-.125.078125-.078125.03125-.21875.046875t-.375.015625q-.21875.0-.375-.015625-.140625-.015625-.234375-.046875-.078125-.03125-.109375-.078125-.03125-.0625-.03125-.140625v-8.1875q0-.078125.03125-.125t.109375-.09375.203125-.046875q.140625-.015625.34375-.015625t.328125.015625q.140625.0.203125.046875.078125.046875.109375.09375t.03125.125v1.1875q.34375-.484375.640625-.796875t.546875-.484375q.265625-.1875.53125-.25.265625-.078125.515625-.078125.125.0.265625.015625.15625.015625.3125.0625.171875.03125.296875.078125.140625.046875.1875.09375.0625.046875.078125.09375.03125.03125.03125.09375.015625.0625.015625.1875.015625.125.015625.328125zm8.707306 3.203125q0 .359375-.1875.515625-.171875.140625-.390625.140625h-5.375q0 .6875.125 1.234375.140625.546875.453125.9375.328125.390625.828125.609375.515625.203125 1.25.203125.59375.0 1.046875-.09375t.78125-.203125q.34375-.125.546875-.21875.21875-.109375.328125-.109375.0625.0.109375.03125.0625.03125.078125.109375.03125.0625.046875.171875t.015625.28125q0 .109375-.015625.203125.0.078125-.015625.15625-.015625.0625-.046875.125-.03125.046875-.09375.09375-.046875.046875-.296875.171875-.234375.109375-.625.21875t-.90625.1875q-.515625.09375-1.09375.09375-1.015625.0-1.78125-.28125t-1.28125-.828125q-.515625-.5625-.78125-1.390625-.265625-.84375-.265625-1.96875.0-1.046875.265625-1.890625.28125-.84375.796875-1.421875.515625-.59375 1.234375-.90625.734375-.328125 1.640625-.328125.96875.0 1.640625.3125.6875.3125 1.125.84375.4375.515625.640625 1.234375.203125.703125.203125 1.5v.265625zm-1.515625-.4375q.03125-1.1875-.53125-1.859375-.546875-.671875-1.625-.671875-.5625.0-.984375.21875-.40625.203125-.6875.546875t-.4375.8125q-.15625.453125-.171875.953125h4.4375zm8.954437 2.671875q0 .625-.234375 1.125-.234375.484375-.671875.828125-.421875.328125-1.015625.5t-1.296875.171875q-.4375.0-.84375-.078125-.390625-.0625-.703125-.15625-.3125-.109375-.53125-.21875-.21875-.125-.328125-.203125-.09375-.09375-.140625-.25-.046875-.171875-.046875-.453125.0-.171875.015625-.296875.03125-.125.046875-.1875.03125-.078125.078125-.109375t.125-.03125q.09375.0.28125.125.203125.125.484375.265625.296875.140625.6875.265625t.90625.125q.375.0.6875-.078125t.53125-.234375q.234375-.171875.359375-.40625.125-.25.125-.59375t-.1875-.578125q-.171875-.234375-.46875-.421875-.28125-.1875-.65625-.328125-.359375-.140625-.75-.296875t-.765625-.34375q-.359375-.203125-.65625-.484375-.28125-.28125-.46875-.671875-.171875-.390625-.171875-.9375.0-.484375.1875-.921875t.5625-.765625q.375-.34375.921875-.546875.5625-.203125 1.3125-.203125.328125.0.65625.0625.328125.046875.59375.140625.265625.078125.453125.171875t.28125.171875.125.140625q.03125.046875.046875.109375t.03125.171875q.015625.09375.015625.234375.0.15625-.015625.28125-.015625.109375-.046875.1875-.03125.0625-.078125.09375t-.09375.03125q-.09375.0-.25-.09375-.140625-.09375-.390625-.203125-.25-.125-.578125-.21875-.328125-.109375-.765625-.109375-.375.0-.671875.09375-.296875.078125-.484375.25-.1875.15625-.28125.375t-.09375.46875q0 .359375.171875.609375.1875.234375.484375.421875.296875.171875.671875.328125.375.140625.75.296875.390625.140625.765625.34375.390625.1875.671875.46875.296875.265625.46875.65625.1875.375.1875.90625zm3.6404724 2.21875q0 .078125-.03125.140625-.03125.046875-.125.078125-.078125.03125-.21875.046875t-.375.015625q-.21875.0-.375-.015625-.140625-.015625-.234375-.046875-.078125-.03125-.109375-.078125-.03125-.0625-.03125-.140625v-8.1875q0-.0625.03125-.109375.03125-.0625.109375-.09375.09375-.046875.234375-.0625.15625-.015625.375-.015625.234375.0.375.015625t.21875.0625q.09375.03125.125.09375.03125.046875.03125.109375v8.1875zm.171875-10.96875q0 .53125-.203125.734375-.1875.1875-.734375.1875-.515625.0-.71875-.1875-.1875-.1875-.1875-.703125.0-.53125.1875-.71875.203125-.203125.75-.203125.515625.0.703125.1875.203125.1875.203125.703125zm7.7658386 8.75q0 .625-.234375 1.125-.234375.484375-.671875.828125-.421875.328125-1.015625.5t-1.296875.171875q-.4375.0-.84375-.078125-.390625-.0625-.703125-.15625-.3125-.109375-.53125-.21875-.21875-.125-.328125-.203125-.09375-.09375-.140625-.25-.046875-.171875-.046875-.453125.0-.171875.015625-.296875.03125-.125.046875-.1875.03125-.078125.078125-.109375t.125-.03125q.09375.0.28125.125.203125.125.484375.265625.296875.140625.6875.265625t.90625.125q.375.0.6875-.078125t.53125-.234375q.234375-.171875.359375-.40625.125-.25.125-.59375t-.1875-.578125q-.171875-.234375-.46875-.421875-.28125-.1875-.65625-.328125-.359375-.140625-.75-.296875t-.765625-.34375q-.359375-.203125-.65625-.484375-.28125-.28125-.46875-.671875-.171875-.390625-.171875-.9375.0-.484375.1875-.921875t.5625-.765625q.375-.34375.921875-.546875.5625-.203125 1.3125-.203125.328125.0.65625.0625.328125.046875.59375.140625.265625.078125.453125.171875t.28125.171875.125.140625q.03125.046875.046875.109375t.03125.171875q.015625.09375.015625.234375.0.15625-.015625.28125-.015625.109375-.046875.1875-.03125.0625-.078125.09375t-.09375.03125q-.09375.0-.25-.09375-.140625-.09375-.390625-.203125-.25-.125-.578125-.21875-.328125-.109375-.765625-.109375-.375.0-.671875.09375-.296875.078125-.484375.25-.1875.15625-.28125.375t-.09375.46875q0 .359375.171875.609375.1875.234375.484375.421875.296875.171875.671875.328125.375.140625.75.296875.390625.140625.765625.34375.390625.1875.671875.46875.296875.265625.46875.65625.1875.375.1875.90625zm6.406067 1.625q0 .265625-.046875.421875-.03125.15625-.109375.234375-.0625.0625-.21875.125-.140625.0625-.328125.09375-.1875.046875-.390625.078125t-.421875.03125q-.640625.0-1.09375-.171875t-.75-.5q-.28125-.34375-.421875-.859375-.125-.53125-.125-1.25v-4.796875h-1.15625q-.125.0-.21875-.140625-.078125-.140625-.078125-.46875.0-.171875.015625-.28125.03125-.125.0625-.203125.046875-.078125.09375-.109375.0625-.03125.140625-.03125h1.140625v-1.953125q0-.0625.03125-.109375.03125-.0625.109375-.109375.09375-.046875.234375-.0625.15625-.015625.375-.015625t.359375.015625q.15625.015625.234375.0625t.109375.109375q.046875.046875.046875.109375v1.953125h2.109375q.0625.0.109375.03125.0625.03125.109375.109375t.0625.203125q.015625.109375.015625.28125.0.328125-.078125.46875t-.21875.140625h-2.109375v4.578125q0 .84375.25 1.28125t.90625.4375q.203125.0.359375-.046875.171875-.046875.296875-.078125.125-.046875.21875-.09375t.171875-.046875q.046875.0.078125.03125.046875.015625.0625.078125.03125.0625.046875.171875t.015625.28125zm8.155365.609375q0 .109375-.078125.171875-.0625.046875-.1875.0625-.125.03125-.375.03125-.234375.0-.375-.03125-.140625-.015625-.203125-.0625-.0625-.0625-.0625-.171875v-.8125q-.546875.5625-1.203125.890625-.65625.3125-1.390625.3125-.65625.0-1.1875-.171875-.515625-.15625-.890625-.46875-.359375-.328125-.5625-.796875t-.203125-1.0625q0-.6875.28125-1.1875.28125-.515625.796875-.84375.53125-.34375 1.296875-.515625t1.734375-.171875h1.125v-.640625q0-.46875-.109375-.828125-.09375-.375-.328125-.609375-.21875-.25-.578125-.359375-.34375-.125-.859375-.125-.5625.0-1 .140625-.4375.125-.78125.28125-.328125.15625-.546875.296875-.21875.125-.328125.125-.078125.0-.140625-.03125-.046875-.046875-.09375-.109375-.03125-.078125-.0625-.1875-.015625-.125-.015625-.25.0-.234375.03125-.359375.03125-.140625.15625-.25.125-.125.421875-.28125.3125-.171875.703125-.296875t.84375-.21875q.46875-.09375.953125-.09375.875.0 1.484375.203125.625.203125 1 .59375.390625.390625.5625.96875.171875.5625.171875 1.328125v5.53125zm-1.484375-3.75h-1.28125q-.625.0-1.078125.109375t-.765625.3125q-.296875.203125-.4375.5-.140625.28125-.140625.65625.0.625.40625 1.015625.40625.375 1.140625.375.59375.0 1.09375-.296875.5-.3125 1.0625-.921875v-1.75zm11.311432 3.734375q0 .078125-.046875.140625-.03125.046875-.109375.078125t-.234375.046875q-.140625.015625-.359375.015625t-.375-.015625q-.140625-.015625-.234375-.046875-.078125-.03125-.109375-.078125-.03125-.0625-.03125-.140625v-4.796875q0-.703125-.109375-1.125-.109375-.4375-.328125-.734375-.203125-.3125-.546875-.46875-.328125-.171875-.765625-.171875-.5625.0-1.125.40625-.5625.390625-1.1875 1.171875v5.71875q0 .078125-.03125.140625-.03125.046875-.125.078125-.078125.03125-.21875.046875t-.375.015625q-.21875.0-.375-.015625-.140625-.015625-.234375-.046875-.078125-.03125-.109375-.078125-.03125-.0625-.03125-.140625v-8.1875q0-.078125.03125-.125t.109375-.09375.203125-.046875q.140625-.015625.34375-.015625t.328125.015625q.140625.0.203125.046875.078125.046875.109375.09375t.03125.125v1.078125q.6875-.765625 1.375-1.125.6875-.375 1.390625-.375.828125.0 1.375.28125.5625.28125.90625.75.359375.46875.5 1.09375.15625.609375.15625 1.484375v5zm8.629944-1.234375q0 .140625-.015625.265625.0.109375-.03125.1875-.015625.078125-.046875.140625t-.140625.171875-.390625.28125q-.265625.171875-.609375.3125-.34375.125-.75.203125-.390625.078125-.828125.078125-.875.0-1.5625-.28125-.6875-.296875-1.15625-.859375-.453125-.5625-.703125-1.375-.234375-.8125-.234375-1.890625.0-1.203125.296875-2.0625.296875-.875.8125-1.4375t1.203125-.828125q.703125-.265625 1.515625-.265625.390625.0.765625.078125.375.0625.671875.1875.3125.125.546875.28125.25.140625.359375.25t.140625.1875q.046875.0625.078125.15625.03125.078125.03125.1875.015625.109375.015625.265625.0.359375-.078125.5t-.203125.140625q-.140625.0-.3125-.140625-.171875-.15625-.453125-.34375-.265625-.1875-.65625-.328125-.390625-.15625-.921875-.15625-1.078125.0-1.65625.84375-.578125.828125-.578125 2.40625.0.796875.140625 1.390625.15625.59375.4375 1 .296875.40625.71875.609375.4375.1875.984375.1875.515625.0.90625-.15625.390625-.171875.671875-.359375.296875-.203125.484375-.359375.203125-.171875.3125-.171875.0625.0.109375.046875.046875.03125.078125.125.03125.078125.03125.21875.015625.125.015625.3125zm8.998199-3.21875q0 .359375-.1875.515625-.171875.140625-.390625.140625h-5.375q0 .6875.125 1.234375.140625.546875.453125.9375.328125.390625.828125.609375.515625.203125 1.25.203125.59375.0 1.046875-.09375t.78125-.203125q.34375-.125.546875-.21875.21875-.109375.328125-.109375.0625.0.109375.03125.0625.03125.078125.109375.03125.0625.046875.171875t.015625.28125q0 .109375-.015625.203125.0.078125-.015625.15625-.015625.0625-.046875.125-.03125.046875-.09375.09375-.046875.046875-.296875.171875-.234375.109375-.625.21875t-.90625.1875q-.515625.09375-1.09375.09375-1.015625.0-1.78125-.28125t-1.28125-.828125q-.515625-.5625-.78125-1.390625-.265625-.84375-.265625-1.96875.0-1.046875.265625-1.890625.28125-.84375.796875-1.421875.515625-.59375 1.234375-.90625.734375-.328125 1.640625-.328125.96875.0 1.640625.3125.6875.3125 1.125.84375.4375.515625.640625 1.234375.203125.703125.203125 1.5v.265625zm-1.515625-.4375q.03125-1.1875-.53125-1.859375-.546875-.671875-1.625-.671875-.5625.0-.984375.21875-.40625.203125-.6875.546875t-.4375.8125q-.15625.453125-.171875.953125h4.4375z" fill-rule="nonzero"/><path fill="#000" fill-opacity="0" d="m518.24805 333.7848h252v43.18109h-252z" fill-rule="evenodd"/><path fill="#000" d="m610.9536 357.60782q0 .359375-.1875.515625-.171875.140625-.390625.140625h-5.375q0 .6875.125 1.234375.140625.546875.453125.9375.328125.390625.828125.609375.515625.203125 1.25.203125.59375.0 1.046875-.09375t.78125-.203125q.34375-.125.546875-.21875.21875-.109375.328125-.109375.0625.0.109375.03125.0625.03125.078125.109375.03125.0625.046875.171875t.015625.28125q0 .109375-.015625.203125.0.078125-.015625.15625-.015625.0625-.046875.125-.03125.046875-.09375.09375-.046875.046875-.296875.171875-.234375.109375-.625.21875t-.90625.1875q-.515625.09375-1.09375.09375-1.015625.0-1.78125-.28125t-1.28125-.828125q-.515625-.5625-.78125-1.390625-.265625-.84375-.265625-1.96875.0-1.046875.265625-1.890625.28125-.84375.796875-1.421875.515625-.59375 1.234375-.90625.734375-.328125 1.640625-.328125.96875.0 1.640625.3125.6875.3125 1.125.84375.4375.515625.640625 1.234375.203125.703125.203125 1.5v.265625zm-1.515625-.4375q.03125-1.1875-.53125-1.859375-.546875-.671875-1.625-.671875-.5625.0-.984375.21875-.40625.203125-.6875.546875t-.4375.8125q-.15625.453125-.171875.953125h4.4375zm10.016968 4.71875q.0625.140625.0625.234375.0.078125-.09375.140625-.078125.046875-.25.0625t-.453125.015625-.4375-.015625q-.15625.0-.265625-.03125-.09375-.03125-.140625-.078125-.046875-.0625-.078125-.125l-1.96875-3.25-1.96875 3.25q-.03125.0625-.078125.125-.046875.046875-.15625.078125-.09375.03125-.25.03125-.140625.015625-.40625.015625t-.4375-.015625q-.15625-.015625-.234375-.0625-.078125-.0625-.078125-.140625.0-.09375.09375-.234375l2.546875-4-2.421875-3.84375q-.0625-.125-.078125-.203125.0-.09375.078125-.15625.09375-.0625.265625-.078125.1875-.015625.484375-.015625.265625.0.421875.015625.15625.0.25.03125t.140625.078125.078125.109375l1.859375 3.046875 1.90625-3.046875q.03125-.0625.078125-.109375t.125-.078125.21875-.03125q.140625-.015625.390625-.015625t.421875.015625.25.0625.0625.140625q0 .09375-.078125.234375l-2.390625 3.796875 2.53125 4.046875zm8.923828.171875q0 .078125-.046875.140625-.03125.046875-.109375.078125t-.234375.046875q-.140625.015625-.359375.015625t-.375-.015625q-.140625-.015625-.234375-.046875-.078125-.03125-.109375-.078125-.03125-.0625-.03125-.140625v-4.796875q0-.703125-.109375-1.125-.109375-.4375-.328125-.734375-.203125-.3125-.546875-.46875-.328125-.171875-.765625-.171875-.5625.0-1.125.40625-.5625.390625-1.1875 1.171875v5.71875q0 .078125-.03125.140625-.03125.046875-.125.078125-.078125.03125-.21875.046875t-.375.015625q-.21875.0-.375-.015625-.140625-.015625-.234375-.046875-.078125-.03125-.109375-.078125-.03125-.0625-.03125-.140625v-12.15625q0-.078125.03125-.125.03125-.0625.109375-.09375.09375-.046875.234375-.0625.15625-.015625.375-.015625.234375.0.375.015625t.21875.0625q.09375.03125.125.09375.03125.046875.03125.125v4.90625q.65625-.6875 1.3125-1.015625.65625-.34375 1.3125-.34375.828125.0 1.375.28125.5625.28125.90625.75.359375.46875.5 1.09375.15625.609375.15625 1.5v4.984375zm8.911194.015625q0 .109375-.078125.171875-.0625.046875-.1875.0625-.125.03125-.375.03125-.234375.0-.375-.03125-.140625-.015625-.203125-.0625-.0625-.0625-.0625-.171875v-.8125q-.546875.5625-1.203125.890625-.65625.3125-1.390625.3125-.65625.0-1.1875-.171875-.515625-.15625-.890625-.46875-.359375-.328125-.5625-.796875t-.203125-1.0625q0-.6875.28125-1.1875.28125-.515625.796875-.84375.53125-.34375 1.296875-.515625t1.734375-.171875h1.125v-.640625q0-.46875-.109375-.828125-.09375-.375-.328125-.609375-.21875-.25-.578125-.359375-.34375-.125-.859375-.125-.5625.0-1 .140625-.4375.125-.78125.28125-.328125.15625-.546875.296875-.21875.125-.328125.125-.078125.0-.140625-.03125-.046875-.046875-.09375-.109375-.03125-.078125-.0625-.1875-.015625-.125-.015625-.25.0-.234375.03125-.359375.03125-.140625.15625-.25.125-.125.421875-.28125.3125-.171875.703125-.296875t.84375-.21875q.46875-.09375.953125-.09375.875.0 1.484375.203125.625.203125 1 .59375.390625.390625.5625.96875.171875.5625.171875 1.328125v5.53125zm-1.484375-3.75h-1.28125q-.625.0-1.078125.109375t-.765625.3125q-.296875.203125-.4375.5-.140625.28125-.140625.65625.0.625.40625 1.015625.40625.375 1.140625.375.59375.0 1.09375-.296875.5-.3125 1.0625-.921875v-1.75zm11.280212 3.734375q0 .078125-.03125.140625-.03125.046875-.125.078125-.078125.03125-.21875.046875-.125.015625-.3125.015625-.203125.0-.34375-.015625-.125-.015625-.203125-.046875t-.109375-.078125q-.03125-.0625-.03125-.140625v-1.078125q-.703125.78125-1.390625 1.140625-.671875.34375-1.375.34375-.8125.0-1.375-.265625-.5625-.28125-.90625-.75t-.5-1.09375-.15625-1.515625v-4.96875q0-.078125.03125-.125t.125-.09375.234375-.046875q.15625-.015625.375-.015625t.359375.015625q.140625.0.21875.046875.09375.046875.125.09375.046875.046875.046875.125v4.765625q0 .71875.09375 1.15625.109375.4375.328125.75.21875.296875.546875.46875.328125.15625.765625.15625.5625.0 1.125-.390625.5625-.40625 1.1875-1.1875v-5.71875q0-.078125.03125-.125t.125-.09375.234375-.046875q.140625-.015625.359375-.015625t.359375.015625q.15625.0.234375.046875t.125.09375.046875.125v8.1875zm7.926819-2.21875q0 .625-.234375 1.125-.234375.484375-.671875.828125-.421875.328125-1.015625.5t-1.296875.171875q-.4375.0-.84375-.078125-.390625-.0625-.703125-.15625-.3125-.109375-.53125-.21875-.21875-.125-.328125-.203125-.09375-.09375-.140625-.25-.046875-.171875-.046875-.453125.0-.171875.015625-.296875.03125-.125.046875-.1875.03125-.078125.078125-.109375t.125-.03125q.09375.0.28125.125.203125.125.484375.265625.296875.140625.6875.265625t.90625.125q.375.0.6875-.078125t.53125-.234375q.234375-.171875.359375-.40625.125-.25.125-.59375t-.1875-.578125q-.171875-.234375-.46875-.421875-.28125-.1875-.65625-.328125-.359375-.140625-.75-.296875t-.765625-.34375q-.359375-.203125-.65625-.484375-.28125-.28125-.46875-.671875-.171875-.390625-.171875-.9375.0-.484375.1875-.921875t.5625-.765625q.375-.34375.921875-.546875.5625-.203125 1.3125-.203125.328125.0.65625.0625.328125.046875.59375.140625.265625.078125.453125.171875t.28125.171875.125.140625q.03125.046875.046875.109375t.03125.171875q.015625.09375.015625.234375.0.15625-.015625.28125-.015625.109375-.046875.1875-.03125.0625-.078125.09375t-.09375.03125q-.09375.0-.25-.09375-.140625-.09375-.390625-.203125-.25-.125-.578125-.21875-.328125-.109375-.765625-.109375-.375.0-.671875.09375-.296875.078125-.484375.25-.1875.15625-.28125.375t-.09375.46875q0 .359375.171875.609375.1875.234375.484375.421875.296875.171875.671875.328125.375.140625.75.296875.390625.140625.765625.34375.390625.1875.671875.46875.296875.265625.46875.65625.1875.375.1875.90625zm6.406067 1.625q0 .265625-.046875.421875-.03125.15625-.109375.234375-.0625.0625-.21875.125-.140625.0625-.328125.09375-.1875.046875-.390625.078125t-.421875.03125q-.640625.0-1.09375-.171875t-.75-.5q-.28125-.34375-.421875-.859375-.125-.53125-.125-1.25v-4.796875h-1.15625q-.125.0-.21875-.140625-.078125-.140625-.078125-.46875.0-.171875.015625-.28125.03125-.125.0625-.203125.046875-.078125.09375-.109375.0625-.03125.140625-.03125h1.140625v-1.953125q0-.0625.03125-.109375.03125-.0625.109375-.109375.09375-.046875.234375-.0625.15625-.015625.375-.015625t.359375.015625q.15625.015625.234375.0625t.109375.109375q.046875.046875.046875.109375v1.953125h2.109375q.0625.0.109375.03125.0625.03125.109375.109375t.0625.203125q.015625.109375.015625.28125.0.328125-.078125.46875t-.21875.140625h-2.109375v4.578125q0 .84375.25 1.28125t.90625.4375q.203125.0.359375-.046875.171875-.046875.296875-.078125.125-.046875.21875-.09375t.171875-.046875q.046875.0.078125.03125.046875.015625.0625.078125.03125.0625.046875.171875t.015625.28125zm3.4834595.59375q0 .078125-.03125.140625-.03125.046875-.125.078125-.078125.03125-.21875.046875t-.375.015625q-.21875.0-.375-.015625-.140625-.015625-.234375-.046875-.078125-.03125-.109375-.078125-.03125-.0625-.03125-.140625v-8.1875q0-.0625.03125-.109375.03125-.0625.109375-.09375.09375-.046875.234375-.0625.15625-.015625.375-.015625.234375.0.375.015625t.21875.0625q.09375.03125.125.09375.03125.046875.03125.109375v8.1875zm.171875-10.96875q0 .53125-.203125.734375-.1875.1875-.734375.1875-.515625.0-.71875-.1875-.1875-.1875-.1875-.703125.0-.53125.1875-.71875.203125-.203125.75-.203125.515625.0.703125.1875.203125.1875.203125.703125zm10.234619 6.78125q0 1-.265625 1.84375t-.796875 1.453125q-.515625.609375-1.3125.953125-.78125.34375-1.8125.34375-1.015625.0-1.765625-.296875t-1.25-.875-.75-1.390625q-.25-.828125-.25-1.859375.0-1 .265625-1.84375t.78125-1.453125q.53125-.609375 1.3125-.953125t1.828125-.34375q1.015625.0 1.765625.3125.75.296875 1.25.875.5.5625.75 1.390625.25.8125.25 1.84375zm-1.578125.109375q0-.671875-.125-1.265625t-.40625-1.03125q-.28125-.453125-.765625-.703125-.484375-.265625-1.203125-.265625-.671875.0-1.15625.234375-.46875.234375-.78125.671875-.296875.4375-.453125 1.03125-.15625.578125-.15625 1.28125.0.671875.125 1.265625t.40625 1.046875q.296875.4375.78125.703125.484375.25 1.203125.25.65625.0 1.125-.234375.484375-.234375.796875-.65625.3125-.4375.453125-1.03125.15625-.59375.15625-1.296875zm10.853882 4.078125q0 .078125-.046875.140625-.03125.046875-.109375.078125t-.234375.046875q-.140625.015625-.359375.015625t-.375-.015625q-.140625-.015625-.234375-.046875-.078125-.03125-.109375-.078125-.03125-.0625-.03125-.140625v-4.796875q0-.703125-.109375-1.125-.109375-.4375-.328125-.734375-.203125-.3125-.546875-.46875-.328125-.171875-.765625-.171875-.5625.0-1.125.40625-.5625.390625-1.1875 1.171875v5.71875q0 .078125-.03125.140625-.03125.046875-.125.078125-.078125.03125-.21875.046875t-.375.015625q-.21875.0-.375-.015625-.140625-.015625-.234375-.046875-.078125-.03125-.109375-.078125-.03125-.0625-.03125-.140625v-8.1875q0-.078125.03125-.125t.109375-.09375.203125-.046875q.140625-.015625.34375-.015625t.328125.015625q.140625.0.203125.046875.078125.046875.109375.09375t.03125.125v1.078125q.6875-.765625 1.375-1.125.6875-.375 1.390625-.375.828125.0 1.375.28125.5625.28125.90625.75.359375.46875.5 1.09375.15625.609375.15625 1.484375v5z" fill-rule="nonzero"/><path fill="#000" fill-opacity="0" d="m138.24803 244h119.49608v51.212585H138.24803z" fill-rule="evenodd"/><path fill="#000" d="m174.40872 268.46686q0 .625-.234375 1.125-.234375.484375-.671875.828125-.421875.328125-1.015625.5t-1.296875.171875q-.4375.0-.84375-.078125-.390625-.0625-.703125-.15625-.3125-.109375-.53125-.21875-.21875-.125-.328125-.203125-.09375-.09375-.140625-.25-.046875-.171875-.046875-.453125.0-.171875.015625-.296875.03125-.125.046875-.1875.03125-.078125.078125-.109375t.125-.03125q.09375.0.28125.125.203125.125.484375.265625.296875.140625.6875.265625t.90625.125q.375.0.6875-.078125t.53125-.234375q.234375-.171875.359375-.40625.125-.25.125-.59375t-.1875-.578125q-.171875-.234375-.46875-.421875-.28125-.1875-.65625-.328125-.359375-.140625-.75-.296875t-.765625-.34375q-.359375-.203125-.65625-.484375-.28125-.28125-.46875-.671875-.171875-.390625-.171875-.9375.0-.484375.1875-.921875t.5625-.765625q.375-.34375.921875-.546875.5625-.203125 1.3125-.203125.328125.0.65625.0625.328125.046875.59375.140625.265625.078125.453125.171875t.28125.171875.125.140625q.03125.046875.046875.109375t.03125.171875q.015625.09375.015625.234375.0.15625-.015625.28125-.015625.109375-.046875.1875-.03125.0625-.078125.09375t-.09375.03125q-.09375.0-.25-.09375-.140625-.09375-.390625-.203125-.25-.125-.578125-.21875-.328125-.109375-.765625-.109375-.375.0-.671875.09375-.296875.078125-.484375.25-.1875.15625-.28125.375t-.09375.46875q0 .359375.171875.609375.1875.234375.484375.421875.296875.171875.671875.328125.375.140625.75.296875.390625.140625.765625.34375.390625.1875.671875.46875.296875.265625.46875.65625.1875.375.1875.90625zm6.406082 1.625q0 .265625-.046875.421875-.03125.15625-.109375.234375-.0625.0625-.21875.125-.140625.0625-.328125.09375-.1875.046875-.390625.078125t-.421875.03125q-.640625.0-1.09375-.171875t-.75-.5q-.28125-.34375-.421875-.859375-.125-.53125-.125-1.25v-4.796875h-1.15625q-.125.0-.21875-.140625-.078125-.140625-.078125-.46875.0-.171875.015625-.28125.03125-.125.0625-.203125.046875-.078125.09375-.109375.0625-.03125.140625-.03125h1.140625v-1.953125q0-.0625.03125-.109375.03125-.0625.109375-.109375.09375-.046875.234375-.0625.15625-.015625.375-.015625t.359375.015625q.15625.015625.234375.0625t.109375.109375q.046875.046875.046875.109375v1.953125h2.109375q.0625.0.109375.03125.0625.03125.109375.109375t.0625.203125q.015625.109375.015625.28125.0.328125-.078125.46875t-.21875.140625h-2.109375v4.578125q0 .84375.25 1.28125t.90625.4375q.203125.0.359375-.046875.171875-.046875.296875-.078125.125-.046875.21875-.09375t.171875-.046875q.046875.0.078125.03125.046875.015625.0625.078125.03125.0625.046875.171875t.015625.28125zm6.780365-7.0625q0 .203125-.015625.34375.0.125-.03125.203125t-.078125.125q-.03125.046875-.109375.046875-.0625.0-.171875-.046875t-.25-.078125q-.125-.046875-.296875-.078125-.15625-.046875-.34375-.046875-.21875.0-.4375.09375t-.46875.3125q-.234375.203125-.5.546875t-.59375.84375v5.390625q0 .078125-.03125.140625-.03125.046875-.125.078125-.078125.03125-.21875.046875t-.375.015625q-.21875.0-.375-.015625-.140625-.015625-.234375-.046875-.078125-.03125-.109375-.078125-.03125-.0625-.03125-.140625v-8.1875q0-.078125.03125-.125t.109375-.09375.203125-.046875q.140625-.015625.34375-.015625t.328125.015625q.140625.0.203125.046875.078125.046875.109375.09375t.03125.125v1.1875q.34375-.484375.640625-.796875t.546875-.484375q.265625-.1875.53125-.25.265625-.078125.515625-.078125.125.0.265625.015625.15625.015625.3125.0625.171875.03125.296875.078125.140625.046875.1875.09375.0625.046875.078125.09375.03125.03125.03125.09375.015625.0625.015625.1875.015625.125.015625.328125zm8.707306 3.203125q0 .359375-.1875.515625-.171875.140625-.390625.140625h-5.375q0 .6875.125 1.234375.140625.546875.453125.9375.328125.390625.828125.609375.515625.203125 1.25.203125.59375.0 1.046875-.09375t.78125-.203125q.34375-.125.546875-.21875.21875-.109375.328125-.109375.0625.0.109375.03125.0625.03125.078125.109375.03125.0625.046875.171875t.015625.28125q0 .109375-.015625.203125.0.078125-.015625.15625-.015625.0625-.046875.125-.03125.046875-.09375.09375-.046875.046875-.296875.171875-.234375.109375-.625.21875t-.90625.1875q-.515625.09375-1.09375.09375-1.015625.0-1.78125-.28125t-1.28125-.828125q-.515625-.5625-.78125-1.390625-.265625-.84375-.265625-1.96875.0-1.046875.265625-1.890625.28125-.84375.796875-1.421875.515625-.59375 1.234375-.90625.734375-.328125 1.640625-.328125.96875.0 1.640625.3125.6875.3125 1.125.84375.4375.515625.640625 1.234375.203125.703125.203125 1.5v.265625zm-1.515625-.4375q.03125-1.1875-.53125-1.859375-.546875-.671875-1.625-.671875-.5625.0-.984375.21875-.40625.203125-.6875.546875t-.4375.8125q-.15625.453125-.171875.953125h4.4375zm8.9544525 2.671875q0 .625-.234375 1.125-.234375.484375-.671875.828125-.421875.328125-1.015625.5t-1.296875.171875q-.4375.0-.84375-.078125-.390625-.0625-.703125-.15625-.3125-.109375-.53125-.21875-.21875-.125-.328125-.203125-.09375-.09375-.140625-.25-.046875-.171875-.046875-.453125.0-.171875.015625-.296875.03125-.125.046875-.1875.03125-.078125.078125-.109375t.125-.03125q.09375.0.28125.125.203125.125.484375.265625.296875.140625.6875.265625t.90625.125q.375.0.6875-.078125t.53125-.234375q.234375-.171875.359375-.40625.125-.25.125-.59375t-.1875-.578125q-.171875-.234375-.46875-.421875-.28125-.1875-.65625-.328125-.359375-.140625-.75-.296875t-.765625-.34375q-.359375-.203125-.65625-.484375-.28125-.28125-.46875-.671875-.171875-.390625-.171875-.9375.0-.484375.1875-.921875t.5625-.765625q.375-.34375.921875-.546875.5625-.203125 1.3125-.203125.328125.0.65625.0625.328125.046875.59375.140625.265625.078125.453125.171875t.28125.171875.125.140625q.03125.046875.046875.109375t.03125.171875q.015625.09375.015625.234375.0.15625-.015625.28125-.015625.109375-.046875.1875-.03125.0625-.078125.09375t-.09375.03125q-.09375.0-.25-.09375-.140625-.09375-.390625-.203125-.25-.125-.578125-.21875-.328125-.109375-.765625-.109375-.375.0-.671875.09375-.296875.078125-.484375.25-.1875.15625-.28125.375t-.09375.46875q0 .359375.171875.609375.1875.234375.484375.421875.296875.171875.671875.328125.375.140625.75.296875.390625.140625.765625.34375.390625.1875.671875.46875.296875.265625.46875.65625.1875.375.1875.90625zm7.296707.0q0 .625-.234375 1.125-.234375.484375-.671875.828125-.421875.328125-1.015625.5t-1.296875.171875q-.4375.0-.84375-.078125-.390625-.0625-.703125-.15625-.3125-.109375-.53125-.21875-.21875-.125-.328125-.203125-.09375-.09375-.140625-.25-.046875-.171875-.046875-.453125.0-.171875.015625-.296875.03125-.125.046875-.1875.03125-.078125.078125-.109375t.125-.03125q.09375.0.28125.125.203125.125.484375.265625.296875.140625.6875.265625t.90625.125q.375.0.6875-.078125t.53125-.234375q.234375-.171875.359375-.40625.125-.25.125-.59375t-.1875-.578125q-.171875-.234375-.46875-.421875-.28125-.1875-.65625-.328125-.359375-.140625-.75-.296875t-.765625-.34375q-.359375-.203125-.65625-.484375-.28125-.28125-.46875-.671875-.171875-.390625-.171875-.9375.0-.484375.1875-.921875t.5625-.765625q.375-.34375.921875-.546875.5625-.203125 1.3125-.203125.328125.0.65625.0625.328125.046875.59375.140625.265625.078125.453125.171875t.28125.171875.125.140625q.03125.046875.046875.109375t.03125.171875q.015625.09375.015625.234375.0.15625-.015625.28125-.015625.109375-.046875.1875-.03125.0625-.078125.09375t-.09375.03125q-.09375.0-.25-.09375-.140625-.09375-.390625-.203125-.25-.125-.578125-.21875-.328125-.109375-.765625-.109375-.375.0-.671875.09375-.296875.078125-.484375.25-.1875.15625-.28125.375t-.09375.46875q0 .359375.171875.609375.1875.234375.484375.421875.296875.171875.671875.328125.375.140625.75.296875.390625.140625.765625.34375.390625.1875.671875.46875.296875.265625.46875.65625.1875.375.1875.90625zm9.765457-1.96875q0 1-.265625 1.84375t-.796875 1.453125q-.515625.609375-1.3125.953125-.78125.34375-1.8125.34375-1.015625.0-1.765625-.296875t-1.25-.875-.75-1.390625q-.25-.828125-.25-1.859375.0-1 .265625-1.84375t.78125-1.453125q.53125-.609375 1.3125-.953125t1.828125-.34375q1.015625.0 1.765625.3125.75.296875 1.25.875.5.5625.75 1.390625.25.8125.25 1.84375zm-1.578125.109375q0-.671875-.125-1.265625t-.40625-1.03125q-.28125-.453125-.765625-.703125-.484375-.265625-1.203125-.265625-.671875.0-1.15625.234375-.46875.234375-.78125.671875-.296875.4375-.453125 1.03125-.15625.578125-.15625 1.28125.0.671875.125 1.265625t.40625 1.046875q.296875.4375.78125.703125.484375.25 1.203125.25.65625.0 1.125-.234375.484375-.234375.796875-.65625.3125-.4375.453125-1.03125.15625-.59375.15625-1.296875zm8.588257-3.578125q0 .203125-.015625.34375.0.125-.03125.203125t-.078125.125q-.03125.046875-.109375.046875-.0625.0-.171875-.046875t-.25-.078125q-.125-.046875-.296875-.078125-.15625-.046875-.34375-.046875-.21875.0-.4375.09375t-.46875.3125q-.234375.203125-.5.546875t-.59375.84375v5.390625q0 .078125-.03125.140625-.03125.046875-.125.078125-.078125.03125-.21875.046875t-.375.015625q-.21875.0-.375-.015625-.140625-.015625-.234375-.046875-.078125-.03125-.109375-.078125-.03125-.0625-.03125-.140625v-8.1875q0-.078125.03125-.125t.109375-.09375.203125-.046875q.140625-.015625.34375-.015625t.328125.015625q.140625.0.203125.046875.078125.046875.109375.09375t.03125.125v1.1875q.34375-.484375.640625-.796875t.546875-.484375q.265625-.1875.53125-.25.265625-.078125.515625-.078125.125.0.265625.015625.15625.015625.3125.0625.171875.03125.296875.078125.140625.046875.1875.09375.0625.046875.078125.09375.03125.03125.03125.09375.015625.0625.015625.1875.015625.125.015625.328125z" fill-rule="nonzero"/><path fill="#000" fill-opacity="0" d="m29.751968 244h119.49606v51.212585H29.751968z" fill-rule="evenodd"/><path fill="#000" d="m66.955086 266.48248q0 1.0625-.234375 1.921875-.234375.84375-.6875 1.453125-.453125.59375-1.109375.921875-.640625.3125-1.5000038.3125-.390625.0-.71875-.078125t-.65625-.25q-.3125-.171875-.640625-.4375-.3125-.265625-.671875-.640625v1q0 .078125-.03125.140625-.03125.046875-.125.078125-.078125.03125-.203125.046875t-.3125.015625q-.171875.0-.3125-.015625-.125-.015625-.203125-.046875t-.109375-.078125q-.03125-.0625-.03125-.140625v-12.15625q0-.078125.03125-.125.03125-.0625.109375-.09375.09375-.046875.234375-.0625.15625-.015625.375-.015625.234375.0.375.015625t.21875.0625q.09375.03125.125.09375.03125.046875.03125.125v4.90625q.375-.375.703125-.625.34375-.265625.671875-.421875t.65625-.234375.703125-.078125q.8906288.0 1.5156288.359375.640625.359375 1.03125.953125.40625.59375.578125 1.40625.1875.796875.1875 1.6875zm-1.59375.171875q0-.625-.09375-1.21875t-.328125-1.046875-.625-.734375q-.3906288-.28125-.9843788-.28125-.28125.0-.5625.09375-.28125.078125-.578125.265625t-.609375.5q-.3125.296875-.671875.75v3.265625q.625.765625 1.1875 1.15625t1.171875.390625q.578125.0.9687538-.265625.40625-.28125.65625-.71875.25-.453125.359375-1.015625t.109375-1.140625zm10.020569 4.046875q0 .109375-.078125.171875-.0625.046875-.1875.0625-.125.03125-.375.03125-.234375.0-.375-.03125-.140625-.015625-.203125-.0625-.0625-.0625-.0625-.171875v-.8125q-.546875.5625-1.203125.890625-.65625.3125-1.390625.3125-.65625.0-1.1875-.171875-.515625-.15625-.890625-.46875-.359375-.328125-.5625-.796875t-.203125-1.0625q0-.6875.28125-1.1875.28125-.515625.796875-.84375.53125-.34375 1.296875-.515625t1.734375-.171875h1.125v-.640625q0-.46875-.109375-.828125-.09375-.375-.328125-.609375-.21875-.25-.578125-.359375-.34375-.125-.859375-.125-.5625.0-1 .140625-.4375.125-.78125.28125-.328125.15625-.546875.296875-.21875.125-.328125.125-.078125.0-.140625-.03125-.046875-.046875-.09375-.109375-.03125-.078125-.0625-.1875-.015625-.125-.015625-.25.0-.234375.03125-.359375.03125-.140625.15625-.25.125-.125.421875-.28125.3125-.171875.703125-.296875t.84375-.21875q.46875-.09375.953125-.09375.875.0 1.484375.203125.625.203125 1 .59375.390625.390625.5625.96875.171875.5625.171875 1.328125v5.53125zm-1.484375-3.75h-1.28125q-.625.0-1.078125.109375t-.765625.3125q-.296875.203125-.4375.5-.140625.28125-.140625.65625.0.625.40625 1.015625.40625.375 1.140625.375.59375.0 1.09375-.296875.5-.3125 1.0625-.921875v-1.75zm9.405167 1.515625q0 .625-.234375 1.125-.234375.484375-.671875.828125-.421875.328125-1.015625.5t-1.296875.171875q-.4375.0-.84375-.078125-.390625-.0625-.703125-.15625-.3125-.109375-.53125-.21875-.21875-.125-.328125-.203125-.09375-.09375-.140625-.25-.046875-.171875-.046875-.453125.0-.171875.015625-.296875.03125-.125.046875-.1875.03125-.078125.078125-.109375t.125-.03125q.09375.0.28125.125.203125.125.484375.265625.296875.140625.6875.265625t.90625.125q.375.0.6875-.078125t.53125-.234375q.234375-.171875.359375-.40625.125-.25.125-.59375t-.1875-.578125q-.171875-.234375-.46875-.421875-.28125-.1875-.65625-.328125-.359375-.140625-.75-.296875t-.765625-.34375q-.359375-.203125-.65625-.484375-.28125-.28125-.46875-.671875-.171875-.390625-.171875-.9375.0-.484375.1875-.921875t.5625-.765625q.375-.34375.921875-.546875.5625-.203125 1.3125-.203125.328125.0.65625.0625.328125.046875.59375.140625.265625.078125.453125.171875t.28125.171875.125.140625q.03125.046875.046875.109375t.03125.171875q.015625.09375.015625.234375.0.15625-.015625.28125-.015625.109375-.046875.1875-.03125.0625-.078125.09375t-.09375.03125q-.09375.0-.25-.09375-.140625-.09375-.390625-.203125-.25-.125-.578125-.21875-.328125-.109375-.765625-.109375-.375.0-.671875.09375-.296875.078125-.484375.25-.1875.15625-.28125.375t-.09375.46875q0 .359375.171875.609375.1875.234375.484375.421875.296875.171875.671875.328125.375.140625.75.296875.390625.140625.765625.34375.390625.1875.671875.46875.296875.265625.46875.65625.1875.375.1875.90625zm9.140457-2.234375q0 .359375-.1875.515625-.171875.140625-.390625.140625h-5.375q0 .6875.125 1.234375.140625.546875.453125.9375.328125.390625.828125.609375.515625.203125 1.25.203125.59375.0 1.046875-.09375t.78125-.203125q.34375-.125.546875-.21875.21875-.109375.328125-.109375.0625.0.109375.03125.0625.03125.078125.109375.03125.0625.046875.171875t.015625.28125q0 .109375-.015625.203125.0.078125-.015625.15625-.015625.0625-.046875.125-.03125.046875-.09375.09375-.046875.046875-.296875.171875-.234375.109375-.625.21875t-.90625.1875q-.515625.09375-1.09375.09375-1.015625.0-1.78125-.28125t-1.28125-.828125q-.515625-.5625-.78125-1.390625-.265625-.84375-.265625-1.96875.0-1.046875.265625-1.890625.28125-.84375.796875-1.421875.515625-.59375 1.234375-.90625.734375-.328125 1.640625-.328125.96875.0 1.640625.3125.6875.3125 1.125.84375.4375.515625.640625 1.234375.203125.703125.203125 1.5v.265625zm-1.515625-.4375q.03125-1.1875-.53125-1.859375-.546875-.671875-1.625-.671875-.5625.0-.984375.21875-.40625.203125-.6875.546875t-.4375.8125q-.15625.453125-.171875.953125h4.4375zm5.298195 4.890625q0 .078125-.03125.140625-.03125.046875-.125.078125-.078125.03125-.21875.046875t-.375.015625q-.21875.0-.375-.015625-.140625-.015625-.234375-.046875-.078125-.03125-.109375-.078125-.03125-.0625-.03125-.140625v-12.15625q0-.078125.03125-.125.03125-.0625.109375-.09375.09375-.046875.234375-.0625.15625-.015625.375-.015625.234375.0.375.015625t.21875.0625q.09375.03125.125.09375.03125.046875.03125.125v12.15625zm4.2814636.0q0 .078125-.03125.140625-.03125.046875-.125.078125-.078125.03125-.21875.046875t-.375.015625q-.21875.0-.375-.015625-.140625-.015625-.234375-.046875-.078125-.03125-.109375-.078125-.03125-.0625-.03125-.140625v-8.1875q0-.0625.03125-.109375.03125-.0625.109375-.09375.09375-.046875.234375-.0625.15625-.015625.375-.015625.234375.0.375.015625t.21875.0625q.09375.03125.125.09375.03125.046875.03125.109375v8.1875zm.171875-10.96875q0 .53125-.203125.734375-.1875.1875-.734375.1875-.515625.0-.71875-.1875-.1875-.1875-.1875-.703125.0-.53125.1875-.71875.203125-.203125.75-.203125.515625.0.703125.1875.203125.1875.203125.703125zm9.672089 10.96875q0 .078125-.046875.140625-.03125.046875-.109375.078125t-.234375.046875q-.140625.015625-.359375.015625t-.375-.015625q-.140625-.015625-.234375-.046875-.078125-.03125-.109375-.078125-.03125-.0625-.03125-.140625v-4.796875q0-.703125-.109375-1.125-.109375-.4375-.328125-.734375-.203125-.3125-.546875-.46875-.328125-.171875-.765625-.171875-.5625.0-1.125.40625-.5625.390625-1.1875 1.171875v5.71875q0 .078125-.03125.140625-.03125.046875-.125.078125-.078125.03125-.21875.046875t-.375.015625q-.21875.0-.375-.015625-.140625-.015625-.234375-.046875-.078125-.03125-.109375-.078125-.03125-.0625-.03125-.140625v-8.1875q0-.078125.03125-.125t.109375-.09375.203125-.046875q.140625-.015625.34375-.015625t.328125.015625q.140625.0.203125.046875.078125.046875.109375.09375t.03125.125v1.078125q.6875-.765625 1.375-1.125.6875-.375 1.390625-.375.828125.0 1.375.28125.5625.28125.90625.75.359375.46875.5 1.09375.15625.609375.15625 1.484375v5zm9.739319-4.453125q0 .359375-.1875.515625-.171875.140625-.390625.140625h-5.375q0 .6875.125 1.234375.140625.546875.453125.9375.328125.390625.828125.609375.515625.203125 1.25.203125.59375.0 1.046875-.09375t.78125-.203125q.34375-.125.546875-.21875.21875-.109375.328125-.109375.0625.0.109375.03125.0625.03125.078125.109375.03125.0625.046875.171875t.015625.28125q0 .109375-.015625.203125.0.078125-.015625.15625-.015625.0625-.046875.125-.03125.046875-.09375.09375-.046875.046875-.296875.171875-.234375.109375-.625.21875t-.90625.1875q-.515625.09375-1.09375.09375-1.015625.0-1.78125-.28125t-1.28125-.828125q-.515625-.5625-.78125-1.390625-.265625-.84375-.265625-1.96875.0-1.046875.265625-1.890625.28125-.84375.796875-1.421875.515625-.59375 1.234375-.90625.734375-.328125 1.640625-.328125.96875.0 1.640625.3125.6875.3125 1.125.84375.4375.515625.640625 1.234375.203125.703125.203125 1.5v.265625zm-1.515625-.4375q.03125-1.1875-.53125-1.859375-.546875-.671875-1.625-.671875-.5625.0-.984375.21875-.40625.203125-.6875.546875t-.4375.8125q-.15625.453125-.171875.953125h4.4375z" fill-rule="nonzero"/><path fill="#000" fill-opacity="0" d="m112 10.291339h576v67.2126H112z" fill-rule="evenodd"/><path fill="#a64d79" d="m155.5664 35.847588q0 .375-.046875.65625-.03125.28125-.109375.46875t-.203125.265625q-.109375.078125-.25.078125-.234375.0-.78125-.359375-.546875-.375-1.46875-.828125-.90625-.453125-2.1875-.8125-1.28125-.375-3.03125-.375-2.09375.0-3.765625.765625-1.65625.75-2.8125 2.109375-1.140625 1.34375-1.765625 3.203125-.609375 1.84375-.609375 4.015625.0 2.421875.671875 4.296875t1.859375 3.171875q1.203125 1.28125 2.84375 1.953125 1.65625.65625 3.625.65625 1.171875.0 2.375-.28125t2.234375-.859375v-7.359375h-5.859375q-.328125.0-.5-.328125-.15625-.328125-.15625-1.03125.0-.375.03125-.640625.046875-.265625.125-.421875.09375-.171875.203125-.25.125-.078125.296875-.078125h8.03125q.21875.0.421875.078125.21875.078125.390625.234375.1875.15625.28125.4375.09375.265625.09375.609375v9.640625q0 .5-.171875.875t-.75.65625q-.5625.28125-1.46875.609375-.890625.328125-1.84375.578125-.953125.234375-1.9375.34375-.96875.125-1.921875.125-2.9375.0-5.25-.90625-2.296875-.921875-3.890625-2.59375-1.59375-1.6875-2.4375-4.03125-.828125-2.34375-.828125-5.234375.0-3 .90625-5.4375.90625-2.453125 2.546875-4.171875 1.65625-1.71875 3.96875-2.65625 2.328125-.953125 5.140625-.953125 1.4375.0 2.703125.25 1.28125.25 2.265625.59375t1.65625.75q.671875.390625.921875.65625.265625.25.359375.578125t.09375.953125zm20.3125 20.453125q0 .359375-.046875.625-.03125.25-.125.4375-.09375.171875-.234375.25-.125.078125-.28125.078125h-12.125q-.453125.0-.859375-.296875-.390625-.3125-.390625-1.078125v-22.53125q0-.765625.390625-1.0625.40625-.3125.859375-.3125h12q.15625.0.28125.078125t.203125.265625q.078125.171875.125.4375t.046875.65625q0 .34375-.046875.609375t-.125.4375q-.078125.15625-.203125.234375t-.28125.078125h-9.890625v7.9375h8.484375q.15625.0.28125.09375.125.078125.203125.234375.09375.15625.125.4375.046875.265625.046875.640625.0.34375-.046875.609375-.03125.25-.125.40625-.078125.15625-.203125.21875t-.28125.0625h-8.484375v9.046875H175.1914q.15625.0.28125.078125.140625.078125.234375.25.09375.15625.125.421875.046875.265625.046875.65625zm24.578125.0q0 .390625-.140625.671875-.125.265625-.328125.453125-.203125.171875-.453125.25t-.515625.078125h-1.0625q-.515625.0-.90625-.109375-.375-.109375-.71875-.390625-.328125-.28125-.671875-.765625-.34375-.5-.75-1.265625l-7.96875-14.375q-.625-1.109375-1.265625-2.328125t-1.1875-2.375h-.03125q.03125 1.40625.046875 2.875.03125 1.46875.03125 2.90625v15.25q0 .140625-.078125.265625t-.265625.203125q-.1875.0625-.5.109375-.296875.0625-.765625.0625t-.765625-.0625q-.296875-.046875-.484375-.109375-.171875-.078125-.25-.203125t-.078125-.265625v-23.3125q0-.78125.421875-1.109375.4375-.34375.953125-.34375h1.59375q.5625.0.9375.109375.390625.09375.6875.328125.3125.21875.59375.625.28125.390625.609375 1l6.140625 11.09375q.5625 1.015625 1.09375 1.984375.53125.953125 1.015625 1.890625t.953125 1.859375q.484375.90625.953125 1.8125h.03125q-.046875-1.53125-.0625-3.203125.0-1.671875.0-3.21875V32.988213q0-.140625.078125-.25.078125-.125.265625-.203125.1875-.09375.484375-.125.296875-.046875.796875-.046875.421875.0.734375.046875.3125.03125.484375.125.1875.078125.265625.203125.078125.109375.078125.25v23.3125zm20.773438.0q0 .359375-.046875.625-.03125.25-.125.4375-.09375.171875-.234375.25-.125.078125-.28125.078125h-12.125q-.453125.0-.859375-.296875-.390625-.3125-.390625-1.078125v-22.53125q0-.765625.390625-1.0625.40625-.3125.859375-.3125h12q.15625.0.28125.078125t.203125.265625q.078125.171875.125.4375t.046875.65625q0 .34375-.046875.609375t-.125.4375q-.078125.15625-.203125.234375t-.28125.078125h-9.890625v7.9375h8.484375q.15625.0.28125.09375.125.078125.203125.234375.09375.15625.125.4375.046875.265625.046875.640625.0.34375-.046875.609375-.03125.25-.125.40625-.078125.15625-.203125.21875t-.28125.0625h-8.484375v9.046875h10.015625q.15625.0.28125.078125.140625.078125.234375.25.09375.15625.125.421875.046875.265625.046875.65625zm22.328125.875q0 .15625-.0625.28125-.0625.109375-.265625.203125-.1875.078125-.546875.109375-.34375.046875-.921875.046875-.515625.0-.84375-.046875-.3125-.03125-.515625-.125-.1875-.09375-.296875-.25t-.1875-.390625l-2.3125-5.953125q-.421875-1.015625-.859375-1.859375-.4375-.859375-1.046875-1.46875-.59375-.625-1.421875-.953125-.8125-.34375-1.96875-.34375h-2.25v10.75q0 .15625-.09375.28125-.078125.109375-.265625.1875-.1875.0625-.515625.109375-.3125.0625-.796875.0625-.5.0-.828125-.0625-.3125-.046875-.515625-.109375-.1875-.078125-.265625-.1875-.078125-.125-.078125-.28125V33.785088q0-.765625.390625-1.0625.40625-.3125.859375-.3125h5.375q.953125.0 1.578125.0625.640625.046875 1.15625.09375 1.46875.265625 2.578125.8125 1.125.546875 1.890625 1.390625.765625.828125 1.140625 1.921875.390625 1.078125.390625 2.390625.0 1.265625-.34375 2.28125-.34375 1-1 1.765625-.640625.765625-1.546875 1.34375-.890625.5625-2 .953125.625.265625 1.125.6875.515625.421875.953125 1.015625.4375.578125.828125 1.34375t.78125 1.71875l2.265625 5.5625q.28125.703125.359375.984375t.078125.4375zm-5.0625-17.75q0-1.484375-.671875-2.5-.65625-1.03125-2.21875-1.484375-.484375-.140625-1.109375-.1875-.609375-.0625-1.609375-.0625h-2.828125v8.515625h3.28125q1.328125.0 2.296875-.3125.96875-.328125 1.609375-.90625t.9375-1.359375q.3125-.78125.3125-1.703125zm28.84375 17.078125q.15625.421875.171875.6875t-.140625.40625-.53125.171875q-.359375.046875-.953125.046875-.609375.0-.96875-.03125t-.546875-.09375q-.1875-.078125-.28125-.1875-.078125-.125-.15625-.296875l-2.171875-6.15625h-10.515625l-2.0625 6.078125q-.0625.171875-.15625.296875t-.28125.21875-.53125.125q-.34375.046875-.890625.046875-.5625.0-.921875-.0625-.359375-.046875-.515625-.171875-.140625-.140625-.140625-.40625.015625-.265625.171875-.703125l8.484375-23.46875q.078125-.21875.203125-.34375.125-.140625.359375-.21875.25-.078125.625-.109375.390625-.03125.96875-.03125.625.0 1.03125.03125.421875.03125.671875.109375t.390625.21875.21875.359375l8.46875 23.484375zm-10.875-20.734375h-.015625l-4.359375 12.609375h8.796875l-4.421875-12.609375zm28.207031 20.453125q0 .390625-.046875.65625-.03125.265625-.125.453125-.078125.1875-.21875.28125-.125.078125-.296875.078125h-11.171875q-.453125.0-.859375-.296875-.390625-.3125-.390625-1.078125V32.925713q0-.15625.078125-.265625.078125-.125.265625-.1875.203125-.078125.53125-.125.34375-.046875.8125-.046875.484375.0.796875.046875.328125.046875.515625.125.203125.0625.28125.1875.078125.109375.078125.265625v21.859375h9.0625q.171875.0.296875.09375.140625.078125.21875.25.09375.15625.125.4375.046875.265625.046875.65625zm31.671875.28125q.15625.421875.171875.6875t-.140625.40625-.53125.171875q-.359375.046875-.953125.046875-.609375.0-.96875-.03125t-.546875-.09375q-.1875-.078125-.28125-.1875-.078125-.125-.15625-.296875l-2.171875-6.15625h-10.515625l-2.0625 6.078125q-.0625.171875-.15625.296875t-.28125.21875-.53125.125q-.34375.046875-.890625.046875-.5625.0-.921875-.0625-.359375-.046875-.515625-.171875-.140625-.140625-.140625-.40625.015625-.265625.171875-.703125l8.484375-23.46875q.078125-.21875.203125-.34375.125-.140625.359375-.21875.25-.078125.625-.109375.390625-.03125.96875-.03125.625.0 1.03125.03125.421875.03125.671875.109375t.390625.21875.21875.359375l8.46875 23.484375zm-10.875-20.734375h-.015625l-4.359375 12.609375h8.796875l-4.421875-12.609375zm34.535156 8.90625q0 3.28125-.84375 5.734375t-2.453125 4.0625-3.953125 2.421875q-2.34375.796875-5.578125.796875H321.8164q-.453125.0-.859375-.296875-.390625-.3125-.390625-1.078125v-22.53125q0-.765625.390625-1.0625.40625-.3125.859375-.3125h5.71875q3.28125.0 5.546875.859375 2.265625.84375 3.796875 2.4375 1.546875 1.59375 2.328125 3.859375.796875 2.265625.796875 5.109375zm-3.53125.140625q0-2.046875-.515625-3.8125-.5-1.765625-1.59375-3.046875-1.078125-1.296875-2.75-2.015625-1.65625-.734375-4.265625-.734375h-3.421875v19.671875h3.453125q2.421875.0 4.078125-.609375 1.671875-.609375 2.78125-1.859375t1.671875-3.125q.5625-1.890625.5625-4.46875zm27.625 11.6875q.15625.421875.171875.6875t-.140625.40625-.53125.171875q-.359375.046875-.953125.046875-.609375.0-.96875-.03125t-.546875-.09375q-.1875-.078125-.28125-.1875-.078125-.125-.15625-.296875l-2.171875-6.15625H348.0039l-2.0625 6.078125q-.0625.171875-.15625.296875t-.28125.21875-.53125.125q-.34375.046875-.890625.046875-.5625.0-.921875-.0625-.359375-.046875-.515625-.171875-.140625-.140625-.140625-.40625.015625-.265625.171875-.703125l8.484375-23.46875q.078125-.21875.203125-.34375.125-.140625.359375-.21875.25-.078125.625-.109375.390625-.03125.96875-.03125.625.0 1.03125.03125.421875.03125.671875.109375t.390625.21875.21875.359375l8.46875 23.484375zm-10.875-20.734375h-.015625l-4.359375 12.609375h8.796875l-4.421875-12.609375zm30.628906 4.046875q0 1.890625-.625 3.421875-.625 1.515625-1.796875 2.59375-1.15625 1.078125-2.84375 1.671875-1.6875.578125-4.03125.578125h-2.875v9.09375q0 .15625-.09375.28125-.078125.109375-.265625.1875-.1875.0625-.515625.109375-.3125.0625-.796875.0625-.5.0-.828125-.0625-.3125-.046875-.515625-.109375-.1875-.078125-.265625-.1875-.078125-.125-.078125-.28125v-23.3125q0-.78125.40625-1.109375.421875-.34375.921875-.34375h5.40625q.828125.0 1.578125.078125.75.0625 1.765625.296875 1.03125.21875 2.09375.84375 1.078125.609375 1.8125 1.515625.75.890625 1.140625 2.078125.40625 1.171875.40625 2.59375zm-3.53125.28125q0-1.546875-.578125-2.578125-.578125-1.046875-1.4375-1.546875-.84375-.515625-1.75-.640625-.90625-.140625-1.765625-.140625h-3.109375v10.140625h3.03125q1.515625.0 2.515625-.390625 1.015625-.390625 1.703125-1.078125.6875-.703125 1.03125-1.671875.359375-.96875.359375-2.09375zm24.507812-6.234375q0 .375-.046875.65625-.03125.265625-.125.4375-.078125.15625-.21875.234375-.125.078125-.28125.078125h-7.109375v21.90625q0 .15625-.078125.28125-.078125.109375-.28125.1875-.1875.0625-.515625.109375-.3125.0625-.796875.0625-.46875.0-.8125-.0625-.328125-.046875-.53125-.109375-.1875-.078125-.265625-.1875-.078125-.125-.078125-.28125v-21.90625h-7.109375q-.15625.0-.28125-.078125t-.203125-.234375q-.078125-.171875-.125-.4375-.046875-.28125-.046875-.65625t.046875-.65625.125-.453125q.078125-.1875.203125-.265625t.28125-.078125h17.578125q.15625.0.28125.078125.140625.078125.21875.265625.09375.171875.125.453125.046875.28125.046875.65625zm7.0078125 23.3125q0 .15625-.078125.28125-.078125.109375-.28125.1875-.1875.0625-.515625.109375-.3125.0625-.796875.0625-.46875.0-.8125-.0625-.328125-.046875-.53125-.109375-.1875-.078125-.265625-.1875-.078125-.125-.078125-.28125v-24.25q0-.15625.078125-.265625.09375-.125.296875-.1875.21875-.078125.53125-.125.328125-.046875.78125-.046875.484375.0.796875.046875.328125.046875.515625.125.203125.0625.28125.1875.078125.109375.078125.265625v24.25zm27.890625-12.421875q0 3.078125-.71875 5.546875-.71875 2.453125-2.15625 4.1875-1.4375 1.71875-3.609375 2.65625-2.171875.921875-5.0625.921875-2.84375.0-4.921875-.84375-2.078125-.859375-3.4375-2.484375t-2.03125-4.015625q-.65625-2.40625-.65625-5.53125.0-2.984375.71875-5.421875.71875-2.453125 2.15625-4.15625 1.453125-1.71875 3.625-2.640625t5.0625-.921875q2.796875.0 4.859375.84375 2.078125.828125 3.453125 2.4375t2.046875 3.984375.671875 5.4375zm-3.53125.234375q0-2.140625-.390625-3.984375-.375-1.84375-1.265625-3.203125t-2.375-2.125-3.671875-.765625-3.671875.828125q-1.484375.8125-2.40625 2.1875-.921875 1.359375-1.328125 3.1875t-.40625 3.84375q0 2.21875.375 4.09375t1.25 3.234375 2.34375 2.109375q1.484375.75 3.71875.75 2.203125.0 3.703125-.8125 1.5-.828125 2.421875-2.21875t1.3125-3.21875q.390625-1.84375.390625-3.90625zm27.953125 11.3125q0 .390625-.140625.671875-.125.265625-.328125.453125-.203125.171875-.453125.25t-.515625.078125h-1.0625q-.515625.0-.90625-.109375-.375-.109375-.71875-.390625-.328125-.28125-.671875-.765625-.34375-.5-.75-1.265625l-7.96875-14.375q-.625-1.109375-1.265625-2.328125t-1.1875-2.375h-.03125q.03125 1.40625.046875 2.875.03125 1.46875.03125 2.90625v15.25q0 .140625-.078125.265625t-.265625.203125q-.1875.0625-.5.109375-.296875.0625-.765625.0625t-.765625-.0625q-.296875-.046875-.484375-.109375-.171875-.078125-.25-.203125t-.078125-.265625v-23.3125q0-.78125.421875-1.109375.4375-.34375.953125-.34375h1.59375q.5625.0.9375.109375.390625.09375.6875.328125.3125.21875.59375.625.28125.390625.609375 1l6.140625 11.09375q.5625 1.015625 1.09375 1.984375.53125.953125 1.015625 1.890625t.953125 1.859375q.484375.90625.953125 1.8125h.03125q-.046875-1.53125-.0625-3.203125.0-1.671875.0-3.21875V32.988213q0-.140625.078125-.25.078125-.125.265625-.203125.1875-.09375.484375-.125.296875-.046875.796875-.046875.421875.0.734375.046875.3125.03125.484375.125.1875.078125.265625.203125.078125.109375.078125.25v23.3125zm29.332031-5.703125q0 1.78125-.65625 3.171875-.65625 1.375-1.828125 2.34375-1.15625.96875-2.734375 1.46875-1.5625.484375-3.375.484375-1.265625.0-2.359375-.21875-1.078125-.21875-1.9375-.53125-.84375-.3125-1.421875-.640625t-.796875-.5625-.328125-.59375q-.109375-.375-.109375-.96875.0-.4375.03125-.71875.046875-.28125.125-.453125.078125-.1875.1875-.25.125-.0625.28125-.0625.265625.0.765625.328125t1.28125.71875 1.875.734375q1.109375.34375 2.5625.34375 1.09375.0 2-.296875t1.5625-.828125 1-1.3125q.359375-.78125.359375-1.78125.0-1.078125-.5-1.828125-.484375-.765625-1.28125-1.34375t-1.828125-1.046875q-1.015625-.484375-2.09375-.984375t-2.09375-1.109375-1.8125-1.421875q-.796875-.828125-1.296875-1.921875-.5-1.109375-.5-2.65625.0-1.578125.578125-2.8125.578125-1.25 1.59375-2.078125 1.03125-.84375 2.4375-1.28125 1.421875-.4375 3.0625-.4375.84375.0 1.6875.140625.859375.140625 1.609375.390625t1.328125.546875q.59375.296875.78125.484375t.234375.296875q.0625.109375.09375.28125.046875.15625.0625.390625.03125.234375.03125.609375.0.34375-.03125.625-.03125.265625-.09375.453125t-.171875.28125q-.09375.078125-.234375.078125-.21875.0-.6875-.265625-.453125-.28125-1.125-.609375-.65625-.34375-1.5625-.625-.90625-.296875-2.03125-.296875-1.0625.0-1.84375.296875-.78125.28125-1.296875.75-.5.46875-.75 1.109375t-.25 1.359375q0 1.0625.484375 1.828125.484375.75 1.296875 1.34375.8125.578125 1.84375 1.078125 1.03125.484375 2.109375.984375t2.109375 1.09375 1.84375 1.40625 1.3125 1.921875q.5 1.09375.5 2.59375zm12.863281-2.734375v9.3125q0 .15625-.078125.28125-.078125.109375-.28125.1875-.1875.0625-.515625.109375-.328125.0625-.796875.0625-.484375.0-.8125-.0625-.328125-.046875-.53125-.109375-.203125-.078125-.28125-.1875-.078125-.125-.078125-.28125v-9.3125l-7.140625-14.25q-.21875-.453125-.265625-.703125-.046875-.265625.09375-.390625.140625-.140625.515625-.171875.390625-.046875 1.03125-.046875.59375.0.953125.046875.359375.03125.578125.109375.21875.0625.3125.1875.109375.125.21875.3125l3.484375 7.265625q.5 1.046875.984375 2.1875.484375 1.125 1 2.265625h.03125q.453125-1.109375.921875-2.203125.484375-1.109375.96875-2.1875l3.515625-7.296875q.0625-.203125.171875-.328125.109375-.140625.296875-.203125.1875-.078125.515625-.109375.328125-.046875.84375-.046875.703125.0 1.09375.046875.40625.046875.5625.1875t.109375.390625-.265625.6875l-7.15625 14.25zm30.539062 8.4375q0 .390625-.140625.671875-.125.265625-.328125.453125-.203125.171875-.453125.25t-.515625.078125h-1.0625q-.515625.0-.90625-.109375-.375-.109375-.71875-.390625-.328125-.28125-.671875-.765625-.34375-.5-.75-1.265625l-7.96875-14.375q-.625-1.109375-1.265625-2.328125t-1.1875-2.375h-.03125q.03125 1.40625.046875 2.875.03125 1.46875.03125 2.90625v15.25q0 .140625-.078125.265625t-.265625.203125q-.1875.0625-.5.109375-.296875.0625-.765625.0625t-.765625-.0625q-.296875-.046875-.484375-.109375-.171875-.078125-.25-.203125t-.078125-.265625v-23.3125q0-.78125.421875-1.109375.4375-.34375.953125-.34375h1.59375q.5625.0.9375.109375.390625.09375.6875.328125.3125.21875.59375.625.28125.390625.609375 1l6.140625 11.09375q.5625 1.015625 1.09375 1.984375.53125.953125 1.015625 1.890625t.953125 1.859375q.484375.90625.953125 1.8125h.03125q-.046875-1.53125-.0625-3.203125.0-1.671875.0-3.21875V32.988213q0-.140625.078125-.25.078125-.125.265625-.203125.1875-.09375.484375-.125.296875-.046875.796875-.046875.421875.0.734375.046875.3125.03125.484375.125.1875.078125.265625.203125.078125.109375.078125.25v23.3125zm26.148438-11.625q0 3.28125-.84375 5.734375t-2.453125 4.0625-3.953125 2.421875q-2.34375.796875-5.578125.796875h-5.359375q-.453125.0-.859375-.296875-.390625-.3125-.390625-1.078125v-22.53125q0-.765625.390625-1.0625.40625-.3125.859375-.3125h5.71875q3.28125.0 5.546875.859375 2.265625.84375 3.796875 2.4375 1.546875 1.59375 2.328125 3.859375.796875 2.265625.796875 5.109375zm-3.53125.140625q0-2.046875-.515625-3.8125-.5-1.765625-1.59375-3.046875-1.078125-1.296875-2.75-2.015625-1.65625-.734375-4.265625-.734375h-3.421875v19.671875h3.453125q2.421875.0 4.078125-.609375 1.671875-.609375 2.78125-1.859375t1.671875-3.125q.5625-1.890625.5625-4.46875zm25.5625 12.359375q0 .15625-.0625.28125-.0625.109375-.265625.203125-.1875.078125-.546875.109375-.34375.046875-.921875.046875-.515625.0-.84375-.046875-.3125-.03125-.515625-.125-.1875-.09375-.296875-.25t-.1875-.390625l-2.3125-5.953125q-.421875-1.015625-.859375-1.859375-.4375-.859375-1.046875-1.46875-.59375-.625-1.421875-.953125-.8125-.34375-1.96875-.34375h-2.25v10.75q0 .15625-.09375.28125-.078125.109375-.265625.1875-.1875.0625-.515625.109375-.3125.0625-.796875.0625-.5.0-.828125-.0625-.3125-.046875-.515625-.109375-.1875-.078125-.265625-.1875-.078125-.125-.078125-.28125V33.785088q0-.765625.390625-1.0625.40625-.3125.859375-.3125h5.375q.953125.0 1.578125.0625.640625.046875 1.15625.09375 1.46875.265625 2.578125.8125 1.125.546875 1.890625 1.390625.765625.828125 1.140625 1.921875.390625 1.078125.390625 2.390625.0 1.265625-.34375 2.28125-.34375 1-1 1.765625-.640625.765625-1.546875 1.34375-.890625.5625-2 .953125.625.265625 1.125.6875.515625.421875.953125 1.015625.4375.578125.828125 1.34375t.78125 1.71875l2.265625 5.5625q.28125.703125.359375.984375t.078125.4375zm-5.0625-17.75q0-1.484375-.671875-2.5-.65625-1.03125-2.21875-1.484375-.484375-.140625-1.109375-.1875-.609375-.0625-1.609375-.0625h-2.828125v8.515625h3.28125q1.328125.0 2.296875-.3125.96875-.328125 1.609375-.90625t.9375-1.359375q.3125-.78125.3125-1.703125zm31.09375 5.328125q0 3.078125-.71875 5.546875-.71875 2.453125-2.15625 4.1875-1.4375 1.71875-3.609375 2.65625-2.171875.921875-5.0625.921875-2.84375.0-4.921875-.84375-2.078125-.859375-3.4375-2.484375t-2.03125-4.015625q-.65625-2.40625-.65625-5.53125.0-2.984375.71875-5.421875.71875-2.453125 2.15625-4.15625 1.453125-1.71875 3.625-2.640625t5.0625-.921875q2.796875.0 4.859375.84375 2.078125.828125 3.453125 2.4375t2.046875 3.984375.671875 5.4375zm-3.53125.234375q0-2.140625-.390625-3.984375-.375-1.84375-1.265625-3.203125t-2.375-2.125-3.671875-.765625-3.671875.828125q-1.484375.8125-2.40625 2.1875-.921875 1.359375-1.328125 3.1875t-.40625 3.84375q0 2.21875.375 4.09375t1.25 3.234375 2.34375 2.109375q1.484375.75 3.71875.75 2.203125.0 3.703125-.8125 1.5-.828125 2.421875-2.21875t1.3125-3.21875q.390625-1.84375.390625-3.90625zm36.328125 12.1875q0 .15625-.078125.28125-.078125.109375-.28125.1875-.1875.0625-.5.109375-.296875.0625-.78125.0625-.453125.0-.78125-.0625-.3125-.046875-.5-.109375-.1875-.078125-.265625-.1875-.078125-.125-.078125-.28125v-22h-.03125l-9.015625 22.109375q-.046875.125-.15625.234375-.109375.09375-.3125.171875-.203125.0625-.5.09375-.28125.03125-.671875.03125-.40625.0-.703125-.046875-.28125-.03125-.484375-.09375-.1875-.078125-.296875-.171875-.109375-.109375-.15625-.21875l-8.609375-22.109375h-.015625v22q0 .15625-.078125.28125-.078125.109375-.28125.1875-.1875.0625-.5.109375-.3125.0625-.796875.0625-.46875.0-.78125-.0625-.3125-.046875-.5-.109375-.1875-.078125-.265625-.1875-.0625-.125-.0625-.28125V33.941338q0-.828125.421875-1.171875.4375-.359375.96875-.359375h2.03125q.625.0 1.09375.125.46875.109375.8125.375.359375.25.59375.640625t.40625.921875l7.328125 18.296875h.09375l7.625-18.25q.203125-.578125.453125-.984375.265625-.421875.5625-.65625.3125-.25.671875-.359375.375-.109375.859375-.109375h2.140625q.28125.0.546875.09375t.453125.28125q.1875.171875.296875.46875.125.28125.125.6875v23.234375zm20.777344-.875q0 .359375-.046875.625-.03125.25-.125.4375-.09375.171875-.234375.25-.125.078125-.28125.078125h-12.125q-.453125.0-.859375-.296875-.390625-.3125-.390625-1.078125v-22.53125q0-.765625.390625-1.0625.40625-.3125.859375-.3125h12q.15625.0.28125.078125t.203125.265625q.078125.171875.125.4375t.046875.65625q0 .34375-.046875.609375t-.125.4375q-.078125.15625-.203125.234375t-.28125.078125h-9.890625v7.9375h8.484375q.15625.0.28125.09375.125.078125.203125.234375.09375.15625.125.4375.046875.265625.046875.640625.0.34375-.046875.609375-.03125.25-.125.40625-.078125.15625-.203125.21875t-.28125.0625h-8.484375v9.046875h10.015625q.15625.0.28125.078125.140625.078125.234375.25.09375.15625.125.421875.046875.265625.046875.65625z" fill-rule="nonzero"/></g></svg>