<svg version="1.1" viewBox="0.0 0.0 800.0 600.0" fill="none" stroke="none" stroke-linecap="square" stroke-miterlimit="10" xmlns:xlink="http://www.w3.org/1999/xlink" xmlns="http://www.w3.org/2000/svg"><clipPath id="p.0"><path d="m0 0l800.0 0l0 600.0l-800.0 0l0 -600.0z" clip-rule="nonzero"/></clipPath><g clip-path="url(#p.0)"><path fill="#000000" fill-opacity="0.0" d="m0 0l800.0 0l0 600.0l-800.0 0z" fill-rule="evenodd"/><path fill="#c9daf8" d="m195.53018 267.1706l15.125992 -60.50392l360.7401 0l15.126038 60.50392z" fill-rule="evenodd"/><path stroke="#000000" stroke-width="2.0" stroke-linejoin="round" stroke-linecap="butt" d="m195.53018 267.1706l15.125992 -60.50392l360.7401 0l15.126038 60.50392z" fill-rule="evenodd"/><path fill="#000000" d="m372.2754 231.69698l0 1.5625l-4.078125 0l0 11.359375l-1.8125 0l0 -11.359375l-4.0625 0l0 -1.5625l9.953125 0zm0.21725464 8.09375q0 -1.296875 0.375 -2.25q0.375 -0.96875 0.984375 -1.59375q0.609375 -0.640625 1.40625 -0.953125q0.8125 -0.3125 1.65625 -0.3125q1.953125 0 3.0 1.21875q1.046875 1.21875 1.046875 3.71875q0 0.109375 0 0.296875q0 0.171875 -0.015625 0.3125l-6.640625 0q0.109375 1.515625 0.875 2.296875q0.765625 0.78125 2.390625 0.78125q0.90625 0 1.53125 -0.15625q0.625 -0.15625 0.9375 -0.296875l0.25 1.453125q-0.3125 0.15625 -1.109375 0.34375q-0.796875 0.1875 -1.796875 0.1875q-1.265625 0 -2.203125 -0.375q-0.921875 -0.390625 -1.515625 -1.0625q-0.59375 -0.671875 -0.890625 -1.59375q-0.28125 -0.921875 -0.28125 -2.015625zm6.65625 -0.953125q0.015625 -1.171875 -0.59375 -1.921875q-0.59375 -0.765625 -1.65625 -0.765625q-0.609375 0 -1.0625 0.234375q-0.453125 0.234375 -0.78125 0.609375q-0.3125 0.375 -0.484375 0.859375q-0.171875 0.484375 -0.234375 0.984375l4.8125 0zm4.319458 -3.640625q0.59375 -0.15625 1.5625 -0.3125q0.984375 -0.171875 2.265625 -0.171875q0.9375 0 1.5625 0.25q0.640625 0.25 1.078125 0.734375q0.125 -0.09375 0.40625 -0.25q0.28125 -0.171875 0.6875 -0.328125q0.421875 -0.15625 0.921875 -0.28125q0.5 -0.125 1.078125 -0.125q1.125 0 1.828125 0.328125q0.703125 0.328125 1.109375 0.921875q0.40625 0.59375 0.546875 1.421875q0.140625 0.8125 0.140625 1.78125l0 5.453125l-1.734375 0l0 -5.078125q0 -0.859375 -0.09375 -1.46875q-0.078125 -0.609375 -0.3125 -1.015625q-0.234375 -0.421875 -0.640625 -0.609375q-0.390625 -0.203125 -1.03125 -0.203125q-0.875 0 -1.453125 0.234375q-0.5625 0.234375 -0.765625 0.421875q0.15625 0.484375 0.21875 1.0625q0.078125 0.578125 0.078125 1.203125l0 5.453125l-1.734375 0l0 -5.078125q0 -0.859375 -0.09375 -1.46875q-0.09375 -0.609375 -0.328125 -1.015625q-0.234375 -0.421875 -0.640625 -0.609375q-0.390625 -0.203125 -1.0 -0.203125q-0.265625 0 -0.5625 0.015625q-0.296875 0.015625 -0.578125 0.046875q-0.265625 0.03125 -0.5 0.078125q-0.21875 0.03125 -0.28125 0.046875l0 8.1875l-1.734375 0l0 -9.421875zm22.797424 4.59375q0 -1.703125 -0.84375 -2.609375q-0.84375 -0.921875 -2.234375 -0.921875q-0.796875 0 -1.234375 0.0625q-0.4375 0.046875 -0.6875 0.125l0 6.125q0.3125 0.25 0.90625 0.5q0.59375 0.234375 1.3125 0.234375q0.734375 0 1.265625 -0.265625q0.53125 -0.265625 0.859375 -0.734375q0.34375 -0.484375 0.5 -1.125q0.15625 -0.640625 0.15625 -1.390625zm1.796875 0q0 1.09375 -0.296875 2.03125q-0.28125 0.9375 -0.84375 1.609375q-0.546875 0.671875 -1.359375 1.046875q-0.8125 0.359375 -1.859375 0.359375q-0.84375 0 -1.484375 -0.21875q-0.640625 -0.21875 -0.953125 -0.421875l0 3.875l-1.734375 0l0 -12.859375q0.609375 -0.140625 1.53125 -0.3125q0.921875 -0.1875 2.140625 -0.1875q1.109375 0 2.0 0.359375q0.90625 0.34375 1.53125 1.0q0.640625 0.65625 0.984375 1.609375q0.34375 0.9375 0.34375 2.109375zm11.019775 -0.015625q0 1.15625 -0.34375 2.09375q-0.328125 0.921875 -0.9375 1.59375q-0.609375 0.671875 -1.453125 1.046875q-0.828125 0.359375 -1.828125 0.359375q-0.984375 0 -1.828125 -0.359375q-0.84375 -0.375 -1.453125 -1.046875q-0.59375 -0.671875 -0.9375 -1.59375q-0.328125 -0.9375 -0.328125 -2.09375q0 -1.140625 0.328125 -2.078125q0.34375 -0.953125 0.9375 -1.625q0.609375 -0.671875 1.453125 -1.03125q0.84375 -0.359375 1.828125 -0.359375q1.0 0 1.828125 0.359375q0.84375 0.359375 1.453125 1.03125q0.609375 0.671875 0.9375 1.625q0.34375 0.9375 0.34375 2.078125zm-1.8125 0q0 -1.65625 -0.75 -2.609375q-0.734375 -0.953125 -2.0 -0.953125q-1.265625 0 -2.0 0.953125q-0.734375 0.953125 -0.734375 2.609375q0 1.640625 0.734375 2.609375q0.734375 0.953125 2.0 0.953125q1.265625 0 2.0 -0.953125q0.75 -0.96875 0.75 -2.609375z" fill-rule="nonzero"/><path fill="#a4c2f4" d="m180.7769 327.67093l15.125992 -60.503937l390.22046 0l15.125977 60.503937z" fill-rule="evenodd"/><path stroke="#000000" stroke-width="2.0" stroke-linejoin="round" stroke-linecap="butt" d="m180.7769 327.67093l15.125992 -60.503937l390.22046 0l15.125977 60.503937z" fill-rule="evenodd"/><path fill="#000000" d="m345.96057 299.65823q0.3125 0.375 0.765625 0.984375q0.453125 0.59375 0.9375 1.34375q0.484375 0.734375 0.953125 1.53125q0.484375 0.796875 0.828125 1.546875l-1.984375 0q-0.375 -0.703125 -0.8125 -1.4375q-0.4375 -0.734375 -0.890625 -1.390625q-0.4375 -0.65625 -0.875 -1.234375q-0.4375 -0.578125 -0.796875 -1.015625q-0.25 0.015625 -0.5 0.015625q-0.25 0 -0.515625 0l-1.609375 0l0 5.0625l-1.8125 0l0 -12.75q0.765625 -0.171875 1.703125 -0.234375q0.9375 -0.078125 1.71875 -0.078125q2.734375 0 4.15625 1.03125q1.421875 1.03125 1.421875 3.0625q0 1.28125 -0.6875 2.203125q-0.671875 0.90625 -2.0 1.359375zm-2.734375 -6.0625q-1.15625 0 -1.765625 0.046875l0 4.875l1.28125 0q0.9375 0 1.671875 -0.09375q0.75 -0.09375 1.265625 -0.34375q0.515625 -0.265625 0.796875 -0.734375q0.28125 -0.484375 0.28125 -1.28125q0 -0.71875 -0.28125 -1.203125q-0.28125 -0.484375 -0.765625 -0.765625q-0.46875 -0.28125 -1.125 -0.390625q-0.640625 -0.109375 -1.359375 -0.109375zm7.5003967 6.640625q0 -1.296875 0.375 -2.25q0.375 -0.96875 0.984375 -1.59375q0.609375 -0.640625 1.40625 -0.953125q0.8125 -0.3125 1.65625 -0.3125q1.953125 0 3.0 1.21875q1.046875 1.21875 1.046875 3.71875q0 0.109375 0 0.296875q0 0.171875 -0.015625 0.3125l-6.640625 0q0.109375 1.515625 0.875 2.296875q0.765625 0.78125 2.390625 0.78125q0.90625 0 1.53125 -0.15625q0.625 -0.15625 0.9375 -0.296875l0.25 1.453125q-0.3125 0.15625 -1.109375 0.34375q-0.796875 0.1875 -1.796875 0.1875q-1.265625 0 -2.203125 -0.375q-0.921875 -0.390625 -1.515625 -1.0625q-0.59375 -0.671875 -0.890625 -1.59375q-0.28125 -0.921875 -0.28125 -2.015625zm6.65625 -0.953125q0.015625 -1.171875 -0.59375 -1.921875q-0.59375 -0.765625 -1.65625 -0.765625q-0.609375 0 -1.0625 0.234375q-0.453125 0.234375 -0.78125 0.609375q-0.3125 0.375 -0.484375 0.859375q-0.171875 0.484375 -0.234375 0.984375l4.8125 0zm6.5694885 4.53125q1.0625 0 1.578125 -0.28125q0.515625 -0.28125 0.515625 -0.890625q0 -0.640625 -0.515625 -1.015625q-0.5 -0.375 -1.65625 -0.828125q-0.5625 -0.234375 -1.078125 -0.46875q-0.5 -0.234375 -0.875 -0.546875q-0.375 -0.3125 -0.609375 -0.765625q-0.21875 -0.453125 -0.21875 -1.09375q0 -1.296875 0.953125 -2.046875q0.953125 -0.75 2.59375 -0.75q0.40625 0 0.8125 0.046875q0.421875 0.046875 0.765625 0.109375q0.359375 0.0625 0.625 0.140625q0.28125 0.0625 0.4375 0.125l-0.328125 1.5q-0.28125 -0.15625 -0.875 -0.3125q-0.59375 -0.15625 -1.4375 -0.15625q-0.71875 0 -1.265625 0.296875q-0.546875 0.28125 -0.546875 0.890625q0 0.3125 0.125 0.5625q0.125 0.234375 0.375 0.4375q0.25 0.203125 0.625 0.375q0.375 0.15625 0.890625 0.34375q0.6875 0.265625 1.234375 0.515625q0.546875 0.25 0.921875 0.59375q0.390625 0.328125 0.59375 0.8125q0.203125 0.46875 0.203125 1.15625q0 1.34375 -1.0 2.03125q-1.0 0.6875 -2.84375 0.6875q-1.28125 0 -2.015625 -0.21875q-0.734375 -0.203125 -0.984375 -0.3125l0.3125 -1.5q0.296875 0.109375 0.953125 0.34375q0.65625 0.21875 1.734375 0.21875zm7.6800537 -8.453125l3.6875 0l0 1.453125l-3.6875 0l0 4.484375q0 0.71875 0.109375 1.203125q0.125 0.46875 0.34375 0.75q0.21875 0.265625 0.546875 0.375q0.34375 0.109375 0.796875 0.109375q0.78125 0 1.25 -0.171875q0.484375 -0.171875 0.671875 -0.25l0.328125 1.4375q-0.25 0.125 -0.90625 0.3125q-0.65625 0.203125 -1.5 0.203125q-0.984375 0 -1.625 -0.25q-0.640625 -0.25 -1.03125 -0.75q-0.390625 -0.515625 -0.5625 -1.25q-0.15625 -0.734375 -0.15625 -1.703125l0 -8.65625l1.734375 -0.296875l0 3.0zm16.934418 4.875q0 -1.703125 -0.84375 -2.609375q-0.84375 -0.921875 -2.234375 -0.921875q-0.796875 0 -1.234375 0.0625q-0.4375 0.046875 -0.6875 0.125l0 6.125q0.3125 0.25 0.90625 0.5q0.59375 0.234375 1.3125 0.234375q0.734375 0 1.265625 -0.265625q0.53125 -0.265625 0.859375 -0.734375q0.34375 -0.484375 0.5 -1.125q0.15625 -0.640625 0.15625 -1.390625zm1.796875 0q0 1.09375 -0.296875 2.03125q-0.28125 0.9375 -0.84375 1.609375q-0.546875 0.671875 -1.359375 1.046875q-0.8125 0.359375 -1.859375 0.359375q-0.84375 0 -1.484375 -0.21875q-0.640625 -0.21875 -0.953125 -0.421875l0 3.875l-1.734375 0l0 -12.859375q0.609375 -0.140625 1.53125 -0.3125q0.921875 -0.1875 2.140625 -0.1875q1.109375 0 2.0 0.359375q0.90625 0.34375 1.53125 1.0q0.640625 0.65625 0.984375 1.609375q0.34375 0.9375 0.34375 2.109375zm1.9104309 0q0 -1.296875 0.375 -2.25q0.375 -0.96875 0.984375 -1.59375q0.609375 -0.640625 1.40625 -0.953125q0.8125 -0.3125 1.65625 -0.3125q1.953125 0 3.0 1.21875q1.046875 1.21875 1.046875 3.71875q0 0.109375 0 0.296875q0 0.171875 -0.015625 0.3125l-6.640625 0q0.109375 1.515625 0.875 2.296875q0.765625 0.78125 2.390625 0.78125q0.90625 0 1.53125 -0.15625q0.625 -0.15625 0.9375 -0.296875l0.25 1.453125q-0.3125 0.15625 -1.109375 0.34375q-0.796875 0.1875 -1.796875 0.1875q-1.265625 0 -2.203125 -0.375q-0.921875 -0.390625 -1.515625 -1.0625q-0.59375 -0.671875 -0.890625 -1.59375q-0.28125 -0.921875 -0.28125 -2.015625zm6.65625 -0.953125q0.015625 -1.171875 -0.59375 -1.921875q-0.59375 -0.765625 -1.65625 -0.765625q-0.609375 0 -1.0625 0.234375q-0.453125 0.234375 -0.78125 0.609375q-0.3125 0.375 -0.484375 0.859375q-0.171875 0.484375 -0.234375 0.984375l4.8125 0zm7.897583 -4.125q0.21875 0 0.5 0.03125q0.296875 0.03125 0.578125 0.078125q0.28125 0.046875 0.515625 0.09375q0.234375 0.046875 0.34375 0.078125l-0.296875 1.515625q-0.203125 -0.078125 -0.6875 -0.171875q-0.46875 -0.109375 -1.21875 -0.109375q-0.484375 0 -0.96875 0.109375q-0.46875 0.09375 -0.609375 0.125l0 8.15625l-1.734375 0l0 -9.296875q0.609375 -0.21875 1.515625 -0.40625q0.921875 -0.203125 2.0625 -0.203125zm5.3575745 9.90625l-1.734375 0l0 -9.703125l1.734375 0l0 9.703125zm-0.890625 -11.453125q-0.453125 0 -0.78125 -0.3125q-0.328125 -0.3125 -0.328125 -0.828125q0 -0.515625 0.328125 -0.828125q0.328125 -0.3125 0.78125 -0.3125q0.46875 0 0.796875 0.3125q0.328125 0.3125 0.328125 0.828125q0 0.515625 -0.328125 0.828125q-0.328125 0.3125 -0.796875 0.3125zm12.438782 6.609375q0 1.15625 -0.34375 2.09375q-0.328125 0.921875 -0.9375 1.59375q-0.609375 0.671875 -1.453125 1.046875q-0.828125 0.359375 -1.828125 0.359375q-0.984375 0 -1.828125 -0.359375q-0.84375 -0.375 -1.453125 -1.046875q-0.59375 -0.671875 -0.9375 -1.59375q-0.328125 -0.9375 -0.328125 -2.09375q0 -1.140625 0.328125 -2.078125q0.34375 -0.953125 0.9375 -1.625q0.609375 -0.671875 1.453125 -1.03125q0.84375 -0.359375 1.828125 -0.359375q1.0 0 1.828125 0.359375q0.84375 0.359375 1.453125 1.03125q0.609375 0.671875 0.9375 1.625q0.34375 0.9375 0.34375 2.078125zm-1.8125 0q0 -1.65625 -0.75 -2.609375q-0.734375 -0.953125 -2.0 -0.953125q-1.265625 0 -2.0 0.953125q-0.734375 0.953125 -0.734375 2.609375q0 1.640625 0.734375 2.609375q0.734375 0.953125 2.0 0.953125q1.265625 0 2.0 -0.953125q0.75 -0.96875 0.75 -2.609375zm10.522797 -2.8125q-0.328125 -0.25 -0.921875 -0.484375q-0.59375 -0.25 -1.296875 -0.25q-0.75 0 -1.28125 0.265625q-0.53125 0.265625 -0.875 0.75q-0.328125 0.46875 -0.484375 1.125q-0.140625 0.65625 -0.140625 1.40625q0 1.6875 0.828125 2.609375q0.84375 0.921875 2.25 0.921875q0.703125 0 1.171875 -0.0625q0.484375 -0.0625 0.75 -0.140625l0 -6.140625zm0 -6.515625l1.734375 -0.3125l0 14.203125q-0.59375 0.171875 -1.53125 0.328125q-0.9375 0.171875 -2.140625 0.171875q-1.125 0 -2.03125 -0.34375q-0.890625 -0.359375 -1.53125 -1.015625q-0.625 -0.65625 -0.96875 -1.59375q-0.34375 -0.9375 -0.34375 -2.109375q0 -1.125 0.28125 -2.046875q0.296875 -0.9375 0.859375 -1.609375q0.5625 -0.671875 1.359375 -1.046875q0.8125 -0.375 1.859375 -0.375q0.84375 0 1.484375 0.21875q0.640625 0.21875 0.96875 0.4375l0 -4.90625zm6.972931 12.921875q1.0625 0 1.578125 -0.28125q0.515625 -0.28125 0.515625 -0.890625q0 -0.640625 -0.515625 -1.015625q-0.5 -0.375 -1.65625 -0.828125q-0.5625 -0.234375 -1.078125 -0.46875q-0.5 -0.234375 -0.875 -0.546875q-0.375 -0.3125 -0.609375 -0.765625q-0.21875 -0.453125 -0.21875 -1.09375q0 -1.296875 0.953125 -2.046875q0.953125 -0.75 2.59375 -0.75q0.40625 0 0.8125 0.046875q0.421875 0.046875 0.765625 0.109375q0.359375 0.0625 0.625 0.140625q0.28125 0.0625 0.4375 0.125l-0.328125 1.5q-0.28125 -0.15625 -0.875 -0.3125q-0.59375 -0.15625 -1.4375 -0.15625q-0.71875 0 -1.265625 0.296875q-0.546875 0.28125 -0.546875 0.890625q0 0.3125 0.125 0.5625q0.125 0.234375 0.375 0.4375q0.25 0.203125 0.625 0.375q0.375 0.15625 0.890625 0.34375q0.6875 0.265625 1.234375 0.515625q0.546875 0.25 0.921875 0.59375q0.390625 0.328125 0.59375 0.8125q0.203125 0.46875 0.203125 1.15625q0 1.34375 -1.0 2.03125q-1.0 0.6875 -2.84375 0.6875q-1.28125 0 -2.015625 -0.21875q-0.734375 -0.203125 -0.984375 -0.3125l0.3125 -1.5q0.296875 0.109375 0.953125 0.34375q0.65625 0.21875 1.734375 0.21875z" fill-rule="nonzero"/><path fill="#6d9eeb" d="m166.02368 388.17114l15.125992 -60.503937l419.7323 0l15.125977 60.503937z" fill-rule="evenodd"/><path stroke="#000000" stroke-width="2.0" stroke-linejoin="round" stroke-linecap="butt" d="m166.02368 388.17114l15.125992 -60.503937l419.7323 0l15.125977 60.503937z" fill-rule="evenodd"/><path fill="#000000" d="m317.16068 365.51712l0 -12.921875l7.890625 0l0 1.546875l-6.078125 0l0 3.84375l5.40625 0l0 1.5l-5.40625 0l0 4.484375l6.546875 0l0 1.546875l-8.359375 0zm16.50824 0q-0.203125 -0.40625 -0.5 -0.90625q-0.296875 -0.515625 -0.65625 -1.046875q-0.359375 -0.53125 -0.734375 -1.046875q-0.375 -0.53125 -0.71875 -1.0q-0.359375 0.46875 -0.734375 1.0q-0.375 0.53125 -0.71875 1.0625q-0.34375 0.53125 -0.640625 1.046875q-0.296875 0.5 -0.5 0.890625l-1.796875 0q0.65625 -1.265625 1.5625 -2.578125q0.90625 -1.328125 1.796875 -2.515625l-3.203125 -4.609375l1.953125 0l2.3125 3.390625l2.328125 -3.390625l1.859375 0l-3.140625 4.5q0.890625 1.203125 1.828125 2.5625q0.953125 1.359375 1.609375 2.640625l-1.90625 0zm2.797577 -4.828125q0 -1.296875 0.375 -2.25q0.375 -0.96875 0.984375 -1.59375q0.609375 -0.640625 1.40625 -0.953125q0.8125 -0.3125 1.65625 -0.3125q1.953125 0 3.0 1.21875q1.046875 1.21875 1.046875 3.71875q0 0.109375 0 0.296875q0 0.171875 -0.015625 0.3125l-6.640625 0q0.109375 1.515625 0.875 2.296875q0.765625 0.78125 2.390625 0.78125q0.90625 0 1.53125 -0.15625q0.625 -0.15625 0.9375 -0.296875l0.25 1.453125q-0.3125 0.15625 -1.109375 0.34375q-0.796875 0.1875 -1.796875 0.1875q-1.265625 0 -2.203125 -0.375q-0.921875 -0.390625 -1.515625 -1.0625q-0.59375 -0.671875 -0.890625 -1.59375q-0.28125 -0.921875 -0.28125 -2.015625zm6.65625 -0.953125q0.015625 -1.171875 -0.59375 -1.921875q-0.59375 -0.765625 -1.65625 -0.765625q-0.609375 0 -1.0625 0.234375q-0.453125 0.234375 -0.78125 0.609375q-0.3125 0.375 -0.484375 0.859375q-0.171875 0.484375 -0.234375 0.984375l4.8125 0zm7.8976135 -4.125q0.21875 0 0.5 0.03125q0.296875 0.03125 0.578125 0.078125q0.28125 0.046875 0.515625 0.09375q0.234375 0.046875 0.34375 0.078125l-0.296875 1.515625q-0.203125 -0.078125 -0.6875 -0.171875q-0.46875 -0.109375 -1.21875 -0.109375q-0.484375 0 -0.96875 0.109375q-0.46875 0.09375 -0.609375 0.125l0 8.15625l-1.734375 0l0 -9.296875q0.609375 -0.21875 1.515625 -0.40625q0.921875 -0.203125 2.0625 -0.203125zm7.826294 10.125q-1.171875 0 -2.0625 -0.359375q-0.875 -0.375 -1.484375 -1.046875q-0.609375 -0.671875 -0.90625 -1.59375q-0.296875 -0.9375 -0.296875 -2.046875q0 -1.125 0.328125 -2.046875q0.328125 -0.9375 0.921875 -1.609375q0.59375 -0.6875 1.453125 -1.0625q0.875 -0.390625 1.9375 -0.390625q0.65625 0 1.3125 0.109375q0.65625 0.109375 1.25 0.34375l-0.390625 1.484375q-0.390625 -0.1875 -0.90625 -0.296875q-0.515625 -0.109375 -1.09375 -0.109375q-1.453125 0 -2.234375 0.921875q-0.765625 0.90625 -0.765625 2.65625q0 0.78125 0.171875 1.4375q0.171875 0.640625 0.546875 1.109375q0.390625 0.46875 0.984375 0.71875q0.609375 0.25 1.46875 0.25q0.6875 0 1.25 -0.125q0.5625 -0.125 0.875 -0.28125l0.234375 1.453125q-0.140625 0.09375 -0.421875 0.1875q-0.28125 0.078125 -0.640625 0.140625q-0.34375 0.0625 -0.75 0.109375q-0.40625 0.046875 -0.78125 0.046875zm6.206421 -0.21875l-1.734375 0l0 -9.703125l1.734375 0l0 9.703125zm-0.890625 -11.453125q-0.453125 0 -0.78125 -0.3125q-0.328125 -0.3125 -0.328125 -0.828125q0 -0.515625 0.328125 -0.828125q0.328125 -0.3125 0.78125 -0.3125q0.46875 0 0.796875 0.3125q0.328125 0.3125 0.328125 0.828125q0 0.515625 -0.328125 0.828125q-0.328125 0.3125 -0.796875 0.3125zm6.1262817 10.203125q1.0625 0 1.578125 -0.28125q0.515625 -0.28125 0.515625 -0.890625q0 -0.640625 -0.515625 -1.015625q-0.5 -0.375 -1.65625 -0.828125q-0.5625 -0.234375 -1.078125 -0.46875q-0.5 -0.234375 -0.875 -0.546875q-0.375 -0.3125 -0.609375 -0.765625q-0.21875 -0.453125 -0.21875 -1.09375q0 -1.296875 0.953125 -2.046875q0.953125 -0.75 2.59375 -0.75q0.40625 0 0.8125 0.046875q0.421875 0.046875 0.765625 0.109375q0.359375 0.0625 0.625 0.140625q0.28125 0.0625 0.4375 0.125l-0.328125 1.5q-0.28125 -0.15625 -0.875 -0.3125q-0.59375 -0.15625 -1.4375 -0.15625q-0.71875 0 -1.265625 0.296875q-0.546875 0.28125 -0.546875 0.890625q0 0.3125 0.125 0.5625q0.125 0.234375 0.375 0.4375q0.25 0.203125 0.625 0.375q0.375 0.15625 0.890625 0.34375q0.6875 0.265625 1.234375 0.515625q0.546875 0.25 0.921875 0.59375q0.390625 0.328125 0.59375 0.8125q0.203125 0.46875 0.203125 1.15625q0 1.34375 -1.0 2.03125q-1.0 0.6875 -2.84375 0.6875q-1.28125 0 -2.015625 -0.21875q-0.734375 -0.203125 -0.984375 -0.3125l0.3125 -1.5q0.296875 0.109375 0.953125 0.34375q0.65625 0.21875 1.734375 0.21875zm5.5238037 -3.578125q0 -1.296875 0.375 -2.25q0.375 -0.96875 0.984375 -1.59375q0.609375 -0.640625 1.40625 -0.953125q0.8125 -0.3125 1.65625 -0.3125q1.953125 0 3.0 1.21875q1.046875 1.21875 1.046875 3.71875q0 0.109375 0 0.296875q0 0.171875 -0.015625 0.3125l-6.640625 0q0.109375 1.515625 0.875 2.296875q0.765625 0.78125 2.390625 0.78125q0.90625 0 1.53125 -0.15625q0.625 -0.15625 0.9375 -0.296875l0.25 1.453125q-0.3125 0.15625 -1.109375 0.34375q-0.796875 0.1875 -1.796875 0.1875q-1.265625 0 -2.203125 -0.375q-0.921875 -0.390625 -1.515625 -1.0625q-0.59375 -0.671875 -0.890625 -1.59375q-0.28125 -0.921875 -0.28125 -2.015625zm6.65625 -0.953125q0.015625 -1.171875 -0.59375 -1.921875q-0.59375 -0.765625 -1.65625 -0.765625q-0.609375 0 -1.0625 0.234375q-0.453125 0.234375 -0.78125 0.609375q-0.3125 0.375 -0.484375 0.859375q-0.171875 0.484375 -0.234375 0.984375l4.8125 0zm10.879089 4.53125q1.0625 0 1.578125 -0.28125q0.515625 -0.28125 0.515625 -0.890625q0 -0.640625 -0.515625 -1.015625q-0.5 -0.375 -1.65625 -0.828125q-0.5625 -0.234375 -1.078125 -0.46875q-0.5 -0.234375 -0.875 -0.546875q-0.375 -0.3125 -0.609375 -0.765625q-0.21875 -0.453125 -0.21875 -1.09375q0 -1.296875 0.953125 -2.046875q0.953125 -0.75 2.59375 -0.75q0.40625 0 0.8125 0.046875q0.421875 0.046875 0.765625 0.109375q0.359375 0.0625 0.625 0.140625q0.28125 0.0625 0.4375 0.125l-0.328125 1.5q-0.28125 -0.15625 -0.875 -0.3125q-0.59375 -0.15625 -1.4375 -0.15625q-0.71875 0 -1.265625 0.296875q-0.546875 0.28125 -0.546875 0.890625q0 0.3125 0.125 0.5625q0.125 0.234375 0.375 0.4375q0.25 0.203125 0.625 0.375q0.375 0.15625 0.890625 0.34375q0.6875 0.265625 1.234375 0.515625q0.546875 0.25 0.921875 0.59375q0.390625 0.328125 0.59375 0.8125q0.203125 0.46875 0.203125 1.15625q0 1.34375 -1.0 2.03125q-1.0 0.6875 -2.84375 0.6875q-1.28125 0 -2.015625 -0.21875q-0.734375 -0.203125 -0.984375 -0.3125l0.3125 -1.5q0.296875 0.109375 0.953125 0.34375q0.65625 0.21875 1.734375 0.21875zm5.5238037 -3.578125q0 -1.296875 0.375 -2.25q0.375 -0.96875 0.984375 -1.59375q0.609375 -0.640625 1.40625 -0.953125q0.8125 -0.3125 1.65625 -0.3125q1.953125 0 3.0 1.21875q1.046875 1.21875 1.046875 3.71875q0 0.109375 0 0.296875q0 0.171875 -0.015625 0.3125l-6.640625 0q0.109375 1.515625 0.875 2.296875q0.765625 0.78125 2.390625 0.78125q0.90625 0 1.53125 -0.15625q0.625 -0.15625 0.9375 -0.296875l0.25 1.453125q-0.3125 0.15625 -1.109375 0.34375q-0.796875 0.1875 -1.796875 0.1875q-1.265625 0 -2.203125 -0.375q-0.921875 -0.390625 -1.515625 -1.0625q-0.59375 -0.671875 -0.890625 -1.59375q-0.28125 -0.921875 -0.28125 -2.015625zm6.65625 -0.953125q0.015625 -1.171875 -0.59375 -1.921875q-0.59375 -0.765625 -1.65625 -0.765625q-0.609375 0 -1.0625 0.234375q-0.453125 0.234375 -0.78125 0.609375q-0.3125 0.375 -0.484375 0.859375q-0.171875 0.484375 -0.234375 0.984375l4.8125 0zm7.2257385 5.96875q-1.609375 -0.03125 -2.28125 -0.6875q-0.671875 -0.65625 -0.671875 -2.03125l0 -11.640625l1.734375 -0.3125l0 11.671875q0 0.421875 0.078125 0.703125q0.078125 0.28125 0.234375 0.453125q0.171875 0.15625 0.453125 0.25q0.28125 0.078125 0.6875 0.140625l-0.234375 1.453125zm1.6400146 -5.015625q0 -1.296875 0.375 -2.25q0.375 -0.96875 0.984375 -1.59375q0.609375 -0.640625 1.40625 -0.953125q0.8125 -0.3125 1.65625 -0.3125q1.953125 0 3.0 1.21875q1.046875 1.21875 1.046875 3.71875q0 0.109375 0 0.296875q0 0.171875 -0.015625 0.3125l-6.640625 0q0.109375 1.515625 0.875 2.296875q0.765625 0.78125 2.390625 0.78125q0.90625 0 1.53125 -0.15625q0.625 -0.15625 0.9375 -0.296875l0.25 1.453125q-0.3125 0.15625 -1.109375 0.34375q-0.796875 0.1875 -1.796875 0.1875q-1.265625 0 -2.203125 -0.375q-0.921875 -0.390625 -1.515625 -1.0625q-0.59375 -0.671875 -0.890625 -1.59375q-0.28125 -0.921875 -0.28125 -2.015625zm6.65625 -0.953125q0.015625 -1.171875 -0.59375 -1.921875q-0.59375 -0.765625 -1.65625 -0.765625q-0.609375 0 -1.0625 0.234375q-0.453125 0.234375 -0.78125 0.609375q-0.3125 0.375 -0.484375 0.859375q-0.171875 0.484375 -0.234375 0.984375l4.8125 0zm8.522614 6.0q-1.171875 0 -2.0625 -0.359375q-0.875 -0.375 -1.484375 -1.046875q-0.609375 -0.671875 -0.90625 -1.59375q-0.296875 -0.9375 -0.296875 -2.046875q0 -1.125 0.328125 -2.046875q0.328125 -0.9375 0.921875 -1.609375q0.59375 -0.6875 1.453125 -1.0625q0.875 -0.390625 1.9375 -0.390625q0.65625 0 1.3125 0.109375q0.65625 0.109375 1.25 0.34375l-0.390625 1.484375q-0.390625 -0.1875 -0.90625 -0.296875q-0.515625 -0.109375 -1.09375 -0.109375q-1.453125 0 -2.234375 0.921875q-0.765625 0.90625 -0.765625 2.65625q0 0.78125 0.171875 1.4375q0.171875 0.640625 0.546875 1.109375q0.390625 0.46875 0.984375 0.71875q0.609375 0.25 1.46875 0.25q0.6875 0 1.25 -0.125q0.5625 -0.125 0.875 -0.28125l0.23434448 1.453125q-0.14059448 0.09375 -0.42184448 0.1875q-0.28125 0.078125 -0.640625 0.140625q-0.34375 0.0625 -0.75 0.109375q-0.40625 0.046875 -0.78125 0.046875zm6.0813904 -9.921875l3.6875 0l0 1.453125l-3.6875 0l0 4.484375q0 0.71875 0.109375 1.203125q0.125 0.46875 0.34375 0.75q0.21875 0.265625 0.546875 0.375q0.34375 0.109375 0.796875 0.109375q0.78125 0 1.25 -0.171875q0.484375 -0.171875 0.671875 -0.25l0.328125 1.4375q-0.25 0.125 -0.90625 0.3125q-0.65625 0.203125 -1.5 0.203125q-0.984375 0 -1.625 -0.25q-0.640625 -0.25 -1.03125 -0.75q-0.390625 -0.515625 -0.5625 -1.25q-0.15625 -0.734375 -0.15625 -1.703125l0 -8.65625l1.734375 -0.296875l0 3.0zm7.624817 9.703125l-1.734375 0l0 -9.703125l1.734375 0l0 9.703125zm-0.890625 -11.453125q-0.453125 0 -0.78125 -0.3125q-0.328125 -0.3125 -0.328125 -0.828125q0 -0.515625 0.328125 -0.828125q0.328125 -0.3125 0.78125 -0.3125q0.46875 0 0.796875 0.3125q0.328125 0.3125 0.328125 0.828125q0 0.515625 -0.328125 0.828125q-0.328125 0.3125 -0.796875 0.3125zm12.438782 6.609375q0 1.15625 -0.34375 2.09375q-0.328125 0.921875 -0.9375 1.59375q-0.609375 0.671875 -1.453125 1.046875q-0.828125 0.359375 -1.828125 0.359375q-0.984375 0 -1.828125 -0.359375q-0.84375 -0.375 -1.453125 -1.046875q-0.59375 -0.671875 -0.9375 -1.59375q-0.328125 -0.9375 -0.328125 -2.09375q0 -1.140625 0.328125 -2.078125q0.34375 -0.953125 0.9375 -1.625q0.609375 -0.671875 1.453125 -1.03125q0.84375 -0.359375 1.828125 -0.359375q1.0 0 1.828125 0.359375q0.84375 0.359375 1.453125 1.03125q0.609375 0.671875 0.9375 1.625q0.34375 0.9375 0.34375 2.078125zm-1.8125 0q0 -1.65625 -0.75 -2.609375q-0.734375 -0.953125 -2.0 -0.953125q-1.265625 0 -2.0 0.953125q-0.734375 0.953125 -0.734375 2.609375q0 1.640625 0.734375 2.609375q0.734375 0.953125 2.0 0.953125q1.265625 0 2.0 -0.953125q0.75 -0.96875 0.75 -2.609375zm4.257202 -4.578125q0.59375 -0.15625 1.578125 -0.3125q0.984375 -0.171875 2.28125 -0.171875q1.15625 0 1.921875 0.328125q0.765625 0.328125 1.21875 0.921875q0.453125 0.578125 0.640625 1.40625q0.1875 0.8125 0.1875 1.796875l0 5.453125l-1.734375 0l0 -5.078125q0 -0.890625 -0.125 -1.515625q-0.125 -0.640625 -0.40625 -1.03125q-0.265625 -0.390625 -0.734375 -0.5625q-0.46875 -0.1875 -1.15625 -0.1875q-0.28125 0 -0.578125 0.015625q-0.296875 0.015625 -0.578125 0.046875q-0.265625 0.03125 -0.484375 0.078125q-0.203125 0.03125 -0.296875 0.046875l0 8.1875l-1.734375 0l0 -9.421875z" fill-rule="nonzero"/><path fill="#cfe2f3" d="m151.27048 448.6713l15.125977 -60.503937l450.7244 0l15.125977 60.503937z" fill-rule="evenodd"/><path stroke="#000000" stroke-width="2.0" stroke-linejoin="round" stroke-linecap="butt" d="m151.27048 448.6713l15.125977 -60.503937l450.7244 0l15.125977 60.503937z" fill-rule="evenodd"/><path fill="#000000" d="m346.26877 412.91107q2.734375 0 4.1875 1.046875q1.46875 1.03125 1.46875 3.078125q0 1.125 -0.40625 1.921875q-0.390625 0.78125 -1.15625 1.28125q-0.75 0.484375 -1.828125 0.71875q-1.078125 0.21875 -2.453125 0.21875l-1.421875 0l0 4.796875l-1.8125 0l0 -12.75q0.765625 -0.171875 1.703125 -0.234375q0.9375 -0.078125 1.71875 -0.078125zm0.15625 1.59375q-1.15625 0 -1.765625 0.046875l0 5.078125l1.359375 0q0.921875 0 1.671875 -0.109375q0.75 -0.125 1.265625 -0.40625q0.515625 -0.296875 0.78125 -0.796875q0.28125 -0.515625 0.28125 -1.296875q0 -0.75 -0.296875 -1.234375q-0.28125 -0.484375 -0.78125 -0.765625q-0.484375 -0.296875 -1.140625 -0.40625q-0.65625 -0.109375 -1.375 -0.109375zm11.233643 1.5625q0.21875 0 0.5 0.03125q0.296875 0.03125 0.578125 0.078125q0.28125 0.046875 0.515625 0.09375q0.234375 0.046875 0.34375 0.078125l-0.296875 1.515625q-0.203125 -0.078125 -0.6875 -0.171875q-0.46875 -0.109375 -1.21875 -0.109375q-0.484375 0 -0.96875 0.109375q-0.46875 0.09375 -0.609375 0.125l0 8.15625l-1.734375 0l0 -9.296875q0.609375 -0.21875 1.515625 -0.40625q0.921875 -0.203125 2.0625 -0.203125zm12.185669 5.0625q0 1.15625 -0.34375 2.09375q-0.328125 0.921875 -0.9375 1.59375q-0.609375 0.671875 -1.453125 1.046875q-0.828125 0.359375 -1.828125 0.359375q-0.984375 0 -1.828125 -0.359375q-0.84375 -0.375 -1.453125 -1.046875q-0.59375 -0.671875 -0.9375 -1.59375q-0.328125 -0.9375 -0.328125 -2.09375q0 -1.140625 0.328125 -2.078125q0.34375 -0.953125 0.9375 -1.625q0.609375 -0.671875 1.453125 -1.03125q0.84375 -0.359375 1.828125 -0.359375q1.0 0 1.828125 0.359375q0.84375 0.359375 1.453125 1.03125q0.609375 0.671875 0.9375 1.625q0.34375 0.9375 0.34375 2.078125zm-1.8125 0q0 -1.65625 -0.75 -2.609375q-0.734375 -0.953125 -2.0 -0.953125q-1.265625 0 -2.0 0.953125q-0.734375 0.953125 -0.734375 2.609375q0 1.640625 0.734375 2.609375q0.734375 0.953125 2.0 0.953125q1.265625 0 2.0 -0.953125q0.75 -0.96875 0.75 -2.609375zm10.335327 3.875q-0.234375 0.140625 -0.875 0.375q-0.640625 0.234375 -1.5 0.234375q-0.875 0 -1.65625 -0.28125q-0.765625 -0.28125 -1.34375 -0.859375q-0.578125 -0.59375 -0.921875 -1.46875q-0.328125 -0.875 -0.328125 -2.09375q0 -1.0625 0.3125 -1.9375q0.3125 -0.890625 0.921875 -1.53125q0.609375 -0.640625 1.484375 -1.0q0.875 -0.375 1.984375 -0.375q1.203125 0 2.109375 0.1875q0.90625 0.171875 1.53125 0.3125l0 8.65625q0 2.25 -1.15625 3.25q-1.15625 1.0 -3.515625 1.0q-0.90625 0 -1.71875 -0.15625q-0.8125 -0.140625 -1.40625 -0.34375l0.3125 -1.5q0.515625 0.203125 1.265625 0.359375q0.765625 0.15625 1.59375 0.15625q1.546875 0 2.21875 -0.625q0.6875 -0.609375 0.6875 -1.953125l0 -0.40625zm-0.015625 -7.203125q-0.265625 -0.078125 -0.703125 -0.140625q-0.4375 -0.0625 -1.1875 -0.0625q-1.40625 0 -2.15625 0.921875q-0.75 0.90625 -0.75 2.421875q0 0.828125 0.203125 1.4375q0.21875 0.59375 0.578125 0.984375q0.375 0.390625 0.84375 0.578125q0.484375 0.1875 0.984375 0.1875q0.6875 0 1.265625 -0.1875q0.578125 -0.203125 0.921875 -0.46875l0 -5.671875zm8.29892 -1.734375q0.21875 0 0.5 0.03125q0.296875 0.03125 0.578125 0.078125q0.28125 0.046875 0.515625 0.09375q0.234375 0.046875 0.34375 0.078125l-0.296875 1.515625q-0.203125 -0.078125 -0.6875 -0.171875q-0.46875 -0.109375 -1.21875 -0.109375q-0.484375 0 -0.96875 0.109375q-0.46875 0.09375 -0.609375 0.125l0 8.15625l-1.734375 0l0 -9.296875q0.609375 -0.21875 1.515625 -0.40625q0.921875 -0.203125 2.0625 -0.203125zm3.0763245 5.078125q0 -1.296875 0.375 -2.25q0.375 -0.96875 0.984375 -1.59375q0.609375 -0.640625 1.40625 -0.953125q0.8125 -0.3125 1.65625 -0.3125q1.953125 0 3.0 1.21875q1.046875 1.21875 1.046875 3.71875q0 0.109375 0 0.296875q0 0.171875 -0.015625 0.3125l-6.640625 0q0.109375 1.515625 0.875 2.296875q0.765625 0.78125 2.390625 0.78125q0.90625 0 1.53125 -0.15625q0.625 -0.15625 0.9375 -0.296875l0.25 1.453125q-0.3125 0.15625 -1.109375 0.34375q-0.796875 0.1875 -1.796875 0.1875q-1.265625 0 -2.203125 -0.375q-0.921875 -0.390625 -1.515625 -1.0625q-0.59375 -0.671875 -0.890625 -1.59375q-0.28125 -0.921875 -0.28125 -2.015625zm6.65625 -0.953125q0.015625 -1.171875 -0.59375 -1.921875q-0.59375 -0.765625 -1.65625 -0.765625q-0.609375 0 -1.0625 0.234375q-0.453125 0.234375 -0.78125 0.609375q-0.3125 0.375 -0.484375 0.859375q-0.171875 0.484375 -0.234375 0.984375l4.8125 0zm6.569458 4.53125q1.0625 0 1.578125 -0.28125q0.515625 -0.28125 0.515625 -0.890625q0 -0.640625 -0.515625 -1.015625q-0.5 -0.375 -1.65625 -0.828125q-0.5625 -0.234375 -1.078125 -0.46875q-0.5 -0.234375 -0.875 -0.546875q-0.375 -0.3125 -0.609375 -0.765625q-0.21875 -0.453125 -0.21875 -1.09375q0 -1.296875 0.953125 -2.046875q0.953125 -0.75 2.59375 -0.75q0.40625 0 0.8125 0.046875q0.421875 0.046875 0.765625 0.109375q0.359375 0.0625 0.625 0.140625q0.28125 0.0625 0.4375 0.125l-0.328125 1.5q-0.28125 -0.15625 -0.875 -0.3125q-0.59375 -0.15625 -1.4375 -0.15625q-0.71875 0 -1.265625 0.296875q-0.546875 0.28125 -0.546875 0.890625q0 0.3125 0.125 0.5625q0.125 0.234375 0.375 0.4375q0.25 0.203125 0.625 0.375q0.375 0.15625 0.890625 0.34375q0.6875 0.265625 1.234375 0.515625q0.546875 0.25 0.921875 0.59375q0.390625 0.328125 0.59375 0.8125q0.203125 0.46875 0.203125 1.15625q0 1.34375 -1.0 2.03125q-1.0 0.6875 -2.84375 0.6875q-1.28125 0 -2.015625 -0.21875q-0.734375 -0.203125 -0.984375 -0.3125l0.3125 -1.5q0.296875 0.109375 0.953125 0.34375q0.65625 0.21875 1.734375 0.21875zm8.320709 0q1.0625 0 1.578125 -0.28125q0.515625 -0.28125 0.515625 -0.890625q0 -0.640625 -0.515625 -1.015625q-0.5 -0.375 -1.65625 -0.828125q-0.5625 -0.234375 -1.078125 -0.46875q-0.5 -0.234375 -0.875 -0.546875q-0.375 -0.3125 -0.609375 -0.765625q-0.21875 -0.453125 -0.21875 -1.09375q0 -1.296875 0.953125 -2.046875q0.953125 -0.75 2.59375 -0.75q0.40625 0 0.8125 0.046875q0.421875 0.046875 0.765625 0.109375q0.359375 0.0625 0.625 0.140625q0.28125 0.0625 0.4375 0.125l-0.328125 1.5q-0.28125 -0.15625 -0.875 -0.3125q-0.59375 -0.15625 -1.4375 -0.15625q-0.71875 0 -1.265625 0.296875q-0.546875 0.28125 -0.546875 0.890625q0 0.3125 0.125 0.5625q0.125 0.234375 0.375 0.4375q0.25 0.203125 0.625 0.375q0.375 0.15625 0.890625 0.34375q0.6875 0.265625 1.234375 0.515625q0.546875 0.25 0.921875 0.59375q0.390625 0.328125 0.59375 0.8125q0.203125 0.46875 0.203125 1.15625q0 1.34375 -1.0 2.03125q-1.0 0.6875 -2.84375 0.6875q-1.28125 0 -2.015625 -0.21875q-0.734375 -0.203125 -0.984375 -0.3125l0.3125 -1.5q0.296875 0.109375 0.953125 0.34375q0.65625 0.21875 1.734375 0.21875zm7.8050537 1.25l-1.734375 0l0 -9.703125l1.734375 0l0 9.703125zm-0.890625 -11.453125q-0.453125 0 -0.78125 -0.3125q-0.328125 -0.3125 -0.328125 -0.828125q0 -0.515625 0.328125 -0.828125q0.328125 -0.3125 0.78125 -0.3125q0.46875 0 0.796875 0.3125q0.328125 0.3125 0.328125 0.828125q0 0.515625 -0.328125 0.828125q-0.328125 0.3125 -0.796875 0.3125zm12.438782 6.609375q0 1.15625 -0.34375 2.09375q-0.328125 0.921875 -0.9375 1.59375q-0.609375 0.671875 -1.453125 1.046875q-0.828125 0.359375 -1.828125 0.359375q-0.984375 0 -1.828125 -0.359375q-0.84375 -0.375 -1.453125 -1.046875q-0.59375 -0.671875 -0.9375 -1.59375q-0.328125 -0.9375 -0.328125 -2.09375q0 -1.140625 0.328125 -2.078125q0.34375 -0.953125 0.9375 -1.625q0.609375 -0.671875 1.453125 -1.03125q0.84375 -0.359375 1.828125 -0.359375q1.0 0 1.828125 0.359375q0.84375 0.359375 1.453125 1.03125q0.609375 0.671875 0.9375 1.625q0.34375 0.9375 0.34375 2.078125zm-1.8125 0q0 -1.65625 -0.75 -2.609375q-0.734375 -0.953125 -2.0 -0.953125q-1.265625 0 -2.0 0.953125q-0.734375 0.953125 -0.734375 2.609375q0 1.640625 0.734375 2.609375q0.734375 0.953125 2.0 0.953125q1.265625 0 2.0 -0.953125q0.75 -0.96875 0.75 -2.609375zm4.2571716 -4.578125q0.59375 -0.15625 1.578125 -0.3125q0.984375 -0.171875 2.28125 -0.171875q1.15625 0 1.921875 0.328125q0.765625 0.328125 1.21875 0.921875q0.453125 0.578125 0.640625 1.40625q0.1875 0.8125 0.1875 1.796875l0 5.453125l-1.734375 0l0 -5.078125q0 -0.890625 -0.125 -1.515625q-0.125 -0.640625 -0.40625 -1.03125q-0.265625 -0.390625 -0.734375 -0.5625q-0.46875 -0.1875 -1.15625 -0.1875q-0.28125 0 -0.578125 0.015625q-0.296875 0.015625 -0.578125 0.046875q-0.265625 0.03125 -0.484375 0.078125q-0.203125 0.03125 -0.296875 0.046875l0 8.1875l-1.734375 0l0 -9.421875z" fill-rule="nonzero"/><path fill="#9fc5e8" d="m136.51726 509.17154l15.125977 -60.503937l480.17322 0l15.125977 60.503937z" fill-rule="evenodd"/><path stroke="#000000" stroke-width="2.0" stroke-linejoin="round" stroke-linecap="butt" d="m136.51726 509.17154l15.125977 -60.503937l480.17322 0l15.125977 60.503937z" fill-rule="evenodd"/><path fill="#000000" d="m282.77246 473.51535q-0.703125 2.046875 -1.34375 3.796875q-0.640625 1.734375 -1.265625 3.3125q-0.609375 1.5625 -1.21875 2.984375q-0.609375 1.421875 -1.234375 2.828125l-1.703125 0q-0.640625 -1.40625 -1.25 -2.828125q-0.59375 -1.421875 -1.21875 -2.984375q-0.625 -1.578125 -1.28125 -3.3125q-0.65625 -1.75 -1.34375 -3.796875l2.0 0q1.0 2.9375 1.96875 5.671875q0.96875 2.71875 2.0 5.109375q1.03125 -2.375 2.0 -5.109375q0.96875 -2.734375 1.953125 -5.671875l1.9375 0zm9.414154 8.078125q0 1.15625 -0.34375 2.09375q-0.328125 0.921875 -0.9375 1.59375q-0.609375 0.671875 -1.453125 1.046875q-0.828125 0.359375 -1.828125 0.359375q-0.984375 0 -1.828125 -0.359375q-0.84375 -0.375 -1.453125 -1.046875q-0.59375 -0.671875 -0.9375 -1.59375q-0.328125 -0.9375 -0.328125 -2.09375q0 -1.140625 0.328125 -2.078125q0.34375 -0.953125 0.9375 -1.625q0.609375 -0.671875 1.453125 -1.03125q0.84375 -0.359375 1.828125 -0.359375q1.0 0 1.828125 0.359375q0.84375 0.359375 1.453125 1.03125q0.609375 0.671875 0.9375 1.625q0.34375 0.9375 0.34375 2.078125zm-1.8125 0q0 -1.65625 -0.75 -2.609375q-0.734375 -0.953125 -2.0 -0.953125q-1.265625 0 -2.0 0.953125q-0.734375 0.953125 -0.734375 2.609375q0 1.640625 0.734375 2.609375q0.734375 0.953125 2.0 0.953125q1.265625 0 2.0 -0.953125q0.75 -0.96875 0.75 -2.609375zm7.1634216 5.03125q-1.609375 -0.03125 -2.28125 -0.6875q-0.671875 -0.65625 -0.671875 -2.03125l0 -11.640625l1.734375 -0.3125l0 11.671875q0 0.421875 0.078125 0.703125q0.078125 0.28125 0.234375 0.453125q0.171875 0.15625 0.453125 0.25q0.28125 0.078125 0.6875 0.140625l-0.234375 1.453125zm9.90567 -0.46875q-0.59375 0.15625 -1.578125 0.3125q-0.984375 0.171875 -2.265625 0.171875q-1.125 0 -1.890625 -0.328125q-0.765625 -0.328125 -1.234375 -0.921875q-0.453125 -0.59375 -0.671875 -1.40625q-0.203125 -0.8125 -0.203125 -1.796875l0 -5.453125l1.734375 0l0 5.078125q0 1.765625 0.5625 2.53125q0.5625 0.765625 1.890625 0.765625q0.28125 0 0.578125 -0.015625q0.296875 -0.015625 0.546875 -0.046875q0.265625 -0.03125 0.484375 -0.046875q0.21875 -0.03125 0.3125 -0.078125l0 -8.1875l1.734375 0l0 9.421875zm2.9899292 -9.140625q0.59375 -0.15625 1.5625 -0.3125q0.984375 -0.171875 2.265625 -0.171875q0.9375 0 1.5625 0.25q0.640625 0.25 1.078125 0.734375q0.125 -0.09375 0.40625 -0.25q0.28125 -0.171875 0.6875 -0.328125q0.421875 -0.15625 0.921875 -0.28125q0.5 -0.125 1.078125 -0.125q1.125 0 1.828125 0.328125q0.703125 0.328125 1.109375 0.921875q0.40625 0.59375 0.546875 1.421875q0.140625 0.8125 0.140625 1.78125l0 5.453125l-1.734375 0l0 -5.078125q0 -0.859375 -0.09375 -1.46875q-0.078125 -0.609375 -0.3125 -1.015625q-0.234375 -0.421875 -0.640625 -0.609375q-0.390625 -0.203125 -1.03125 -0.203125q-0.875 0 -1.453125 0.234375q-0.5625 0.234375 -0.765625 0.421875q0.15625 0.484375 0.21875 1.0625q0.078125 0.578125 0.078125 1.203125l0 5.453125l-1.734375 0l0 -5.078125q0 -0.859375 -0.09375 -1.46875q-0.09375 -0.609375 -0.328125 -1.015625q-0.234375 -0.421875 -0.640625 -0.609375q-0.390625 -0.203125 -1.0 -0.203125q-0.265625 0 -0.5625 0.015625q-0.296875 0.015625 -0.578125 0.046875q-0.265625 0.03125 -0.5 0.078125q-0.21875 0.03125 -0.28125 0.046875l0 8.1875l-1.734375 0l0 -9.421875zm15.516174 4.59375q0 -1.296875 0.375 -2.25q0.375 -0.96875 0.984375 -1.59375q0.609375 -0.640625 1.40625 -0.953125q0.8125 -0.3125 1.65625 -0.3125q1.953125 0 3.0 1.21875q1.046875 1.21875 1.046875 3.71875q0 0.109375 0 0.296875q0 0.171875 -0.015625 0.3125l-6.640625 0q0.109375 1.515625 0.875 2.296875q0.765625 0.78125 2.390625 0.78125q0.90625 0 1.53125 -0.15625q0.625 -0.15625 0.9375 -0.296875l0.25 1.453125q-0.3125 0.15625 -1.109375 0.34375q-0.796875 0.1875 -1.796875 0.1875q-1.265625 0 -2.203125 -0.375q-0.921875 -0.390625 -1.515625 -1.0625q-0.59375 -0.671875 -0.890625 -1.59375q-0.28125 -0.921875 -0.28125 -2.015625zm6.65625 -0.953125q0.015625 -1.171875 -0.59375 -1.921875q-0.59375 -0.765625 -1.65625 -0.765625q-0.609375 0 -1.0625 0.234375q-0.453125 0.234375 -0.78125 0.609375q-0.3125 0.375 -0.484375 0.859375q-0.171875 0.484375 -0.234375 0.984375l4.8125 0zm6.147583 3.65625q0.015625 0.140625 0.015625 0.28125q0 0.140625 0 0.296875q0 1.171875 -0.34375 2.3125q-0.34375 1.15625 -0.953125 2.203125l-1.34375 -0.4375q0.46875 -0.953125 0.609375 -1.9375q0.15625 -0.96875 0.15625 -1.828125q0 -0.234375 -0.015625 -0.453125q0 -0.234375 -0.015625 -0.4375l1.890625 0zm8.805298 2.125l-1.734375 0l0 -9.703125l1.734375 0l0 9.703125zm-0.890625 -11.453125q-0.453125 0 -0.78125 -0.3125q-0.328125 -0.3125 -0.328125 -0.828125q0 -0.515625 0.328125 -0.828125q0.328125 -0.3125 0.78125 -0.3125q0.46875 0 0.796875 0.3125q0.328125 0.3125 0.328125 0.828125q0 0.515625 -0.328125 0.828125q-0.328125 0.3125 -0.796875 0.3125zm3.8762817 2.03125q0.59375 -0.15625 1.578125 -0.3125q0.984375 -0.171875 2.28125 -0.171875q1.15625 0 1.921875 0.328125q0.765625 0.328125 1.21875 0.921875q0.453125 0.578125 0.640625 1.40625q0.1875 0.8125 0.1875 1.796875l0 5.453125l-1.734375 0l0 -5.078125q0 -0.890625 -0.125 -1.515625q-0.125 -0.640625 -0.40625 -1.03125q-0.265625 -0.390625 -0.734375 -0.5625q-0.46875 -0.1875 -1.15625 -0.1875q-0.28125 0 -0.578125 0.015625q-0.296875 0.015625 -0.578125 0.046875q-0.265625 0.03125 -0.484375 0.078125q-0.203125 0.03125 -0.296875 0.046875l0 8.1875l-1.734375 0l0 -9.421875zm12.318054 -0.28125l3.6875 0l0 1.453125l-3.6875 0l0 4.484375q0 0.71875 0.109375 1.203125q0.125 0.46875 0.34375 0.75q0.21875 0.265625 0.546875 0.375q0.34375 0.109375 0.796875 0.109375q0.78125 0 1.25 -0.171875q0.484375 -0.171875 0.671875 -0.25l0.328125 1.4375q-0.25 0.125 -0.90625 0.3125q-0.65625 0.203125 -1.5 0.203125q-0.984375 0 -1.625 -0.25q-0.640625 -0.25 -1.03125 -0.75q-0.390625 -0.515625 -0.5625 -1.25q-0.15625 -0.734375 -0.15625 -1.703125l0 -8.65625l1.734375 -0.296875l0 3.0zm5.1569214 4.875q0 -1.296875 0.375 -2.25q0.375 -0.96875 0.984375 -1.59375q0.609375 -0.640625 1.40625 -0.953125q0.8125 -0.3125 1.65625 -0.3125q1.953125 0 3.0 1.21875q1.046875 1.21875 1.046875 3.71875q0 0.109375 0 0.296875q0 0.171875 -0.015625 0.3125l-6.640625 0q0.109375 1.515625 0.875 2.296875q0.765625 0.78125 2.390625 0.78125q0.90625 0 1.53125 -0.15625q0.625 -0.15625 0.9375 -0.296875l0.25 1.453125q-0.3125 0.15625 -1.109375 0.34375q-0.796875 0.1875 -1.796875 0.1875q-1.265625 0 -2.203125 -0.375q-0.921875 -0.390625 -1.515625 -1.0625q-0.59375 -0.671875 -0.890625 -1.59375q-0.28125 -0.921875 -0.28125 -2.015625zm6.65625 -0.953125q0.015625 -1.171875 -0.59375 -1.921875q-0.59375 -0.765625 -1.65625 -0.765625q-0.609375 0 -1.0625 0.234375q-0.453125 0.234375 -0.78125 0.609375q-0.3125 0.375 -0.484375 0.859375q-0.171875 0.484375 -0.234375 0.984375l4.8125 0zm4.319458 -3.640625q0.59375 -0.15625 1.578125 -0.3125q0.984375 -0.171875 2.28125 -0.171875q1.15625 0 1.921875 0.328125q0.765625 0.328125 1.21875 0.921875q0.453125 0.578125 0.640625 1.40625q0.1875 0.8125 0.1875 1.796875l0 5.453125l-1.734375 0l0 -5.078125q0 -0.890625 -0.125 -1.515625q-0.125 -0.640625 -0.40625 -1.03125q-0.265625 -0.390625 -0.734375 -0.5625q-0.46875 -0.1875 -1.15625 -0.1875q-0.28125 0 -0.578125 0.015625q-0.296875 0.015625 -0.578125 0.046875q-0.265625 0.03125 -0.484375 0.078125q-0.203125 0.03125 -0.296875 0.046875l0 8.1875l-1.734375 0l0 -9.421875zm12.95871 8.171875q1.0625 0 1.578125 -0.28125q0.515625 -0.28125 0.515625 -0.890625q0 -0.640625 -0.515625 -1.015625q-0.5 -0.375 -1.65625 -0.828125q-0.5625 -0.234375 -1.078125 -0.46875q-0.5 -0.234375 -0.875 -0.546875q-0.375 -0.3125 -0.609375 -0.765625q-0.21875 -0.453125 -0.21875 -1.09375q0 -1.296875 0.953125 -2.046875q0.953125 -0.75 2.59375 -0.75q0.40625 0 0.8125 0.046875q0.421875 0.046875 0.765625 0.109375q0.359375 0.0625 0.625 0.140625q0.28125 0.0625 0.4375 0.125l-0.328125 1.5q-0.28125 -0.15625 -0.875 -0.3125q-0.59375 -0.15625 -1.4375 -0.15625q-0.71875 0 -1.265625 0.296875q-0.546875 0.28125 -0.546875 0.890625q0 0.3125 0.125 0.5625q0.125 0.234375 0.375 0.4375q0.25 0.203125 0.625 0.375q0.375 0.15625 0.890625 0.34375q0.6875 0.265625 1.234375 0.515625q0.546875 0.25 0.921875 0.59375q0.390625 0.328125 0.59375 0.8125q0.203125 0.46875 0.203125 1.15625q0 1.34375 -1.0 2.03125q-1.0 0.6875 -2.84375 0.6875q-1.28125 0 -2.015625 -0.21875q-0.734375 -0.203125 -0.984375 -0.3125l0.3125 -1.5q0.296875 0.109375 0.953125 0.34375q0.65625 0.21875 1.734375 0.21875zm7.8050537 1.25l-1.734375 0l0 -9.703125l1.734375 0l0 9.703125zm-0.890625 -11.453125q-0.453125 0 -0.78125 -0.3125q-0.328125 -0.3125 -0.328125 -0.828125q0 -0.515625 0.328125 -0.828125q0.328125 -0.3125 0.78125 -0.3125q0.46875 0 0.796875 0.3125q0.328125 0.3125 0.328125 0.828125q0 0.515625 -0.328125 0.828125q-0.328125 0.3125 -0.796875 0.3125zm5.4856567 1.75l3.6875 0l0 1.453125l-3.6875 0l0 4.484375q0 0.71875 0.109375 1.203125q0.125 0.46875 0.34375 0.75q0.21875 0.265625 0.546875 0.375q0.34375 0.109375 0.796875 0.109375q0.78125 0 1.25 -0.171875q0.484375 -0.171875 0.671875 -0.25l0.328125 1.4375q-0.25 0.125 -0.90625 0.3125q-0.65625 0.203125 -1.5 0.203125q-0.984375 0 -1.625 -0.25q-0.640625 -0.25 -1.03125 -0.75q-0.390625 -0.515625 -0.5625 -1.25q-0.15625 -0.734375 -0.15625 -1.703125l0 -8.65625l1.734375 -0.296875l0 3.0zm4.749817 11.515625q0.203125 0.09375 0.53125 0.171875q0.328125 0.09375 0.640625 0.09375q1.03125 0 1.609375 -0.46875q0.578125 -0.453125 1.03125 -1.484375q-1.171875 -2.234375 -2.1875 -4.734375q-1.015625 -2.515625 -1.6875 -5.09375l1.875 0q0.203125 0.84375 0.484375 1.8125q0.296875 0.96875 0.640625 2.0q0.359375 1.015625 0.765625 2.046875q0.421875 1.03125 0.859375 1.984375q0.71875 -1.96875 1.234375 -3.890625q0.515625 -1.921875 0.984375 -3.953125l1.796875 0q-0.671875 2.75 -1.5 5.28125q-0.8125 2.515625 -1.765625 4.71875q-0.375 0.84375 -0.78125 1.4375q-0.390625 0.609375 -0.875 1.0q-0.484375 0.40625 -1.09375 0.578125q-0.609375 0.1875 -1.375 0.1875q-0.203125 0 -0.4375 -0.03125q-0.21875 -0.015625 -0.4375 -0.0625q-0.203125 -0.046875 -0.390625 -0.109375q-0.171875 -0.046875 -0.25 -0.09375l0.328125 -1.390625zm12.240906 -3.9375q0.015625 0.140625 0.015625 0.28125q0 0.140625 0 0.296875q0 1.171875 -0.34375 2.3125q-0.34375 1.15625 -0.953125 2.203125l-1.34375 -0.4375q0.46875 -0.953125 0.609375 -1.9375q0.15625 -0.96875 0.15625 -1.828125q0 -0.234375 -0.015625 -0.453125q0 -0.234375 -0.015625 -0.4375l1.890625 0zm10.852173 -12.359375q0.765625 0 1.3125 0.125q0.546875 0.109375 0.78125 0.203125l-0.328125 1.484375q-0.21875 -0.109375 -0.640625 -0.203125q-0.40625 -0.109375 -1.0 -0.109375q-1.203125 0 -1.6875 0.671875q-0.484375 0.65625 -0.484375 1.765625l0 0.84375l3.71875 0l0 1.453125l-3.71875 0l0 8.25l-1.734375 0l0 -10.578125q0 -1.859375 0.90625 -2.875q0.921875 -1.03125 2.875 -1.03125zm6.998169 4.578125q0.21875 0 0.5 0.03125q0.296875 0.03125 0.578125 0.078125q0.28125 0.046875 0.515625 0.09375q0.234375 0.046875 0.34375 0.078125l-0.296875 1.515625q-0.203125 -0.078125 -0.6875 -0.171875q-0.46875 -0.109375 -1.21875 -0.109375q-0.484375 0 -0.96875 0.109375q-0.46875 0.09375 -0.609375 0.125l0 8.15625l-1.734375 0l0 -9.296875q0.609375 -0.21875 1.515625 -0.40625q0.921875 -0.203125 2.0625 -0.203125zm3.0763245 5.078125q0 -1.296875 0.375 -2.25q0.375 -0.96875 0.984375 -1.59375q0.609375 -0.640625 1.40625 -0.953125q0.8125 -0.3125 1.65625 -0.3125q1.953125 0 3.0 1.21875q1.046875 1.21875 1.046875 3.71875q0 0.109375 0 0.296875q0 0.171875 -0.015625 0.3125l-6.640625 0q0.109375 1.515625 0.875 2.296875q0.765625 0.78125 2.390625 0.78125q0.90625 0 1.53125 -0.15625q0.625 -0.15625 0.9375 -0.296875l0.25 1.453125q-0.3125 0.15625 -1.109375 0.34375q-0.796875 0.1875 -1.796875 0.1875q-1.265625 0 -2.203125 -0.375q-0.921875 -0.390625 -1.515625 -1.0625q-0.59375 -0.671875 -0.890625 -1.59375q-0.28125 -0.921875 -0.28125 -2.015625zm6.65625 -0.953125q0.015625 -1.171875 -0.59375 -1.921875q-0.59375 -0.765625 -1.65625 -0.765625q-0.609375 0 -1.0625 0.234375q-0.453125 0.234375 -0.78125 0.609375q-0.3125 0.375 -0.484375 0.859375q-0.171875 0.484375 -0.234375 0.984375l4.8125 0zm5.5851135 0.953125q0 0.75 0.140625 1.390625q0.15625 0.640625 0.484375 1.125q0.34375 0.46875 0.875 0.734375q0.53125 0.265625 1.28125 0.265625q0.703125 0 1.296875 -0.234375q0.59375 -0.25 0.921875 -0.5l0 -6.125q-0.265625 -0.078125 -0.703125 -0.125q-0.4375 -0.0625 -1.21875 -0.0625q-1.40625 0 -2.25 0.921875q-0.828125 0.90625 -0.828125 2.609375zm-1.8125 0q0 -1.171875 0.34375 -2.109375q0.34375 -0.953125 0.96875 -1.609375q0.640625 -0.65625 1.53125 -1.0q0.90625 -0.359375 2.03125 -0.359375q1.203125 0 2.125 0.1875q0.921875 0.171875 1.546875 0.3125l0 12.859375l-1.734375 0l0 -3.875q-0.328125 0.203125 -0.96875 0.421875q-0.640625 0.21875 -1.484375 0.21875q-1.046875 0 -1.859375 -0.359375q-0.796875 -0.375 -1.359375 -1.046875q-0.5625 -0.671875 -0.859375 -1.609375q-0.28125 -0.9375 -0.28125 -2.03125zm19.25415 4.546875q-0.59375 0.15625 -1.578125 0.3125q-0.984375 0.171875 -2.265625 0.171875q-1.125 0 -1.890625 -0.328125q-0.765625 -0.328125 -1.234375 -0.921875q-0.453125 -0.59375 -0.671875 -1.40625q-0.203125 -0.8125 -0.203125 -1.796875l0 -5.453125l1.734375 0l0 5.078125q0 1.765625 0.5625 2.53125q0.5625 0.765625 1.890625 0.765625q0.28125 0 0.578125 -0.015625q0.296875 -0.015625 0.546875 -0.046875q0.265625 -0.03125 0.484375 -0.046875q0.21875 -0.03125 0.3125 -0.078125l0 -8.1875l1.734375 0l0 9.421875zm2.4430542 -4.546875q0 -1.296875 0.375 -2.25q0.375 -0.96875 0.984375 -1.59375q0.609375 -0.640625 1.40625 -0.953125q0.8125 -0.3125 1.65625 -0.3125q1.953125 0 3.0 1.21875q1.046875 1.21875 1.046875 3.71875q0 0.109375 0 0.296875q0 0.171875 -0.015625 0.3125l-6.640625 0q0.109375 1.515625 0.875 2.296875q0.765625 0.78125 2.390625 0.78125q0.90625 0 1.53125 -0.15625q0.625 -0.15625 0.9375 -0.296875l0.25 1.453125q-0.3125 0.15625 -1.109375 0.34375q-0.796875 0.1875 -1.796875 0.1875q-1.265625 0 -2.203125 -0.375q-0.921875 -0.390625 -1.515625 -1.0625q-0.59375 -0.671875 -0.890625 -1.59375q-0.28125 -0.921875 -0.28125 -2.015625zm6.65625 -0.953125q0.015625 -1.171875 -0.59375 -1.921875q-0.59375 -0.765625 -1.65625 -0.765625q-0.609375 0 -1.0625 0.234375q-0.453125 0.234375 -0.78125 0.609375q-0.3125 0.375 -0.484375 0.859375q-0.171875 0.484375 -0.234375 0.984375l4.8125 0zm4.3194885 -3.640625q0.59375 -0.15625 1.578125 -0.3125q0.984375 -0.171875 2.28125 -0.171875q1.15625 0 1.921875 0.328125q0.765625 0.328125 1.21875 0.921875q0.453125 0.578125 0.640625 1.40625q0.1875 0.8125 0.1875 1.796875l0 5.453125l-1.734375 0l0 -5.078125q0 -0.890625 -0.125 -1.515625q-0.125 -0.640625 -0.40625 -1.03125q-0.265625 -0.390625 -0.734375 -0.5625q-0.46875 -0.1875 -1.15625 -0.1875q-0.28125 0 -0.578125 0.015625q-0.296875 0.015625 -0.578125 0.046875q-0.265625 0.03125 -0.484375 0.078125q-0.203125 0.03125 -0.296875 0.046875l0 8.1875l-1.734375 0l0 -9.421875zm14.911835 9.640625q-1.171875 0 -2.0625 -0.359375q-0.875 -0.375 -1.484375 -1.046875q-0.609375 -0.671875 -0.90625 -1.59375q-0.296875 -0.9375 -0.296875 -2.046875q0 -1.125 0.328125 -2.046875q0.328125 -0.9375 0.921875 -1.609375q0.59375 -0.6875 1.453125 -1.0625q0.875 -0.390625 1.9375 -0.390625q0.65625 0 1.3125 0.109375q0.65625 0.109375 1.25 0.34375l-0.390625 1.484375q-0.390625 -0.1875 -0.90625 -0.296875q-0.515625 -0.109375 -1.09375 -0.109375q-1.453125 0 -2.234375 0.921875q-0.765625 0.90625 -0.765625 2.65625q0 0.78125 0.171875 1.4375q0.171875 0.640625 0.546875 1.109375q0.390625 0.46875 0.984375 0.71875q0.609375 0.25 1.46875 0.25q0.6875 0 1.25 -0.125q0.5625 -0.125 0.875 -0.28125l0.234375 1.453125q-0.140625 0.09375 -0.421875 0.1875q-0.28125 0.078125 -0.640625 0.140625q-0.34375 0.0625 -0.75 0.109375q-0.40625 0.046875 -0.78125 0.046875zm3.5367432 1.59375q0.203125 0.09375 0.53125 0.171875q0.328125 0.09375 0.640625 0.09375q1.03125 0 1.609375 -0.46875q0.578125 -0.453125 1.03125 -1.484375q-1.171875 -2.234375 -2.1875 -4.734375q-1.015625 -2.515625 -1.6875 -5.09375l1.875 0q0.203125 0.84375 0.484375 1.8125q0.296875 0.96875 0.640625 2.0q0.359375 1.015625 0.765625 2.046875q0.421875 1.03125 0.859375 1.984375q0.71875 -1.96875 1.234375 -3.890625q0.515625 -1.921875 0.984375 -3.953125l1.796875 0q-0.671875 2.75 -1.5 5.28125q-0.8125 2.515625 -1.765625 4.71875q-0.375 0.84375 -0.78125 1.4375q-0.390625 0.609375 -0.875 1.0q-0.484375 0.40625 -1.09375 0.578125q-0.609375 0.1875 -1.375 0.1875q-0.203125 0 -0.4375 -0.03125q-0.21875 -0.015625 -0.4375 -0.0625q-0.203125 -0.046875 -0.390625 -0.109375q-0.171875 -0.046875 -0.25 -0.09375l0.328125 -1.390625z" fill-rule="nonzero"/><path fill="#6fa8dc" d="m121.0 569.67194l15.125992 -60.503967l510.4724 0l15.126038 60.503967z" fill-rule="evenodd"/><path stroke="#000000" stroke-width="2.0" stroke-linejoin="round" stroke-linecap="butt" d="m121.0 569.67194l15.125992 -60.503967l510.4724 0l15.126038 60.503967z" fill-rule="evenodd"/><path fill="#000000" d="m355.7925 546.9041q-0.328125 -0.84375 -0.609375 -1.65625q-0.28125 -0.8125 -0.578125 -1.640625l-5.859375 0l-1.171875 3.296875l-1.875 0q0.734375 -2.046875 1.390625 -3.796875q0.65625 -1.75 1.28125 -3.3125q0.625 -1.5625 1.234375 -2.984375q0.625 -1.4375 1.296875 -2.828125l1.65625 0q0.671875 1.390625 1.28125 2.828125q0.625 1.421875 1.25 2.984375q0.625 1.5625 1.265625 3.3125q0.65625 1.75 1.40625 3.796875l-1.96875 0zm-1.703125 -4.796875q-0.59375 -1.625 -1.1875 -3.140625q-0.59375 -1.515625 -1.21875 -2.921875q-0.65625 1.40625 -1.25 2.921875q-0.578125 1.515625 -1.15625 3.140625l4.8125 0zm11.345184 -2.859375q-0.328125 -0.25 -0.921875 -0.484375q-0.59375 -0.25 -1.296875 -0.25q-0.75 0 -1.28125 0.265625q-0.53125 0.265625 -0.875 0.75q-0.328125 0.46875 -0.484375 1.125q-0.140625 0.65625 -0.140625 1.40625q0 1.6875 0.828125 2.609375q0.84375 0.921875 2.25 0.921875q0.703125 0 1.171875 -0.0625q0.484375 -0.0625 0.75 -0.140625l0 -6.140625zm0 -6.515625l1.734375 -0.3125l0 14.203125q-0.59375 0.171875 -1.53125 0.328125q-0.9375 0.171875 -2.140625 0.171875q-1.125 0 -2.03125 -0.34375q-0.890625 -0.359375 -1.53125 -1.015625q-0.625 -0.65625 -0.96875 -1.59375q-0.34375 -0.9375 -0.34375 -2.109375q0 -1.125 0.28125 -2.046875q0.296875 -0.9375 0.859375 -1.609375q0.5625 -0.671875 1.359375 -1.046875q0.8125 -0.375 1.859375 -0.375q0.84375 0 1.484375 0.21875q0.640625 0.21875 0.96875 0.4375l0 -4.90625zm4.7229004 14.171875l0 -14.171875l1.734375 -0.3125l0 4.96875q0.484375 -0.1875 1.03125 -0.28125q0.546875 -0.109375 1.09375 -0.109375q1.15625 0 1.921875 0.328125q0.765625 0.328125 1.21875 0.921875q0.453125 0.578125 0.640625 1.40625q0.1875 0.8125 0.1875 1.796875l0 5.453125l-1.734375 0l0 -5.078125q0 -0.890625 -0.125 -1.515625q-0.125 -0.640625 -0.40625 -1.03125q-0.265625 -0.390625 -0.734375 -0.5625q-0.46875 -0.1875 -1.15625 -0.1875q-0.28125 0 -0.578125 0.046875q-0.296875 0.03125 -0.578125 0.078125q-0.265625 0.046875 -0.484375 0.109375q-0.203125 0.046875 -0.296875 0.078125l0 8.0625l-1.734375 0zm10.1058655 -4.828125q0 -1.296875 0.375 -2.25q0.375 -0.96875 0.984375 -1.59375q0.609375 -0.640625 1.40625 -0.953125q0.8125 -0.3125 1.65625 -0.3125q1.953125 0 2.9999695 1.21875q1.046875 1.21875 1.046875 3.71875q0 0.109375 0 0.296875q0 0.171875 -0.015625 0.3125l-6.6405945 0q0.109375 1.515625 0.875 2.296875q0.765625 0.78125 2.390625 0.78125q0.90625 0 1.53125 -0.15625q0.6249695 -0.15625 0.9374695 -0.296875l0.25 1.453125q-0.3125 0.15625 -1.1093445 0.34375q-0.796875 0.1875 -1.796875 0.1875q-1.265625 0 -2.203125 -0.375q-0.921875 -0.390625 -1.515625 -1.0625q-0.59375 -0.671875 -0.890625 -1.59375q-0.28125 -0.921875 -0.28125 -2.015625zm6.65625 -0.953125q0.015625 -1.171875 -0.59375 -1.921875q-0.59375 -0.765625 -1.65625 -0.765625q-0.609375 0 -1.0625 0.234375q-0.453125 0.234375 -0.78125 0.609375q-0.3125 0.375 -0.484375 0.859375q-0.171875 0.484375 -0.234375 0.984375l4.8125 0zm7.897583 -4.125q0.21875 0 0.5 0.03125q0.296875 0.03125 0.578125 0.078125q0.28125 0.046875 0.515625 0.09375q0.234375 0.046875 0.34375 0.078125l-0.296875 1.515625q-0.203125 -0.078125 -0.6875 -0.171875q-0.46875 -0.109375 -1.21875 -0.109375q-0.484375 0 -0.96875 0.109375q-0.46875 0.09375 -0.609375 0.125l0 8.15625l-1.734375 0l0 -9.296875q0.609375 -0.21875 1.515625 -0.40625q0.921875 -0.203125 2.0625 -0.203125zm3.0763245 5.078125q0 -1.296875 0.375 -2.25q0.375 -0.96875 0.984375 -1.59375q0.609375 -0.640625 1.40625 -0.953125q0.8125 -0.3125 1.65625 -0.3125q1.953125 0 3.0 1.21875q1.046875 1.21875 1.046875 3.71875q0 0.109375 0 0.296875q0 0.171875 -0.015625 0.3125l-6.640625 0q0.109375 1.515625 0.875 2.296875q0.765625 0.78125 2.390625 0.78125q0.90625 0 1.53125 -0.15625q0.625 -0.15625 0.9375 -0.296875l0.25 1.453125q-0.3125 0.15625 -1.109375 0.34375q-0.796875 0.1875 -1.796875 0.1875q-1.265625 0 -2.203125 -0.375q-0.921875 -0.390625 -1.515625 -1.0625q-0.59375 -0.671875 -0.890625 -1.59375q-0.28125 -0.921875 -0.28125 -2.015625zm6.65625 -0.953125q0.015625 -1.171875 -0.59375 -1.921875q-0.59375 -0.765625 -1.65625 -0.765625q-0.609375 0 -1.0625 0.234375q-0.453125 0.234375 -0.78125 0.609375q-0.3125 0.375 -0.484375 0.859375q-0.171875 0.484375 -0.234375 0.984375l4.8125 0zm4.319458 -3.640625q0.59375 -0.15625 1.578125 -0.3125q0.984375 -0.171875 2.28125 -0.171875q1.15625 0 1.921875 0.328125q0.765625 0.328125 1.21875 0.921875q0.453125 0.578125 0.640625 1.40625q0.1875 0.8125 0.1875 1.796875l0 5.453125l-1.734375 0l0 -5.078125q0 -0.890625 -0.125 -1.515625q-0.125 -0.640625 -0.40625 -1.03125q-0.265625 -0.390625 -0.734375 -0.5625q-0.46875 -0.1875 -1.15625 -0.1875q-0.28125 0 -0.578125 0.015625q-0.296875 0.015625 -0.578125 0.046875q-0.265625 0.03125 -0.484375 0.078125q-0.203125 0.03125 -0.296875 0.046875l0 8.1875l-1.734375 0l0 -9.421875zm14.911804 9.640625q-1.171875 0 -2.0625 -0.359375q-0.875 -0.375 -1.484375 -1.046875q-0.609375 -0.671875 -0.90625 -1.59375q-0.296875 -0.9375 -0.296875 -2.046875q0 -1.125 0.328125 -2.046875q0.328125 -0.9375 0.921875 -1.609375q0.59375 -0.6875 1.453125 -1.0625q0.875 -0.390625 1.9375 -0.390625q0.65625 0 1.3125 0.109375q0.65625 0.109375 1.25 0.34375l-0.390625 1.484375q-0.390625 -0.1875 -0.90625 -0.296875q-0.515625 -0.109375 -1.09375 -0.109375q-1.453125 0 -2.234375 0.921875q-0.765625 0.90625 -0.765625 2.65625q0 0.78125 0.171875 1.4375q0.171875 0.640625 0.546875 1.109375q0.390625 0.46875 0.984375 0.71875q0.609375 0.25 1.46875 0.25q0.6875 0 1.25 -0.125q0.5625 -0.125 0.875 -0.28125l0.234375 1.453125q-0.140625 0.09375 -0.421875 0.1875q-0.28125 0.078125 -0.640625 0.140625q-0.34375 0.0625 -0.75 0.109375q-0.40625 0.046875 -0.78125 0.046875zm3.925171 -5.046875q0 -1.296875 0.375 -2.25q0.375 -0.96875 0.984375 -1.59375q0.609375 -0.640625 1.40625 -0.953125q0.8125 -0.3125 1.65625 -0.3125q1.953125 0 3.0 1.21875q1.046875 1.21875 1.046875 3.71875q0 0.109375 0 0.296875q0 0.171875 -0.015625 0.3125l-6.640625 0q0.109375 1.515625 0.875 2.296875q0.765625 0.78125 2.390625 0.78125q0.90625 0 1.53125 -0.15625q0.625 -0.15625 0.9375 -0.296875l0.25 1.453125q-0.3125 0.15625 -1.109375 0.34375q-0.796875 0.1875 -1.796875 0.1875q-1.265625 0 -2.203125 -0.375q-0.921875 -0.390625 -1.515625 -1.0625q-0.59375 -0.671875 -0.890625 -1.59375q-0.28125 -0.921875 -0.28125 -2.015625zm6.65625 -0.953125q0.015625 -1.171875 -0.59375 -1.921875q-0.59375 -0.765625 -1.65625 -0.765625q-0.609375 0 -1.0625 0.234375q-0.453125 0.234375 -0.78125 0.609375q-0.3125 0.375 -0.484375 0.859375q-0.171875 0.484375 -0.234375 0.984375l4.8125 0z" fill-rule="nonzero"/><path fill="#cfe2f3" d="m143.73753 539.4199l0 0c0 -10.219421 8.29155 -18.503906 18.519684 -18.503906l0 0c4.911728 0 9.622284 1.9495239 13.095398 5.4196777c3.473114 3.4701538 5.424286 8.176697 5.424286 13.0842285l0 0c0 10.219482 -8.29155 18.503967 -18.519684 18.503967l0 0c-10.228134 0 -18.519684 -8.284485 -18.519684 -18.503967z" fill-rule="evenodd"/><path stroke="#000000" stroke-width="2.0" stroke-linejoin="round" stroke-linecap="butt" d="m143.73753 539.4199l0 0c0 -10.219421 8.29155 -18.503906 18.519684 -18.503906l0 0c4.911728 0 9.622284 1.9495239 13.095398 5.4196777c3.473114 3.4701538 5.424286 8.176697 5.424286 13.0842285l0 0c0 10.219482 -8.29155 18.503967 -18.519684 18.503967l0 0c-10.228134 0 -18.519684 -8.284485 -18.519684 -18.503967z" fill-rule="evenodd"/><path fill="#000000" d="m163.80098 544.22l-1.828125 0l0 -6.890625q-1.0 0.9375 -2.375 1.390625l0 -1.671875q0.71875 -0.234375 1.5625 -0.875q0.84375 -0.65625 1.15625 -1.53125l1.484375 0l0 9.578125z" fill-rule="nonzero"/><path fill="#cfe2f3" d="m158.49081 478.91995l0 0c0 -10.219452 8.29155 -18.503937 18.519684 -18.503937l0 0c4.911728 0 9.622284 1.9495239 13.095398 5.4196777c3.473114 3.4701538 5.424286 8.176697 5.424286 13.084259l0 0c0 10.219452 -8.29155 18.503937 -18.519684 18.503937l0 0c-10.228134 0 -18.519684 -8.284485 -18.519684 -18.503937z" fill-rule="evenodd"/><path stroke="#000000" stroke-width="2.0" stroke-linejoin="round" stroke-linecap="butt" d="m158.49081 478.91995l0 0c0 -10.219452 8.29155 -18.503937 18.519684 -18.503937l0 0c4.911728 0 9.622284 1.9495239 13.095398 5.4196777c3.473114 3.4701538 5.424286 8.176697 5.424286 13.084259l0 0c0 10.219452 -8.29155 18.503937 -18.519684 18.503937l0 0c-10.228134 0 -18.519684 -8.284485 -18.519684 -18.503937z" fill-rule="evenodd"/><path fill="#000000" d="m180.03864 482.0168l0 1.703125l-6.40625 0q0.109375 -0.96875 0.625 -1.828125q0.53125 -0.859375 2.0625 -2.28125q1.234375 -1.15625 1.515625 -1.5625q0.375 -0.5625 0.375 -1.125q0 -0.609375 -0.328125 -0.9375q-0.328125 -0.328125 -0.90625 -0.328125q-0.578125 0 -0.921875 0.34375q-0.328125 0.34375 -0.375 1.140625l-1.828125 -0.171875q0.15625 -1.515625 1.015625 -2.171875q0.859375 -0.65625 2.15625 -0.65625q1.40625 0 2.203125 0.765625q0.8125 0.75 0.8125 1.890625q0 0.640625 -0.234375 1.234375q-0.21875 0.578125 -0.71875 1.203125q-0.328125 0.4375 -1.203125 1.234375q-0.859375 0.78125 -1.09375 1.046875q-0.234375 0.25 -0.375 0.5l3.625 0z" fill-rule="nonzero"/><path fill="#cfe2f3" d="m172.73753 418.41864l0 0c0 -10.219452 8.29155 -18.503937 18.519684 -18.503937l0 0c4.911728 0 9.622284 1.9495239 13.095398 5.4196777c3.473114 3.4701538 5.424286 8.176697 5.424286 13.084259l0 0c0 10.219452 -8.29155 18.503937 -18.519684 18.503937l0 0c-10.228134 0 -18.519684 -8.284485 -18.519684 -18.503937z" fill-rule="evenodd"/><path stroke="#000000" stroke-width="2.0" stroke-linejoin="round" stroke-linecap="butt" d="m172.73753 418.41864l0 0c0 -10.219452 8.29155 -18.503937 18.519684 -18.503937l0 0c4.911728 0 9.622284 1.9495239 13.095398 5.4196777c3.473114 3.4701538 5.424286 8.176697 5.424286 13.084259l0 0c0 10.219452 -8.29155 18.503937 -18.519684 18.503937l0 0c-10.228134 0 -18.519684 -8.284485 -18.519684 -18.503937z" fill-rule="evenodd"/><path fill="#000000" d="m188.05098 420.68738l1.765625 -0.21875q0.09375 0.6875 0.453125 1.046875q0.375 0.34375 0.90625 0.34375q0.5625 0 0.953125 -0.421875q0.390625 -0.4375 0.390625 -1.15625q0 -0.6875 -0.375 -1.09375q-0.375 -0.40625 -0.90625 -0.40625q-0.34375 0 -0.84375 0.140625l0.203125 -1.5q0.75 0.03125 1.140625 -0.3125q0.390625 -0.34375 0.390625 -0.90625q0 -0.484375 -0.296875 -0.765625q-0.28125 -0.296875 -0.75 -0.296875q-0.46875 0 -0.8125 0.328125q-0.328125 0.328125 -0.390625 0.953125l-1.6875 -0.296875q0.171875 -0.859375 0.515625 -1.375q0.359375 -0.515625 1.0 -0.8125q0.640625 -0.296875 1.421875 -0.296875q1.34375 0 2.15625 0.859375q0.671875 0.703125 0.671875 1.59375q0 1.25 -1.375 2.0q0.828125 0.171875 1.3125 0.78125q0.5 0.609375 0.5 1.484375q0 1.25 -0.921875 2.140625q-0.921875 0.875 -2.28125 0.875q-1.296875 0 -2.15625 -0.734375q-0.84375 -0.75 -0.984375 -1.953125z" fill-rule="nonzero"/><path fill="#cfe2f3" d="m187.73753 357.91995l0 0c0 -10.219452 8.29155 -18.503937 18.519684 -18.503937l0 0c4.911728 0 9.622284 1.9495239 13.095398 5.4196777c3.473114 3.4701538 5.424286 8.176697 5.424286 13.084259l0 0c0 10.219452 -8.29155 18.503937 -18.519684 18.503937l0 0c-10.228134 0 -18.519684 -8.284485 -18.519684 -18.503937z" fill-rule="evenodd"/><path stroke="#000000" stroke-width="2.0" stroke-linejoin="round" stroke-linecap="butt" d="m187.73753 357.91995l0 0c0 -10.219452 8.29155 -18.503937 18.519684 -18.503937l0 0c4.911728 0 9.622284 1.9495239 13.095398 5.4196777c3.473114 3.4701538 5.424286 8.176697 5.424286 13.084259l0 0c0 10.219452 -8.29155 18.503937 -18.519684 18.503937l0 0c-10.228134 0 -18.519684 -8.284485 -18.519684 -18.503937z" fill-rule="evenodd"/><path fill="#000000" d="m206.70723 362.71994l0 -1.921875l-3.90625 0l0 -1.59375l4.140625 -6.0625l1.53125 0l0 6.046875l1.1875 0l0 1.609375l-1.1875 0l0 1.921875l-1.765625 0zm0 -3.53125l0 -3.25l-2.203125 3.25l2.203125 0z" fill-rule="nonzero"/><path fill="#cfe2f3" d="m203.73753 297.41864l0 0c0 -10.219452 8.29155 -18.503937 18.519684 -18.503937l0 0c4.911728 0 9.622284 1.9495239 13.095398 5.4196777c3.473114 3.4701538 5.424286 8.176697 5.424286 13.084259l0 0c0 10.219452 -8.29155 18.503937 -18.519684 18.503937l0 0c-10.228134 0 -18.519684 -8.284485 -18.519684 -18.503937z" fill-rule="evenodd"/><path stroke="#000000" stroke-width="2.0" stroke-linejoin="round" stroke-linecap="butt" d="m203.73753 297.41864l0 0c0 -10.219452 8.29155 -18.503937 18.519684 -18.503937l0 0c4.911728 0 9.622284 1.9495239 13.095398 5.4196777c3.473114 3.4701538 5.424286 8.176697 5.424286 13.084259l0 0c0 10.219452 -8.29155 18.503937 -18.519684 18.503937l0 0c-10.228134 0 -18.519684 -8.284485 -18.519684 -18.503937z" fill-rule="evenodd"/><path fill="#000000" d="m219.14473 299.7655l1.828125 -0.1875q0.078125 0.609375 0.453125 0.984375q0.390625 0.359375 0.890625 0.359375q0.5625 0 0.953125 -0.46875q0.40625 -0.46875 0.40625 -1.40625q0 -0.875 -0.390625 -1.3125q-0.390625 -0.4375 -1.03125 -0.4375q-0.78125 0 -1.40625 0.6875l-1.484375 -0.203125l0.9375 -4.96875l4.84375 0l0 1.703125l-3.453125 0l-0.296875 1.625q0.625 -0.3125 1.25 -0.3125q1.21875 0 2.0625 0.890625q0.859375 0.890625 0.859375 2.296875q0 1.171875 -0.6875 2.109375q-0.9375 1.25 -2.59375 1.25q-1.3125 0 -2.15625 -0.703125q-0.828125 -0.703125 -0.984375 -1.90625z" fill-rule="nonzero"/><path fill="#cfe2f3" d="m218.73753 236.91864l0 0c0 -10.219452 8.29155 -18.503937 18.519684 -18.503937l0 0c4.911728 0 9.622284 1.9495087 13.095398 5.4196777c3.473114 3.4701538 5.424286 8.176712 5.424286 13.084259l0 0c0 10.219437 -8.29155 18.503937 -18.519684 18.503937l0 0c-10.228134 0 -18.519684 -8.2845 -18.519684 -18.503937z" fill-rule="evenodd"/><path stroke="#000000" stroke-width="2.0" stroke-linejoin="round" stroke-linecap="butt" d="m218.73753 236.91864l0 0c0 -10.219452 8.29155 -18.503937 18.519684 -18.503937l0 0c4.911728 0 9.622284 1.9495087 13.095398 5.4196777c3.473114 3.4701538 5.424286 8.176712 5.424286 13.084259l0 0c0 10.219437 -8.29155 18.503937 -18.519684 18.503937l0 0c-10.228134 0 -18.519684 -8.2845 -18.519684 -18.503937z" fill-rule="evenodd"/><path fill="#000000" d="m240.3166 234.5155l-1.78125 0.1875q-0.0625 -0.546875 -0.34375 -0.796875q-0.265625 -0.265625 -0.703125 -0.265625q-0.578125 0 -0.984375 0.53125q-0.390625 0.515625 -0.5 2.15625q0.6875 -0.8125 1.703125 -0.8125q1.140625 0 1.953125 0.875q0.828125 0.875 0.828125 2.25q0 1.46875 -0.859375 2.359375q-0.859375 0.875 -2.203125 0.875q-1.453125 0 -2.390625 -1.109375q-0.921875 -1.125 -0.921875 -3.6875q0 -2.625 0.96875 -3.78125q0.96875 -1.15625 2.515625 -1.15625q1.09375 0 1.796875 0.609375q0.71875 0.609375 0.921875 1.765625zm-4.15625 3.984375q0 0.890625 0.40625 1.375q0.421875 0.484375 0.953125 0.484375q0.5 0 0.828125 -0.390625q0.34375 -0.390625 0.34375 -1.296875q0 -0.9375 -0.359375 -1.359375q-0.359375 -0.4375 -0.90625 -0.4375q-0.53125 0 -0.90625 0.421875q-0.359375 0.40625 -0.359375 1.203125z" fill-rule="nonzero"/><path fill="#000000" fill-opacity="0.0" d="m72.38976 568.68243l0 -362.01575" fill-rule="evenodd"/><path stroke="#c27ba0" stroke-width="4.0" stroke-linejoin="round" stroke-linecap="butt" d="m72.38976 568.68243l0 -338.01575" fill-rule="evenodd"/><path fill="#c27ba0" stroke="#c27ba0" stroke-width="4.0" stroke-linecap="butt" d="m78.9967 230.66667l-6.6069336 -18.15239l-6.606926 18.15239z" fill-rule="evenodd"/><path fill="#000000" fill-opacity="0.0" d="m205.61679 41.67454l372.28348 0l0 70.99213l-372.28348 0z" fill-rule="evenodd"/><path fill="#000000" d="m282.3014 78.316414q-0.3125 -0.765625 -0.84375 -1.9375q-0.53125 -1.1875 -1.140625 -2.5625q-0.609375 -1.375 -1.296875 -2.828125q-0.6875 -1.46875 -1.296875 -2.765625q-0.609375 -1.296875 -1.140625 -2.3125q-0.515625 -1.03125 -0.84375 -1.578125q-0.34375 3.78125 -0.578125 8.1875q-0.21875 4.390625 -0.375 8.875l-3.046875 0q0.125 -2.875 0.28125 -5.796875q0.171875 -2.9375 0.375 -5.765625q0.21875 -2.84375 0.453125 -5.53125q0.234375 -2.6874962 0.53125 -5.078121l2.71875 0q0.859375 1.40625 1.84375 3.328125q1.0 1.9218712 1.984375 4.015621q1.0 2.09375 1.921875 4.1875q0.9375 2.09375 1.703125 3.828125q0.765625 -1.734375 1.6875 -3.828125q0.9375 -2.09375 1.921875 -4.1875q1.0 -2.09375 1.984375 -4.015621q1.0 -1.921875 1.859375 -3.328125l2.71875 0q1.09375 10.718746 1.640625 22.171871l-3.046875 0q-0.15625 -4.484375 -0.390625 -8.875q-0.21875 -4.40625 -0.5625 -8.1875q-0.328125 0.546875 -0.859375 1.578125q-0.515625 1.015625 -1.125 2.3125q-0.609375 1.296875 -1.296875 2.765625q-0.6875 1.453125 -1.296875 2.828125q-0.609375 1.375 -1.140625 2.5625q-0.53125 1.171875 -0.84375 1.9375l-2.5 0zm30.981445 2.59375q-1.03125 0.265625 -2.71875 0.546875q-1.671875 0.296875 -3.875 0.296875q-1.921875 0 -3.234375 -0.5625q-1.3125 -0.5625 -2.109375 -1.578125q-0.796875 -1.03125 -1.15625 -2.421875q-0.34375 -1.390625 -0.34375 -3.09375l0 -9.34375l2.96875 0l0 8.703125q0 3.046875 0.953125 4.359375q0.96875 1.3125 3.234375 1.3125q0.484375 0 1.0 -0.03125q0.515625 -0.046875 0.953125 -0.09375q0.453125 -0.046875 0.8125 -0.09375q0.375 -0.046875 0.53125 -0.109375l0 -14.046875l2.984375 0l0 16.15625zm8.993042 -1.65625q1.8125 0 2.6875 -0.484375q0.890625 -0.484375 0.890625 -1.53125q0 -1.09375 -0.875 -1.734375q-0.859375 -0.640625 -2.84375 -1.4375q-0.953125 -0.390625 -1.84375 -0.78125q-0.875 -0.40625 -1.515625 -0.9375q-0.640625 -0.546875 -1.03125 -1.3125q-0.375 -0.78125 -0.375 -1.890625q0 -2.21875 1.625 -3.515625q1.640625 -1.296875 4.453125 -1.296875q0.703125 0 1.40625 0.09375q0.71875 0.078125 1.3125 0.1875q0.609375 0.109375 1.078125 0.234375q0.46875 0.125 0.71875 0.234375l-0.546875 2.546875q-0.46875 -0.25 -1.5 -0.515625q-1.015625 -0.28125 -2.46875 -0.28125q-1.234375 0 -2.171875 0.5q-0.921875 0.5 -0.921875 1.546875q0 0.546875 0.203125 0.96875q0.203125 0.40625 0.640625 0.75q0.4375 0.328125 1.078125 0.625q0.640625 0.28125 1.53125 0.609375q1.1875 0.4375 2.109375 0.875q0.9375 0.4375 1.578125 1.015625q0.65625 0.5625 1.015625 1.390625q0.359375 0.8125 0.359375 2.0q0 2.296875 -1.71875 3.484375q-1.71875 1.1875 -4.875 1.1875q-2.21875 0 -3.46875 -0.375q-1.234375 -0.375 -1.6875 -0.5625l0.546875 -2.5625q0.515625 0.203125 1.625 0.59375q1.125 0.375 2.984375 0.375zm16.412659 -7.015625q0.953125 0.734375 2.03125 1.828125q1.078125 1.09375 2.109375 2.359375q1.046875 1.25 1.96875 2.546875q0.921875 1.296875 1.5625 2.421875l-3.484375 0q-0.671875 -1.125 -1.546875 -2.28125q-0.875 -1.171875 -1.84375 -2.234375q-0.953125 -1.078125 -1.953125 -1.96875q-0.984375 -0.90625 -1.890625 -1.515625l0 8.0l-2.96875 0l0 -24.312496l2.96875 -0.515625l0 15.171871q0.765625 -0.78125 1.6875 -1.703125q0.9375 -0.921875 1.828125 -1.875q0.90625 -0.96875 1.703125 -1.84375q0.796875 -0.890625 1.375 -1.5625l3.484375 0q-0.734375 0.796875 -1.59375 1.765625q-0.859375 0.953125 -1.796875 1.9375q-0.921875 0.96875 -1.875 1.953125q-0.9375 0.96875 -1.765625 1.828125zm8.918915 0.875q0 -2.21875 0.640625 -3.859375q0.640625 -1.65625 1.703125 -2.734375q1.0625 -1.09375 2.4375 -1.640625q1.375 -0.546875 2.8125 -0.546875q3.359375 0 5.140625 2.109375q1.796875 2.09375 1.796875 6.375q0 0.1875 0 0.5q0 0.296875 -0.03125 0.5625l-11.390625 0q0.1875 2.59375 1.5 3.9375q1.3125 1.34375 4.109375 1.34375q1.5625 0 2.625 -0.265625q1.078125 -0.28125 1.625 -0.546875l0.421875 2.5q-0.546875 0.296875 -1.90625 0.609375q-1.359375 0.328125 -3.09375 0.328125q-2.171875 0 -3.765625 -0.65625q-1.578125 -0.65625 -2.609375 -1.8125q-1.015625 -1.15625 -1.515625 -2.734375q-0.5 -1.59375 -0.5 -3.46875zm11.4375 -1.640625q0.03125 -2.015625 -1.015625 -3.3125q-1.03125 -1.296875 -2.859375 -1.296875q-1.03125 0 -1.8125 0.40625q-0.78125 0.390625 -1.328125 1.03125q-0.546875 0.640625 -0.859375 1.484375q-0.296875 0.828125 -0.390625 1.6875l8.265625 0zm12.372406 10.234375q-2.75 -0.0625 -3.90625 -1.171875q-1.140625 -1.125 -1.140625 -3.5l0 -19.953121l2.96875 -0.515625l0 19.999996q0 0.734375 0.125 1.21875q0.140625 0.46875 0.421875 0.765625q0.28125 0.28125 0.765625 0.4375q0.484375 0.140625 1.1875 0.234375l-0.421875 2.484375zm25.831146 -8.625q0 1.96875 -0.578125 3.578125q-0.578125 1.59375 -1.625 2.75q-1.03125 1.15625 -2.46875 1.78125q-1.4375 0.625 -3.140625 0.625q-1.6875 0 -3.140625 -0.625q-1.4375 -0.625 -2.484375 -1.78125q-1.03125 -1.15625 -1.609375 -2.75q-0.578125 -1.609375 -0.578125 -3.578125q0 -1.953125 0.578125 -3.5625q0.578125 -1.625 1.609375 -2.78125q1.046875 -1.15625 2.484375 -1.78125q1.453125 -0.625 3.140625 -0.625q1.703125 0 3.140625 0.625q1.4375 0.625 2.46875 1.78125q1.046875 1.15625 1.625 2.78125q0.578125 1.609375 0.578125 3.5625zm-3.109375 0q0 -2.828125 -1.265625 -4.46875q-1.265625 -1.65625 -3.4375 -1.65625q-2.171875 0 -3.4375 1.65625q-1.265625 1.640625 -1.265625 4.46875q0 2.8125 1.265625 4.46875q1.265625 1.640625 3.4375 1.640625q2.171875 0 3.4375 -1.640625q1.265625 -1.65625 1.265625 -4.46875zm17.723785 6.65625q-0.375 0.25 -1.484375 0.65625q-1.09375 0.390625 -2.578125 0.390625q-1.5 0 -2.828125 -0.46875q-1.328125 -0.484375 -2.328125 -1.484375q-0.984375 -1.015625 -1.5625 -2.515625q-0.578125 -1.515625 -0.578125 -3.59375q0 -1.828125 0.546875 -3.34375q0.546875 -1.515625 1.578125 -2.625q1.046875 -1.109375 2.546875 -1.71875q1.515625 -0.625 3.40625 -0.625q2.078125 0 3.625 0.296875q1.546875 0.296875 2.609375 0.5625l0 14.84375q0 3.84375 -1.984375 5.5625q-1.984375 1.734375 -6.015625 1.734375q-1.5625 0 -2.96875 -0.265625q-1.390625 -0.25 -2.40625 -0.59375l0.546875 -2.59375q0.890625 0.34375 2.1875 0.609375q1.296875 0.28125 2.703125 0.28125q2.65625 0 3.8125 -1.0625q1.171875 -1.046875 1.171875 -3.34375l0 -0.703125zm-0.03125 -12.359375q-0.4375 -0.125 -1.1875 -0.234375q-0.75 -0.125 -2.03125 -0.125q-2.40625 0 -3.703125 1.578125q-1.296875 1.5625 -1.296875 4.15625q0 1.4375 0.359375 2.46875q0.375 1.015625 1.0 1.6875q0.625 0.671875 1.4375 1.0q0.828125 0.3125 1.6875 0.3125q1.1875 0 2.171875 -0.328125q1.0 -0.34375 1.5625 -0.78125l0 -9.734375zm19.372437 11.875q1.8125 0 2.6875 -0.484375q0.890625 -0.484375 0.890625 -1.53125q0 -1.09375 -0.875 -1.734375q-0.859375 -0.640625 -2.84375 -1.4375q-0.953125 -0.390625 -1.84375 -0.78125q-0.875 -0.40625 -1.515625 -0.9375q-0.640625 -0.546875 -1.03125 -1.3125q-0.375 -0.78125 -0.375 -1.890625q0 -2.21875 1.625 -3.515625q1.640625 -1.296875 4.453125 -1.296875q0.703125 0 1.40625 0.09375q0.71875 0.078125 1.3125 0.1875q0.609375 0.109375 1.078125 0.234375q0.46875 0.125 0.71875 0.234375l-0.546875 2.546875q-0.46875 -0.25 -1.5 -0.515625q-1.015625 -0.28125 -2.46875 -0.28125q-1.234375 0 -2.171875 0.5q-0.921875 0.5 -0.921875 1.546875q0 0.546875 0.203125 0.96875q0.203125 0.40625 0.640625 0.75q0.4375 0.328125 1.078125 0.625q0.640625 0.28125 1.53125 0.609375q1.1875 0.4375 2.109375 0.875q0.9375 0.4375 1.578125 1.015625q0.65625 0.5625 1.015625 1.390625q0.359375 0.8125 0.359375 2.0q0 2.296875 -1.71875 3.484375q-1.71875 1.1875 -4.875 1.1875q-2.21875 0 -3.46875 -0.375q-1.234375 -0.375 -1.6875 -0.5625l0.546875 -2.5625q0.515625 0.203125 1.625 0.59375q1.125 0.375 2.984375 0.375zm13.178284 -14.5l6.296875 0l0 2.5l-6.296875 0l0 7.671875q0 1.25 0.1875 2.078125q0.203125 0.8125 0.578125 1.28125q0.390625 0.453125 0.953125 0.65625q0.578125 0.1875 1.359375 0.1875q1.34375 0 2.15625 -0.296875q0.8125 -0.3125 1.140625 -0.453125l0.5625 2.46875q-0.4375 0.234375 -1.5625 0.5625q-1.125 0.34375 -2.5625 0.34375q-1.6875 0 -2.796875 -0.4375q-1.109375 -0.4375 -1.78125 -1.296875q-0.671875 -0.859375 -0.9375 -2.125q-0.265625 -1.265625 -0.265625 -2.9375l0 -14.843746l2.96875 -0.515625l0 5.156246zm8.129639 19.75q0.34375 0.15625 0.90625 0.296875q0.5625 0.140625 1.109375 0.140625q1.765625 0 2.75 -0.78125q1.0 -0.78125 1.796875 -2.546875q-2.015625 -3.828125 -3.765625 -8.125q-1.75 -4.3125 -2.890625 -8.734375l3.203125 0q0.34375 1.4375 0.84375 3.109375q0.5 1.65625 1.09375 3.421875q0.609375 1.75 1.3125 3.515625q0.71875 1.765625 1.484375 3.390625q1.203125 -3.359375 2.09375 -6.65625q0.90625 -3.296875 1.703125 -6.78125l3.078125 0q-1.15625 4.703125 -2.5625 9.046875q-1.40625 4.328125 -3.03125 8.109375q-0.640625 1.4375 -1.328125 2.46875q-0.6875 1.046875 -1.53125 1.71875q-0.828125 0.671875 -1.875 0.984375q-1.03125 0.328125 -2.34375 0.328125q-0.359375 0 -0.75 -0.046875q-0.375 -0.046875 -0.75 -0.125q-0.359375 -0.078125 -0.671875 -0.1875q-0.296875 -0.09375 -0.421875 -0.15625l0.546875 -2.390625zm23.997803 -20.09375q0.390625 0 0.875 0.046875q0.5 0.046875 0.984375 0.125q0.484375 0.078125 0.875 0.15625q0.40625 0.078125 0.59375 0.140625l-0.515625 2.59375q-0.34375 -0.125 -1.171875 -0.296875q-0.8125 -0.1875 -2.09375 -0.1875q-0.828125 0 -1.640625 0.1875q-0.8125 0.171875 -1.078125 0.234375l0 13.984375l-2.96875 0l0 -15.9375q1.046875 -0.375 2.609375 -0.703125q1.578125 -0.34375 3.53125 -0.34375zm12.22702 7.828125q0.953125 0.734375 2.03125 1.828125q1.078125 1.09375 2.109375 2.359375q1.046875 1.25 1.96875 2.546875q0.921875 1.296875 1.5625 2.421875l-3.484375 0q-0.671875 -1.125 -1.546875 -2.28125q-0.875 -1.171875 -1.84375 -2.234375q-0.953125 -1.078125 -1.953125 -1.96875q-0.984375 -0.90625 -1.890625 -1.515625l0 8.0l-2.96875 0l0 -24.312496l2.96875 -0.515625l0 15.171871q0.765625 -0.78125 1.6875 -1.703125q0.9375 -0.921875 1.828125 -1.875q0.90625 -0.96875 1.703125 -1.84375q0.796875 -0.890625 1.375 -1.5625l3.484375 0q-0.734375 0.796875 -1.59375 1.765625q-0.859375 0.953125 -1.796875 1.9375q-0.921875 0.96875 -1.875 1.953125q-0.9375 0.96875 -1.765625 1.828125zm8.918915 0.875q0 -2.21875 0.640625 -3.859375q0.640625 -1.65625 1.703125 -2.734375q1.0625 -1.09375 2.4375 -1.640625q1.375 -0.546875 2.8125 -0.546875q3.359375 0 5.140625 2.109375q1.796875 2.09375 1.796875 6.375q0 0.1875 0 0.5q0 0.296875 -0.03125 0.5625l-11.390625 0q0.1875 2.59375 1.5 3.9375q1.3125 1.34375 4.109375 1.34375q1.5625 0 2.625 -0.265625q1.078125 -0.28125 1.625 -0.546875l0.421875 2.5q-0.546875 0.296875 -1.90625 0.609375q-1.359375 0.328125 -3.09375 0.328125q-2.171875 0 -3.765625 -0.65625q-1.578125 -0.65625 -2.609375 -1.8125q-1.015625 -1.15625 -1.515625 -2.734375q-0.5 -1.59375 -0.5 -3.46875zm11.4375 -1.640625q0.03125 -2.015625 -1.015625 -3.3125q-1.03125 -1.296875 -2.859375 -1.296875q-1.03125 0 -1.8125 0.40625q-0.78125 0.390625 -1.328125 1.03125q-0.546875 0.640625 -0.859375 1.484375q-0.296875 0.828125 -0.390625 1.6875l8.265625 0z" fill-rule="nonzero"/><path fill="#000000" fill-opacity="0.0" d="m203.73753 63.427822l372.28345 0l0 70.99213l-372.28345 0z" fill-rule="evenodd"/><path fill="#000000" d="m290.78012 89.508446l0 5.390625l-13.953125 0l0 38.968758l-6.21875 0l0 -38.968758l-13.9375 0l0 -5.390625l34.109375 0zm15.86557 10.375q0.765625 0 1.75 0.09375q1.0 0.09375 1.953125 0.265625q0.96875 0.15625 1.765625 0.3125q0.8125 0.15625 1.1875 0.28125l-1.015625 5.1875q-0.703125 -0.25 -2.34375 -0.59375q-1.625 -0.359375 -4.1875 -0.359375q-1.671875 0 -3.3125 0.359375q-1.625 0.34375 -2.125 0.46875l0 27.968758l-5.953125 0l0 -31.875008q2.109375 -0.765625 5.234375 -1.4375q3.140625 -0.671875 7.046875 -0.671875zm46.532074 34.750008q-3.65625 0 -6.375 -0.859375q-2.71875 -0.859375 -4.765625 -2.53125q-0.640625 0.453125 -1.703125 1.03125q-1.046875 0.5625 -2.515625 1.109375q-1.46875 0.546875 -3.296875 0.890625q-1.828125 0.359375 -4.0 0.359375q-3.203125 0 -5.734375 -0.578125q-2.53125 -0.578125 -4.328125 -1.84375q-1.78125 -1.28125 -2.75 -3.328125q-0.953125 -2.0625076 -0.953125 -4.9375076q0 -2.75 1.125 -4.734375q1.125 -1.984375 3.03125 -3.203125q1.921875 -1.21875 4.484375 -1.78125q2.5625 -0.578125 5.375 -0.578125q0.90625 0 1.859375 0.09375q0.953125 0.09375 1.78125 0.25q0.84375 0.15625 1.484375 0.296875q0.640625 0.125 0.890625 0.1875l0 -1.671875q0 -1.46875 -0.328125 -2.90625q-0.3125 -1.4375 -1.140625 -2.546875q-0.828125 -1.125 -2.28125 -1.796875q-1.4375 -0.671875 -3.734375 -0.671875q-2.9375 0 -5.15625 0.421875q-2.203125 0.40625 -3.296875 0.84375l-0.703125 -4.921875q1.15625 -0.515625 3.8125 -0.984375q2.65625 -0.484375 5.734375 -0.484375q4.40625 0 7.0 1.5q2.59375 1.5 3.875 4.1875q2.109375 -2.875 4.984375 -4.28125q2.890625 -1.40625 6.015625 -1.40625q6.65625 0 10.265625 4.234375q3.625 4.21875 3.625 12.71875q0 0.515625 -0.03125 0.875q-0.03125 0.34375 -0.03125 0.671875l0 0.5625l-22.78125 0q0.390625 5.125 3.046875 7.84375q2.65625 2.7187576 8.15625 2.7187576q3.140625 0 5.28125 -0.53125q2.140625 -0.546875 3.234375 -1.0625076l0.828125 4.9843826q-1.09375 0.578125 -3.8125 1.21875q-2.71875 0.640625 -6.171875 0.640625zm-22.53125 -5.046875q3.328125 0 5.25 -0.734375q1.921875 -0.75 2.9375 -1.4531326q-0.953125 -1.78125 -1.5 -3.828125q-0.546875 -2.0625 -0.609375 -4.359375q-0.703125 -0.3125 -2.046875 -0.53125q-1.34375 -0.234375 -3.390625 -0.234375q-1.34375 0 -2.859375 0.1875q-1.5 0.1875 -2.75 0.796875q-1.234375 0.609375 -2.078125 1.671875q-0.828125 1.046875 -0.828125 2.78125q0 3.265625 2.078125 4.4843826q2.078125 1.21875 5.796875 1.21875zm28.609375 -15.562508q0.0625 -4.03125 -2.015625 -6.625q-2.078125 -2.59375 -5.734375 -2.59375q-2.046875 0 -3.609375 0.8125q-1.5625 0.796875 -2.625 2.078125q-1.0625 1.28125 -1.703125 2.953125q-0.640625 1.65625 -0.828125 3.375l16.515625 0zm14.788422 -12.46875q2.046875 -0.515625 5.4375 -1.09375q3.390625 -0.578125 7.8125 -0.578125q3.96875 0 6.578125 1.125q2.625 1.109375 4.1875 3.125q1.578125 2.015625 2.21875 4.84375q0.640625 2.8125 0.640625 6.203125l0 18.687508l-5.953125 0l0 -17.406258q0 -3.078125 -0.421875 -5.25q-0.40625 -2.171875 -1.375 -3.515625q-0.953125 -1.34375 -2.5625 -1.953125q-1.59375 -0.609375 -3.953125 -0.609375q-0.96875 0 -2.0 0.0625q-1.015625 0.0625 -1.953125 0.15625q-0.921875 0.09375 -1.65625 0.234375q-0.734375 0.125 -1.046875 0.1875l0 28.093758l-5.953125 0l0 -32.312508zm42.689056 32.312508l-5.953125 0l0 -33.281258l5.953125 0l0 33.281258zm-3.015625 -39.296883q-1.59375 0 -2.71875 -1.046875q-1.125 -1.0625 -1.125 -2.859375q0 -1.78125 1.125 -2.84375q1.125 -1.0625 2.71875 -1.0625q1.59375 0 2.71875 1.0625q1.125 1.0625 1.125 2.84375q0 1.796875 -1.125 2.859375q-1.125 1.046875 -2.71875 1.046875zm13.254456 6.984375q2.046875 -0.515625 5.4375 -1.09375q3.390625 -0.578125 7.8125 -0.578125q3.96875 0 6.578125 1.125q2.625 1.109375 4.1875 3.125q1.578125 2.015625 2.21875 4.84375q0.640625 2.8125 0.640625 6.203125l0 18.687508l-5.953125 0l0 -17.406258q0 -3.078125 -0.421875 -5.25q-0.40625 -2.171875 -1.375 -3.515625q-0.953125 -1.34375 -2.5625 -1.953125q-1.59375 -0.609375 -3.953125 -0.609375q-0.96875 0 -2.0 0.0625q-1.015625 0.0625 -1.953125 0.15625q-0.921875 0.09375 -1.65625 0.234375q-0.734375 0.125 -1.046875 0.1875l0 28.093758l-5.953125 0l0 -32.312508zm57.595306 28.984383q-0.765625 0.515625 -2.984375 1.3125q-2.203125 0.796875 -5.140625 0.796875q-3.015625 0 -5.671875 -0.953125q-2.65625 -0.96875 -4.640625 -2.984375q-1.984375 -2.0156326 -3.140625 -5.0156326q-1.140625 -3.015625 -1.140625 -7.171875q0 -3.640625 1.078125 -6.6875q1.09375 -3.046875 3.171875 -5.25q2.078125 -2.203125 5.078125 -3.453125q3.015625 -1.25 6.796875 -1.25q4.15625 0 7.265625 0.609375q3.109375 0.609375 5.21875 1.125l0 29.687508q0 7.6875 -3.96875 11.140625q-3.96875 3.453125 -12.03125 3.453125q-3.140625 0 -5.921875 -0.515625q-2.78125 -0.5 -4.828125 -1.21875l1.078125 -5.171875q1.796875 0.703125 4.390625 1.234375q2.59375 0.546875 5.40625 0.546875q5.3125 0 7.640625 -2.109375q2.34375 -2.109375 2.34375 -6.71875l0 -1.40625zm-0.0625 -24.703133q-0.890625 -0.25 -2.40625 -0.46875q-1.5 -0.234375 -4.0625 -0.234375q-4.796875 0 -7.390625 3.140625q-2.59375 3.125 -2.59375 8.3125q0 2.875 0.734375 4.9375q0.734375 2.046875 1.984375 3.390625q1.25 1.34375 2.875 1.984375q1.640625 0.625 3.375 0.625q2.359375 0 4.34375 -0.671875q1.984375 -0.671875 3.140625 -1.5625l0 -19.453125zm23.929443 23.750008q3.65625 0 5.40625 -0.953125q1.765625 -0.9687576 1.765625 -3.0781326q0 -2.1875 -1.734375 -3.46875q-1.71875 -1.28125 -5.6875 -2.875q-1.921875 -0.765625 -3.6875 -1.5625q-1.75 -0.8125 -3.03125 -1.890625q-1.28125 -1.09375 -2.046875 -2.625q-0.765625 -1.53125 -0.765625 -3.78125q0 -4.40625 3.25 -7.0q3.265625 -2.59375 8.90625 -2.59375q1.40625 0 2.8125 0.15625q1.40625 0.15625 2.625 0.390625q1.21875 0.21875 2.140625 0.484375q0.9375 0.25 1.4375 0.4375l-1.078125 5.125q-0.96875 -0.515625 -3.015625 -1.0625q-2.046875 -0.546875 -4.921875 -0.546875q-2.5 0 -4.359375 1.0q-1.84375 0.984375 -1.84375 3.09375q0 1.09375 0.40625 1.9375q0.421875 0.828125 1.28125 1.5q0.859375 0.671875 2.140625 1.25q1.28125 0.5625 3.078125 1.203125q2.359375 0.90625 4.21875 1.765625q1.859375 0.859375 3.171875 2.015625q1.3125 1.15625 2.015625 2.796875q0.703125 1.625 0.703125 3.984375q0 4.6093826 -3.421875 6.9843826q-3.421875 2.359375 -9.765625 2.359375q-4.40625 0 -6.90625 -0.734375q-2.5 -0.734375 -3.390625 -1.125l1.078125 -5.1093826q1.03125 0.37500763 3.265625 1.1562576q2.25 0.765625 5.953125 0.765625z" fill-rule="nonzero"/><path fill="#000000" fill-opacity="0.0" d="m203.73753 107.666664l372.28345 0l0 70.992134l-372.28345 0z" fill-rule="evenodd"/><path fill="#000000" d="m240.07318 137.46666q11.6875 0 17.96875 4.4375q6.28125 4.4375 6.28125 13.25q0 4.796875 -1.71875 8.203125q-1.71875 3.390625 -4.96875 5.515625q-3.234375 2.109375 -7.875 3.078125q-4.640625 0.953125 -10.484375 0.953125l-6.15625 0l0 20.5625l-7.765625 0l0 -54.640625q3.28125 -0.796875 7.3125 -1.078125q4.046875 -0.28125 7.40625 -0.28125zm0.640625 6.796875q-4.953125 0 -7.59375 0.25l0 21.75l5.84375 0q4.0 0 7.1875 -0.515625q3.203125 -0.515625 5.40625 -1.75q2.203125 -1.25 3.40625 -3.40625q1.203125 -2.171875 1.203125 -5.53125q0 -3.1875 -1.25 -5.265625q-1.234375 -2.09375 -3.359375 -3.328125q-2.125 -1.234375 -4.921875 -1.71875q-2.796875 -0.484375 -5.921875 -0.484375zm28.721191 56.96875q0.890625 0.390625 2.28125 0.75q1.40625 0.359375 2.765625 0.359375q4.390625 0 6.875 -1.96875q2.484375 -1.953125 4.484375 -6.34375q-5.046875 -9.609375 -9.40625 -20.359375q-4.359375 -10.765625 -7.234375 -21.796875l8.0 0q0.875 3.59375 2.109375 7.75q1.25 4.15625 2.765625 8.5625q1.53125 4.40625 3.28125 8.8125q1.765625 4.390625 3.6875 8.46875q3.03125 -8.40625 5.265625 -16.640625q2.25 -8.234375 4.25 -16.953125l7.671875 0q-2.875 11.75 -6.390625 22.59375q-3.515625 10.84375 -7.609375 20.28125q-1.59375 3.59375 -3.3125 6.1875q-1.71875 2.609375 -3.796875 4.28125q-2.078125 1.6875 -4.6875 2.484375q-2.59375 0.8125 -5.875 0.8125q-0.875 0 -1.84375 -0.125q-0.953125 -0.125 -1.875 -0.328125q-0.921875 -0.1875 -1.6875 -0.4375q-0.75 -0.234375 -1.078125 -0.390625l1.359375 -6.0zm60.00998 -50.25q0.953125 0 2.1875 0.125q1.25 0.125 2.4375 0.328125q1.203125 0.1875 2.203125 0.390625q1.0 0.203125 1.484375 0.359375l-1.28125 6.484375q-0.875 -0.328125 -2.921875 -0.765625q-2.03125 -0.4375 -5.234375 -0.4375q-2.078125 0 -4.125 0.4375q-2.03125 0.4375 -2.671875 0.609375l0 34.953125l-7.4375 0l0 -39.84375q2.640625 -0.953125 6.546875 -1.796875q3.921875 -0.84375 8.8125 -0.84375zm29.598724 37.125q2.640625 0 4.671875 -0.109375q2.046875 -0.125 3.40625 -0.453125l0 -12.390625q-0.796875 -0.40625 -2.609375 -0.6875q-1.796875 -0.28125 -4.359375 -0.28125q-1.671875 0 -3.5625 0.25q-1.875 0.234375 -3.4375 1.0q-1.546875 0.75 -2.59375 2.078125q-1.046875 1.3125 -1.046875 3.46875q0 4.0 2.5625 5.5625q2.5625 1.5625 6.96875 1.5625zm-0.640625 -37.28125q4.46875 0 7.546875 1.171875q3.09375 1.15625 4.96875 3.28125q1.875 2.109375 2.671875 5.03125q0.8125 2.921875 0.8125 6.4375l0 26.0q-0.96875 0.15625 -2.6875 0.4375q-1.71875 0.28125 -3.875 0.515625q-2.15625 0.25 -4.6875 0.4375q-2.515625 0.203125 -5.0 0.203125q-3.515625 0 -6.484375 -0.71875q-2.953125 -0.71875 -5.109375 -2.28125q-2.15625 -1.5625 -3.359375 -4.109375q-1.203125 -2.5625 -1.203125 -6.171875q0 -3.4375 1.390625 -5.90625q1.40625 -2.484375 3.8125 -4.0q2.40625 -1.53125 5.59375 -2.25q3.203125 -0.71875 6.71875 -0.71875q1.125 0 2.328125 0.125q1.203125 0.109375 2.28125 0.3125q1.078125 0.203125 1.875 0.375q0.796875 0.15625 1.125 0.234375l0 -2.078125q0 -1.84375 -0.40625 -3.640625q-0.390625 -1.8125 -1.4375 -3.203125q-1.03125 -1.40625 -2.84375 -2.234375q-1.796875 -0.84375 -4.671875 -0.84375q-3.6875 0 -6.453125 0.515625q-2.75 0.515625 -4.109375 1.078125l-0.875 -6.15625q1.4375 -0.640625 4.796875 -1.234375q3.359375 -0.609375 7.28125 -0.609375zm28.322449 2.234375q2.546875 -0.640625 6.75 -1.359375q4.203125 -0.71875 9.71875 -0.71875q4.0 0 6.71875 1.09375q2.71875 1.078125 4.5625 3.15625q0.5625 -0.40625 1.765625 -1.125q1.203125 -0.71875 2.953125 -1.390625q1.765625 -0.6875 3.921875 -1.203125q2.15625 -0.53125 4.640625 -0.53125q4.796875 0 7.828125 1.40625q3.046875 1.390625 4.765625 3.953125q1.734375 2.5625 2.328125 6.09375q0.59375 3.515625 0.59375 7.671875l0 23.359375l-7.4375 0l0 -21.765625q0 -3.671875 -0.359375 -6.3125q-0.359375 -2.640625 -1.359375 -4.390625q-1.0 -1.765625 -2.71875 -2.609375q-1.71875 -0.84375 -4.4375 -0.84375q-3.765625 0 -6.203125 1.0q-2.4375 1.0 -3.3125 1.796875q0.640625 2.078125 0.953125 4.5625q0.328125 2.484375 0.328125 5.203125l0 23.359375l-7.453125 0l0 -21.765625q0 -3.671875 -0.40625 -6.3125q-0.390625 -2.640625 -1.390625 -4.390625q-1.0 -1.765625 -2.71875 -2.609375q-1.71875 -0.84375 -4.359375 -0.84375q-1.125 0 -2.40625 0.078125q-1.265625 0.078125 -2.4375 0.203125q-1.15625 0.125 -2.125 0.28125q-0.953125 0.15625 -1.265625 0.234375l0 35.125l-7.4375 0l0 -40.40625zm76.31741 40.40625l-7.4374695 0l0 -41.59375l7.4374695 0l0 41.59375zm-3.7655945 -49.125q-2.0 0 -3.40625 -1.3125q-1.390625 -1.328125 -1.390625 -3.5625q0 -2.234375 1.390625 -3.546875q1.40625 -1.328125 3.40625 -1.328125q1.9999695 0 3.3905945 1.328125q1.40625 1.3125 1.40625 3.546875q0 2.234375 -1.40625 3.5625q-1.390625 1.3125 -3.3905945 1.3125zm43.443085 16.328125q-1.359375 -1.125 -3.921875 -2.15625q-2.5625 -1.046875 -5.59375 -1.046875q-3.203125 0 -5.484375 1.15625q-2.28125 1.15625 -3.71875 3.203125q-1.4375 2.046875 -2.078125 4.84375q-0.640625 2.796875 -0.640625 6.0q0 7.28125 3.59375 11.25q3.609375 3.953125 9.609375 3.953125q3.03125 0 5.0625 -0.28125q2.046875 -0.28125 3.171875 -0.609375l0 -26.3125zm0 -28.0l7.4375 -1.28125l0 60.875q-2.5625 0.71875 -6.5625 1.4375q-4.0 0.71875 -9.203125 0.71875q-4.796875 0 -8.640625 -1.515625q-3.828125 -1.515625 -6.546875 -4.3125q-2.71875 -2.8125 -4.203125 -6.84375q-1.484375 -4.046875 -1.484375 -9.078125q0 -4.796875 1.234375 -8.796875q1.25 -4.0 3.640625 -6.875q2.40625 -2.890625 5.875 -4.484375q3.484375 -1.609375 7.96875 -1.609375q3.609375 0 6.359375 0.96875q2.765625 0.953125 4.125 1.828125l0 -21.03125zm17.91684 40.078125q0 -5.515625 1.59375 -9.640625q1.609375 -4.125 4.25 -6.84375q2.640625 -2.71875 6.078125 -4.078125q3.4375 -1.359375 7.046875 -1.359375q8.390625 0 12.875 5.25q4.484375 5.234375 4.484375 15.953125q0 0.484375 0 1.25q0 0.75 -0.09375 1.390625l-28.46875 0q0.46875 6.484375 3.75 9.84375q3.28125 3.359375 10.25 3.359375q3.921875 0 6.59375 -0.671875q2.6875 -0.6875 4.046875 -1.328125l1.03125 6.234375q-1.359375 0.71875 -4.765625 1.515625q-3.390625 0.796875 -7.703125 0.796875q-5.453125 0 -9.40625 -1.625q-3.953125 -1.640625 -6.515625 -4.515625q-2.5625 -2.890625 -3.8125 -6.84375q-1.234375 -3.96875 -1.234375 -8.6875zm28.5625 -4.078125q0.078125 -5.046875 -2.53125 -8.28125q-2.59375 -3.234375 -7.15625 -3.234375q-2.546875 0 -4.515625 1.0q-1.953125 1.0 -3.3125 2.59375q-1.359375 1.59375 -2.125 3.6875q-0.765625 2.078125 -1.0 4.234375l20.640625 0z" fill-rule="nonzero"/><path fill="#000000" fill-opacity="0.0" d="m693.0 206.6665l0 0c12.150269 0 22.0 1.6415558 22.0 3.6665192l0 173.67482c0 2.0249634 9.849731 3.6665344 22.0 3.6665344l0 0c-12.150269 0 -22.0 1.6415405 -22.0 3.666504l0 173.67487c0 2.0249634 -9.849731 3.666504 -22.0 3.666504z" fill-rule="evenodd"/><path fill="#000000" fill-opacity="0.0" d="m693.0 206.6665l0 0c12.150269 0 22.0 1.6415558 22.0 3.6665192l0 173.67482c0 2.0249634 9.849731 3.6665344 22.0 3.6665344l0 0c-12.150269 0 -22.0 1.6415405 -22.0 3.666504l0 173.67487c0 2.0249634 -9.849731 3.666504 -22.0 3.666504" fill-rule="evenodd"/><path stroke="#000000" stroke-width="2.0" stroke-linejoin="round" stroke-linecap="butt" d="m693.0 206.6665l0 0c12.150269 0 22.0 1.6415558 22.0 3.6665192l0 173.67482c0 2.0249634 9.849731 3.6665344 22.0 3.6665344l0 0c-12.150269 0 -22.0 1.6415405 -22.0 3.666504l0 173.67487c0 2.0249634 -9.849731 3.666504 -22.0 3.666504" fill-rule="evenodd"/><path fill="#c27ba0" d="m649.9816 387.67453l16.0 -16.0l0 8.0l36.283447 0l0 16.0l-36.283447 0l0 8.0z" fill-rule="evenodd"/><path stroke="#a64d79" stroke-width="2.0" stroke-linejoin="round" stroke-linecap="butt" d="m649.9816 387.67453l16.0 -16.0l0 8.0l36.283447 0l0 16.0l-36.283447 0l0 8.0z" fill-rule="evenodd"/><path fill="#000000" fill-opacity="0.0" d="m772.0 225.66667l0 338.99213l-29.007874 0l0 -338.99213z" fill-rule="evenodd"/><path fill="#000000" d="m758.1425 344.20673q0 2.734375 -1.046875 4.1875q-1.03125 1.46875 -3.078125 1.46875q-1.125 0 -1.921875 -0.40625q-0.78125 -0.390625 -1.28125 -1.15625q-0.484375 -0.75 -0.71875 -1.828125q-0.21875 -1.078125 -0.21875 -2.453125l0 -1.421875l-4.796875 0l0 -1.8125l12.75 0q0.171875 0.765625 0.234375 1.703125q0.078125 0.9375 0.078125 1.71875zm-1.59375 0.15625q0 -1.15625 -0.046875 -1.765625l-5.078125 0l0 1.359375q0 0.921875 0.109375 1.671875q0.125 0.75 0.40625 1.265625q0.296875 0.515625 0.796875 0.78125q0.515625 0.28125 1.296875 0.28125q0.75 0 1.234375 -0.296875q0.484375 -0.28125 0.765625 -0.78125q0.296875 -0.484375 0.40625 -1.140625q0.109375 -0.65625 0.109375 -1.375zm-6.640625 6.5112915q1.296875 0 2.25 0.375q0.96875 0.375 1.59375 0.984375q0.640625 0.609375 0.953125 1.40625q0.3125 0.8125 0.3125 1.65625q0 1.953125 -1.21875 3.0q-1.21875 1.046875 -3.71875 1.046875q-0.109375 0 -0.296875 0q-0.171875 0 -0.3125 -0.015625l0 -6.640625q-1.515625 0.109375 -2.296875 0.875q-0.78125 0.765625 -0.78125 2.390625q0 0.90625 0.15625 1.53125q0.15625 0.625 0.296875 0.9375l-1.453125 0.25q-0.15625 -0.3125 -0.34375 -1.109375q-0.1875 -0.796875 -0.1875 -1.796875q0 -1.265625 0.375 -2.203125q0.390625 -0.921875 1.0625 -1.515625q0.671875 -0.59375 1.59375 -0.890625q0.921875 -0.28125 2.015625 -0.28125zm0.953125 6.65625q1.171875 0.015625 1.921875 -0.59375q0.765625 -0.59375 0.765625 -1.65625q0 -0.609375 -0.234375 -1.0625q-0.234375 -0.453125 -0.609375 -0.78125q-0.375 -0.3125 -0.859375 -0.484375q-0.484375 -0.171875 -0.984375 -0.234375l0 4.8125zm4.125 7.897583q0 0.21875 -0.03125 0.5q-0.03125 0.296875 -0.078125 0.578125q-0.046875 0.28125 -0.09375 0.515625q-0.046875 0.234375 -0.078125 0.34375l-1.515625 -0.296875q0.078125 -0.203125 0.171875 -0.6875q0.109375 -0.46875 0.109375 -1.21875q0 -0.484375 -0.109375 -0.96875q-0.09375 -0.46875 -0.125 -0.609375l-8.15625 0l0 -1.734375l9.296875 0q0.21875 0.609375 0.40625 1.515625q0.203125 0.921875 0.203125 2.0625zm-9.90625 5.3575745l0 -1.734375l9.703125 0l0 1.734375l-9.703125 0zm11.453125 -0.890625q0 -0.453125 0.3125 -0.78125q0.3125 -0.328125 0.828125 -0.328125q0.515625 0 0.828125 0.328125q0.3125 0.328125 0.3125 0.78125q0 0.46875 -0.3125 0.796875q-0.3125 0.328125 -0.828125 0.328125q-0.515625 0 -0.828125 -0.328125q-0.3125 -0.328125 -0.3125 -0.796875zm-6.609375 12.438782q-1.15625 0 -2.09375 -0.34375q-0.921875 -0.328125 -1.59375 -0.9375q-0.671875 -0.609375 -1.046875 -1.453125q-0.359375 -0.828125 -0.359375 -1.828125q0 -0.984375 0.359375 -1.828125q0.375 -0.84375 1.046875 -1.453125q0.671875 -0.59375 1.59375 -0.9375q0.9375 -0.328125 2.09375 -0.328125q1.140625 0 2.078125 0.328125q0.953125 0.34375 1.625 0.9375q0.671875 0.609375 1.03125 1.453125q0.359375 0.84375 0.359375 1.828125q0 1.0 -0.359375 1.828125q-0.359375 0.84375 -1.03125 1.453125q-0.671875 0.609375 -1.625 0.9375q-0.9375 0.34375 -2.078125 0.34375zm0 -1.8125q1.65625 0 2.609375 -0.75q0.953125 -0.734375 0.953125 -2.0q0 -1.265625 -0.953125 -2.0q-0.953125 -0.734375 -2.609375 -0.734375q-1.640625 0 -2.609375 0.734375q-0.953125 0.734375 -0.953125 2.0q0 1.265625 0.953125 2.0q0.96875 0.75 2.609375 0.75zm2.8125 10.522797q0.25 -0.328125 0.484375 -0.921875q0.25 -0.59375 0.25 -1.296875q0 -0.75 -0.265625 -1.28125q-0.265625 -0.53125 -0.75 -0.875q-0.46875 -0.328125 -1.125 -0.484375q-0.65625 -0.140625 -1.40625 -0.140625q-1.6875 0 -2.609375 0.828125q-0.921875 0.84375 -0.921875 2.25q0 0.703125 0.0625 1.171875q0.0625 0.484375 0.140625 0.75l6.140625 0zm6.515625 0l0.3125 1.734375l-14.203125 0q-0.171875 -0.59375 -0.328125 -1.53125q-0.171875 -0.9375 -0.171875 -2.140625q0 -1.125 0.34375 -2.03125q0.359375 -0.890625 1.015625 -1.53125q0.65625 -0.625 1.59375 -0.96875q0.9375 -0.34375 2.109375 -0.34375q1.125 0 2.046875 0.28125q0.9375 0.296875 1.609375 0.859375q0.671875 0.5625 1.046875 1.359375q0.375 0.8125 0.375 1.859375q0 0.84375 -0.21875 1.484375q-0.21875 0.640625 -0.4375 0.96875l4.90625 0zm-14.171875 6.457306l0 -1.734375l9.703125 0l0 1.734375l-9.703125 0zm11.453125 -0.890625q0 -0.453125 0.3125 -0.78125q0.3125 -0.328125 0.828125 -0.328125q0.515625 0 0.828125 0.328125q0.3125 0.328125 0.3125 0.78125q0 0.46875 -0.3125 0.796875q-0.3125 0.328125 -0.828125 0.328125q-0.515625 0 -0.828125 -0.328125q-0.3125 -0.328125 -0.3125 -0.796875zm-10.203125 6.1262817q0 1.0625 0.28125 1.578125q0.28125 0.515625 0.890625 0.515625q0.640625 0 1.015625 -0.515625q0.375 -0.5 0.828125 -1.65625q0.234375 -0.5625 0.46875 -1.078125q0.234375 -0.5 0.546875 -0.875q0.3125 -0.375 0.765625 -0.609375q0.453125 -0.21875 1.09375 -0.21875q1.296875 0 2.046875 0.953125q0.75 0.953125 0.75 2.59375q0 0.40625 -0.046875 0.8125q-0.046875 0.421875 -0.109375 0.765625q-0.0625 0.359375 -0.140625 0.625q-0.0625 0.28125 -0.125 0.4375l-1.5 -0.328125q0.15625 -0.28125 0.3125 -0.875q0.15625 -0.59375 0.15625 -1.4375q0 -0.71875 -0.296875 -1.265625q-0.28125 -0.546875 -0.890625 -0.546875q-0.3125 0 -0.5625 0.125q-0.234375 0.125 -0.4375 0.375q-0.203125 0.25 -0.375 0.625q-0.15625 0.375 -0.34375 0.890625q-0.265625 0.6875 -0.515625 1.234375q-0.25 0.546875 -0.59375 0.921875q-0.328125 0.390625 -0.8125 0.59375q-0.46875 0.203125 -1.15625 0.203125q-1.34375 0 -2.03125 -1.0q-0.6875 -1.0 -0.6875 -2.84375q0 -1.28125 0.21875 -2.015625q0.203125 -0.734375 0.3125 -0.984375l1.5 0.3125q-0.109375 0.296875 -0.34375 0.953125q-0.21875 0.65625 -0.21875 1.734375zm3.578125 5.5238037q1.296875 0 2.25 0.375q0.96875 0.375 1.59375 0.984375q0.640625 0.609375 0.953125 1.40625q0.3125 0.8125 0.3125 1.65625q0 1.953125 -1.21875 3.0q-1.21875 1.046875 -3.71875 1.046875q-0.109375 0 -0.296875 0q-0.171875 0 -0.3125 -0.015625l0 -6.640625q-1.515625 0.109375 -2.296875 0.875q-0.78125 0.765625 -0.78125 2.390625q0 0.90625 0.15625 1.53125q0.15625 0.625 0.296875 0.9375l-1.453125 0.25q-0.15625 -0.3125 -0.34375 -1.109375q-0.1875 -0.796875 -0.1875 -1.796875q0 -1.265625 0.375 -2.203125q0.390625 -0.921875 1.0625 -1.515625q0.671875 -0.59375 1.59375 -0.890625q0.921875 -0.28125 2.015625 -0.28125zm0.953125 6.65625q1.171875 0.015625 1.921875 -0.59375q0.765625 -0.59375 0.765625 -1.65625q0 -0.609375 -0.234375 -1.0625q-0.234375 -0.453125 -0.609375 -0.78125q-0.375 -0.3125 -0.859375 -0.484375q-0.484375 -0.171875 -0.984375 -0.234375l0 4.8125zm4.125 7.8976135q0 0.21875 -0.03125 0.5q-0.03125 0.296875 -0.078125 0.578125q-0.046875 0.28125 -0.09375 0.515625q-0.046875 0.234375 -0.078125 0.34375l-1.515625 -0.296875q0.078125 -0.203125 0.171875 -0.6875q0.109375 -0.46875 0.109375 -1.21875q0 -0.484375 -0.109375 -0.96875q-0.09375 -0.46875 -0.125 -0.609375l-8.15625 0l0 -1.734375l9.296875 0q0.21875 0.609375 0.40625 1.515625q0.203125 0.921875 0.203125 2.0625zm-9.90625 5.357544l0 -1.734375l9.703125 0l0 1.734375l-9.703125 0zm11.453125 -0.890625q0 -0.453125 0.3125 -0.78125q0.3125 -0.328125 0.828125 -0.328125q0.515625 0 0.828125 0.328125q0.3125 0.328125 0.3125 0.78125q0 0.46875 -0.3125 0.796875q-0.3125 0.328125 -0.828125 0.328125q-0.515625 0 -0.828125 -0.328125q-0.3125 -0.328125 -0.3125 -0.796875zm-2.03125 3.8762817q0.15625 0.59375 0.3125 1.578125q0.171875 0.984375 0.171875 2.28125q0 1.15625 -0.328125 1.921875q-0.328125 0.765625 -0.921875 1.21875q-0.578125 0.453125 -1.40625 0.640625q-0.8125 0.1875 -1.796875 0.1875l-5.453125 0l0 -1.734375l5.078125 0q0.890625 0 1.515625 -0.125q0.640625 -0.125 1.03125 -0.40625q0.390625 -0.265625 0.5625 -0.734375q0.1875 -0.46875 0.1875 -1.15625q0 -0.28125 -0.015625 -0.578125q-0.015625 -0.296875 -0.046875 -0.578125q-0.03125 -0.265625 -0.078125 -0.484375q-0.03125 -0.203125 -0.046875 -0.296875l-8.1875 0l0 -1.734375l9.421875 0zm-8.453125 16.786835q-0.140625 -0.234375 -0.375 -0.875q-0.234375 -0.640625 -0.234375 -1.5q0 -0.875 0.28125 -1.65625q0.28125 -0.765625 0.859375 -1.34375q0.59375 -0.578125 1.46875 -0.921875q0.875 -0.328125 2.09375 -0.328125q1.0625 0 1.9375 0.3125q0.890625 0.3125 1.53125 0.921875q0.640625 0.609375 1.0 1.484375q0.375 0.875 0.375 1.984375q0 1.203125 -0.1875 2.109375q-0.171875 0.90625 -0.3125 1.53125l-8.65625 0q-2.25 0 -3.25 -1.15625q-1.0 -1.15625 -1.0 -3.515625q0 -0.90625 0.15625 -1.71875q0.140625 -0.8125 0.34375 -1.40625l1.5 0.3125q-0.203125 0.515625 -0.359375 1.265625q-0.15625 0.765625 -0.15625 1.59375q0 1.546875 0.625 2.21875q0.609375 0.6875 1.953125 0.6875l0.40625 0zm7.203125 -0.015625q0.078125 -0.265625 0.140625 -0.703125q0.0625 -0.4375 0.0625 -1.1875q0 -1.40625 -0.921875 -2.15625q-0.90625 -0.75 -2.421875 -0.75q-0.828125 0 -1.4375 0.203125q-0.59375 0.21875 -0.984375 0.578125q-0.390625 0.375 -0.578125 0.84375q-0.1875 0.484375 -0.1875 0.984375q0 0.6875 0.1875 1.265625q0.203125 0.578125 0.46875 0.921875l5.671875 0z" fill-rule="nonzero"/></g></svg>