<svg version="1.1" viewBox="0.0 0.0 800.0 600.0" fill="none" stroke="none" stroke-linecap="square" stroke-miterlimit="10" xmlns:xlink="http://www.w3.org/1999/xlink" xmlns="http://www.w3.org/2000/svg"><clipPath id="p.0"><path d="m0 0l800.0 0l0 600.0l-800.0 0l0 -600.0z" clip-rule="nonzero"/></clipPath><g clip-path="url(#p.0)"><path fill="#000000" fill-opacity="0.0" d="m0 0l800.0 0l0 600.0l-800.0 0z" fill-rule="evenodd"/><path fill="#000000" fill-opacity="0.0" d="m242.51968 312.0551l314.9606 0l0 49.039368l-314.9606 0z" fill-rule="evenodd"/><path fill="#0b5394" d="m340.4375 351.1873q0 3.5625 -1.3125 6.34375q-1.3125 2.765625 -3.640625 4.703125q-2.3125 1.921875 -5.46875 2.90625q-3.140625 0.984375 -6.765625 0.984375q-2.546875 0 -4.71875 -0.4375q-2.15625 -0.4375 -3.859375 -1.0625q-1.703125 -0.625 -2.859375 -1.28125q-1.140625 -0.671875 -1.59375 -1.140625q-0.453125 -0.46875 -0.671875 -1.1875q-0.203125 -0.71875 -0.203125 -1.9375q0 -0.859375 0.078125 -1.421875q0.078125 -0.5625 0.234375 -0.90625q0.15625 -0.359375 0.390625 -0.5q0.234375 -0.140625 0.546875 -0.140625q0.546875 0 1.53125 0.671875q1.0 0.65625 2.5625 1.4375q1.5625 0.78125 3.765625 1.46875q2.21875 0.6875 5.109375 0.6875q2.1875 0 4.0 -0.578125q1.8125 -0.59375 3.125 -1.671875q1.3125 -1.078125 2.015625 -2.640625q0.703125 -1.5625 0.703125 -3.546875q0 -2.15625 -0.984375 -3.671875q-0.96875 -1.53125 -2.578125 -2.671875q-1.59375 -1.15625 -3.65625 -2.109375q-2.046875 -0.96875 -4.203125 -1.953125q-2.140625 -1.0 -4.171875 -2.203125q-2.03125 -1.21875 -3.640625 -2.859375q-1.59375 -1.640625 -2.59375 -3.84375q-0.984375 -2.21875 -0.984375 -5.296875q0 -3.171875 1.140625 -5.640625q1.15625 -2.484375 3.203125 -4.15625q2.0625 -1.6875 4.890625 -2.5625q2.828125 -0.890625 6.109375 -0.890625q1.6875 0 3.375 0.296875q1.703125 0.296875 3.203125 0.78125q1.515625 0.484375 2.6875 1.09375q1.171875 0.609375 1.53125 0.984375q0.375 0.359375 0.484375 0.578125q0.125 0.21875 0.203125 0.546875q0.078125 0.328125 0.109375 0.796875q0.046875 0.46875 0.046875 1.21875q0 0.703125 -0.0625 1.25q-0.046875 0.546875 -0.171875 0.921875q-0.109375 0.359375 -0.328125 0.546875q-0.21875 0.171875 -0.484375 0.171875q-0.4375 0 -1.359375 -0.546875q-0.90625 -0.546875 -2.234375 -1.234375q-1.328125 -0.6875 -3.15625 -1.25q-1.8125 -0.5625 -4.078125 -0.5625q-2.109375 0 -3.671875 0.5625q-1.5625 0.5625 -2.578125 1.5q-1.015625 0.9375 -1.53125 2.234375q-0.5 1.28125 -0.5 2.734375q0 2.109375 0.96875 3.640625q0.984375 1.515625 2.609375 2.6875q1.625 1.171875 3.6875 2.15625q2.078125 0.96875 4.21875 1.96875q2.15625 0.984375 4.21875 2.1875q2.078125 1.1875 3.6875 2.8125q1.625 1.609375 2.625 3.828125q1.0 2.203125 1.0 5.203125zm52.101562 -11.671875q0 6.125 -1.46875 11.046875q-1.453125 4.921875 -4.390625 8.390625q-2.921875 3.453125 -7.265625 5.3125q-4.328125 1.859375 -10.03125 1.859375q-2.421875 0 -4.5 -0.359375q-2.0625 -0.34375 -3.859375 -1.015625l-4.34375 8.671875q-0.109375 0.234375 -0.390625 0.421875q-0.265625 0.203125 -0.71875 0.296875q-0.453125 0.109375 -1.0625 0.15625q-0.59375 0.0625 -1.421875 0.0625q-0.96875 0 -1.5625 -0.140625q-0.578125 -0.125 -0.859375 -0.40625q-0.265625 -0.265625 -0.25 -0.640625q0.015625 -0.375 0.25 -0.796875l5.0 -10.125q-2.140625 -1.53125 -3.734375 -3.671875q-1.578125 -2.15625 -2.640625 -4.890625q-1.046875 -2.734375 -1.578125 -6.046875q-0.515625 -3.328125 -0.515625 -7.265625q0 -5.984375 1.4375 -10.859375q1.453125 -4.890625 4.34375 -8.296875q2.890625 -3.421875 7.234375 -5.28125q4.359375 -1.859375 10.140625 -1.859375q2.390625 0 4.421875 0.375q2.03125 0.375 3.984375 1.078125l4.21875 -8.640625q0.15625 -0.265625 0.421875 -0.453125q0.28125 -0.203125 0.71875 -0.3125q0.453125 -0.125 1.078125 -0.15625q0.625 -0.046875 1.453125 -0.046875q0.96875 0 1.53125 0.15625q0.578125 0.15625 0.84375 0.40625q0.28125 0.25 0.25 0.625q-0.015625 0.375 -0.25 0.84375l-4.953125 10.078125q2.109375 1.5625 3.671875 3.71875q1.5625 2.140625 2.625 4.84375q1.078125 2.6875 1.625 5.90625q0.546875 3.21875 0.546875 7.015625zm-6.984375 0.390625q0 -4.890625 -1.078125 -8.875q-1.078125 -3.984375 -3.53125 -6.796875l-17.34375 34.921875q1.28125 0.59375 2.78125 0.90625q1.515625 0.3125 3.390625 0.3125q4.453125 0 7.46875 -1.640625q3.03125 -1.640625 4.890625 -4.4375q1.859375 -2.796875 2.640625 -6.5q0.78125 -3.71875 0.78125 -7.890625zm-9.34375 -18.90625q-1.28125 -0.625 -2.828125 -0.9375q-1.546875 -0.3125 -3.453125 -0.3125q-4.421875 0 -7.4375 1.625q-3.0 1.609375 -4.859375 4.375q-1.84375 2.75 -2.65625 6.421875q-0.796875 3.671875 -0.796875 7.765625q0 5.046875 1.078125 9.1875q1.078125 4.140625 3.578125 6.90625l17.375 -35.03125zm47.351562 43.203125q-0.15625 0.421875 -0.4375 0.703125q-0.265625 0.265625 -0.765625 0.4375q-0.484375 0.15625 -1.25 0.203125q-0.75 0.0625 -1.890625 0.0625q-0.859375 0 -1.5 -0.015625q-0.640625 -0.015625 -1.109375 -0.09375q-0.46875 -0.078125 -0.8125 -0.171875q-0.328125 -0.109375 -0.5625 -0.265625q-0.234375 -0.15625 -0.375 -0.375q-0.125 -0.21875 -0.25 -0.53125l-16.515625 -46.953125q-0.3125 -0.859375 -0.34375 -1.375q-0.015625 -0.53125 0.328125 -0.796875q0.359375 -0.28125 1.140625 -0.359375q0.78125 -0.078125 2.109375 -0.078125q1.09375 0 1.734375 0.0625q0.65625 0.046875 1.0 0.203125q0.359375 0.15625 0.53125 0.421875q0.171875 0.25 0.328125 0.640625l14.5 42.53125l0.03125 0l14.109375 -42.453125q0.109375 -0.4375 0.265625 -0.703125q0.15625 -0.28125 0.546875 -0.4375q0.390625 -0.15625 1.09375 -0.203125q0.703125 -0.0625 1.875 -0.0625q1.21875 0 1.921875 0.09375q0.703125 0.09375 0.953125 0.375q0.25 0.265625 0.1875 0.796875q-0.046875 0.53125 -0.359375 1.390625l-16.484375 46.953125zm63.15625 -1.609375q0 0.78125 -0.25 1.328125q-0.25 0.546875 -0.671875 0.90625q-0.40625 0.34375 -0.921875 0.515625q-0.5 0.15625 -1.0 0.15625l-2.15625 0q-1.015625 0 -1.78125 -0.21875q-0.75 -0.21875 -1.4375 -0.78125q-0.6875 -0.578125 -1.375 -1.546875q-0.671875 -0.984375 -1.5 -2.5l-15.9375 -28.75q-1.25 -2.234375 -2.515625 -4.671875q-1.265625 -2.4375 -2.359375 -4.75l-0.078125 0q0.078125 2.8125 0.109375 5.75q0.046875 2.921875 0.046875 5.8125l0 30.515625q0 0.265625 -0.15625 0.53125q-0.15625 0.25 -0.53125 0.390625q-0.375 0.140625 -0.984375 0.234375q-0.59375 0.09375 -1.53125 0.09375q-0.9375 0 -1.546875 -0.09375q-0.609375 -0.09375 -0.96875 -0.234375q-0.34375 -0.140625 -0.5 -0.390625q-0.15625 -0.265625 -0.15625 -0.53125l0 -46.640625q0 -1.5625 0.859375 -2.21875q0.859375 -0.671875 1.875 -0.671875l3.203125 0q1.140625 0 1.890625 0.203125q0.765625 0.1875 1.375 0.640625q0.609375 0.4375 1.171875 1.25q0.5625 0.796875 1.234375 2.0l12.265625 22.1875q1.125 2.03125 2.171875 3.96875q1.0625 1.9375 2.03125 3.8125q0.984375 1.875 1.9375 3.6875q0.96875 1.8125 1.90625 3.65625l0.03125 0q-0.078125 -3.09375 -0.09375 -6.421875q-0.015625 -3.34375 -0.015625 -6.4375l0 -27.421875q0 -0.265625 0.15625 -0.5q0.15625 -0.234375 0.515625 -0.40625q0.375 -0.1875 0.984375 -0.265625q0.609375 -0.078125 1.578125 -0.078125q0.859375 0 1.484375 0.078125q0.625 0.078125 0.96875 0.265625q0.359375 0.171875 0.515625 0.40625q0.15625 0.234375 0.15625 0.5l0 46.640625z" fill-rule="nonzero"/><path fill="#000000" fill-opacity="0.0" d="m242.51968 349.03937l314.9606 0l0 102.96063l-314.9606 0z" fill-rule="evenodd"/><path fill="#351c75" d="m350.764 430.5322q0 0.34375 -0.15625 0.625q-0.140625 0.265625 -0.5625 0.4375q-0.421875 0.171875 -1.140625 0.265625q-0.71875 0.109375 -1.859375 0.109375q-1.484375 0 -2.421875 -0.125q-0.921875 -0.125 -1.390625 -0.453125q-0.453125 -0.34375 -0.75 -0.765625l-20.140625 -27.375l0 27.375q0 0.296875 -0.171875 0.578125q-0.171875 0.265625 -0.59375 0.421875q-0.421875 0.140625 -1.125 0.234375q-0.703125 0.109375 -1.75 0.109375q-1.015625 0 -1.734375 -0.109375q-0.71875 -0.09375 -1.15625 -0.234375q-0.421875 -0.15625 -0.59375 -0.421875q-0.15625 -0.28125 -0.15625 -0.578125l0 -52.5625q0 -0.328125 0.15625 -0.578125q0.171875 -0.265625 0.59375 -0.40625q0.4375 -0.15625 1.15625 -0.25q0.71875 -0.109375 1.734375 -0.109375q1.046875 0 1.75 0.109375q0.703125 0.09375 1.125 0.25q0.421875 0.140625 0.59375 0.40625q0.171875 0.25 0.171875 0.578125l0 24.328125l19.375 -24.328125q0.25 -0.375 0.578125 -0.625q0.34375 -0.265625 0.828125 -0.40625q0.5 -0.15625 1.1875 -0.234375q0.703125 -0.078125 1.796875 -0.078125q1.109375 0 1.78125 0.109375q0.6875 0.09375 1.078125 0.265625q0.40625 0.171875 0.546875 0.421875q0.15625 0.25 0.15625 0.546875q0 0.546875 -0.28125 1.109375q-0.265625 0.546875 -1.03125 1.515625l-18.15625 21.703125l19.546875 25.984375q0.71875 1.09375 0.859375 1.5q0.15625 0.40625 0.15625 0.65625zm55.17688 -26.828125q0 6.640625 -1.5625 11.984375q-1.5625 5.328125 -4.671875 9.078125q-3.109375 3.734375 -7.8125 5.75q-4.6875 2.0 -10.953125 2.0q-6.1875 0 -10.6875 -1.828125q-4.5 -1.84375 -7.453125 -5.359375q-2.9375 -3.515625 -4.375 -8.71875q-1.4375 -5.203125 -1.4375 -11.96875q0 -6.46875 1.5625 -11.75q1.5625 -5.296875 4.6875 -9.0q3.140625 -3.703125 7.828125 -5.71875q4.703125 -2.015625 10.96875 -2.015625q6.046875 0 10.53125 1.828125q4.5 1.8125 7.46875 5.3125q2.984375 3.484375 4.4375 8.625q1.46875 5.140625 1.46875 11.78125zm-7.65625 0.515625q0 -4.65625 -0.828125 -8.65625q-0.828125 -4.0 -2.75 -6.9375q-1.921875 -2.9375 -5.140625 -4.59375q-3.21875 -1.65625 -7.953125 -1.65625q-4.734375 0 -7.953125 1.78125q-3.21875 1.78125 -5.234375 4.75q-2.0 2.953125 -2.875 6.90625q-0.859375 3.953125 -0.859375 8.3125q0 4.828125 0.796875 8.890625q0.8125 4.0625 2.71875 7.0q1.90625 2.9375 5.09375 4.578125q3.1875 1.625 8.015625 1.625q4.78125 0 8.03125 -1.78125q3.265625 -1.78125 5.25 -4.796875q2.0 -3.03125 2.84375 -7.0q0.84375 -3.984375 0.84375 -8.421875zm48.57904 12.140625q0 3.84375 -1.421875 6.859375q-1.421875 3.0 -3.9375 5.09375q-2.515625 2.09375 -5.921875 3.15625q-3.40625 1.046875 -7.34375 1.046875q-2.75 0 -5.09375 -0.46875q-2.34375 -0.453125 -4.1875 -1.125q-1.84375 -0.6875 -3.09375 -1.40625q-1.25 -0.71875 -1.734375 -1.21875q-0.484375 -0.515625 -0.71875 -1.296875q-0.234375 -0.78125 -0.234375 -2.09375q0 -0.9375 0.078125 -1.546875q0.09375 -0.609375 0.265625 -0.984375q0.171875 -0.390625 0.421875 -0.53125q0.25 -0.15625 0.59375 -0.15625q0.59375 0 1.671875 0.71875q1.078125 0.71875 2.765625 1.578125q1.703125 0.84375 4.09375 1.578125q2.390625 0.734375 5.515625 0.734375q2.375 0 4.328125 -0.625q1.96875 -0.640625 3.390625 -1.796875q1.421875 -1.171875 2.171875 -2.859375q0.765625 -1.6875 0.765625 -3.859375q0 -2.3125 -1.0625 -3.96875q-1.046875 -1.65625 -2.78125 -2.890625q-1.734375 -1.25 -3.953125 -2.28125q-2.21875 -1.046875 -4.546875 -2.125q-2.328125 -1.078125 -4.53125 -2.390625q-2.203125 -1.3125 -3.9375 -3.09375q-1.734375 -1.78125 -2.8125 -4.171875q-1.078125 -2.390625 -1.078125 -5.734375q0 -3.421875 1.25 -6.109375q1.25 -2.6875 3.46875 -4.5q2.21875 -1.828125 5.28125 -2.78125q3.078125 -0.953125 6.625 -0.953125q1.828125 0 3.65625 0.328125q1.84375 0.3125 3.46875 0.84375q1.640625 0.53125 2.90625 1.1875q1.265625 0.65625 1.671875 1.0625q0.40625 0.390625 0.53125 0.625q0.125 0.234375 0.203125 0.59375q0.09375 0.359375 0.125 0.875q0.046875 0.5 0.046875 1.296875q0 0.765625 -0.0625 1.359375q-0.0625 0.59375 -0.1875 1.0q-0.125 0.390625 -0.359375 0.59375q-0.234375 0.1875 -0.53125 0.1875q-0.46875 0 -1.46875 -0.59375q-0.984375 -0.59375 -2.421875 -1.328125q-1.4375 -0.75 -3.40625 -1.359375q-1.96875 -0.609375 -4.421875 -0.609375q-2.28125 0 -3.984375 0.609375q-1.6875 0.609375 -2.796875 1.625q-1.09375 1.015625 -1.640625 2.421875q-0.546875 1.390625 -0.546875 2.953125q0 2.28125 1.046875 3.9375q1.0625 1.65625 2.8125 2.921875q1.765625 1.265625 4.0 2.328125q2.25 1.046875 4.578125 2.140625q2.328125 1.078125 4.5625 2.375q2.25 1.28125 4.0 3.03125q1.765625 1.75 2.84375 4.140625q1.078125 2.390625 1.078125 5.65625zm44.722443 -36.265625q0 0.8125 -0.09375 1.40625q-0.078125 0.59375 -0.265625 0.953125q-0.1875 0.359375 -0.46875 0.53125q-0.265625 0.15625 -0.609375 0.15625l-15.40625 0l0 47.484375q0 0.328125 -0.171875 0.59375q-0.15625 0.25 -0.59375 0.40625q-0.421875 0.140625 -1.125 0.234375q-0.6875 0.109375 -1.75 0.109375q-1.015625 0 -1.734375 -0.109375q-0.71875 -0.09375 -1.140625 -0.234375q-0.421875 -0.15625 -0.59375 -0.40625q-0.171875 -0.265625 -0.171875 -0.59375l0 -47.484375l-15.390625 0q-0.34375 0 -0.625 -0.15625q-0.265625 -0.171875 -0.4375 -0.53125q-0.171875 -0.359375 -0.28125 -0.953125q-0.09375 -0.59375 -0.09375 -1.40625q0 -0.796875 0.09375 -1.40625q0.109375 -0.625 0.28125 -1.0q0.171875 -0.375 0.4375 -0.546875q0.28125 -0.171875 0.625 -0.171875l38.078125 0q0.34375 0 0.609375 0.171875q0.28125 0.171875 0.46875 0.546875q0.1875 0.375 0.265625 1.0q0.09375 0.609375 0.09375 1.40625z" fill-rule="nonzero"/><path fill="#000000" fill-opacity="0.0" d="m242.51968 171.03937l314.9606 0l0 38.92914l-314.9606 0z" fill-rule="evenodd"/><path fill="#38761d" d="m337.1358 201.50894q0 2.734375 -1.015625 4.859375q-1.0 2.125 -2.78125 3.609375q-1.78125 1.484375 -4.1875 2.234375q-2.40625 0.734375 -5.203125 0.734375q-1.9375 0 -3.609375 -0.328125q-1.65625 -0.328125 -2.96875 -0.796875q-1.296875 -0.484375 -2.1875 -0.984375q-0.875 -0.515625 -1.21875 -0.875q-0.34375 -0.359375 -0.515625 -0.90625q-0.15625 -0.5625 -0.15625 -1.5q0 -0.65625 0.0625 -1.078125q0.0625 -0.4375 0.171875 -0.703125q0.125 -0.28125 0.296875 -0.375q0.1875 -0.109375 0.421875 -0.109375q0.421875 0 1.1875 0.515625q0.765625 0.5 1.953125 1.109375q1.203125 0.59375 2.890625 1.125q1.703125 0.515625 3.921875 0.515625q1.671875 0 3.0625 -0.453125q1.390625 -0.453125 2.390625 -1.265625q1.015625 -0.828125 1.546875 -2.03125q0.546875 -1.203125 0.546875 -2.71875q0 -1.65625 -0.75 -2.8125q-0.75 -1.171875 -1.984375 -2.046875q-1.21875 -0.890625 -2.796875 -1.625q-1.578125 -0.734375 -3.21875 -1.5q-1.640625 -0.765625 -3.203125 -1.6875q-1.5625 -0.9375 -2.796875 -2.1875q-1.21875 -1.265625 -1.984375 -2.953125q-0.765625 -1.6875 -0.765625 -4.0625q0 -2.421875 0.875 -4.3125q0.890625 -1.90625 2.46875 -3.1875q1.578125 -1.296875 3.75 -1.96875q2.171875 -0.671875 4.6875 -0.671875q1.28125 0 2.578125 0.21875q1.3125 0.21875 2.453125 0.59375q1.15625 0.375 2.046875 0.84375q0.90625 0.46875 1.1875 0.75q0.296875 0.28125 0.375 0.453125q0.09375 0.15625 0.15625 0.421875q0.0625 0.25 0.09375 0.609375q0.03125 0.359375 0.03125 0.921875q0 0.546875 -0.046875 0.96875q-0.046875 0.40625 -0.140625 0.703125q-0.09375 0.28125 -0.265625 0.421875q-0.15625 0.125 -0.359375 0.125q-0.328125 0 -1.03125 -0.421875q-0.703125 -0.421875 -1.734375 -0.9375q-1.015625 -0.53125 -2.40625 -0.953125q-1.390625 -0.4375 -3.125 -0.4375q-1.609375 0 -2.8125 0.4375q-1.203125 0.421875 -1.984375 1.140625q-0.765625 0.71875 -1.15625 1.71875q-0.390625 0.984375 -0.390625 2.09375q0 1.609375 0.75 2.78125q0.75 1.171875 1.984375 2.078125q1.25 0.890625 2.828125 1.640625q1.59375 0.734375 3.234375 1.5q1.65625 0.765625 3.234375 1.6875q1.59375 0.90625 2.828125 2.15625q1.25 1.234375 2.015625 2.9375q0.765625 1.6875 0.765625 3.984375zm31.647339 -25.65625q0 0.5625 -0.0625 0.984375q-0.0625 0.421875 -0.203125 0.6875q-0.125 0.25 -0.328125 0.375q-0.1875 0.109375 -0.421875 0.109375l-10.90625 0l0 33.59375q0 0.25 -0.125 0.4375q-0.109375 0.171875 -0.421875 0.28125q-0.296875 0.09375 -0.796875 0.15625q-0.484375 0.078125 -1.234375 0.078125q-0.71875 0 -1.234375 -0.078125q-0.5 -0.0625 -0.796875 -0.15625q-0.296875 -0.109375 -0.421875 -0.28125q-0.109375 -0.1875 -0.109375 -0.4375l0 -33.59375l-10.90625 0q-0.234375 0 -0.4375 -0.109375q-0.1875 -0.125 -0.3125 -0.375q-0.125 -0.265625 -0.203125 -0.6875q-0.0625 -0.421875 -0.0625 -0.984375q0 -0.578125 0.0625 -1.0q0.078125 -0.4375 0.203125 -0.703125q0.125 -0.28125 0.3125 -0.390625q0.203125 -0.125 0.4375 -0.125l26.953125 0q0.234375 0 0.421875 0.125q0.203125 0.109375 0.328125 0.390625q0.140625 0.265625 0.203125 0.703125q0.0625 0.421875 0.0625 1.0zm31.447998 35.75q0 0.25 -0.09375 0.4375q-0.09375 0.171875 -0.390625 0.296875q-0.296875 0.109375 -0.84375 0.15625q-0.53125 0.0625 -1.4375 0.0625q-0.78125 0 -1.28125 -0.0625q-0.484375 -0.046875 -0.78125 -0.171875q-0.296875 -0.140625 -0.46875 -0.375q-0.15625 -0.25 -0.28125 -0.609375l-3.5625 -9.140625q-0.625 -1.546875 -1.296875 -2.84375q-0.671875 -1.3125 -1.609375 -2.25q-0.921875 -0.953125 -2.1875 -1.46875q-1.25 -0.53125 -3.015625 -0.53125l-3.453125 0l0 16.5q0 0.25 -0.140625 0.4375q-0.125 0.171875 -0.40625 0.28125q-0.28125 0.09375 -0.78125 0.15625q-0.5 0.078125 -1.25 0.078125q-0.734375 0 -1.234375 -0.078125q-0.5 -0.0625 -0.796875 -0.15625q-0.296875 -0.109375 -0.421875 -0.28125q-0.109375 -0.1875 -0.109375 -0.4375l0 -35.875q0 -1.171875 0.609375 -1.625q0.609375 -0.46875 1.296875 -0.46875l8.234375 0q1.46875 0 2.4375 0.078125q0.984375 0.078125 1.765625 0.15625q2.234375 0.390625 3.953125 1.234375q1.734375 0.84375 2.890625 2.125q1.171875 1.28125 1.75 2.953125q0.59375 1.65625 0.59375 3.671875q0 1.9375 -0.53125 3.484375q-0.515625 1.546875 -1.515625 2.734375q-0.984375 1.171875 -2.359375 2.046875q-1.375 0.859375 -3.078125 1.453125q0.953125 0.421875 1.734375 1.078125q0.78125 0.640625 1.453125 1.546875q0.671875 0.890625 1.265625 2.0625q0.609375 1.15625 1.203125 2.625l3.46875 8.53125q0.421875 1.078125 0.546875 1.515625q0.125 0.4375 0.125 0.671875zm-7.765625 -27.21875q0 -2.28125 -1.015625 -3.84375q-1.015625 -1.578125 -3.40625 -2.265625q-0.75 -0.203125 -1.703125 -0.296875q-0.9375 -0.09375 -2.46875 -0.09375l-4.34375 0l0 13.0625l5.03125 0q2.046875 0 3.515625 -0.484375q1.484375 -0.5 2.46875 -1.390625q1.0 -0.890625 1.453125 -2.078125q0.46875 -1.203125 0.46875 -2.609375zm36.78363 25.875q0 0.53125 -0.0625 0.9375q-0.0625 0.40625 -0.21875 0.6875q-0.140625 0.265625 -0.34375 0.390625q-0.1875 0.109375 -0.4375 0.109375l-18.59375 0q-0.6875 0 -1.296875 -0.453125q-0.609375 -0.46875 -0.609375 -1.640625l0 -34.5625q0 -1.171875 0.609375 -1.625q0.609375 -0.46875 1.296875 -0.46875l18.390625 0q0.234375 0 0.421875 0.125q0.203125 0.109375 0.328125 0.390625q0.125 0.265625 0.1875 0.671875q0.078125 0.40625 0.078125 1.0q0 0.53125 -0.078125 0.9375q-0.0625 0.40625 -0.1875 0.671875q-0.125 0.25 -0.328125 0.375q-0.1875 0.109375 -0.421875 0.109375l-15.15625 0l0 12.15625l13.0 0q0.234375 0 0.421875 0.140625q0.203125 0.125 0.34375 0.375q0.140625 0.234375 0.1875 0.65625q0.0625 0.421875 0.0625 0.984375q0 0.546875 -0.0625 0.9375q-0.046875 0.390625 -0.1875 0.625q-0.140625 0.234375 -0.34375 0.34375q-0.1875 0.109375 -0.421875 0.109375l-13.0 0l0 13.859375l15.359375 0q0.25 0 0.4375 0.125q0.203125 0.109375 0.34375 0.375q0.15625 0.25 0.21875 0.65625q0.0625 0.40625 0.0625 1.0zm29.195374 -8.75q0 2.734375 -1.015625 4.859375q-1.0 2.125 -2.78125 3.609375q-1.78125 1.484375 -4.1875 2.234375q-2.40625 0.734375 -5.203125 0.734375q-1.9375 0 -3.609375 -0.328125q-1.65625 -0.328125 -2.96875 -0.796875q-1.296875 -0.484375 -2.1875 -0.984375q-0.875 -0.515625 -1.21875 -0.875q-0.34375 -0.359375 -0.515625 -0.90625q-0.15625 -0.5625 -0.15625 -1.5q0 -0.65625 0.0625 -1.078125q0.0625 -0.4375 0.171875 -0.703125q0.125 -0.28125 0.296875 -0.375q0.1875 -0.109375 0.421875 -0.109375q0.421875 0 1.1875 0.515625q0.765625 0.5 1.953125 1.109375q1.203125 0.59375 2.890625 1.125q1.703125 0.515625 3.921875 0.515625q1.671875 0 3.0625 -0.453125q1.390625 -0.453125 2.390625 -1.265625q1.015625 -0.828125 1.546875 -2.03125q0.546875 -1.203125 0.546875 -2.71875q0 -1.65625 -0.75 -2.8125q-0.75 -1.171875 -1.984375 -2.046875q-1.21875 -0.890625 -2.796875 -1.625q-1.578125 -0.734375 -3.21875 -1.5q-1.640625 -0.765625 -3.203125 -1.6875q-1.5625 -0.9375 -2.796875 -2.1875q-1.21875 -1.265625 -1.984375 -2.953125q-0.765625 -1.6875 -0.765625 -4.0625q0 -2.421875 0.875 -4.3125q0.890625 -1.90625 2.46875 -3.1875q1.578125 -1.296875 3.75 -1.96875q2.171875 -0.671875 4.6875 -0.671875q1.28125 0 2.578125 0.21875q1.3125 0.21875 2.453125 0.59375q1.15625 0.375 2.046875 0.84375q0.90625 0.46875 1.1875 0.75q0.296875 0.28125 0.375 0.453125q0.09375 0.15625 0.15625 0.421875q0.0625 0.25 0.09375 0.609375q0.03125 0.359375 0.03125 0.921875q0 0.546875 -0.046875 0.96875q-0.046875 0.40625 -0.140625 0.703125q-0.09375 0.28125 -0.265625 0.421875q-0.15625 0.125 -0.359375 0.125q-0.328125 0 -1.03125 -0.421875q-0.703125 -0.421875 -1.734375 -0.9375q-1.015625 -0.53125 -2.40625 -0.953125q-1.390625 -0.4375 -3.125 -0.4375q-1.609375 0 -2.8125 0.4375q-1.203125 0.421875 -1.984375 1.140625q-0.765625 0.71875 -1.15625 1.71875q-0.390625 0.984375 -0.390625 2.09375q0 1.609375 0.75 2.78125q0.75 1.171875 1.984375 2.078125q1.25 0.890625 2.828125 1.640625q1.59375 0.734375 3.234375 1.5q1.65625 0.765625 3.234375 1.6875q1.59375 0.90625 2.828125 2.15625q1.25 1.234375 2.015625 2.9375q0.765625 1.6875 0.765625 3.984375zm28.178589 0q0 2.734375 -1.015625 4.859375q-1.0 2.125 -2.78125 3.609375q-1.78125 1.484375 -4.1875 2.234375q-2.40625 0.734375 -5.203125 0.734375q-1.9375 0 -3.609375 -0.328125q-1.65625 -0.328125 -2.96875 -0.796875q-1.296875 -0.484375 -2.1875 -0.984375q-0.875 -0.515625 -1.21875 -0.875q-0.34375 -0.359375 -0.515625 -0.90625q-0.15625 -0.5625 -0.15625 -1.5q0 -0.65625 0.0625 -1.078125q0.0625 -0.4375 0.171875 -0.703125q0.125 -0.28125 0.296875 -0.375q0.1875 -0.109375 0.421875 -0.109375q0.421875 0 1.1875 0.515625q0.765625 0.5 1.953125 1.109375q1.203125 0.59375 2.890625 1.125q1.703125 0.515625 3.921875 0.515625q1.671875 0 3.0625 -0.453125q1.390625 -0.453125 2.390625 -1.265625q1.015625 -0.828125 1.546875 -2.03125q0.546875 -1.203125 0.546875 -2.71875q0 -1.65625 -0.75 -2.8125q-0.75 -1.171875 -1.984375 -2.046875q-1.21875 -0.890625 -2.796875 -1.625q-1.578125 -0.734375 -3.21875 -1.5q-1.640625 -0.765625 -3.203125 -1.6875q-1.5625 -0.9375 -2.796875 -2.1875q-1.21875 -1.265625 -1.984375 -2.953125q-0.765625 -1.6875 -0.765625 -4.0625q0 -2.421875 0.875 -4.3125q0.890625 -1.90625 2.46875 -3.1875q1.578125 -1.296875 3.75 -1.96875q2.171875 -0.671875 4.6875 -0.671875q1.28125 0 2.578125 0.21875q1.3125 0.21875 2.453125 0.59375q1.15625 0.375 2.046875 0.84375q0.90625 0.46875 1.1875 0.75q0.296875 0.28125 0.375 0.453125q0.09375 0.15625 0.15625 0.421875q0.0625 0.25 0.09375 0.609375q0.03125 0.359375 0.03125 0.921875q0 0.546875 -0.046875 0.96875q-0.046875 0.40625 -0.140625 0.703125q-0.09375 0.28125 -0.265625 0.421875q-0.15625 0.125 -0.359375 0.125q-0.328125 0 -1.03125 -0.421875q-0.703125 -0.421875 -1.734375 -0.9375q-1.015625 -0.53125 -2.40625 -0.953125q-1.390625 -0.4375 -3.125 -0.4375q-1.609375 0 -2.8125 0.4375q-1.203125 0.421875 -1.984375 1.140625q-0.765625 0.71875 -1.15625 1.71875q-0.390625 0.984375 -0.390625 2.09375q0 1.609375 0.75 2.78125q0.75 1.171875 1.984375 2.078125q1.25 0.890625 2.828125 1.640625q1.59375 0.734375 3.234375 1.5q1.65625 0.765625 3.234375 1.6875q1.59375 0.90625 2.828125 2.15625q1.25 1.234375 2.015625 2.9375q0.765625 1.6875 0.765625 3.984375z" fill-rule="nonzero"/><path fill="#000000" fill-opacity="0.0" d="m193.51181 271.24146l412.9764 0l0 21.952759l-412.9764 0z" fill-rule="evenodd"/><path fill="#a64d79" d="m329.6797 293.5316q0 0.125 -0.046875 0.21875q-0.046875 0.09375 -0.203125 0.15625q-0.15625 0.0625 -0.4375 0.09375q-0.28125 0.03125 -0.75 0.03125q-0.40625 0 -0.671875 -0.03125q-0.25 -0.03125 -0.40625 -0.09375q-0.15625 -0.078125 -0.25 -0.203125q-0.078125 -0.125 -0.140625 -0.3125l-1.859375 -4.765625q-0.328125 -0.8125 -0.6875 -1.484375q-0.34375 -0.6875 -0.828125 -1.171875q-0.484375 -0.5 -1.140625 -0.765625q-0.65625 -0.28125 -1.578125 -0.28125l-1.796875 0l0 8.609375q0 0.125 -0.078125 0.21875q-0.0625 0.09375 -0.21875 0.15625q-0.140625 0.046875 -0.40625 0.078125q-0.25 0.046875 -0.640625 0.046875q-0.390625 0 -0.65625 -0.046875q-0.25 -0.03125 -0.40625 -0.078125q-0.15625 -0.0625 -0.21875 -0.15625q-0.0625 -0.09375 -0.0625 -0.21875l0 -18.71875q0 -0.609375 0.3125 -0.84375q0.328125 -0.25 0.6875 -0.25l4.296875 0q0.765625 0 1.265625 0.046875q0.515625 0.03125 0.921875 0.078125q1.171875 0.203125 2.0625 0.640625q0.90625 0.4375 1.515625 1.109375q0.609375 0.671875 0.90625 1.546875q0.3125 0.859375 0.3125 1.90625q0 1.015625 -0.28125 1.828125q-0.265625 0.796875 -0.78125 1.421875q-0.515625 0.609375 -1.234375 1.0625q-0.71875 0.453125 -1.609375 0.765625q0.5 0.21875 0.90625 0.5625q0.40625 0.328125 0.75 0.796875q0.359375 0.46875 0.671875 1.078125q0.3125 0.609375 0.625 1.375l1.8125 4.453125q0.21875 0.5625 0.28125 0.796875q0.0625 0.21875 0.0625 0.34375zm-4.046875 -14.203125q0 -1.1875 -0.53125 -2.0q-0.53125 -0.828125 -1.78125 -1.1875q-0.390625 -0.109375 -0.890625 -0.15625q-0.484375 -0.046875 -1.28125 -0.046875l-2.265625 0l0 6.8125l2.625 0q1.0625 0 1.828125 -0.25q0.78125 -0.265625 1.296875 -0.71875q0.515625 -0.46875 0.75 -1.09375q0.25 -0.625 0.25 -1.359375zm19.1875 13.5q0 0.28125 -0.03125 0.5q-0.03125 0.203125 -0.109375 0.34375q-0.078125 0.140625 -0.1875 0.203125q-0.09375 0.0625 -0.21875 0.0625l-9.703125 0q-0.359375 0 -0.6875 -0.234375q-0.3125 -0.25 -0.3125 -0.859375l0 -18.03125q0 -0.609375 0.3125 -0.84375q0.328125 -0.25 0.6875 -0.25l9.59375 0q0.125 0 0.21875 0.0625q0.109375 0.0625 0.171875 0.203125q0.0625 0.140625 0.09375 0.359375q0.046875 0.203125 0.046875 0.515625q0 0.28125 -0.046875 0.5q-0.03125 0.203125 -0.09375 0.34375q-0.0625 0.125 -0.171875 0.1875q-0.09375 0.0625 -0.21875 0.0625l-7.90625 0l0 6.34375l6.78125 0q0.125 0 0.21875 0.078125q0.109375 0.0625 0.171875 0.1875q0.078125 0.125 0.109375 0.34375q0.03125 0.21875 0.03125 0.515625q0 0.28125 -0.03125 0.484375q-0.03125 0.203125 -0.109375 0.328125q-0.0625 0.125 -0.171875 0.1875q-0.09375 0.046875 -0.21875 0.046875l-6.78125 0l0 7.234375l8.015625 0q0.125 0 0.21875 0.0625q0.109375 0.0625 0.1875 0.203125q0.078125 0.125 0.109375 0.34375q0.03125 0.203125 0.03125 0.515625zm15.234375 -4.5625q0 1.421875 -0.53125 2.53125q-0.515625 1.109375 -1.453125 1.890625q-0.921875 0.765625 -2.1875 1.15625q-1.25 0.390625 -2.703125 0.390625q-1.015625 0 -1.890625 -0.171875q-0.859375 -0.171875 -1.546875 -0.421875q-0.671875 -0.25 -1.140625 -0.515625q-0.453125 -0.265625 -0.640625 -0.453125q-0.171875 -0.1875 -0.265625 -0.46875q-0.078125 -0.296875 -0.078125 -0.78125q0 -0.34375 0.03125 -0.5625q0.03125 -0.234375 0.09375 -0.375q0.0625 -0.140625 0.15625 -0.1875q0.09375 -0.0625 0.21875 -0.0625q0.21875 0 0.609375 0.265625q0.40625 0.265625 1.03125 0.578125q0.625 0.3125 1.5 0.59375q0.890625 0.265625 2.046875 0.265625q0.875 0 1.59375 -0.234375q0.734375 -0.234375 1.25 -0.65625q0.53125 -0.4375 0.8125 -1.0625q0.28125 -0.625 0.28125 -1.421875q0 -0.859375 -0.390625 -1.46875q-0.390625 -0.609375 -1.03125 -1.0625q-0.640625 -0.46875 -1.46875 -0.84375q-0.8125 -0.390625 -1.671875 -0.78125q-0.859375 -0.40625 -1.671875 -0.890625q-0.8125 -0.484375 -1.453125 -1.140625q-0.640625 -0.65625 -1.046875 -1.53125q-0.390625 -0.890625 -0.390625 -2.125q0 -1.265625 0.453125 -2.25q0.46875 -1.0 1.28125 -1.671875q0.828125 -0.671875 1.953125 -1.015625q1.140625 -0.359375 2.453125 -0.359375q0.671875 0 1.34375 0.125q0.6875 0.109375 1.28125 0.3125q0.609375 0.1875 1.078125 0.4375q0.46875 0.234375 0.609375 0.390625q0.15625 0.140625 0.203125 0.234375q0.046875 0.078125 0.078125 0.21875q0.03125 0.125 0.046875 0.3125q0.015625 0.1875 0.015625 0.484375q0 0.28125 -0.03125 0.5q-0.015625 0.21875 -0.0625 0.375q-0.046875 0.140625 -0.140625 0.21875q-0.078125 0.0625 -0.1875 0.0625q-0.171875 0 -0.546875 -0.21875q-0.359375 -0.21875 -0.890625 -0.484375q-0.53125 -0.28125 -1.265625 -0.5q-0.71875 -0.234375 -1.625 -0.234375q-0.84375 0 -1.46875 0.234375q-0.625 0.21875 -1.03125 0.59375q-0.40625 0.375 -0.609375 0.890625q-0.203125 0.515625 -0.203125 1.09375q0 0.84375 0.390625 1.453125q0.390625 0.609375 1.03125 1.078125q0.65625 0.46875 1.484375 0.859375q0.828125 0.390625 1.6875 0.796875q0.859375 0.390625 1.6875 0.875q0.828125 0.46875 1.46875 1.125q0.65625 0.640625 1.046875 1.53125q0.40625 0.875 0.40625 2.078125zm16.515625 -13.390625q0 0.296875 -0.03125 0.515625q-0.03125 0.21875 -0.109375 0.359375q-0.0625 0.125 -0.171875 0.1875q-0.09375 0.0625 -0.21875 0.0625l-5.6875 0l0 17.53125q0 0.125 -0.0625 0.21875q-0.0625 0.09375 -0.21875 0.15625q-0.15625 0.046875 -0.421875 0.078125q-0.25 0.046875 -0.640625 0.046875q-0.375 0 -0.640625 -0.046875q-0.265625 -0.03125 -0.421875 -0.078125q-0.15625 -0.0625 -0.21875 -0.15625q-0.0625 -0.09375 -0.0625 -0.21875l0 -17.53125l-5.6875 0q-0.125 0 -0.234375 -0.0625q-0.09375 -0.0625 -0.15625 -0.1875q-0.0625 -0.140625 -0.109375 -0.359375q-0.03125 -0.21875 -0.03125 -0.515625q0 -0.296875 0.03125 -0.515625q0.046875 -0.234375 0.109375 -0.375q0.0625 -0.140625 0.15625 -0.203125q0.109375 -0.0625 0.234375 -0.0625l14.0625 0q0.125 0 0.21875 0.0625q0.109375 0.0625 0.171875 0.203125q0.078125 0.140625 0.109375 0.375q0.03125 0.21875 0.03125 0.515625zm5.609375 18.65625q0 0.125 -0.0625 0.21875q-0.0625 0.09375 -0.21875 0.15625q-0.15625 0.046875 -0.421875 0.078125q-0.25 0.046875 -0.640625 0.046875q-0.375 0 -0.640625 -0.046875q-0.265625 -0.03125 -0.421875 -0.078125q-0.15625 -0.0625 -0.21875 -0.15625q-0.0625 -0.09375 -0.0625 -0.21875l0 -19.40625q0 -0.125 0.0625 -0.21875q0.078125 -0.09375 0.234375 -0.140625q0.171875 -0.0625 0.421875 -0.09375q0.265625 -0.046875 0.625 -0.046875q0.390625 0 0.640625 0.046875q0.265625 0.03125 0.421875 0.09375q0.15625 0.046875 0.21875 0.140625q0.0625 0.09375 0.0625 0.21875l0 19.40625zm18.046875 -18.65625q0 0.296875 -0.03125 0.515625q-0.03125 0.21875 -0.109375 0.359375q-0.0625 0.125 -0.171875 0.1875q-0.09375 0.0625 -0.21875 0.0625l-5.6875 0l0 17.53125q0 0.125 -0.0625 0.21875q-0.0625 0.09375 -0.21875 0.15625q-0.15625 0.046875 -0.421875 0.078125q-0.25 0.046875 -0.640625 0.046875q-0.375 0 -0.640625 -0.046875q-0.265625 -0.03125 -0.421875 -0.078125q-0.15625 -0.0625 -0.21875 -0.15625q-0.0625 -0.09375 -0.0625 -0.21875l0 -17.53125l-5.6875 0q-0.125 0 -0.234375 -0.0625q-0.09375 -0.0625 -0.15625 -0.1875q-0.0625 -0.140625 -0.109375 -0.359375q-0.03125 -0.21875 -0.03125 -0.515625q0 -0.296875 0.03125 -0.515625q0.046875 -0.234375 0.109375 -0.375q0.0625 -0.140625 0.15625 -0.203125q0.109375 -0.0625 0.234375 -0.0625l14.0625 0q0.125 0 0.21875 0.0625q0.109375 0.0625 0.171875 0.203125q0.078125 0.140625 0.109375 0.375q0.03125 0.21875 0.03125 0.515625zm18.125 11.59375q0 1.84375 -0.546875 3.296875q-0.53125 1.4375 -1.53125 2.4375q-1.0 1.0 -2.4375 1.515625q-1.4375 0.515625 -3.265625 0.515625q-1.671875 0 -3.046875 -0.484375q-1.375 -0.484375 -2.359375 -1.421875q-0.984375 -0.953125 -1.515625 -2.375q-0.53125 -1.421875 -0.53125 -3.28125l0 -12.546875q0 -0.125 0.0625 -0.21875q0.0625 -0.09375 0.21875 -0.140625q0.15625 -0.0625 0.40625 -0.09375q0.25 -0.046875 0.65625 -0.046875q0.375 0 0.640625 0.046875q0.265625 0.03125 0.40625 0.09375q0.15625 0.046875 0.21875 0.140625q0.0625 0.09375 0.0625 0.21875l0 12.21875q0 1.40625 0.34375 2.453125q0.34375 1.046875 0.984375 1.75q0.65625 0.6875 1.5625 1.046875q0.921875 0.34375 2.0625 0.34375q1.171875 0 2.078125 -0.34375q0.921875 -0.34375 1.546875 -1.03125q0.640625 -0.6875 0.96875 -1.703125q0.34375 -1.015625 0.34375 -2.375l0 -12.359375q0 -0.125 0.0625 -0.21875q0.0625 -0.09375 0.21875 -0.140625q0.15625 -0.0625 0.40625 -0.09375q0.265625 -0.046875 0.65625 -0.046875q0.375 0 0.625 0.046875q0.265625 0.03125 0.40625 0.09375q0.15625 0.046875 0.21875 0.140625q0.078125 0.09375 0.078125 0.21875l0 12.34375zm18.0 -11.59375q0 0.296875 -0.03125 0.515625q-0.03125 0.21875 -0.109375 0.359375q-0.0625 0.125 -0.171875 0.1875q-0.09375 0.0625 -0.21875 0.0625l-5.6875 0l0 17.53125q0 0.125 -0.0625 0.21875q-0.0625 0.09375 -0.21875 0.15625q-0.15625 0.046875 -0.421875 0.078125q-0.25 0.046875 -0.640625 0.046875q-0.375 0 -0.640625 -0.046875q-0.265625 -0.03125 -0.421875 -0.078125q-0.15625 -0.0625 -0.21875 -0.15625q-0.0625 -0.09375 -0.0625 -0.21875l0 -17.53125l-5.6875 0q-0.125 0 -0.234375 -0.0625q-0.09375 -0.0625 -0.15625 -0.1875q-0.0625 -0.140625 -0.109375 -0.359375q-0.03125 -0.21875 -0.03125 -0.515625q0 -0.296875 0.03125 -0.515625q0.046875 -0.234375 0.109375 -0.375q0.0625 -0.140625 0.15625 -0.203125q0.109375 -0.0625 0.234375 -0.0625l14.0625 0q0.125 0 0.21875 0.0625q0.109375 0.0625 0.171875 0.203125q0.078125 0.140625 0.109375 0.375q0.03125 0.21875 0.03125 0.515625zm5.609375 18.65625q0 0.125 -0.0625 0.21875q-0.0625 0.09375 -0.21875 0.15625q-0.15625 0.046875 -0.421875 0.078125q-0.25 0.046875 -0.640625 0.046875q-0.375 0 -0.640625 -0.046875q-0.265625 -0.03125 -0.421875 -0.078125q-0.15625 -0.0625 -0.21875 -0.15625q-0.0625 -0.09375 -0.0625 -0.21875l0 -19.40625q0 -0.125 0.0625 -0.21875q0.078125 -0.09375 0.234375 -0.140625q0.171875 -0.0625 0.421875 -0.09375q0.265625 -0.046875 0.625 -0.046875q0.390625 0 0.640625 0.046875q0.265625 0.03125 0.421875 0.09375q0.15625 0.046875 0.21875 0.140625q0.0625 0.09375 0.0625 0.21875l0 19.40625zm22.3125 -9.9375q0 2.453125 -0.578125 4.421875q-0.578125 1.96875 -1.734375 3.359375q-1.140625 1.375 -2.875 2.125q-1.734375 0.734375 -4.046875 0.734375q-2.28125 0 -3.953125 -0.671875q-1.65625 -0.6875 -2.75 -1.984375q-1.078125 -1.296875 -1.609375 -3.21875q-0.53125 -1.921875 -0.53125 -4.421875q0 -2.390625 0.578125 -4.34375q0.578125 -1.953125 1.734375 -3.3125q1.15625 -1.375 2.890625 -2.109375q1.734375 -0.75 4.046875 -0.75q2.234375 0 3.890625 0.671875q1.65625 0.671875 2.75 1.96875q1.109375 1.28125 1.640625 3.1875q0.546875 1.890625 0.546875 4.34375zm-2.828125 0.1875q0 -1.71875 -0.3125 -3.1875q-0.296875 -1.484375 -1.015625 -2.5625q-0.703125 -1.09375 -1.890625 -1.703125q-1.1875 -0.609375 -2.9375 -0.609375q-1.75 0 -2.9375 0.65625q-1.1875 0.65625 -1.9375 1.75q-0.734375 1.09375 -1.0625 2.5625q-0.3125 1.453125 -0.3125 3.0625q0 1.78125 0.296875 3.28125q0.296875 1.5 1.0 2.59375q0.703125 1.078125 1.875 1.6875q1.1875 0.59375 2.96875 0.59375q1.765625 0 2.96875 -0.65625q1.203125 -0.65625 1.9375 -1.765625q0.734375 -1.125 1.046875 -2.59375q0.3125 -1.46875 0.3125 -3.109375zm22.359375 9.046875q0 0.3125 -0.109375 0.53125q-0.09375 0.21875 -0.265625 0.359375q-0.15625 0.140625 -0.359375 0.203125q-0.203125 0.0625 -0.40625 0.0625l-0.859375 0q-0.40625 0 -0.71875 -0.078125q-0.296875 -0.09375 -0.578125 -0.3125q-0.265625 -0.234375 -0.546875 -0.625q-0.265625 -0.390625 -0.59375 -1.0l-6.375 -11.5q-0.5 -0.890625 -1.015625 -1.859375q-0.5 -0.984375 -0.9375 -1.90625l-0.03125 0q0.03125 1.125 0.046875 2.296875q0.015625 1.171875 0.015625 2.328125l0 12.203125q0 0.109375 -0.0625 0.21875q-0.0625 0.09375 -0.21875 0.15625q-0.140625 0.046875 -0.390625 0.078125q-0.234375 0.046875 -0.609375 0.046875q-0.375 0 -0.625 -0.046875q-0.234375 -0.03125 -0.375 -0.078125q-0.140625 -0.0625 -0.203125 -0.15625q-0.0625 -0.109375 -0.0625 -0.21875l0 -18.65625q0 -0.625 0.34375 -0.890625q0.34375 -0.265625 0.75 -0.265625l1.28125 0q0.453125 0 0.75 0.078125q0.3125 0.078125 0.546875 0.265625q0.25 0.171875 0.46875 0.5q0.234375 0.3125 0.5 0.796875l4.90625 8.875q0.453125 0.8125 0.875 1.59375q0.421875 0.765625 0.8125 1.515625q0.390625 0.75 0.765625 1.484375q0.390625 0.71875 0.765625 1.453125l0.015625 0q-0.03125 -1.234375 -0.046875 -2.5625q0 -1.34375 0 -2.578125l0 -10.96875q0 -0.109375 0.0625 -0.203125q0.0625 -0.09375 0.203125 -0.15625q0.15625 -0.078125 0.390625 -0.109375q0.25 -0.03125 0.640625 -0.03125q0.34375 0 0.59375 0.03125q0.25 0.03125 0.390625 0.109375q0.140625 0.0625 0.203125 0.15625q0.0625 0.09375 0.0625 0.203125l0 18.65625z" fill-rule="nonzero"/><path fill="#000000" fill-opacity="0.0" d="m242.51968 221.14043l314.9606 0l0 38.929123l-314.9606 0z" fill-rule="evenodd"/><path fill="#990000" d="m335.854 230.65874q0 0.390625 -0.046875 0.6875q-0.03125 0.28125 -0.125 0.46875q-0.09375 0.171875 -0.234375 0.265625q-0.125 0.078125 -0.296875 0.078125l-7.578125 0l0 23.359375q0 0.171875 -0.09375 0.296875q-0.078125 0.125 -0.296875 0.20310974q-0.203125 0.0625 -0.546875 0.109375q-0.34375 0.0625 -0.859375 0.0625q-0.5 0 -0.859375 -0.0625q-0.34375 -0.046875 -0.5625 -0.109375q-0.203125 -0.07810974 -0.28125 -0.20310974q-0.078125 -0.125 -0.078125 -0.296875l0 -23.359375l-7.59375 0q-0.15625 0 -0.296875 -0.078125q-0.140625 -0.09375 -0.21875 -0.265625q-0.078125 -0.1875 -0.140625 -0.46875q-0.046875 -0.296875 -0.046875 -0.6875q0 -0.40625 0.046875 -0.703125q0.0625 -0.296875 0.140625 -0.484375q0.078125 -0.1875 0.21875 -0.265625q0.140625 -0.09375 0.296875 -0.09375l18.75 0q0.171875 0 0.296875 0.09375q0.140625 0.078125 0.234375 0.265625q0.09375 0.1875 0.125 0.484375q0.046875 0.296875 0.046875 0.703125zm21.88034 24.859375q0 0.171875 -0.0625 0.296875q-0.0625 0.125 -0.28125 0.21873474q-0.203125 0.078125 -0.578125 0.109375q-0.375 0.046875 -1.0 0.046875q-0.546875 0 -0.890625 -0.046875q-0.34375 -0.03125 -0.546875 -0.125q-0.203125 -0.09373474 -0.328125 -0.26560974q-0.109375 -0.171875 -0.1875 -0.421875l-2.484375 -6.34375q-0.4375 -1.09375 -0.90625 -2.0q-0.46875 -0.90625 -1.125 -1.546875q-0.640625 -0.65625 -1.515625 -1.015625q-0.875 -0.375 -2.09375 -0.375l-2.390625 0l0 11.46875q0 0.171875 -0.09375 0.296875q-0.09375 0.125 -0.296875 0.20310974q-0.203125 0.0625 -0.546875 0.109375q-0.34375 0.0625 -0.859375 0.0625q-0.515625 0 -0.859375 -0.0625q-0.34375 -0.046875 -0.5625 -0.109375q-0.203125 -0.07810974 -0.296875 -0.20310974q-0.078125 -0.125 -0.078125 -0.296875l0 -24.953125q0 -0.8125 0.421875 -1.125q0.4375 -0.328125 0.921875 -0.328125l5.71875 0q1.015625 0 1.6875 0.0625q0.6875 0.046875 1.234375 0.109375q1.5625 0.265625 2.75 0.859375q1.203125 0.578125 2.015625 1.46875q0.8125 0.890625 1.21875 2.046875q0.40625 1.15625 0.40625 2.5625q0 1.34375 -0.375 2.421875q-0.359375 1.078125 -1.046875 1.90625q-0.6875 0.8125 -1.640625 1.421875q-0.953125 0.59375 -2.140625 1.015625q0.65625 0.296875 1.203125 0.75q0.546875 0.4375 1.015625 1.0625q0.46875 0.625 0.875 1.4375q0.421875 0.8125 0.84375 1.828125l2.40625 5.9375q0.296875 0.75 0.375 1.0625q0.09375 0.296875 0.09375 0.453125zm-5.40625 -18.921875q0 -1.59375 -0.703125 -2.6875q-0.703125 -1.09375 -2.375 -1.5625q-0.515625 -0.15625 -1.171875 -0.21875q-0.65625 -0.0625 -1.71875 -0.0625l-3.015625 0l0 9.09375l3.5 0q1.40625 0 2.4375 -0.34375q1.03125 -0.34375 1.71875 -0.953125q0.6875 -0.625 1.0 -1.453125q0.328125 -0.84375 0.328125 -1.8125zm37.270386 17.984375q0 0.375 -0.046875 0.65625q-0.03125 0.28125 -0.125 0.46875q-0.09375 0.1875 -0.234375 0.28125q-0.140625 0.07810974 -0.28125 0.07810974l-12.9375 0q-0.5 0 -0.921875 -0.31248474q-0.40625 -0.328125 -0.40625 -1.140625l0 -5.125l-9.296875 0l-3.203125 6.0q-0.109375 0.203125 -0.234375 0.34375q-0.125 0.125 -0.359375 0.21873474q-0.234375 0.078125 -0.625 0.109375q-0.390625 0.03125 -0.984375 0.03125q-0.4375 0 -0.75 -0.03125q-0.3125 -0.015625 -0.53125 -0.0625q-0.21875 -0.046875 -0.3125 -0.15623474q-0.09375 -0.125 -0.09375 -0.296875q0 -0.140625 0.078125 -0.34375q0.0625 -0.21875 0.234375 -0.53125l13.578125 -24.890625q0.125 -0.25 0.296875 -0.40625q0.171875 -0.15625 0.4375 -0.21875q0.28125 -0.078125 0.6875 -0.109375q0.40625 -0.03125 1.015625 -0.03125l14.15625 0q0.171875 0 0.296875 0.09375q0.140625 0.078125 0.234375 0.265625q0.09375 0.1875 0.140625 0.46875q0.046875 0.28125 0.046875 0.6875q0 0.375 -0.046875 0.65625q-0.046875 0.28125 -0.140625 0.46875q-0.09375 0.171875 -0.234375 0.265625q-0.125 0.078125 -0.296875 0.078125l-10.53125 0l0 8.46875l9.03125 0q0.1875 0 0.328125 0.09375q0.140625 0.078125 0.21875 0.265625q0.078125 0.1875 0.125 0.46875q0.0625 0.28125 0.0625 0.671875q0 0.40625 -0.0625 0.671875q-0.046875 0.265625 -0.125 0.453125q-0.078125 0.1875 -0.21875 0.28125q-0.140625 0.078125 -0.328125 0.078125l-9.03125 0l0 9.53125l10.703125 0q0.140625 0 0.28125 0.09375q0.140625 0.078125 0.234375 0.265625q0.09375 0.171875 0.125 0.453125q0.046875 0.28125 0.046875 0.6875zm-14.953125 -22.484375l-0.125 0l-7.8125 14.515625l7.9375 0l0 -14.515625zm41.19516 22.484375q0 0.421875 -0.140625 0.71875q-0.125 0.28125 -0.34375 0.46875q-0.21875 0.1875 -0.5 0.28123474q-0.265625 0.078125 -0.53125 0.078125l-1.15625 0q-0.53125 0 -0.9375 -0.109375q-0.40625 -0.12498474 -0.78125 -0.42185974q-0.359375 -0.296875 -0.734375 -0.8125q-0.359375 -0.53125 -0.796875 -1.34375l-8.484375 -15.328125q-0.671875 -1.1875 -1.359375 -2.484375q-0.671875 -1.3125 -1.25 -2.53125l-0.046875 0q0.046875 1.5 0.0625 3.0625q0.03125 1.5625 0.03125 3.09375l0 16.265625q0 0.15625 -0.09375 0.296875q-0.078125 0.125 -0.28125 0.20310974q-0.1875 0.0625 -0.515625 0.109375q-0.328125 0.0625 -0.828125 0.0625q-0.5 0 -0.828125 -0.0625q-0.3125 -0.046875 -0.5 -0.109375q-0.1875 -0.07810974 -0.28125 -0.20310974q-0.078125 -0.140625 -0.078125 -0.296875l0 -24.859375q0 -0.84375 0.453125 -1.1875q0.46875 -0.359375 1.015625 -0.359375l1.703125 0q0.609375 0 1.015625 0.109375q0.40625 0.09375 0.71875 0.34375q0.328125 0.234375 0.625 0.671875q0.3125 0.421875 0.65625 1.0625l6.546875 11.828125q0.59375 1.09375 1.15625 2.125q0.5625 1.015625 1.078125 2.015625q0.53125 1.0 1.03125 1.96875q0.515625 0.96875 1.015625 1.953125l0.03125 0q-0.046875 -1.640625 -0.0625 -3.421875q0 -1.78125 0 -3.421875l0 -14.625q0 -0.15625 0.078125 -0.28125q0.078125 -0.125 0.28125 -0.21875q0.203125 -0.09375 0.515625 -0.125q0.328125 -0.046875 0.84375 -0.046875q0.46875 0 0.796875 0.046875q0.328125 0.03125 0.515625 0.125q0.1875 0.09375 0.265625 0.21875q0.09375 0.125 0.09375 0.28125l0 24.859375zm10.753693 0.9375q0 0.171875 -0.09375 0.296875q-0.078125 0.125 -0.296875 0.20310974q-0.203125 0.0625 -0.546875 0.109375q-0.34375 0.0625 -0.859375 0.0625q-0.5 0 -0.859375 -0.0625q-0.34375 -0.046875 -0.5625 -0.109375q-0.203125 -0.07810974 -0.296875 -0.20310974q-0.078125 -0.125 -0.078125 -0.296875l0 -25.859375q0 -0.171875 0.09375 -0.296875q0.09375 -0.125 0.3125 -0.1875q0.21875 -0.078125 0.5625 -0.125q0.34375 -0.0625 0.828125 -0.0625q0.515625 0 0.859375 0.0625q0.34375 0.046875 0.546875 0.125q0.21875 0.0625 0.296875 0.1875q0.09375 0.125 0.09375 0.296875l0 25.859375zm27.528625 -0.9375q0 0.421875 -0.140625 0.71875q-0.125 0.28125 -0.34375 0.46875q-0.21875 0.1875 -0.5 0.28123474q-0.265625 0.078125 -0.53125 0.078125l-1.15625 0q-0.53125 0 -0.9375 -0.109375q-0.40625 -0.12498474 -0.78125 -0.42185974q-0.359375 -0.296875 -0.734375 -0.8125q-0.359375 -0.53125 -0.796875 -1.34375l-8.484375 -15.328125q-0.671875 -1.1875 -1.359375 -2.484375q-0.671875 -1.3125 -1.25 -2.53125l-0.046875 0q0.046875 1.5 0.0625 3.0625q0.03125 1.5625 0.03125 3.09375l0 16.265625q0 0.15625 -0.09375 0.296875q-0.078125 0.125 -0.28125 0.20310974q-0.1875 0.0625 -0.515625 0.109375q-0.328125 0.0625 -0.828125 0.0625q-0.5 0 -0.828125 -0.0625q-0.3125 -0.046875 -0.5 -0.109375q-0.1875 -0.07810974 -0.28125 -0.20310974q-0.078125 -0.140625 -0.078125 -0.296875l0 -24.859375q0 -0.84375 0.453125 -1.1875q0.46875 -0.359375 1.015625 -0.359375l1.703125 0q0.609375 0 1.015625 0.109375q0.40625 0.09375 0.71875 0.34375q0.328125 0.234375 0.625 0.671875q0.3125 0.421875 0.65625 1.0625l6.546875 11.828125q0.59375 1.09375 1.15625 2.125q0.5625 1.015625 1.078125 2.015625q0.53125 1.0 1.03125 1.96875q0.515625 0.96875 1.015625 1.953125l0.03125 0q-0.046875 -1.640625 -0.0625 -3.421875q0 -1.78125 0 -3.421875l0 -14.625q0 -0.15625 0.078125 -0.28125q0.078125 -0.125 0.28125 -0.21875q0.203125 -0.09375 0.515625 -0.125q0.328125 -0.046875 0.84375 -0.046875q0.46875 0 0.796875 0.046875q0.328125 0.03125 0.515625 0.125q0.1875 0.09375 0.265625 0.21875q0.09375 0.125 0.09375 0.28125l0 24.859375zm27.409943 -21.796875q0 0.390625 -0.046875 0.703125q-0.03125 0.296875 -0.125 0.5q-0.078125 0.1875 -0.203125 0.28125q-0.125 0.078125 -0.265625 0.078125q-0.25 0 -0.84375 -0.390625q-0.578125 -0.40625 -1.5625 -0.875q-0.96875 -0.484375 -2.34375 -0.875q-1.359375 -0.40625 -3.234375 -0.40625q-2.234375 0 -4.0 0.8125q-1.765625 0.8125 -3.0 2.25q-1.21875 1.4375 -1.875 3.421875q-0.65625 1.96875 -0.65625 4.28125q0 2.59375 0.71875 4.59375q0.71875 1.984375 1.984375 3.359375q1.265625 1.375 3.015625 2.09375q1.765625 0.703125 3.875 0.703125q1.25 0 2.53125 -0.296875q1.28125 -0.3125 2.390625 -0.90625l0 -7.859375l-6.25 0q-0.359375 0 -0.546875 -0.34375q-0.171875 -0.359375 -0.171875 -1.109375q0 -0.390625 0.046875 -0.671875q0.046875 -0.28125 0.140625 -0.453125q0.09375 -0.1875 0.21875 -0.265625q0.125 -0.09375 0.3125 -0.09375l8.5625 0q0.21875 0 0.453125 0.09375q0.234375 0.078125 0.421875 0.25q0.1875 0.15625 0.28125 0.453125q0.109375 0.296875 0.109375 0.671875l0 10.265625q0 0.53125 -0.1875 0.9375q-0.1875 0.390625 -0.796875 0.703125q-0.59375 0.296875 -1.5625 0.65625q-0.953125 0.34375 -1.984375 0.59375q-1.015625 0.24998474 -2.0625 0.37498474q-1.03125 0.125 -2.046875 0.125q-3.125 0 -5.59375 -0.96873474q-2.453125 -0.96875 -4.15625 -2.75q-1.6875 -1.796875 -2.59375 -4.296875q-0.890625 -2.5 -0.890625 -5.578125q0 -3.21875 0.96875 -5.8125q0.96875 -2.609375 2.734375 -4.4375q1.765625 -1.84375 4.21875 -2.84375q2.46875 -1.015625 5.46875 -1.015625q1.546875 0 2.890625 0.28125q1.359375 0.265625 2.40625 0.625q1.0625 0.359375 1.78125 0.796875q0.71875 0.421875 0.984375 0.703125q0.28125 0.265625 0.375 0.625q0.109375 0.34375 0.109375 1.015625z" fill-rule="nonzero"/><path fill="#000000" fill-opacity="0.0" d="m303.0 148.0l194.99213 0" fill-rule="evenodd"/><path stroke="#000000" stroke-width="2.0" stroke-linejoin="round" stroke-linecap="butt" d="m303.0 148.0l194.99213 0" fill-rule="evenodd"/><path fill="#000000" fill-opacity="0.0" d="m304.0 452.0l198.99213 0" fill-rule="evenodd"/><path stroke="#000000" stroke-width="2.0" stroke-linejoin="round" stroke-linecap="butt" d="m304.0 452.0l198.99213 0" fill-rule="evenodd"/><path fill="#000000" fill-opacity="0.0" d="m68.96063 9.750656l662.0787 0l0 129.88977l-662.0787 0z" fill-rule="evenodd"/><path fill="#a64d79" d="m263.5547 56.12753q0 1.4375 -0.375 2.640625q-0.359375 1.203125 -1.015625 2.171875q-0.65625 0.953125 -1.578125 1.6875q-0.921875 0.71875 -2.09375 1.21875q-1.15625 0.4843788 -2.484375 0.7343788q-1.3125 0.25 -3.03125 0.25l-7.921875 0q-0.53125 0 -1.015625 -0.359375q-0.484375 -0.375 -0.484375 -1.2812538l0 -27.046875q0 -0.921875 0.484375 -1.28125q0.484375 -0.359375 1.015625 -0.359375l6.890625 0q2.71875 0 4.453125 0.515625q1.734375 0.515625 2.890625 1.5q1.171875 0.984375 1.75 2.421875q0.59375 1.421875 0.59375 3.21875q0 1.078125 -0.265625 2.0625q-0.25 0.984375 -0.765625 1.828125q-0.5 0.828125 -1.265625 1.484375q-0.75 0.65625 -1.734375 1.078125q1.234375 0.234375 2.3125 0.859375q1.078125 0.609375 1.890625 1.578125q0.8125 0.953125 1.28125 2.25q0.46875 1.28125 0.46875 2.828125zm-6.078125 -13.5625q0 -1.109375 -0.3125 -2.0q-0.296875 -0.890625 -0.953125 -1.5q-0.65625 -0.625 -1.71875 -0.953125q-1.046875 -0.328125 -2.78125 -0.328125l-4.171875 0l0 9.8125l4.59375 0q1.578125 0 2.53125 -0.40625q0.96875 -0.40625 1.59375 -1.09375q0.640625 -0.703125 0.921875 -1.625q0.296875 -0.921875 0.296875 -1.90625zm1.828125 13.796875q0 -1.359375 -0.4375 -2.390625q-0.421875 -1.03125 -1.265625 -1.734375q-0.828125 -0.703125 -2.078125 -1.0625q-1.25 -0.359375 -3.15625 -0.359375l-4.828125 0l0 10.6875l5.859375 0q1.390625 0 2.421875 -0.328125q1.03125 -0.328125 1.8125 -0.96875q0.78125 -0.65625 1.21875 -1.609375q0.453125 -0.96875 0.453125 -2.234375zm27.234375 6.796875q0 0.421875 -0.046875 0.75q-0.046875 0.3125038 -0.171875 0.5312538q-0.109375 0.203125 -0.265625 0.296875q-0.140625 0.09375 -0.328125 0.09375l-14.5625 0q-0.53125 0 -1.015625 -0.359375q-0.484375 -0.375 -0.484375 -1.2812538l0 -27.046875q0 -0.921875 0.484375 -1.28125q0.484375 -0.359375 1.015625 -0.359375l14.390625 0q0.1875 0 0.34375 0.09375q0.15625 0.09375 0.25 0.3125q0.09375 0.203125 0.140625 0.515625q0.0625 0.3125 0.0625 0.78125q0 0.421875 -0.0625 0.75q-0.046875 0.3125 -0.140625 0.515625q-0.09375 0.1875 -0.25 0.28125q-0.15625 0.09375 -0.34375 0.09375l-11.859375 0l0 9.515625l10.171875 0q0.1875 0 0.34375 0.109375q0.15625 0.109375 0.25 0.296875q0.109375 0.1875 0.15625 0.515625q0.046875 0.328125 0.046875 0.765625q0 0.421875 -0.046875 0.734375q-0.046875 0.296875 -0.15625 0.484375q-0.09375 0.1875 -0.25 0.28125q-0.15625 0.078125 -0.34375 0.078125l-10.171875 0l0 10.84375l12.03125 0q0.1875 0 0.328125 0.09375q0.15625 0.09375 0.265625 0.296875q0.125 0.203125 0.171875 0.515625q0.046875 0.3125 0.046875 0.78125zm25.578125 -26.921875q0 0.4375 -0.046875 0.765625q-0.046875 0.328125 -0.15625 0.53125q-0.109375 0.203125 -0.265625 0.296875q-0.140625 0.09375 -0.328125 0.09375l-8.53125 0l0 26.296879q0 0.1875 -0.09375 0.328125q-0.09375 0.140625 -0.328125 0.234375q-0.234375 0.078125 -0.625 0.125q-0.390625 0.0625 -0.96875 0.0625q-0.5625 0 -0.96875 -0.0625q-0.390625 -0.046875 -0.625 -0.125q-0.234375 -0.09375 -0.328125 -0.234375q-0.09375 -0.140625 -0.09375 -0.328125l0 -26.296879l-8.53125 0q-0.1875 0 -0.34375 -0.09375q-0.15625 -0.09375 -0.25 -0.296875q-0.09375 -0.203125 -0.15625 -0.53125q-0.046875 -0.328125 -0.046875 -0.765625q0 -0.453125 0.046875 -0.78125q0.0625 -0.34375 0.15625 -0.546875q0.09375 -0.21875 0.25 -0.3125q0.15625 -0.09375 0.34375 -0.09375l21.09375 0q0.1875 0 0.328125 0.09375q0.15625 0.09375 0.265625 0.3125q0.109375 0.203125 0.15625 0.546875q0.046875 0.328125 0.046875 0.78125zm14.0625 16.796875l0 11.187504q0 0.1875 -0.09375 0.328125q-0.09375 0.140625 -0.328125 0.234375q-0.234375 0.078125 -0.640625 0.125q-0.390625 0.0625 -0.953125 0.0625q-0.59375 0 -0.984375 -0.0625q-0.375 -0.046875 -0.625 -0.125q-0.25 -0.09375 -0.34375 -0.234375q-0.09375 -0.140625 -0.09375 -0.328125l0 -11.187504l-8.578125 -17.109375q-0.25 -0.53125 -0.3125 -0.828125q-0.0625 -0.3125 0.109375 -0.46875q0.1875 -0.171875 0.640625 -0.21875q0.453125 -0.046875 1.234375 -0.046875q0.703125 0 1.125 0.046875q0.4375 0.046875 0.6875 0.125q0.265625 0.078125 0.390625 0.234375q0.140625 0.15625 0.25 0.390625l4.203125 8.71875q0.578125 1.234375 1.15625 2.59375q0.59375 1.359375 1.203125 2.75l0.046875 0q0.546875 -1.34375 1.109375 -2.65625q0.578125 -1.328125 1.171875 -2.625l4.21875 -8.765625q0.0625 -0.234375 0.1875 -0.390625q0.140625 -0.171875 0.359375 -0.25q0.21875 -0.078125 0.609375 -0.125q0.40625 -0.046875 1.015625 -0.046875q0.84375 0 1.328125 0.0625q0.484375 0.046875 0.671875 0.21875q0.1875 0.15625 0.125 0.46875q-0.0625 0.296875 -0.3125 0.8125l-8.578125 17.109375zm37.03125 -3.8125q0 3.9375 -1.015625 6.875q-1.0 2.9375 -2.9375 4.875q-1.9375 1.9375 -4.75 2.90625q-2.8125 0.9531288 -6.703125 0.9531288l-6.421875 0q-0.53125 0 -1.015625 -0.359375q-0.484375 -0.375 -0.484375 -1.2812538l0 -27.046875q0 -0.921875 0.484375 -1.28125q0.484375 -0.359375 1.015625 -0.359375l6.875 0q3.9375 0 6.65625 1.015625q2.71875 1.015625 4.546875 2.9375q1.84375 1.90625 2.796875 4.625q0.953125 2.71875 0.953125 6.140625zm-4.25 0.15625q0 -2.453125 -0.609375 -4.578125q-0.609375 -2.125 -1.90625 -3.671875q-1.296875 -1.546875 -3.296875 -2.40625q-1.984375 -0.875 -5.125 -0.875l-4.109375 0l0 23.609375l4.15625 0q2.90625 0 4.890625 -0.71875q2.0 -0.734375 3.328125 -2.234375q1.34375 -1.5 2.0 -3.765625q0.671875 -2.265625 0.671875 -5.359375zm33.375 13.78125q0 0.46875 -0.15625 0.796875q-0.140625 0.3281288 -0.390625 0.5468788q-0.25 0.203125 -0.5625 0.3125q-0.296875 0.09375 -0.59375 0.09375l-1.296875 0q-0.609375 0 -1.0625 -0.125q-0.453125 -0.140625 -0.875 -0.484375q-0.40625 -0.3437538 -0.8125 -0.9218788q-0.40625 -0.59375 -0.90625 -1.5l-9.5625 -17.25q-0.75 -1.34375 -1.515625 -2.796875q-0.75 -1.46875 -1.40625 -2.859375l-0.046875 0q0.046875 1.6875 0.0625 3.453125q0.03125 1.75 0.03125 3.484375l0 18.312504q0 0.15625 -0.09375 0.3125q-0.09375 0.15625 -0.328125 0.25q-0.21875 0.078125 -0.578125 0.125q-0.359375 0.0625 -0.921875 0.0625q-0.5625 0 -0.9375 -0.0625q-0.359375 -0.046875 -0.578125 -0.125q-0.203125 -0.09375 -0.296875 -0.25q-0.09375 -0.15625 -0.09375 -0.3125l0 -27.984379q0 -0.9375 0.515625 -1.328125q0.515625 -0.40625 1.125 -0.40625l1.921875 0q0.6875 0 1.140625 0.125q0.453125 0.109375 0.8125 0.375q0.375 0.265625 0.703125 0.75q0.34375 0.484375 0.75 1.203125l7.359375 13.3125q0.671875 1.21875 1.296875 2.390625q0.640625 1.15625 1.21875 2.28125q0.59375 1.125 1.171875 2.21875q0.578125 1.078125 1.140625 2.1875l0.015625 0q-0.046875 -1.859375 -0.0625 -3.859375q0 -2.0 0 -3.859375l0 -16.453125q0 -0.15625 0.09375 -0.296875q0.09375 -0.140625 0.3125 -0.25q0.21875 -0.109375 0.578125 -0.15625q0.375 -0.046875 0.953125 -0.046875q0.515625 0 0.890625 0.046875q0.375 0.046875 0.578125 0.15625q0.21875 0.109375 0.3125 0.25q0.09375 0.140625 0.09375 0.296875l0 27.984375zm12.09375 1.0625038q0 0.1875 -0.09375 0.328125q-0.09375 0.140625 -0.328125 0.234375q-0.234375 0.078125 -0.625 0.125q-0.375 0.0625 -0.96875 0.0625q-0.5625 0 -0.96875 -0.0625q-0.390625 -0.046875 -0.625 -0.125q-0.234375 -0.09375 -0.328125 -0.234375q-0.09375 -0.140625 -0.09375 -0.328125l0 -29.109379q0 -0.1875 0.109375 -0.328125q0.109375 -0.140625 0.34375 -0.21875q0.25 -0.09375 0.640625 -0.140625q0.390625 -0.0625 0.921875 -0.0625q0.59375 0 0.96875 0.0625q0.390625 0.046875 0.625 0.140625q0.234375 0.078125 0.328125 0.21875q0.09375 0.140625 0.09375 0.328125l0 29.109379zm30.984375 -1.0625038q0 0.46875 -0.15625 0.796875q-0.140625 0.3281288 -0.390625 0.5468788q-0.25 0.203125 -0.5625 0.3125q-0.296875 0.09375 -0.59375 0.09375l-1.296875 0q-0.609375 0 -1.0625 -0.125q-0.453125 -0.140625 -0.875 -0.484375q-0.40625 -0.3437538 -0.8125 -0.9218788q-0.40625 -0.59375 -0.90625 -1.5l-9.5625 -17.25q-0.75 -1.34375 -1.515625 -2.796875q-0.75 -1.46875 -1.40625 -2.859375l-0.046875 0q0.046875 1.6875 0.0625 3.453125q0.03125 1.75 0.03125 3.484375l0 18.312504q0 0.15625 -0.09375 0.3125q-0.09375 0.15625 -0.328125 0.25q-0.21875 0.078125 -0.578125 0.125q-0.359375 0.0625 -0.921875 0.0625q-0.5625 0 -0.9375 -0.0625q-0.359375 -0.046875 -0.578125 -0.125q-0.203125 -0.09375 -0.296875 -0.25q-0.09375 -0.15625 -0.09375 -0.3125l0 -27.984379q0 -0.9375 0.515625 -1.328125q0.515625 -0.40625 1.125 -0.40625l1.921875 0q0.6875 0 1.140625 0.125q0.453125 0.109375 0.8125 0.375q0.375 0.265625 0.703125 0.75q0.34375 0.484375 0.75 1.203125l7.359375 13.3125q0.671875 1.21875 1.296875 2.390625q0.640625 1.15625 1.21875 2.28125q0.59375 1.125 1.171875 2.21875q0.578125 1.078125 1.140625 2.1875l0.015625 0q-0.046875 -1.859375 -0.0625 -3.859375q0 -2.0 0 -3.859375l0 -16.453125q0 -0.15625 0.09375 -0.296875q0.09375 -0.140625 0.3125 -0.25q0.21875 -0.109375 0.578125 -0.15625q0.375 -0.046875 0.953125 -0.046875q0.515625 0 0.890625 0.046875q0.375 0.046875 0.578125 0.15625q0.21875 0.109375 0.3125 0.25q0.09375 0.140625 0.09375 0.296875l0 27.984375zm30.84375 -24.53125q0 0.4375 -0.046875 0.78125q-0.046875 0.34375 -0.140625 0.5625q-0.09375 0.21875 -0.234375 0.3125q-0.140625 0.09375 -0.296875 0.09375q-0.28125 0 -0.9375 -0.4375q-0.65625 -0.453125 -1.765625 -0.984375q-1.09375 -0.546875 -2.640625 -0.984375q-1.53125 -0.453125 -3.640625 -0.453125q-2.5 0 -4.5 0.921875q-1.984375 0.90625 -3.375 2.53125q-1.375 1.609375 -2.125 3.84375q-0.734375 2.21875 -0.734375 4.828125q0 2.90625 0.8125 5.15625q0.8125 2.25 2.234375 3.796875q1.4375 1.546875 3.40625 2.34375q1.984375 0.796875 4.359375 0.796875q1.40625 0 2.84375 -0.34375q1.4375 -0.34375 2.6875 -1.015625l0 -8.84375l-7.03125 0q-0.40625 0 -0.609375 -0.390625q-0.1875 -0.40625 -0.1875 -1.25q0 -0.4375 0.046875 -0.75q0.046875 -0.328125 0.140625 -0.515625q0.109375 -0.203125 0.25 -0.296875q0.140625 -0.09375 0.359375 -0.09375l9.625 0q0.265625 0 0.515625 0.09375q0.265625 0.09375 0.46875 0.28125q0.21875 0.1875 0.328125 0.515625q0.125 0.328125 0.125 0.75l0 11.546875q0 0.609375 -0.21875 1.0625q-0.203125 0.4375 -0.890625 0.78125q-0.671875 0.34375 -1.75 0.7500038q-1.078125 0.390625 -2.234375 0.671875q-1.140625 0.28125 -2.3125 0.421875q-1.171875 0.140625 -2.328125 0.140625q-3.515625 0 -6.28125 -1.09375q-2.765625 -1.0937538 -4.671875 -3.1093788q-1.90625 -2.015625 -2.921875 -4.828125q-1.0 -2.8125 -1.0 -6.28125q0 -3.609375 1.078125 -6.53125q1.09375 -2.9375 3.078125 -5.0q1.984375 -2.0625 4.75 -3.1875q2.78125 -1.140625 6.15625 -1.140625q1.734375 0 3.25 0.3125q1.53125 0.296875 2.71875 0.703125q1.1875 0.40625 1.984375 0.890625q0.8125 0.484375 1.109375 0.796875q0.3125 0.296875 0.421875 0.703125q0.125 0.390625 0.125 1.140625zm34.289062 -2.390625q0 0.4375 -0.046875 0.765625q-0.046875 0.328125 -0.171875 0.53125q-0.109375 0.203125 -0.265625 0.296875q-0.140625 0.09375 -0.3125 0.09375l-11.109375 0l0 10.3125l10.5 0q0.171875 0 0.3125 0.078125q0.15625 0.078125 0.265625 0.265625q0.125 0.1875 0.171875 0.515625q0.046875 0.3125 0.046875 0.796875q0 0.453125 -0.046875 0.765625q-0.046875 0.3125 -0.171875 0.515625q-0.109375 0.203125 -0.265625 0.3125q-0.140625 0.09375 -0.3125 0.09375l-10.5 0l0 12.640629q0 0.15625 -0.09375 0.3125q-0.09375 0.15625 -0.328125 0.25q-0.234375 0.078125 -0.609375 0.125q-0.375 0.0625 -0.984375 0.0625q-0.5625 0 -0.96875 -0.0625q-0.390625 -0.046875 -0.625 -0.125q-0.234375 -0.09375 -0.328125 -0.25q-0.09375 -0.15625 -0.09375 -0.3125l0 -28.078129q0 -0.921875 0.484375 -1.28125q0.484375 -0.359375 1.015625 -0.359375l13.640625 0q0.171875 0 0.3125 0.09375q0.15625 0.09375 0.265625 0.3125q0.125 0.203125 0.171875 0.546875q0.046875 0.328125 0.046875 0.78125zm31.523438 13.078125q0 3.671875 -0.875 6.625q-0.859375 2.953125 -2.578125 5.03125q-1.71875 2.078125 -4.328125 3.2031288q-2.59375 1.109375 -6.0625 1.109375q-3.421875 0 -5.921875 -1.015625q-2.5 -1.0312538 -4.125 -2.9687538q-1.625 -1.953125 -2.421875 -4.828125q-0.796875 -2.890625 -0.796875 -6.640625q0 -3.59375 0.859375 -6.515625q0.875 -2.9375 2.609375 -4.984375q1.734375 -2.046875 4.328125 -3.15625q2.609375 -1.125 6.078125 -1.125q3.34375 0 5.828125 1.015625q2.484375 1.0 4.140625 2.9375q1.65625 1.9375 2.453125 4.78125q0.8125 2.84375 0.8125 6.53125zm-4.234375 0.28125q0 -2.578125 -0.46875 -4.796875q-0.453125 -2.21875 -1.515625 -3.84375q-1.0625 -1.625 -2.84375 -2.53125q-1.78125 -0.921875 -4.40625 -0.921875q-2.625 0 -4.40625 0.984375q-1.78125 0.984375 -2.90625 2.625q-1.109375 1.640625 -1.59375 3.828125q-0.46875 2.1875 -0.46875 4.609375q0 2.671875 0.4375 4.921875q0.453125 2.25 1.5 3.875q1.0625 1.625 2.828125 2.53125q1.765625 0.90625 4.4375 0.90625q2.65625 0 4.453125 -0.984375q1.8125 -0.984375 2.90625 -2.65625q1.109375 -1.6875 1.578125 -3.890625q0.46875 -2.203125 0.46875 -4.65625zm30.84375 14.625004q0 0.1875 -0.078125 0.328125q-0.0625 0.140625 -0.296875 0.234375q-0.234375 0.09375 -0.65625 0.140625q-0.421875 0.046875 -1.125 0.046875q-0.609375 0 -1.0 -0.046875q-0.390625 -0.046875 -0.625 -0.15625q-0.234375 -0.109375 -0.359375 -0.296875q-0.125 -0.1875 -0.21875 -0.46875l-2.796875 -7.140629q-0.484375 -1.21875 -1.015625 -2.234375q-0.53125 -1.03125 -1.265625 -1.765625q-0.71875 -0.734375 -1.703125 -1.140625q-0.984375 -0.421875 -2.359375 -0.421875l-2.703125 0l0 12.921879q0 0.1875 -0.109375 0.328125q-0.09375 0.140625 -0.328125 0.234375q-0.21875 0.078125 -0.609375 0.125q-0.375 0.0625 -0.96875 0.0625q-0.578125 0 -0.96875 -0.0625q-0.390625 -0.046875 -0.625 -0.125q-0.234375 -0.09375 -0.328125 -0.234375q-0.09375 -0.140625 -0.09375 -0.328125l0 -28.078129q0 -0.921875 0.484375 -1.28125q0.484375 -0.359375 1.015625 -0.359375l6.453125 0q1.140625 0 1.90625 0.0625q0.765625 0.046875 1.375 0.125q1.75 0.296875 3.09375 0.953125q1.359375 0.65625 2.265625 1.671875q0.921875 1.0 1.375 2.3125q0.453125 1.296875 0.453125 2.859375q0 1.53125 -0.40625 2.734375q-0.40625 1.203125 -1.1875 2.140625q-0.765625 0.921875 -1.84375 1.609375q-1.078125 0.671875 -2.421875 1.140625q0.75 0.328125 1.359375 0.828125q0.609375 0.5 1.140625 1.203125q0.53125 0.703125 1.0 1.625q0.46875 0.90625 0.9375 2.0625l2.71875 6.671875q0.328125 0.84375 0.421875 1.1875q0.09375 0.3437538 0.09375 0.5312538zm-6.078125 -21.312504q0 -1.78125 -0.796875 -3.0q-0.796875 -1.234375 -2.671875 -1.78125q-0.578125 -0.15625 -1.328125 -0.21875q-0.734375 -0.078125 -1.921875 -0.078125l-3.40625 0l0 10.21875l3.9375 0q1.59375 0 2.75 -0.390625q1.171875 -0.390625 1.9375 -1.078125q0.78125 -0.6875 1.140625 -1.625q0.359375 -0.9375 0.359375 -2.046875z" fill-rule="nonzero"/><path fill="#a64d79" d="m199.78125 122.22128q0 0.1875 -0.078125 0.328125q-0.0625 0.140625 -0.296875 0.234375q-0.234375 0.09375 -0.65625 0.140625q-0.421875 0.046875 -1.125 0.046875q-0.609375 0 -1.0 -0.046875q-0.390625 -0.046875 -0.625 -0.15625q-0.234375 -0.109375 -0.359375 -0.296875q-0.125 -0.1875 -0.21875 -0.46875l-2.796875 -7.140625q-0.484375 -1.21875 -1.015625 -2.234375q-0.53125 -1.03125 -1.265625 -1.765625q-0.71875 -0.734375 -1.703125 -1.140625q-0.984375 -0.421875 -2.359375 -0.421875l-2.703125 0l0 12.921875q0 0.1875 -0.109375 0.328125q-0.09375 0.140625 -0.328125 0.234375q-0.21875 0.078125 -0.609375 0.125q-0.375 0.0625 -0.96875 0.0625q-0.578125 0 -0.96875 -0.0625q-0.390625 -0.046875 -0.625 -0.125q-0.234375 -0.09375 -0.328125 -0.234375q-0.09375 -0.140625 -0.09375 -0.328125l0 -28.078125q0 -0.921875 0.484375 -1.28125q0.484375 -0.359375 1.015625 -0.359375l6.453125 0q1.140625 0 1.90625 0.0625q0.765625 0.046875 1.375 0.125q1.75 0.296875 3.09375 0.953125q1.359375 0.65625 2.265625 1.671875q0.921875 1.0 1.375 2.3125q0.453125 1.296875 0.453125 2.859375q0 1.53125 -0.40625 2.734375q-0.40625 1.203125 -1.1875 2.140625q-0.765625 0.921875 -1.84375 1.609375q-1.078125 0.671875 -2.421875 1.140625q0.75 0.328125 1.359375 0.828125q0.609375 0.5 1.140625 1.203125q0.53125 0.703125 1.0 1.625q0.46875 0.90625 0.9375 2.0625l2.71875 6.671875q0.328125 0.84375 0.421875 1.1875q0.09375 0.34375 0.09375 0.53125zm-6.078125 -21.3125q0 -1.78125 -0.796875 -3.0q-0.796875 -1.234375 -2.671875 -1.78125q-0.578125 -0.15625 -1.328125 -0.21875q-0.734375 -0.078125 -1.921875 -0.078125l-3.40625 0l0 10.21875l3.9375 0q1.59375 0 2.75 -0.390625q1.171875 -0.390625 1.9375 -1.078125q0.78125 -0.6875 1.140625 -1.625q0.359375 -0.9375 0.359375 -2.046875zm28.78125 20.25q0 0.421875 -0.046875 0.75q-0.046875 0.3125 -0.171875 0.53125q-0.109375 0.203125 -0.265625 0.296875q-0.140625 0.09375 -0.328125 0.09375l-14.5625 0q-0.53125 0 -1.015625 -0.359375q-0.484375 -0.375 -0.484375 -1.28125l0 -27.046875q0 -0.921875 0.484375 -1.28125q0.484375 -0.359375 1.015625 -0.359375l14.390625 0q0.1875 0 0.34375 0.09375q0.15625 0.09375 0.25 0.3125q0.09375 0.203125 0.140625 0.515625q0.0625 0.3125 0.0625 0.78125q0 0.421875 -0.0625 0.75q-0.046875 0.3125 -0.140625 0.515625q-0.09375 0.1875 -0.25 0.28125q-0.15625 0.09375 -0.34375 0.09375l-11.859375 0l0 9.515625l10.171875 0q0.1875 0 0.34375 0.109375q0.15625 0.109375 0.25 0.296875q0.109375 0.1875 0.15625 0.515625q0.046875 0.328125 0.046875 0.765625q0 0.421875 -0.046875 0.734375q-0.046875 0.296875 -0.15625 0.484375q-0.09375 0.1875 -0.25 0.28125q-0.15625 0.078125 -0.34375 0.078125l-10.171875 0l0 10.84375l12.03125 0q0.1875 0 0.328125 0.09375q0.15625 0.09375 0.265625 0.296875q0.125 0.203125 0.171875 0.515625q0.046875 0.3125 0.046875 0.78125zm22.859375 -6.84375q0 2.140625 -0.796875 3.8125q-0.78125 1.65625 -2.171875 2.8125q-1.390625 1.15625 -3.28125 1.75q-1.890625 0.59375 -4.0625 0.59375q-1.53125 0 -2.828125 -0.265625q-1.296875 -0.265625 -2.328125 -0.640625q-1.015625 -0.375 -1.703125 -0.765625q-0.6875 -0.40625 -0.96875 -0.6875q-0.265625 -0.28125 -0.390625 -0.703125q-0.125 -0.4375 -0.125 -1.171875q0 -0.515625 0.046875 -0.84375q0.046875 -0.34375 0.140625 -0.546875q0.09375 -0.21875 0.234375 -0.296875q0.140625 -0.09375 0.328125 -0.09375q0.328125 0 0.921875 0.40625q0.59375 0.390625 1.53125 0.859375q0.9375 0.46875 2.265625 0.890625q1.328125 0.40625 3.0625 0.40625q1.3125 0 2.390625 -0.34375q1.09375 -0.359375 1.875 -1.0q0.796875 -0.65625 1.21875 -1.59375q0.421875 -0.9375 0.421875 -2.125q0 -1.296875 -0.59375 -2.203125q-0.578125 -0.921875 -1.546875 -1.609375q-0.953125 -0.6875 -2.1875 -1.265625q-1.234375 -0.578125 -2.53125 -1.171875q-1.28125 -0.59375 -2.5 -1.3125q-1.21875 -0.734375 -2.1875 -1.71875q-0.953125 -0.984375 -1.546875 -2.3125q-0.59375 -1.328125 -0.59375 -3.171875q0 -1.90625 0.6875 -3.390625q0.6875 -1.484375 1.921875 -2.484375q1.234375 -1.015625 2.921875 -1.546875q1.703125 -0.53125 3.671875 -0.53125q1.015625 0 2.03125 0.1875q1.015625 0.171875 1.921875 0.46875q0.90625 0.28125 1.609375 0.65625q0.703125 0.359375 0.921875 0.578125q0.21875 0.21875 0.28125 0.359375q0.078125 0.125 0.125 0.328125q0.046875 0.1875 0.0625 0.46875q0.03125 0.28125 0.03125 0.734375q0 0.421875 -0.03125 0.75q-0.03125 0.328125 -0.109375 0.546875q-0.0625 0.21875 -0.203125 0.328125q-0.125 0.109375 -0.28125 0.109375q-0.265625 0 -0.8125 -0.328125q-0.546875 -0.328125 -1.34375 -0.734375q-0.796875 -0.421875 -1.890625 -0.75q-1.09375 -0.34375 -2.453125 -0.34375q-1.265625 0 -2.203125 0.34375q-0.9375 0.328125 -1.546875 0.890625q-0.609375 0.5625 -0.921875 1.34375q-0.296875 0.765625 -0.296875 1.640625q0 1.265625 0.578125 2.1875q0.59375 0.90625 1.5625 1.609375q0.984375 0.703125 2.21875 1.296875q1.25 0.578125 2.53125 1.171875q1.296875 0.59375 2.53125 1.3125q1.25 0.71875 2.21875 1.6875q0.96875 0.96875 1.5625 2.296875q0.609375 1.328125 0.609375 3.125zm24.398438 -12.9375q0 2.28125 -0.75 4.109375q-0.75 1.828125 -2.15625 3.125q-1.390625 1.28125 -3.421875 1.984375q-2.015625 0.703125 -4.828125 0.703125l-3.453125 0l0 10.921875q0 0.1875 -0.109375 0.328125q-0.09375 0.140625 -0.328125 0.234375q-0.21875 0.078125 -0.609375 0.125q-0.375 0.0625 -0.96875 0.0625q-0.578125 0 -0.96875 -0.0625q-0.390625 -0.046875 -0.625 -0.125q-0.234375 -0.09375 -0.328125 -0.234375q-0.09375 -0.140625 -0.09375 -0.328125l0 -27.984375q0 -0.9375 0.484375 -1.328125q0.5 -0.40625 1.109375 -0.40625l6.5 0q0.984375 0 1.875 0.078125q0.90625 0.078125 2.140625 0.359375q1.234375 0.265625 2.5 1.0q1.28125 0.734375 2.171875 1.8125q0.890625 1.078125 1.375 2.5q0.484375 1.421875 0.484375 3.125zm-4.25 0.328125q0 -1.84375 -0.6875 -3.078125q-0.6875 -1.25 -1.71875 -1.859375q-1.015625 -0.609375 -2.109375 -0.765625q-1.078125 -0.171875 -2.109375 -0.171875l-3.734375 0l0 12.15625l3.640625 0q1.828125 0 3.03125 -0.46875q1.203125 -0.46875 2.015625 -1.296875q0.828125 -0.828125 1.25 -1.984375q0.421875 -1.171875 0.421875 -2.53125zm35.8125 5.609375q0 3.671875 -0.875 6.625q-0.859375 2.953125 -2.578125 5.03125q-1.71875 2.078125 -4.328125 3.203125q-2.59375 1.109375 -6.0625 1.109375q-3.421875 0 -5.921875 -1.015625q-2.5 -1.03125 -4.125 -2.96875q-1.625 -1.953125 -2.421875 -4.828125q-0.796875 -2.890625 -0.796875 -6.640625q0 -3.59375 0.859375 -6.515625q0.875 -2.9375 2.609375 -4.984375q1.734375 -2.046875 4.328125 -3.15625q2.609375 -1.125 6.078125 -1.125q3.34375 0 5.828125 1.015625q2.484375 1.0 4.140625 2.9375q1.65625 1.9375 2.453125 4.78125q0.8125 2.84375 0.8125 6.53125zm-4.234375 0.28125q0 -2.578125 -0.46875 -4.796875q-0.453125 -2.21875 -1.515625 -3.84375q-1.0625 -1.625 -2.84375 -2.53125q-1.78125 -0.921875 -4.40625 -0.921875q-2.625 0 -4.40625 0.984375q-1.78125 0.984375 -2.90625 2.625q-1.109375 1.640625 -1.59375 3.828125q-0.46875 2.1875 -0.46875 4.609375q0 2.671875 0.4375 4.921875q0.453125 2.25 1.5 3.875q1.0625 1.625 2.828125 2.53125q1.765625 0.90625 4.4375 0.90625q2.65625 0 4.453125 -0.984375q1.8125 -0.984375 2.90625 -2.65625q1.109375 -1.6875 1.578125 -3.890625q0.46875 -2.203125 0.46875 -4.65625zm33.53125 13.5625q0 0.46875 -0.15625 0.796875q-0.140625 0.328125 -0.390625 0.546875q-0.25 0.203125 -0.5625 0.3125q-0.296875 0.09375 -0.59375 0.09375l-1.296875 0q-0.609375 0 -1.0625 -0.125q-0.453125 -0.140625 -0.875 -0.484375q-0.40625 -0.34375 -0.8125 -0.921875q-0.40625 -0.59375 -0.90625 -1.5l-9.5625 -17.25q-0.75 -1.34375 -1.515625 -2.796875q-0.75 -1.46875 -1.40625 -2.859375l-0.046875 0q0.046875 1.6875 0.0625 3.453125q0.03125 1.75 0.03125 3.484375l0 18.3125q0 0.15625 -0.09375 0.3125q-0.09375 0.15625 -0.328125 0.25q-0.21875 0.078125 -0.578125 0.125q-0.359375 0.0625 -0.921875 0.0625q-0.5625 0 -0.9375 -0.0625q-0.359375 -0.046875 -0.578125 -0.125q-0.203125 -0.09375 -0.296875 -0.25q-0.09375 -0.15625 -0.09375 -0.3125l0 -27.984375q0 -0.9375 0.515625 -1.328125q0.515625 -0.40625 1.125 -0.40625l1.921875 0q0.6875 0 1.140625 0.125q0.453125 0.109375 0.8125 0.375q0.375 0.265625 0.703125 0.75q0.34375 0.484375 0.75 1.203125l7.359375 13.3125q0.671875 1.21875 1.296875 2.390625q0.640625 1.15625 1.21875 2.28125q0.59375 1.125 1.171875 2.21875q0.578125 1.078125 1.140625 2.1875l0.015625 0q-0.046875 -1.859375 -0.0625 -3.859375q0 -2.0 0 -3.859375l0 -16.453125q0 -0.15625 0.09375 -0.296875q0.09375 -0.140625 0.3125 -0.25q0.21875 -0.109375 0.578125 -0.15625q0.375 -0.046875 0.953125 -0.046875q0.515625 0 0.890625 0.046875q0.375 0.046875 0.578125 0.15625q0.21875 0.109375 0.3125 0.25q0.09375 0.140625 0.09375 0.296875l0 27.984375zm24.359375 -6.84375q0 2.140625 -0.796875 3.8125q-0.78125 1.65625 -2.171875 2.8125q-1.390625 1.15625 -3.28125 1.75q-1.890625 0.59375 -4.0625 0.59375q-1.53125 0 -2.828125 -0.265625q-1.296875 -0.265625 -2.328125 -0.640625q-1.015625 -0.375 -1.703125 -0.765625q-0.6875 -0.40625 -0.96875 -0.6875q-0.265625 -0.28125 -0.390625 -0.703125q-0.125 -0.4375 -0.125 -1.171875q0 -0.515625 0.046875 -0.84375q0.046875 -0.34375 0.140625 -0.546875q0.09375 -0.21875 0.234375 -0.296875q0.140625 -0.09375 0.328125 -0.09375q0.328125 0 0.921875 0.40625q0.59375 0.390625 1.53125 0.859375q0.9375 0.46875 2.265625 0.890625q1.328125 0.40625 3.0625 0.40625q1.3125 0 2.390625 -0.34375q1.09375 -0.359375 1.875 -1.0q0.796875 -0.65625 1.21875 -1.59375q0.421875 -0.9375 0.421875 -2.125q0 -1.296875 -0.59375 -2.203125q-0.578125 -0.921875 -1.546875 -1.609375q-0.953125 -0.6875 -2.1875 -1.265625q-1.234375 -0.578125 -2.53125 -1.171875q-1.28125 -0.59375 -2.5 -1.3125q-1.21875 -0.734375 -2.1875 -1.71875q-0.953125 -0.984375 -1.546875 -2.3125q-0.59375 -1.328125 -0.59375 -3.171875q0 -1.90625 0.6875 -3.390625q0.6875 -1.484375 1.921875 -2.484375q1.234375 -1.015625 2.921875 -1.546875q1.703125 -0.53125 3.671875 -0.53125q1.015625 0 2.03125 0.1875q1.015625 0.171875 1.921875 0.46875q0.90625 0.28125 1.609375 0.65625q0.703125 0.359375 0.921875 0.578125q0.21875 0.21875 0.28125 0.359375q0.078125 0.125 0.125 0.328125q0.046875 0.1875 0.0625 0.46875q0.03125 0.28125 0.03125 0.734375q0 0.421875 -0.03125 0.75q-0.03125 0.328125 -0.109375 0.546875q-0.0625 0.21875 -0.203125 0.328125q-0.125 0.109375 -0.28125 0.109375q-0.265625 0 -0.8125 -0.328125q-0.546875 -0.328125 -1.34375 -0.734375q-0.796875 -0.421875 -1.890625 -0.75q-1.09375 -0.34375 -2.453125 -0.34375q-1.265625 0 -2.203125 0.34375q-0.9375 0.328125 -1.546875 0.890625q-0.609375 0.5625 -0.921875 1.34375q-0.296875 0.765625 -0.296875 1.640625q0 1.265625 0.578125 2.1875q0.59375 0.90625 1.5625 1.609375q0.984375 0.703125 2.21875 1.296875q1.25 0.578125 2.53125 1.171875q1.296875 0.59375 2.53125 1.3125q1.25 0.71875 2.21875 1.6875q0.96875 0.96875 1.5625 2.296875q0.609375 1.328125 0.609375 3.125zm35.625 -20.078125q0 0.4375 -0.046875 0.765625q-0.046875 0.328125 -0.15625 0.53125q-0.109375 0.203125 -0.265625 0.296875q-0.140625 0.09375 -0.328125 0.09375l-8.53125 0l0 26.296875q0 0.1875 -0.09375 0.328125q-0.09375 0.140625 -0.328125 0.234375q-0.234375 0.078125 -0.625 0.125q-0.390625 0.0625 -0.96875 0.0625q-0.5625 0 -0.96875 -0.0625q-0.390625 -0.046875 -0.625 -0.125q-0.234375 -0.09375 -0.328125 -0.234375q-0.09375 -0.140625 -0.09375 -0.328125l0 -26.296875l-8.53125 0q-0.1875 0 -0.34375 -0.09375q-0.15625 -0.09375 -0.25 -0.296875q-0.09375 -0.203125 -0.15625 -0.53125q-0.046875 -0.328125 -0.046875 -0.765625q0 -0.453125 0.046875 -0.78125q0.0625 -0.34375 0.15625 -0.546875q0.09375 -0.21875 0.25 -0.3125q0.15625 -0.09375 0.34375 -0.09375l21.09375 0q0.1875 0 0.328125 0.09375q0.15625 0.09375 0.265625 0.3125q0.109375 0.203125 0.15625 0.546875q0.046875 0.328125 0.046875 0.78125zm8.40625 27.984375q0 0.1875 -0.09375 0.328125q-0.09375 0.140625 -0.328125 0.234375q-0.234375 0.078125 -0.625 0.125q-0.375 0.0625 -0.96875 0.0625q-0.5625 0 -0.96875 -0.0625q-0.390625 -0.046875 -0.625 -0.125q-0.234375 -0.09375 -0.328125 -0.234375q-0.09375 -0.140625 -0.09375 -0.328125l0 -29.109375q0 -0.1875 0.109375 -0.328125q0.109375 -0.140625 0.34375 -0.21875q0.25 -0.09375 0.640625 -0.140625q0.390625 -0.0625 0.921875 -0.0625q0.59375 0 0.96875 0.0625q0.390625 0.046875 0.625 0.140625q0.234375 0.078125 0.328125 0.21875q0.09375 0.140625 0.09375 0.328125l0 29.109375zm23.796875 -1.15625q0 0.46875 -0.046875 0.796875q-0.046875 0.3125 -0.15625 0.53125q-0.109375 0.21875 -0.265625 0.328125q-0.140625 0.109375 -0.359375 0.109375l-13.40625 0q-0.53125 0 -1.015625 -0.359375q-0.484375 -0.375 -0.484375 -1.28125l0 -28.078125q0 -0.1875 0.09375 -0.328125q0.09375 -0.140625 0.328125 -0.21875q0.234375 -0.09375 0.625 -0.140625q0.40625 -0.0625 0.96875 -0.0625q0.59375 0 0.96875 0.0625q0.390625 0.046875 0.625 0.140625q0.234375 0.078125 0.328125 0.21875q0.09375 0.140625 0.09375 0.328125l0 26.21875l10.875 0q0.21875 0 0.359375 0.109375q0.15625 0.109375 0.265625 0.3125q0.109375 0.1875 0.15625 0.515625q0.046875 0.328125 0.046875 0.796875zm34.3125 -26.828125q0 0.4375 -0.046875 0.765625q-0.046875 0.328125 -0.15625 0.53125q-0.109375 0.203125 -0.265625 0.296875q-0.140625 0.09375 -0.328125 0.09375l-8.53125 0l0 26.296875q0 0.1875 -0.09375 0.328125q-0.09375 0.140625 -0.328125 0.234375q-0.234375 0.078125 -0.625 0.125q-0.390625 0.0625 -0.96875 0.0625q-0.5625 0 -0.96875 -0.0625q-0.390625 -0.046875 -0.625 -0.125q-0.234375 -0.09375 -0.328125 -0.234375q-0.09375 -0.140625 -0.09375 -0.328125l0 -26.296875l-8.53125 0q-0.1875 0 -0.34375 -0.09375q-0.15625 -0.09375 -0.25 -0.296875q-0.09375 -0.203125 -0.15625 -0.53125q-0.046875 -0.328125 -0.046875 -0.765625q0 -0.453125 0.046875 -0.78125q0.0625 -0.34375 0.15625 -0.546875q0.09375 -0.21875 0.25 -0.3125q0.15625 -0.09375 0.34375 -0.09375l21.09375 0q0.1875 0 0.328125 0.09375q0.15625 0.09375 0.265625 0.3125q0.109375 0.203125 0.15625 0.546875q0.046875 0.328125 0.046875 0.78125zm24.609375 27.984375q0 0.1875 -0.078125 0.328125q-0.0625 0.140625 -0.296875 0.234375q-0.234375 0.09375 -0.65625 0.140625q-0.421875 0.046875 -1.125 0.046875q-0.609375 0 -1.0 -0.046875q-0.390625 -0.046875 -0.625 -0.15625q-0.234375 -0.109375 -0.359375 -0.296875q-0.125 -0.1875 -0.21875 -0.46875l-2.796875 -7.140625q-0.484375 -1.21875 -1.015625 -2.234375q-0.53125 -1.03125 -1.265625 -1.765625q-0.71875 -0.734375 -1.703125 -1.140625q-0.984375 -0.421875 -2.359375 -0.421875l-2.703125 0l0 12.921875q0 0.1875 -0.109375 0.328125q-0.09375 0.140625 -0.328125 0.234375q-0.21875 0.078125 -0.609375 0.125q-0.375 0.0625 -0.96875 0.0625q-0.578125 0 -0.96875 -0.0625q-0.390625 -0.046875 -0.625 -0.125q-0.234375 -0.09375 -0.328125 -0.234375q-0.09375 -0.140625 -0.09375 -0.328125l0 -28.078125q0 -0.921875 0.484375 -1.28125q0.484375 -0.359375 1.015625 -0.359375l6.453125 0q1.140625 0 1.90625 0.0625q0.765625 0.046875 1.375 0.125q1.75 0.296875 3.09375 0.953125q1.359375 0.65625 2.265625 1.671875q0.921875 1.0 1.375 2.3125q0.453125 1.296875 0.453125 2.859375q0 1.53125 -0.40625 2.734375q-0.40625 1.203125 -1.1875 2.140625q-0.765625 0.921875 -1.84375 1.609375q-1.078125 0.671875 -2.421875 1.140625q0.75 0.328125 1.359375 0.828125q0.609375 0.5 1.140625 1.203125q0.53125 0.703125 1.0 1.625q0.46875 0.90625 0.9375 2.0625l2.71875 6.671875q0.328125 0.84375 0.421875 1.1875q0.09375 0.34375 0.09375 0.53125zm-6.078125 -21.3125q0 -1.78125 -0.796875 -3.0q-0.796875 -1.234375 -2.671875 -1.78125q-0.578125 -0.15625 -1.328125 -0.21875q-0.734375 -0.078125 -1.921875 -0.078125l-3.40625 0l0 10.21875l3.9375 0q1.59375 0 2.75 -0.390625q1.171875 -0.390625 1.9375 -1.078125q0.78125 -0.6875 1.140625 -1.625q0.359375 -0.9375 0.359375 -2.046875zm41.9375 20.25q0 0.421875 -0.046875 0.75q-0.046875 0.3125 -0.15625 0.53125q-0.109375 0.203125 -0.265625 0.296875q-0.140625 0.09375 -0.3125 0.09375l-14.546875 0q-0.5625 0 -1.03125 -0.359375q-0.46875 -0.375 -0.46875 -1.28125l0 -5.765625l-10.453125 0l-3.609375 6.75q-0.125 0.234375 -0.265625 0.390625q-0.140625 0.140625 -0.40625 0.25q-0.265625 0.09375 -0.703125 0.125q-0.4375 0.03125 -1.109375 0.03125q-0.5 0 -0.84375 -0.03125q-0.359375 -0.015625 -0.609375 -0.078125q-0.25 -0.0625 -0.34375 -0.1875q-0.109375 -0.125 -0.109375 -0.3125q0 -0.171875 0.078125 -0.40625q0.078125 -0.234375 0.265625 -0.578125l15.296875 -28.015625q0.140625 -0.28125 0.328125 -0.453125q0.203125 -0.171875 0.5 -0.25q0.3125 -0.09375 0.765625 -0.125q0.46875 -0.03125 1.140625 -0.03125l15.9375 0q0.1875 0 0.34375 0.09375q0.15625 0.09375 0.25 0.3125q0.109375 0.203125 0.15625 0.515625q0.046875 0.3125 0.046875 0.78125q0 0.421875 -0.046875 0.75q-0.046875 0.3125 -0.15625 0.515625q-0.09375 0.1875 -0.25 0.28125q-0.15625 0.09375 -0.34375 0.09375l-11.859375 0l0 9.546875l10.171875 0q0.21875 0 0.359375 0.09375q0.15625 0.09375 0.25 0.3125q0.09375 0.203125 0.15625 0.515625q0.0625 0.3125 0.0625 0.765625q0 0.4375 -0.0625 0.75q-0.0625 0.296875 -0.15625 0.515625q-0.09375 0.203125 -0.25 0.296875q-0.140625 0.09375 -0.359375 0.09375l-10.171875 0l0 10.734375l12.046875 0q0.171875 0 0.3125 0.09375q0.15625 0.09375 0.265625 0.296875q0.109375 0.203125 0.15625 0.515625q0.046875 0.3125 0.046875 0.78125zm-16.828125 -25.3125l-0.140625 0l-8.796875 16.34375l8.9375 0l0 -16.34375zm46.351562 25.3125q0 0.46875 -0.15625 0.796875q-0.140625 0.328125 -0.390625 0.546875q-0.25 0.203125 -0.5625 0.3125q-0.296875 0.09375 -0.59375 0.09375l-1.296875 0q-0.609375 0 -1.0625 -0.125q-0.453125 -0.140625 -0.875 -0.484375q-0.40625 -0.34375 -0.8125 -0.921875q-0.40625 -0.59375 -0.90625 -1.5l-9.5625 -17.25q-0.75 -1.34375 -1.515625 -2.796875q-0.75 -1.46875 -1.40625 -2.859375l-0.046875 0q0.046875 1.6875 0.0625 3.453125q0.03125 1.75 0.03125 3.484375l0 18.3125q0 0.15625 -0.09375 0.3125q-0.09375 0.15625 -0.328125 0.25q-0.21875 0.078125 -0.578125 0.125q-0.359375 0.0625 -0.921875 0.0625q-0.5625 0 -0.9375 -0.0625q-0.359375 -0.046875 -0.578125 -0.125q-0.203125 -0.09375 -0.296875 -0.25q-0.09375 -0.15625 -0.09375 -0.3125l0 -27.984375q0 -0.9375 0.515625 -1.328125q0.515625 -0.40625 1.125 -0.40625l1.921875 0q0.6875 0 1.140625 0.125q0.453125 0.109375 0.8125 0.375q0.375 0.265625 0.703125 0.75q0.34375 0.484375 0.75 1.203125l7.359375 13.3125q0.671875 1.21875 1.296875 2.390625q0.640625 1.15625 1.21875 2.28125q0.59375 1.125 1.171875 2.21875q0.578125 1.078125 1.140625 2.1875l0.015625 0q-0.046875 -1.859375 -0.0625 -3.859375q0 -2.0 0 -3.859375l0 -16.453125q0 -0.15625 0.09375 -0.296875q0.09375 -0.140625 0.3125 -0.25q0.21875 -0.109375 0.578125 -0.15625q0.375 -0.046875 0.953125 -0.046875q0.515625 0 0.890625 0.046875q0.375 0.046875 0.578125 0.15625q0.21875 0.109375 0.3125 0.25q0.09375 0.140625 0.09375 0.296875l0 27.984375zm12.09375 1.0625q0 0.1875 -0.09375 0.328125q-0.09375 0.140625 -0.328125 0.234375q-0.234375 0.078125 -0.625 0.125q-0.375 0.0625 -0.96875 0.0625q-0.5625 0 -0.96875 -0.0625q-0.390625 -0.046875 -0.625 -0.125q-0.234375 -0.09375 -0.328125 -0.234375q-0.09375 -0.140625 -0.09375 -0.328125l0 -29.109375q0 -0.1875 0.109375 -0.328125q0.109375 -0.140625 0.34375 -0.21875q0.25 -0.09375 0.640625 -0.140625q0.390625 -0.0625 0.921875 -0.0625q0.59375 0 0.96875 0.0625q0.390625 0.046875 0.625 0.140625q0.234375 0.078125 0.328125 0.21875q0.09375 0.140625 0.09375 0.328125l0 29.109375zm30.984375 -1.0625q0 0.46875 -0.15625 0.796875q-0.140625 0.328125 -0.390625 0.546875q-0.25 0.203125 -0.5625 0.3125q-0.296875 0.09375 -0.59375 0.09375l-1.296875 0q-0.609375 0 -1.0625 -0.125q-0.453125 -0.140625 -0.875 -0.484375q-0.40625 -0.34375 -0.8125 -0.921875q-0.40625 -0.59375 -0.90625 -1.5l-9.5625 -17.25q-0.75 -1.34375 -1.515625 -2.796875q-0.75 -1.46875 -1.40625 -2.859375l-0.046875 0q0.046875 1.6875 0.0625 3.453125q0.03125 1.75 0.03125 3.484375l0 18.3125q0 0.15625 -0.09375 0.3125q-0.09375 0.15625 -0.328125 0.25q-0.21875 0.078125 -0.578125 0.125q-0.359375 0.0625 -0.921875 0.0625q-0.5625 0 -0.9375 -0.0625q-0.359375 -0.046875 -0.578125 -0.125q-0.203125 -0.09375 -0.296875 -0.25q-0.09375 -0.15625 -0.09375 -0.3125l0 -27.984375q0 -0.9375 0.515625 -1.328125q0.515625 -0.40625 1.125 -0.40625l1.921875 0q0.6875 0 1.140625 0.125q0.453125 0.109375 0.8125 0.375q0.375 0.265625 0.703125 0.75q0.34375 0.484375 0.75 1.203125l7.359375 13.3125q0.671875 1.21875 1.296875 2.390625q0.640625 1.15625 1.21875 2.28125q0.59375 1.125 1.171875 2.21875q0.578125 1.078125 1.140625 2.1875l0.015625 0q-0.046875 -1.859375 -0.0625 -3.859375q0 -2.0 0 -3.859375l0 -16.453125q0 -0.15625 0.09375 -0.296875q0.09375 -0.140625 0.3125 -0.25q0.21875 -0.109375 0.578125 -0.15625q0.375 -0.046875 0.953125 -0.046875q0.515625 0 0.890625 0.046875q0.375 0.046875 0.578125 0.15625q0.21875 0.109375 0.3125 0.25q0.09375 0.140625 0.09375 0.296875l0 27.984375zm30.84375 -24.53125q0 0.4375 -0.046875 0.78125q-0.046875 0.34375 -0.140625 0.5625q-0.09375 0.21875 -0.234375 0.3125q-0.140625 0.09375 -0.296875 0.09375q-0.28125 0 -0.9375 -0.4375q-0.65625 -0.453125 -1.765625 -0.984375q-1.09375 -0.546875 -2.640625 -0.984375q-1.53125 -0.453125 -3.640625 -0.453125q-2.5 0 -4.5 0.921875q-1.984375 0.90625 -3.375 2.53125q-1.375 1.609375 -2.125 3.84375q-0.734375 2.21875 -0.734375 4.828125q0 2.90625 0.8125 5.15625q0.8125 2.25 2.234375 3.796875q1.4375 1.546875 3.40625 2.34375q1.984375 0.796875 4.359375 0.796875q1.40625 0 2.84375 -0.34375q1.4375 -0.34375 2.6875 -1.015625l0 -8.84375l-7.03125 0q-0.40625 0 -0.609375 -0.390625q-0.1875 -0.40625 -0.1875 -1.25q0 -0.4375 0.046875 -0.75q0.046875 -0.328125 0.140625 -0.515625q0.109375 -0.203125 0.25 -0.296875q0.140625 -0.09375 0.359375 -0.09375l9.625 0q0.265625 0 0.515625 0.09375q0.265625 0.09375 0.46875 0.28125q0.21875 0.1875 0.328125 0.515625q0.125 0.328125 0.125 0.75l0 11.546875q0 0.609375 -0.21875 1.0625q-0.203125 0.4375 -0.890625 0.78125q-0.671875 0.34375 -1.75 0.75q-1.078125 0.390625 -2.234375 0.671875q-1.140625 0.28125 -2.3125 0.421875q-1.171875 0.140625 -2.328125 0.140625q-3.515625 0 -6.28125 -1.09375q-2.765625 -1.09375 -4.671875 -3.109375q-1.90625 -2.015625 -2.921875 -4.828125q-1.0 -2.8125 -1.0 -6.28125q0 -3.609375 1.078125 -6.53125q1.09375 -2.9375 3.078125 -5.0q1.984375 -2.0625 4.75 -3.1875q2.78125 -1.140625 6.15625 -1.140625q1.734375 0 3.25 0.3125q1.53125 0.296875 2.71875 0.703125q1.1875 0.40625 1.984375 0.890625q0.8125 0.484375 1.109375 0.796875q0.3125 0.296875 0.421875 0.703125q0.125 0.390625 0.125 1.140625z" fill-rule="nonzero"/></g></svg>