<svg viewBox="0 0 1152 864" fill="none" stroke="none" stroke-linecap="square" stroke-miterlimit="10" xmlns:xlink="http://www.w3.org/1999/xlink" xmlns="http://www.w3.org/2000/svg"><clipPath id="p.0"><path d="m0 0h1152v864H0V0z" clip-rule="nonzero"/></clipPath><g clip-path="url(#p.0)"><path fill="#000" fill-opacity="0" d="m0 0h1152v864H0z" fill-rule="evenodd"/><path fill="#000" fill-opacity="0" d="m48.96063 133.62993h222.36221v68.53543H48.96063z" fill-rule="evenodd"/><path fill="#000" d="m71.67938 162.9518q2.515625.0 4.46875 1.140625 1.96875 1.140625 3.0625 3.203125 1.109375 2.046875 1.109375 4.6875.0 2.734375-1.21875 4.875-1.21875 2.125-3.359375 3.328125t-4.859375 1.203125q-5.359375.0-8.265629-3.609375-2.890625-3.625-2.890625-10.34375.0-4.609375 1.359375-7.984375t3.8906288-5.171875q2.546875-1.8125 5.984375-1.8125 2.28125.0 4.578125.828125 2.296875.8125 3.90625 2.21875.515625.4375.734375.859375t.21875 1.015625q0 .875-.5 1.5t-1.171875.625q-.40625.0-.765625-.140625t-.875-.46875q-3.328125-2.3125-5.921875-2.3125-2.921875.0-4.609375 2.703125-1.671875 2.6875-1.75 7.578125.921875-1.796875 2.75-2.859375 1.84375-1.0625 4.125-1.0625zm-1.078125 14.359375q2.203125.0 3.515625-1.421875 1.328125-1.421875 1.328125-3.734375.0-2.328125-1.328125-3.71875-1.3125-1.40625-3.515625-1.40625-2.234375.0-3.625 1.421875-1.375 1.421875-1.375 3.703125.0 2.3125 1.375 3.734375 1.390625 1.421875 3.625 1.421875zm15.92186-5q-1.15625.0-1.75-.515625-.578125-.53125-.578125-1.453125.0-.90625.578125-1.453125.59375-.546875 1.75-.546875h8.234375q1.15625.0 1.734375.546875.59375.546875.59375 1.453125.0.921875-.59375 1.453125-.578125.515625-1.734375.515625h-8.234375zm32.84436 4.5625q2.390625.0 2.390625 2.03125.0 2.125-2.390625 2.125h-13.53125q-2.4375.0-2.4375-2.125.0-2.03125 2.4375-2.03125h4.171875v-18.25l-3.84375 2.359375q-.5625.328125-1 .328125-.84375.0-1.421875-.71875t-.578125-1.609375q0-1.15625 1.03125-1.796875l6.203125-3.84375q1.203125-.71875 2.28125-.71875 1.125.0 1.796875.6875.6875.671875.6875 1.875v21.6875h4.203125zm23.874985.0q2.390625.0 2.390625 2.03125.0 2.125-2.390625 2.125h-15.203125q-1.03125.0-1.640625-.609375-.59375-.625-.59375-1.546875.0-1.203125.921875-2.15625l9.109375-9.8125q1.6875-1.828125 2.46875-3.375t.78125-3.0625q0-1.875-1.09375-2.875-1.078125-1-3.078125-1-1.640625.0-3.1875.625-1.53125.609375-3.09375 1.6875-.390625.28125-.796875.46875-.390625.171875-.796875.171875-.671875.0-1.171875-.640625t-.5-1.515625q0-.59375.21875-1.03125.21875-.453125.6875-.84375 1.765625-1.40625 4.125-2.21875 2.359375-.828125 4.71875-.828125 4.125.0 6.578125 2.078125 2.46875 2.078125 2.46875 5.609375.0 2.4375-1.046875 4.578125-1.03125 2.140625-3.515625 4.78125l-6.921875 7.359375h10.5625zm40.55185.921875q.484375.71875.484375 1.390625.0.921875-.75 1.53125-.734375.59375-1.734375.59375-.640625.0-1.21875-.296875t-.96875-.90625l-5.328125-8.078125q-.796875-1.28125-1.703125-1.796875-.890625-.515625-2.328125-.515625h-3.921875v8.953125q0 1.203125-.6875 1.90625-.671875.6875-1.84375.6875-1.15625.0-1.859375-.6875-.6875-.703125-.6875-1.90625V155.2643q0-1.15625.65625-1.796875t1.8125-.640625h10q4.796875.0 7.296875 2.140625t2.5 6.1875q0 3.28125-1.859375 5.375t-5.25 2.703125q1.15625.28125 2.03125 1 .890625.71875 1.71875 2l3.640625 5.5625zm-10.796875-12.046875q2.921875.0 4.28125-1.09375 1.359375-1.109375 1.359375-3.390625.0-2.3125-1.359375-3.375t-4.28125-1.0625h-6.71875v8.921875h6.71875zm41.081223-13.125q1.125.0 1.796875.703125.6875.703125.6875 1.859375v23.6875q0 1.109375-.640625 1.75t-1.6875.640625q-1.03125.0-1.640625-.640625-.59375-.640625-.59375-1.75V162.3893l-6.796875 12.875q-.484375.890625-1.046875 1.3125-.5625.40625-1.3125.40625-.765625.0-1.328125-.390625-.5625-.40625-1.03125-1.328125l-6.84375-12.671875v16.28125q0 1.078125-.625 1.734375-.609375.65625-1.65625.65625t-1.640625-.640625-.59375-1.75v-23.6875q0-1.15625.65625-1.859375t1.78125-.703125q1.5625.0 2.4375 1.71875l8.875 16.921875 8.84375-16.921875q.875-1.71875 2.359375-1.71875z" fill-rule="nonzero"/><path fill="#000" fill-opacity="0" d="m48.96063 297.0315h177.48032v68.53543H48.96063z" fill-rule="evenodd"/><path fill="#000" d="m78.00751 340.27524q2.390625.0 2.390625 2.03125.0 2.125-2.390625 2.125H64.47626q-2.4375038.0-2.4375038-2.125.0-2.03125 2.4375038-2.03125h4.171875v-18.25l-3.84375 2.359375q-.5625.328125-1.0000038.328125-.84375.0-1.421875-.71875t-.578125-1.609375q0-1.15625 1.03125-1.796875l6.203129-3.84375q1.203125-.71875 2.28125-.71875 1.125.0 1.796875.6875.6875.671875.6875 1.875v21.6875h4.203125zm8.51561-4.5625q-1.15625.0-1.75-.515625-.578125-.53125-.578125-1.453125.0-.90625.578125-1.453125.59375-.546875 1.75-.546875h8.234375q1.15625.0 1.734375.546875.59375.546875.59375 1.453125.0.921875-.59375 1.453125-.578125.515625-1.734375.515625H86.52312zm30.203735-5.765625q2.46875.6875 3.8125 2.484375t1.34375 4.40625q0 3.71875-2.8125 5.8125-2.796875 2.09375-7.75 2.09375t-7.765625-2.09375q-2.796875-2.09375-2.796875-5.8125.0-2.609375 1.359375-4.421875 1.359375-1.828125 3.84375-2.46875-2.125-.796875-3.328125-2.5-1.1875-1.703125-1.1875-3.96875.0-3.53125 2.640625-5.5625 2.640625-2.046875 7.234375-2.046875t7.234375 2.046875q2.640625 2.03125 2.640625 5.5625.0 2.3125-1.203125 4.03125-1.1875 1.71875-3.265625 2.4375zm-5.40625-10.03125q-5 0-5 4.078125.0 2.03125 1.25 3.09375 1.265625 1.0625 3.75 1.0625t3.734375-1.0625q1.265625-1.0625 1.265625-3.09375.0-4.078125-5-4.078125zm0 20.796875q5.71875.0 5.71875-4.28125t-5.71875-4.28125-5.71875 4.28125 5.71875 4.28125zm48.43373.484375q.484375.71875.484375 1.390625.0.921875-.75 1.53125-.734375.59375-1.734375.59375-.640625.0-1.21875-.296875t-.96875-.90625l-5.328125-8.078125q-.796875-1.28125-1.703125-1.796875-.890625-.515625-2.328125-.515625h-3.921875v8.953125q0 1.203125-.6875 1.90625-.671875.6875-1.84375.6875-1.15625.0-1.859375-.6875-.6875-.703125-.6875-1.90625v-23.40625q0-1.15625.65625-1.796875t1.8125-.640625h10q4.796875.0 7.296875 2.140625t2.5 6.1875q0 3.28125-1.859375 5.375t-5.25 2.703125q1.15625.28125 2.03125 1 .890625.71875 1.71875 2l3.640625 5.5625zM148.95746 329.15024q2.921875.0 4.28125-1.09375 1.359375-1.109375 1.359375-3.390625.0-2.3125-1.359375-3.375t-4.28125-1.0625h-6.71875v8.921875h6.71875zm41.081223-13.125q1.125.0 1.796875.703125.6875.703125.6875 1.859375v23.6875q0 1.109375-.640625 1.75t-1.6875.640625q-1.03125.0-1.640625-.640625-.59375-.640625-.59375-1.75v-16.484375l-6.796875 12.875q-.484375.890625-1.046875 1.3125-.5625.40625-1.3125.40625-.765625.0-1.328125-.390625-.5625-.40625-1.03125-1.328125l-6.84375-12.671875v16.28125q0 1.078125-.625 1.734375-.609375.65625-1.65625.65625t-1.640625-.640625-.59375-1.75v-23.6875q0-1.15625.65625-1.859375t1.78125-.703125q1.5625.0 2.4375 1.71875l8.875 16.921875 8.84375-16.921875q.875-1.71875 2.359375-1.71875z" fill-rule="nonzero"/><path fill="#000" fill-opacity="0" d="m349.88583 133.62993h278.4567v68.53543h-278.4567z" fill-rule="evenodd"/><path fill="#000" d="m412.9636 150.63118q1.0625.0 1.71875.6875t.65625 1.78125v18.171875q0 1.046875-.609375 1.65625t-1.59375.609375q-.96875.0-1.578125-.609375t-.609375-1.65625V159.97493l-4.53125 8.546875q-.453125.828125-.984375 1.21875-.53125.375-1.265625.375-.703125.0-1.25-.375-.53125-.390625-.984375-1.21875l-4.546875-8.390625v11.140625q0 1.015625-.609375 1.640625t-1.59375.625q-.96875.0-1.578125-.609375t-.609375-1.65625V153.09993q0-1.09375.65625-1.78125t1.71875-.6875q1.53125.0 2.34375 1.625l6.484375 12.328125 6.46875-12.328125q.859375-1.625 2.296875-1.625zm14.084686 22.96875q-2.5.0-4.390625-1-1.875-1.015625-2.90625-2.84375-1.015625-1.84375-1.015625-4.34375t1.015625-4.328125q1.03125-1.84375 2.90625-2.828125 1.890625-1 4.390625-1t4.390625 1q1.890625.984375 2.90625 2.828125 1.03125 1.828125 1.03125 4.328125t-1.03125 4.34375q-1.015625 1.828125-2.90625 2.84375-1.890625 1-4.390625 1zm0-3.671875q3.515625.0 3.515625-4.515625.0-2.265625-.90625-3.390625t-2.609375-1.125q-3.515625.0-3.515625 4.515625t3.515625 4.515625zm20.644165-12.609375q.953125-.0625 1.515625.4375.5625.484375.5625 1.484375.0 1.046875-.515625 1.5625t-1.828125.640625l-.953125.09375q-1.765625.203125-2.546875 1.15625t-.78125 2.46875v6.109375q0 1.125-.6875 1.703125-.6875.5625-1.71875.5625-1.046875.0-1.734375-.5625-.6875-.578125-.6875-1.703125v-11.75q0-1.046875.703125-1.625t1.6875-.578125q.96875.0 1.609375.5625t.640625 1.546875v.859375q.578125-1.375 1.734375-2.109375 1.171875-.734375 2.546875-.828125l.453125-.03125zm13.571899-3.015625q-1.3125.109375-1.890625.8125t-.578125 1.984375v.53125h2.234375q2.1875.0 2.1875 1.828125.0 1.796875-2.1875 1.796875H458.7956v9.984375q0 1.125-.6875 1.703125-.6875.5625-1.71875.5625-1.046875.0-1.734375-.5625-.6875-.578125-.6875-1.703125v-9.984375h-1.28125q-2.140625.0-2.140625-1.796875.0-1.828125 2.140625-1.828125h1.28125q0-3.0625 1.6875-4.8125 1.703125-1.765625 4.671875-2l.828125-.0625.578125-.03125q2.21875.0 2.21875 1.703125.0 1.65625-1.859375 1.8125l-.828125.0625zm10.87204 19.296875q-2.5.0-4.390625-1-1.875-1.015625-2.90625-2.84375-1.015625-1.84375-1.015625-4.34375t1.015625-4.328125q1.03125-1.84375 2.90625-2.828125 1.890625-1 4.390625-1t4.390625 1q1.890625.984375 2.90625 2.828125 1.03125 1.828125 1.03125 4.328125t-1.03125 4.34375q-1.015625 1.828125-2.90625 2.84375-1.890625 1-4.390625 1zm0-3.671875q3.515625.0 3.515625-4.515625.0-2.265625-.90625-3.390625t-2.609375-1.125q-3.515625.0-3.515625 4.515625t3.515625 4.515625zm13.69104 3.609375q-1.046875.0-1.734375-.5625-.6875-.578125-.6875-1.703125v-18.375q0-1.109375.6875-1.6875t1.734375-.578125q1.03125.0 1.71875.578125t.6875 1.6875v18.375q0 1.125-.6875 1.703125-.6875.5625-1.71875.5625zm13.669006.0625q-2.5.0-4.390625-1-1.875-1.015625-2.90625-2.84375-1.015625-1.84375-1.015625-4.34375t1.015625-4.328125q1.03125-1.84375 2.90625-2.828125 1.890625-1 4.390625-1t4.390625 1q1.890625.984375 2.90625 2.828125 1.03125 1.828125 1.03125 4.328125t-1.03125 4.34375q-1.015625 1.828125-2.90625 2.84375-1.890625 1-4.390625 1zm0-3.671875q3.515625.0 3.515625-4.515625.0-2.265625-.90625-3.390625t-2.609375-1.125q-3.515625.0-3.515625 4.515625t3.515625 4.515625zm24.894196-12.609375q1.09375.0 1.75.625t.65625 1.640625v12.0625q0 3.8125-2.21875 5.765625-2.203125 1.953125-6.453125 1.953125-3.59375.0-5.890625-1.28125-.5781555-.3125-.9062805-.78125-.3125-.46875-.3125-1.046875.0-.796875.375-1.3125.390625-.5 1.0312805-.5.359375.0.828125.140625.484375.140625 1 .328125 1.03125.390625 1.890625.609375.859375.234375 1.859375.234375 2.046875.0 3.03125-.9375 1-.921875 1-2.8125v-1.734375q-.671875 1.21875-2.015625 1.921875t-3.015625.703125q-2.046875.0-3.640625-.953125-1.5781555-.96875-2.4687805-2.734375-.890625-1.78125-.890625-4.109375.0-2.34375.890625-4.109375.890625-1.78125 2.4687805-2.75 1.59375-.984375 3.640625-.984375 1.640625.0 2.96875.6875t2.03125 1.90625v-.328125q0-1.015625.65625-1.609375t1.734375-.59375zm-5.984375 11.90625q1.703125.0 2.640625-1.078125.953125-1.09375.953125-3.046875t-.953125-3.0625q-.9375-1.109375-2.640625-1.109375-1.6875.0-2.65625 1.109375-.953125 1.109375-.953125 3.0625t.953125 3.046875q.96875 1.078125 2.65625 1.078125zm14.525269 4.3125q-1.046875.0-1.734375-.5625-.6875-.578125-.6875-1.703125v-11.6875q0-1.109375.703125-1.6875t1.71875-.578125q1.03125.0 1.71875.578125t.6875 1.6875v11.6875q0 1.125-.6875 1.703125-.6875.5625-1.71875.5625zm.015625-18.78125q-1.28125.0-2.015625-.65625t-.734375-1.78125q0-1.109375.734375-1.75t2.015625-.640625q1.25.0 2 .65625t.75 1.734375q0 1.125-.734375 1.78125t-2.015625.65625zm12.059631 18.84375q-1.953125.0-3.40625-.3125-1.4375-.328125-2.515625-1.03125-.484375-.28125-.75-.765625-.25-.484375-.25-1.078125.0-.75.421875-1.234375.421875-.5 1.03125-.5.40625.0.8125.140625.421875.140625.875.34375.890625.40625 1.75.65625.875.234375 2.15625.234375 1.125.0 1.734375-.34375.625-.359375.625-.96875.0-.453125-.265625-.71875t-1.015625-.484375q-.734375-.234375-2.328125-.5625-2.84375-.53125-4.09375-1.625t-1.25-3.046875q0-1.4375.875-2.578125.890625-1.15625 2.421875-1.8125t3.453125-.65625q1.375.0 2.6875.359375 1.3125.34375 2.34375.984375.984375.609375.984375 1.796875.0.765625-.421875 1.28125-.40625.5-1.015625.5-.734375.0-1.765625-.578125-.796875-.40625-1.453125-.609375-.65625-.21875-1.546875-.21875-1 0-1.578125.375-.5625.359375-.5625 1 0 .671875.671875 1.03125.671875.34375 2.59375.703125 2.140625.40625 3.34375 1 1.21875.59375 1.765625 1.5.546875.890625.546875 2.265625.0 2.265625-1.875 3.609375t-5 1.34375zm24.44342-4q.734375.703125.734375 1.609375.0.890625-.65625 1.59375t-1.515625.703125q-.828125.0-1.53125-.671875l-7.015625-6.5v4.90625q0 1.125-.6875 1.703125-.6875.5625-1.71875.5625-1.046875.0-1.734375-.5625-.6875-.578125-.6875-1.703125v-18.34375q0-1.109375.6875-1.6875t1.734375-.578125q1.03125.0 1.71875.578125t.6875 1.6875v11.46875l6.40625-6.3125q.703125-.703125 1.5625-.703125.890625.0 1.5625.65625t.671875 1.546875q0 .84375-.734375 1.578125l-4.25 4.0625 4.765625 4.40625zm15.49292-.921875q.640625.0 1.03125.515625.40625.515625.40625 1.3125.0.546875-.328125 1.015625-.3125.453125-.890625.765625-1.09375.578125-2.53125.953125-1.4375.359375-2.65625.359375-2.5625.0-4.46875-.984375-1.890625-1-2.921875-2.828125-1.015625-1.84375-1.015625-4.34375.0-2.390625.984375-4.25 1-1.859375 2.75-2.890625 1.765625-1.046875 4-1.046875 2.140625.0 3.75.953125 1.625.9375 2.515625 2.6875.90625 1.734375.90625 4.0625.0.703125-.34375 1.078125-.328125.375-.9375.375h-8.953125q.21875 1.875 1.140625 2.734375.9375.84375 2.65625.84375.9375.0 1.671875-.21875.734375-.234375 1.625-.609375.453125-.203125.859375-.34375.421875-.140625.75-.140625zm-5.515625-8.09375q-1.375.0-2.203125.875t-.984375 2.546875h6.171875q-.09375-1.703125-.84375-2.5625t-2.140625-.859375z" fill-rule="nonzero"/><path fill="#000" d="m431.41864 201.57617q1.203125.078125 1.203125 1.078125.0.578125-.46875.890625-.46875.296875-1.328125.25l-.65625-.046875q-4.03125-.296875-4.03125-4.328125v-5.234375h-1.203125q-.640625.0-1-.28125-.34375-.296875-.34375-.84375t.34375-.828125q.359375-.296875 1-.296875h1.203125v-2.203125q0-.65625.40625-1.03125.40625-.390625 1.109375-.390625.671875.0 1.078125.390625.40625.375.40625 1.03125v2.203125h2.046875q.640625.0.984375.296875.359375.28125.359375.828125t-.359375.84375q-.34375.28125-.984375.28125h-2.046875v5.453125q0 1.78125 1.640625 1.890625l.640625.046875zm4.246582 2.234375q-.640625.0-1.0625-.359375-.421875-.375-.421875-1.078125v-9.265625q0-.6875.421875-1.046875t1.0625-.359375q.65625.0 1.078125.359375.4375.359375.4375 1.046875v9.265625q0 .703125-.4375 1.078125-.421875.359375-1.078125.359375zm0-14.25q-.828125.0-1.3125-.4375-.46875-.453125-.46875-1.171875t.46875-1.140625q.484375-.4375 1.3125-.4375.78125.0 1.265625.4375.5.421875.5 1.140625t-.484375 1.171875q-.46875.4375-1.28125.4375zm6.095978 14.25q-.640625.0-1.0625-.359375-.421875-.375-.421875-1.078125V188.04492q0-.6875.421875-1.046875.421875-.375 1.0625-.375.65625.0 1.078125.375.4375.359375.4375 1.046875v14.328125q0 .703125-.4375 1.078125-.421875.359375-1.078125.359375zm11.345978-12.171875q1.515625.0 2.703125.78125 1.1875.765625 1.84375 2.171875.671875 1.390625.671875 3.21875t-.671875 3.203125q-.65625 1.359375-1.828125 2.109375-1.171875.734375-2.71875.734375-1.234375.0-2.21875-.515625-.984375-.53125-1.515625-1.46875v4.890625q0 .625-.40625.984375t-1.078125.359375-1.09375-.390625q-.421875-.375-.421875-1V193.10742q0-.640625.390625-1.015625.40625-.390625 1.078125-.390625t1.078125.390625q.40625.375.40625 1.015625v.609375q.53125-.984375 1.515625-1.53125 1-.546875 2.265625-.546875zm-.78125 9.890625q1.40625.0 2.203125-.96875t.796875-2.75q0-1.828125-.796875-2.828125-.796875-1.015625-2.203125-1.015625-1.4375.0-2.21875.984375t-.78125 2.8125q0 1.796875.78125 2.78125t2.21875.984375zm13.54895-9.890625q2.453125.0 3.640625 1.21875t1.1875 3.6875v5.859375q0 .640625-.390625 1.015625-.375.375-1.046875.375-.625.0-1.03125-.375-.390625-.390625-.390625-1.015625v-.53125q-.40625.9375-1.28125 1.46875-.875.515625-2.03125.515625-1.171875.0-2.140625-.46875-.953125-.484375-1.5-1.328125t-.546875-1.875q0-1.296875.65625-2.03125.65625-.75 2.140625-1.078125 1.5-.34375 4.109375-.34375h.59375v-.546875q0-1.171875-.5-1.71875t-1.625-.546875q-.703125.0-1.421875.203125t-1.703125.59375q-.625.3125-.90625.3125-.4375.0-.71875-.3125-.265625-.3125-.265625-.8125.0-.40625.203125-.703125.203125-.3125.6875-.578125.828125-.453125 1.984375-.71875 1.171875-.265625 2.296875-.265625zm-.734375 10.0625q1.203125.0 1.953125-.796875.75-.8125.75-2.078125v-.515625h-.421875q-1.609375.0-2.5.15625-.890625.140625-1.28125.5-.375.359375-.375.984375.0.765625.53125 1.265625.546875.484375 1.34375.484375zm12.866211 2.15625q-2.625.0-4.234375-1.03125-.765625-.453125-.765625-1.296875.0-.46875.265625-.765625.265625-.3125.65625-.3125.40625.0 1.125.390625.765625.359375 1.390625.546875.640625.1875 1.625.1875 1.015625.0 1.578125-.328125.5625-.34375.5625-.9375.0-.40625-.234375-.640625-.21875-.25-.8125-.453125-.578125-.203125-1.78125-.46875-2.140625-.4375-3.0625-1.21875-.921875-.796875-.921875-2.1875.0-1.0625.625-1.90625.625-.859375 1.703125-1.328125 1.09375-.46875 2.5-.46875 1 0 1.9375.265625.9375.25 1.671875.71875.78125.484375.78125 1.28125.0.484375-.265625.8125-.265625.3125-.65625.3125-.265625.0-.515625-.109375t-.625-.328125q-.703125-.359375-1.21875-.53125-.5-.1875-1.234375-.1875-.890625.0-1.40625.359375t-.515625.984375q0 .609375.53125.921875t2.03125.625q1.609375.328125 2.515625.765625.921875.421875 1.3125 1.078125.40625.640625.40625 1.65625.0 1.625-1.359375 2.609375t-3.609375.984375zm14.202484-12.21875q2.109375.0 3.140625 1.203125t1.03125 3.625v5.90625q0 .671875-.390625 1.0625-.390625.375-1.09375.375-.6875.0-1.109375-.375-.40625-.390625-.40625-1.0625v-5.734375q0-1.375-.515625-1.984375-.515625-.625-1.609375-.625-1.296875.0-2.078125.8125t-.78125 2.1875v5.34375q0 .671875-.40625 1.0625-.40625.375-1.109375.375-.6875.0-1.09375-.375-.390625-.390625-.390625-1.0625v-9.28125q0-.625.40625-1 .40625-.390625 1.109375-.390625.625.0 1.015625.375.390625.359375.390625.96875v.640625q.609375-.984375 1.609375-1.515625 1.015625-.53125 2.28125-.53125zm8.7118225 12.171875q-.640625.0-1.0625-.359375-.421875-.375-.421875-1.078125v-9.265625q0-.6875.421875-1.046875t1.0625-.359375q.65625.0 1.078125.359375.4375.359375.4375 1.046875v9.265625q0 .703125-.4375 1.078125-.421875.359375-1.078125.359375zm0-14.25q-.828125.0-1.3125-.4375-.46875-.453125-.46875-1.171875t.46875-1.140625q.484375-.4375 1.3125-.4375.78125.0 1.265625.4375.5.421875.5 1.140625t-.484375 1.171875q-.46875.4375-1.28125.4375zm11.424072 2.078125q2.109375.0 3.140625 1.203125t1.03125 3.625v5.90625q0 .671875-.390625 1.0625-.390625.375-1.09375.375-.6875.0-1.109375-.375-.40625-.390625-.40625-1.0625v-5.734375q0-1.375-.515625-1.984375-.515625-.625-1.6093445-.625-1.296875.0-2.078125.8125t-.78125 2.1875v5.34375q0 .671875-.40625 1.0625-.40625.375-1.109375.375-.6875.0-1.09375-.375-.390625-.390625-.390625-1.0625v-9.28125q0-.625.40625-1 .40625-.390625 1.109375-.390625.625.0 1.015625.375.390625.359375.390625.96875v.640625q.609375-.984375 1.609375-1.515625 1.015625-.53125 2.2812195-.53125zm17.164978.0625q.671875.0 1.078125.390625.40625.375.40625 1.015625v9.484375q0 2.765625-1.546875 4.171875-1.53125 1.421875-4.53125 1.421875-2.609375.0-4.359375-.984375-.890625-.53125-.890625-1.28125.0-.515625.25-.828125t.65625-.3125q.21875.0.53125.09375.3125.109375.65625.265625.859375.359375 1.53125.546875.6875.1875 1.578125.1875 3.15625.0 3.15625-3.0625v-1.546875q-.53125.984375-1.546875 1.53125-1 .53125-2.296875.53125-1.546875.0-2.734375-.71875-1.1875-.734375-1.859375-2.046875-.671875-1.328125-.671875-3.0625.0-1.71875.65625-3.046875.671875-1.34375 1.859375-2.078125 1.203125-.734375 2.75-.734375 1.296875.0 2.296875.546875 1.015625.546875 1.546875 1.53125v-.625q0-.625.40625-1 .40625-.390625 1.078125-.390625zm-4.546875 9.3125q1.453125.0 2.25-.9375.8125-.9375.8125-2.578125.0-1.65625-.8125-2.59375-.796875-.9375-2.25-.9375-1.40625.0-2.234375.9375-.8125.9375-.8125 2.59375.0 1.640625.8125 2.578125.828125.9375 2.234375.9375zm18.410583-.5625q.40625.0.65625.3125.265625.3125.265625.84375.0.75-.890625 1.25-.8125.453125-1.859375.734375-1.03125.265625-1.953125.265625-2.84375.0-4.5-1.625-1.65625-1.640625-1.65625-4.46875.0-1.796875.71875-3.1875.734375-1.390625 2.03125-2.15625 1.3125-.78125 2.96875-.78125 1.578125.0 2.75.703125 1.1875.703125 1.828125 1.96875.65625 1.265625.65625 3 0 1.03125-.921875 1.03125h-7.078125q.15625 1.65625.9375 2.4375.796875.78125 2.3125.78125.765625.0 1.34375-.1875.59375-.203125 1.34375-.53125.71875-.390625 1.046875-.390625zm-4.140625-6.6875q-1.234375.0-1.96875.765625-.71875.765625-.875 2.203125h5.421875q-.046875-1.46875-.71875-2.21875t-1.859375-.75zm14.1502075-2.0625q.625-.0625.984375.25t.359375.9375q0 .65625-.3125.96875t-1.125.40625l-.71875.0625q-1.421875.15625-2.078125.96875t-.65625 2.03125v5.046875q0 .703125-.4375 1.078125-.421875.359375-1.078125.359375-.640625.0-1.0625-.359375-.421875-.375-.421875-1.078125v-9.28125q0-.671875.421875-1.03125t1.046875-.359375q.609375.0 1 .34375t.390625 1v.953125q.453125-1.0625 1.34375-1.625.90625-.578125 2.015625-.65625l.328125-.015625z" fill-rule="nonzero"/><path fill="#000" fill-opacity="0" d="m324.37534 281.72964h329.48032v68.53546H324.37534z" fill-rule="evenodd"/><path fill="#000" d="m450.6325 298.7309q1.0625.0 1.71875.6875t.65625 1.78125v17.953125q0 1.109375-.65625 1.796875t-1.71875.6875q-1.15625.0-1.859375-.828125l-10.71875-13.734375v12.078125q0 1.109375-.625 1.796875t-1.671875.6875q-1.0625.0-1.703125-.6875t-.640625-1.796875V301.19965q0-1.09375.65625-1.78125t1.71875-.6875q1.1875.0 1.828125.828125l10.71875 13.640625v-12q0-1.09375.640625-1.78125t1.65625-.6875zm19.079681 18.046875q.640625.0 1.03125.515625.40625.515625.40625 1.3125.0.546875-.328125 1.015625-.3125.453125-.890625.765625-1.09375.578125-2.53125.953125-1.4375.359375-2.65625.359375-2.5625.0-4.46875-.984375-1.890625-1-2.921875-2.828125-1.015625-1.84375-1.015625-4.34375.0-2.390625.984375-4.25 1-1.859375 2.75-2.890625 1.765625-1.046875 4-1.046875 2.140625.0 3.75.953125 1.625.9375 2.515625 2.6875.90625 1.734375.90625 4.0625.0.703125-.34375 1.078125-.328125.375-.9375.375h-8.953125q.21875 1.875 1.140625 2.734375.9375.84375 2.65625.84375.9375.0 1.671875-.21875.734375-.234375 1.625-.609375.453125-.203125.859375-.34375.421875-.140625.75-.140625zm-5.515625-8.09375q-1.375.0-2.203125.875t-.984375 2.546875h6.171875q-.09375-1.703125-.84375-2.5625t-2.140625-.859375zm22.665405-3.265625q1.125.0 1.765625.609375.65625.609375.65625 1.65625v11.75q0 .984375-.6875 1.59375t-1.765625.609375q-1.03125.0-1.640625-.5625-.609375-.578125-.609375-1.546875v-.3125q-.734375 1.203125-1.9375 1.84375-1.1875.640625-2.703125.640625-2.96875.0-4.421875-1.640625-1.453125-1.65625-1.453125-4.984375v-7.390625q0-1.046875.65625-1.65625t1.765625-.609375q1.125.0 1.765625.609375t.640625 1.65625v7.5q0 1.40625.59375 2.078125t1.796875.671875q1.421875.0 2.296875-.953125.875-.96875.875-2.546875v-6.75q0-1.046875.640625-1.65625t1.765625-.609375zm15.519897.0q.953125-.0625 1.515625.4375.5625.484375.5625 1.484375.0 1.046875-.515625 1.5625t-1.828125.640625l-.953125.09375q-1.765625.203125-2.546875 1.15625t-.78125 2.46875v6.109375q0 1.125-.6875 1.703125-.6875.5625-1.71875.5625-1.046875.0-1.734375-.5625-.6875-.578125-.6875-1.703125v-11.75q0-1.046875.703125-1.625t1.6875-.578125q.96875.0 1.609375.5625t.640625 1.546875v.859375q.578125-1.375 1.734375-2.109375 1.171875-.734375 2.546875-.828125l.453125-.03125zm10.519501-.0625q3.46875.0 5.125 1.6875 1.671875 1.671875 1.671875 5.125v7.234375q0 1.0625-.609375 1.65625-.609375.578125-1.703125.578125-1.015625.0-1.640625-.625t-.625-1.609375v-.21875q-.484375 1.171875-1.609375 1.84375-1.109375.671875-2.6249695.671875-1.59375.0-2.890625-.640625t-2.046875-1.78125q-.75-1.15625-.75-2.5625.0-1.734375.875-2.71875.875-1 2.828125-1.4375 1.953125-.453125 5.3437195-.453125h.84375v-.578125q0-1.34375-.59375-1.953125t-1.96875-.609375q-1.3749695.0-3.9687195.96875-.734375.34375-1.25.34375-.703125.0-1.125-.484375-.40625-.5-.40625-1.296875.0-.640625.28125-1.0625.296875-.421875.9375-.765625 1.109375-.609375 2.71875-.953125 1.625-.359375 3.1874695-.359375zm-.9530945 13.015625q1.4062195.0 2.2655945-.9375.875-.9375.875-2.453125v-.546875h-.546875q-2.5937195.0-3.6405945.421875-1.03125.421875-1.03125 1.5.0.90625.59375 1.46875.59375.546875 1.484375.546875zm13.784515 3.265625q-1.046875.0-1.734375-.5625-.6875-.578125-.6875-1.703125v-18.375q0-1.109375.6875-1.6875t1.734375-.578125q1.03125.0 1.71875.578125t.6875 1.6875v18.375q0 1.125-.6875 1.703125-.6875.5625-1.71875.5625zm18.731506-4.859375q.640625.0 1.03125.515625.40625.515625.40625 1.3125.0.546875-.328125 1.015625-.3125.453125-.890625.765625-1.09375.578125-2.53125.953125-1.4375.359375-2.65625.359375-2.5625.0-4.46875-.984375-1.890625-1-2.921875-2.828125-1.015625-1.84375-1.015625-4.34375.0-2.390625.984375-4.25 1-1.859375 2.75-2.890625 1.765625-1.046875 4-1.046875 2.140625.0 3.75.953125 1.625.9375 2.515625 2.6875.90625 1.734375.90625 4.0625.0.703125-.34375 1.078125-.328125.375-.9375.375h-8.953125q.21875 1.875 1.140625 2.734375.9375.84375 2.65625.84375.9375.0 1.671875-.21875.734375-.234375 1.625-.609375.453125-.203125.859375-.34375.421875-.140625.75-.140625zm-5.515625-8.09375q-1.375.0-2.203125.875t-.984375 2.546875h6.171875q-.09375-1.703125-.84375-2.5625t-2.140625-.859375z" fill-rule="nonzero"/><path fill="#000" d="m431.41995 349.6759q1.203125.078125 1.203125 1.078125.0.578125-.46875.890625-.46875.296875-1.328125.25l-.65625-.046875q-4.03125-.296875-4.03125-4.328125v-5.234375h-1.203125q-.640625.0-1-.28125-.34375-.296875-.34375-.84375t.34375-.828125q.359375-.296875 1-.296875h1.203125v-2.203125q0-.65625.40625-1.03125.40625-.390625 1.109375-.390625.671875.0 1.078125.390625.40625.375.40625 1.03125v2.203125h2.046875q.640625.0.984375.296875.359375.28125.359375.828125t-.359375.84375q-.34375.28125-.984375.28125H429.1387v5.453125q0 1.78125 1.640625 1.890625l.640625.046875zm4.246582 2.234375q-.640625.0-1.0625-.359375-.421875-.375-.421875-1.078125v-9.265625q0-.6875.421875-1.046875t1.0625-.359375q.65625.0 1.078125.359375.4375.359375.4375 1.046875v9.265625q0 .703125-.4375 1.078125-.421875.359375-1.078125.359375zm0-14.25q-.828125.0-1.3125-.4375-.46875-.453125-.46875-1.171875t.46875-1.140625q.484375-.4375 1.3125-.4375.78125.0 1.265625.4375.5.421875.5 1.140625t-.484375 1.171875q-.46875.4375-1.28125.4375zm6.095978 14.25q-.640625.0-1.0625-.359375-.421875-.375-.421875-1.078125V336.14465q0-.6875.421875-1.046875.421875-.375 1.0625-.375.65625.0 1.078125.375.4375.359375.4375 1.046875v14.328125q0 .703125-.4375 1.078125-.421875.359375-1.078125.359375zm11.345978-12.171875q1.515625.0 2.703125.78125 1.1875.765625 1.84375 2.171875.671875 1.390625.671875 3.21875t-.671875 3.203125q-.65625 1.359375-1.828125 2.109375-1.171875.734375-2.71875.734375-1.234375.0-2.21875-.515625-.984375-.53125-1.515625-1.46875v4.890625q0 .625-.40625.984375t-1.078125.359375-1.09375-.390625q-.421875-.375-.421875-1V341.20715q0-.640625.390625-1.015625.40625-.390625 1.078125-.390625t1.078125.390625q.40625.375.40625 1.015625v.609375q.53125-.984375 1.515625-1.53125 1-.546875 2.265625-.546875zm-.78125 9.890625q1.40625.0 2.203125-.96875t.796875-2.75q0-1.828125-.796875-2.828125-.796875-1.015625-2.203125-1.015625-1.4375.0-2.21875.984375t-.78125 2.8125q0 1.796875.78125 2.78125t2.21875.984375zm13.54895-9.890625q2.453125.0 3.640625 1.21875t1.1875 3.6875v5.859375q0 .640625-.390625 1.015625-.375.375-1.046875.375-.625.0-1.03125-.375-.390625-.390625-.390625-1.015625v-.53125q-.40625.9375-1.28125 1.46875-.875.515625-2.03125.515625-1.171875.0-2.140625-.46875-.953125-.484375-1.5-1.328125t-.546875-1.875q0-1.296875.65625-2.03125.65625-.75 2.140625-1.078125 1.5-.34375 4.109375-.34375h.59375v-.546875q0-1.171875-.5-1.71875t-1.625-.546875q-.703125.0-1.421875.203125t-1.703125.59375q-.625.3125-.90625.3125-.4375.0-.71875-.3125-.265625-.3125-.265625-.8125.0-.40625.203125-.703125.203125-.3125.6875-.578125.828125-.453125 1.984375-.71875 1.171875-.265625 2.296875-.265625zm-.734375 10.0625q1.203125.0 1.953125-.796875.75-.8125.75-2.078125v-.515625h-.421875q-1.609375.0-2.5.15625-.890625.140625-1.28125.5-.375.359375-.375.984375.0.765625.53125 1.265625.546875.484375 1.34375.484375zm12.866211 2.15625q-2.625.0-4.234375-1.03125-.765625-.453125-.765625-1.296875.0-.46875.265625-.765625.265625-.3125.65625-.3125.40625.0 1.125.390625.765625.359375 1.390625.546875.640625.1875 1.625.1875 1.015625.0 1.578125-.328125.5625-.34375.5625-.9375.0-.40625-.234375-.640625-.21875-.25-.8125-.453125-.578125-.203125-1.78125-.46875-2.140625-.4375-3.0625-1.21875-.921875-.796875-.921875-2.1875.0-1.0625.625-1.90625.625-.859375 1.703125-1.328125 1.09375-.46875 2.5-.46875 1 0 1.9375.265625.9375.25 1.671875.71875.78125.484375.78125 1.28125.0.484375-.265625.8125-.265625.3125-.65625.3125-.265625.0-.515625-.109375t-.625-.328125q-.703125-.359375-1.21875-.53125-.5-.1875-1.234375-.1875-.890625.0-1.40625.359375t-.515625.984375q0 .609375.53125.921875t2.03125.625q1.609375.328125 2.515625.765625.921875.421875 1.3125 1.078125.40625.640625.40625 1.65625.0 1.625-1.359375 2.609375t-3.609375.984375zm14.202484-12.21875q2.109375.0 3.140625 1.203125t1.03125 3.625v5.90625q0 .671875-.390625 1.0625-.390625.375-1.09375.375-.6875.0-1.109375-.375-.40625-.390625-.40625-1.0625V344.7384q0-1.375-.515625-1.984375-.515625-.625-1.609375-.625-1.296875.0-2.078125.8125t-.78125 2.1875v5.34375q0 .671875-.40625 1.0625-.40625.375-1.109375.375-.6875.0-1.09375-.375-.390625-.390625-.390625-1.0625v-9.28125q0-.625.40625-1 .40625-.390625 1.109375-.390625.625.0 1.015625.375.390625.359375.390625.96875v.640625q.609375-.984375 1.609375-1.515625 1.015625-.53125 2.28125-.53125zm8.7118225 12.171875q-.640625.0-1.0625-.359375-.421875-.375-.421875-1.078125v-9.265625q0-.6875.421875-1.046875t1.0625-.359375q.65625.0 1.078125.359375.4375.359375.4375 1.046875v9.265625q0 .703125-.4375 1.078125-.421875.359375-1.078125.359375zm0-14.25q-.828125.0-1.3125-.4375-.46875-.453125-.46875-1.171875t.46875-1.140625q.484375-.4375 1.3125-.4375.78125.0 1.265625.4375.5.421875.5 1.140625t-.484375 1.171875q-.46875.4375-1.28125.4375zm11.424103 2.078125q2.109375.0 3.140625 1.203125t1.03125 3.625v5.90625q0 .671875-.390625 1.0625-.390625.375-1.09375.375-.6875.0-1.109375-.375-.40625-.390625-.40625-1.0625V344.7384q0-1.375-.515625-1.984375-.515625-.625-1.609375-.625-1.296875.0-2.078125.8125t-.78125 2.1875v5.34375q0 .671875-.40625 1.0625-.40625.375-1.109375.375-.6875.0-1.09375-.375-.390625-.390625-.390625-1.0625v-9.28125q0-.625.40625-1 .40625-.390625 1.109375-.390625.625.0 1.015625.375.390625.359375.390625.96875v.640625q.609375-.984375 1.609375-1.515625 1.015625-.53125 2.28125-.53125zm17.164978.0625q.671875.0 1.078125.390625.40625.375.40625 1.015625v9.484375q0 2.765625-1.546875 4.171875-1.53125 1.421875-4.53125 1.421875-2.609375.0-4.359375-.984375-.890625-.53125-.890625-1.28125.0-.515625.25-.828125t.65625-.3125q.21875.0.53125.09375.3125.109375.65625.265625.859375.359375 1.53125.546875.6875.1875 1.578125.1875 3.15625.0 3.15625-3.0625V349.3634q-.53125.984375-1.546875 1.53125-1 .53125-2.296875.53125-1.546875.0-2.734375-.71875-1.1875-.734375-1.859375-2.046875-.671875-1.328125-.671875-3.0625.0-1.71875.65625-3.046875.671875-1.34375 1.859375-2.078125 1.203125-.734375 2.75-.734375 1.296875.0 2.296875.546875 1.015625.546875 1.546875 1.53125v-.625q0-.625.40625-1 .40625-.390625 1.078125-.390625zm-4.546875 9.3125q1.453125.0 2.25-.9375.8125-.9375.8125-2.578125.0-1.65625-.8125-2.59375-.796875-.9375-2.25-.9375-1.40625.0-2.234375.9375-.8125.9375-.8125 2.59375.0 1.640625.8125 2.578125.828125.9375 2.234375.9375zm18.410583-.5625q.40625.0.65625.3125.265625.3125.265625.84375.0.75-.890625 1.25-.8125.453125-1.859375.734375-1.03125.265625-1.953125.265625-2.84375.0-4.5-1.625-1.65625-1.640625-1.65625-4.46875.0-1.796875.71875-3.1875.734375-1.390625 2.03125-2.15625 1.3125-.78125 2.96875-.78125 1.578125.0 2.75.703125 1.1875.703125 1.828125 1.96875.65625 1.265625.65625 3 0 1.03125-.921875 1.03125h-7.078125q.15625 1.65625.9375 2.4375.796875.78125 2.3125.78125.765625.0 1.34375-.1875.59375-.203125 1.34375-.53125.71875-.390625 1.046875-.390625zm-4.140625-6.6875q-1.234375.0-1.96875.765625-.71875.765625-.875 2.203125h5.421875q-.046875-1.46875-.71875-2.21875t-1.859375-.75zm14.1502075-2.0625q.625-.0625.984375.25t.359375.9375q0 .65625-.3125.96875t-1.125.40625l-.71875.0625q-1.421875.15625-2.078125.96875t-.65625 2.03125v5.046875q0 .703125-.4375 1.078125-.421875.359375-1.078125.359375-.640625.0-1.0625-.359375-.421875-.375-.421875-1.078125v-9.28125q0-.671875.421875-1.03125t1.046875-.359375q.609375.0 1 .34375t.390625 1v.953125q.453125-1.0625 1.34375-1.625.90625-.578125 2.015625-.65625l.328125-.015625z" fill-rule="nonzero"/><path fill="#000" fill-opacity="0" d="m751.79004 133.62993h287.65356v68.53543H751.79004z" fill-rule="evenodd"/><path fill="#000" d="m777.6338 148.62305q.671875.0 1.078125.421875.421875.421875.421875 1.125v14.203125q0 .671875-.390625 1.0625-.390625.375-1.015625.375t-.984375-.375q-.359375-.390625-.359375-1.0625v-9.890625l-4.078125 7.734375q-.28125.53125-.625.78125-.328125.25-.78125.25-.46875.0-.8125-.234375-.328125-.25-.609375-.796875l-4.109375-7.609375v9.765625q0 .65625-.375 1.046875-.359375.390625-.984375.390625t-.984375-.375q-.359375-.390625-.359375-1.0625v-14.203125q0-.703125.390625-1.125t1.078125-.421875q.921875.0 1.453125 1.03125l5.328125 10.15625 5.3125-10.15625q.515625-1.03125 1.40625-1.03125zm9.980835 5.015625q2.453125.0 3.640625 1.21875t1.1875 3.6875v5.859375q0 .640625-.390625 1.015625-.375.375-1.046875.375-.625.0-1.03125-.375-.390625-.390625-.390625-1.015625v-.53125q-.40625.9375-1.28125 1.46875-.875.515625-2.03125.515625-1.171875.0-2.140625-.46875-.953125-.484375-1.5-1.328125t-.546875-1.875q0-1.296875.65625-2.03125.65625-.75 2.140625-1.078125 1.5-.34375 4.109375-.34375h.59375v-.546875q0-1.171875-.5-1.71875t-1.625-.546875q-.703125.0-1.421875.203125t-1.703125.59375q-.625.3125-.90625.3125-.4375.0-.71875-.3125-.265625-.3125-.265625-.8125.0-.40625.203125-.703125.203125-.3125.6875-.578125.828125-.453125 1.984375-.71875 1.171875-.265625 2.296875-.265625zm-.734375 10.0625q1.203125.0 1.953125-.796875.75-.8125.75-2.078125v-.515625h-.421875q-1.609375.0-2.5.15625-.890625.140625-1.28125.5-.375.359375-.375.984375.0.765625.53125 1.265625.546875.484375 1.34375.484375zm19.05371-.359375q.484375.453125.484375 1.03125.0.546875-.40625.984375-.390625.4375-.921875.4375t-.984375-.4375l-5.609375-5.09375v4.109375q0 .703125-.4375 1.0625-.421875.359375-1.078125.359375-.640625.0-1.0625-.359375t-.421875-1.0625v-14.328125q0-.6875.421875-1.046875.421875-.375 1.0625-.375.65625.0 1.078125.375.4375.359375.4375 1.046875v9.03125l5.140625-4.921875q.421875-.4375.984375-.4375.546875.0.953125.40625t.40625.96875q0 .546875-.453125 1l-3.765625 3.5 4.171875 3.75zm6.508423 2.515625q-2.625.0-4.234375-1.03125-.765625-.453125-.765625-1.296875.0-.46875.265625-.765625.265625-.3125.65625-.3125.40625.0 1.125.390625.765625.359375 1.390625.546875.640625.1875 1.625.1875 1.015625.0 1.578125-.328125.5625-.34375.5625-.9375.0-.40625-.234375-.640625-.21875-.25-.8125-.453125-.578125-.203125-1.78125-.46875-2.140625-.4375-3.0625-1.21875-.921875-.796875-.921875-2.1875.0-1.0625.625-1.90625.625-.859375 1.703125-1.328125 1.09375-.46875 2.5-.46875 1 0 1.9375.265625.9375.25 1.671875.71875.78125.484375.78125 1.28125.0.484375-.265625.8125-.265625.3125-.65625.3125-.265625.0-.515625-.109375t-.625-.328125q-.703125-.359375-1.21875-.53125-.5-.1875-1.234375-.1875-.890625.0-1.40625.359375t-.515625.984375q0 .609375.53125.921875t2.03125.625q1.609375.328125 2.515625.765625.921875.421875 1.3125 1.078125.40625.640625.40625 1.65625.0 1.625-1.359375 2.609375t-3.609375.984375zm8.87439-.046875q-.640625.0-1.0625-.359375-.421875-.375-.421875-1.078125v-9.265625q0-.6875.421875-1.046875t1.0625-.359375q.65625.0 1.078125.359375.4375.359375.4375 1.046875v9.265625q0 .703125-.4375 1.078125-.421875.359375-1.078125.359375zm0-14.25q-.828125.0-1.3125-.4375-.46875-.453125-.46875-1.171875t.46875-1.140625q.484375-.4375 1.3125-.4375.78125.0 1.265625.4375.5.421875.5 1.140625t-.484375 1.171875q-.46875.4375-1.28125.4375zm18.549072 2.078125q1.921875.0 2.9375 1.140625 1.03125 1.140625 1.03125 3.6875v5.90625q0 .703125-.421875 1.078125-.421875.359375-1.09375.359375-.65625.0-1.078125-.359375-.40625-.375-.40625-1.078125v-5.90625q0-1.3125-.46875-1.875t-1.4375-.5625q-1.171875.0-1.875.796875-.6875.796875-.6875 2.203125v5.34375q0 .703125-.421875 1.078125-.421875.359375-1.0625.359375-.65625.0-1.09375-.359375-.421875-.375-.421875-1.078125v-5.90625q0-1.3125-.46875-1.875t-1.421875-.5625q-1.1875.0-1.875.796875-.671875.796875-.671875 2.203125v5.34375q0 .703125-.4375 1.078125-.421875.359375-1.078125.359375-.640625.0-1.0625-.359375-.421875-.375-.421875-1.078125v-9.28125q0-.671875.421875-1.03125.4375-.359375 1.09375-.359375.625.0 1.015625.34375t.390625 1v.5625q.5625-.953125 1.484375-1.453125.921875-.515625 2.125-.515625 2.640625.0 3.515625 2.21875.53125-1.015625 1.5625-1.609375 1.03125-.609375 2.328125-.609375zm12.09259.0q2.453125.0 3.640625 1.21875t1.1875 3.6875v5.859375q0 .640625-.390625 1.015625-.375.375-1.046875.375-.625.0-1.03125-.375-.390625-.390625-.390625-1.015625v-.53125q-.40625.9375-1.28125 1.46875-.875.515625-2.03125.515625-1.171875.0-2.140625-.46875-.953125-.484375-1.5-1.328125t-.546875-1.875q0-1.296875.65625-2.03125.65625-.75 2.140625-1.078125 1.5-.34375 4.109375-.34375h.59375v-.546875q0-1.171875-.5-1.71875t-1.625-.546875q-.703125.0-1.421875.203125t-1.703125.59375q-.625.3125-.90625.3125-.4375.0-.71875-.3125-.265625-.3125-.265625-.8125.0-.40625.203125-.703125.203125-.3125.6875-.578125.828125-.453125 1.984375-.71875 1.171875-.265625 2.296875-.265625zm-.734375 10.0625q1.203125.0 1.953125-.796875.75-.8125.75-2.078125v-.515625h-.421875q-1.609375.0-2.5.15625-.890625.140625-1.28125.5-.375.359375-.375.984375.0.765625.53125 1.265625.546875.484375 1.34375.484375zm10.100586 2.109375q-.640625.0-1.0625-.359375-.421875-.375-.421875-1.078125v-14.328125q0-.6875.421875-1.046875.421875-.375 1.0625-.375.65625.0 1.078125.375.4375.359375.4375 1.046875v14.328125q0 .703125-.4375 1.078125-.421875.359375-1.078125.359375zm25.05304-12.171875q1.921875.0 2.9375 1.140625 1.03125 1.140625 1.03125 3.6875v5.90625q0 .703125-.421875 1.078125-.421875.359375-1.09375.359375-.65625.0-1.078125-.359375-.40625-.375-.40625-1.078125v-5.90625q0-1.3125-.46875-1.875t-1.4375-.5625q-1.171875.0-1.875.796875-.6875.796875-.6875 2.203125v5.34375q0 .703125-.421875 1.078125-.421875.359375-1.0625.359375-.65625.0-1.09375-.359375-.421875-.375-.421875-1.078125v-5.90625q0-1.3125-.46875-1.875t-1.421875-.5625q-1.1875.0-1.875.796875-.671875.796875-.671875 2.203125v5.34375q0 .703125-.4375 1.078125-.421875.359375-1.078125.359375-.640625.0-1.0625-.359375-.421875-.375-.421875-1.078125v-9.28125q0-.671875.421875-1.03125.4375-.359375 1.09375-.359375.625.0 1.015625.34375t.390625 1v.5625q.5625-.953125 1.484375-1.453125.921875-.515625 2.125-.515625 2.640625.0 3.515625 2.21875.53125-1.015625 1.5625-1.609375 1.03125-.609375 2.328125-.609375zm16.28009.0625q.6875.0 1.09375.390625.421875.375.421875 1.015625v9.3125q0 .625-.421875 1.015625-.421875.375-1.09375.375-.65625.0-1.046875-.359375-.375-.359375-.375-.984375v-.59375q-.546875.953125-1.484375 1.46875t-2.109375.515625q-4.328125.0-4.328125-4.84375v-5.90625q0-.640625.40625-1.015625.40625-.390625 1.078125-.390625.703125.0 1.109375.390625.40625.375.40625 1.015625v5.9375q0 1.234375.5 1.84375.515625.59375 1.59375.59375 1.25.0 2-.828125.765625-.828125.765625-2.1875v-5.359375q0-.640625.40625-1.015625.40625-.390625 1.078125-.390625zm8.88031 12.15625q-2.625.0-4.234375-1.03125-.765625-.453125-.765625-1.296875.0-.46875.265625-.765625.265625-.3125.65625-.3125.40625.0 1.125.390625.765625.359375 1.390625.546875.640625.1875 1.625.1875 1.015625.0 1.578125-.328125.5625-.34375.5625-.9375.0-.40625-.234375-.640625-.21875-.25-.8125-.453125-.578125-.203125-1.78125-.46875-2.140625-.4375-3.0625-1.21875-.921875-.796875-.921875-2.1875.0-1.0625.625-1.90625.625-.859375 1.703125-1.328125 1.09375-.46875 2.5-.46875 1 0 1.9375.265625.9375.25 1.671875.71875.78125.484375.78125 1.28125.0.484375-.265625.8125-.265625.3125-.65625.3125-.265625.0-.515625-.109375t-.625-.328125q-.703125-.359375-1.21875-.53125-.5-.1875-1.234375-.1875-.890625.0-1.40625.359375t-.515625.984375q0 .609375.53125.921875t2.03125.625q1.609375.328125 2.515625.765625.921875.421875 1.3125 1.078125.40625.640625.40625 1.65625.0 1.625-1.359375 2.609375t-3.609375.984375zm17.827515-2.515625q.484375.453125.484375 1.03125.0.546875-.40625.984375-.390625.4375-.921875.4375t-.984375-.4375l-5.609375-5.09375v4.109375q0 .703125-.4375 1.0625-.421875.359375-1.078125.359375-.640625.0-1.0625-.359375t-.421875-1.0625v-14.328125q0-.6875.421875-1.046875.421875-.375 1.0625-.375.65625.0 1.078125.375.4375.359375.4375 1.046875v9.03125l5.140625-4.921875q.421875-.4375.984375-.4375.546875.0.953125.40625t.40625.96875q0 .546875-.453125 1l-3.765625 3.5 4.171875 3.75zm11.539673-.890625q.40625.0.65625.3125.265625.3125.265625.84375.0.75-.890625 1.25-.8125.453125-1.859375.734375-1.03125.265625-1.953125.265625-2.84375.0-4.5-1.625-1.65625-1.640625-1.65625-4.46875.0-1.796875.71875-3.1875.734375-1.390625 2.03125-2.15625 1.3125-.78125 2.96875-.78125 1.578125.0 2.75.703125 1.1875.703125 1.828125 1.96875.65625 1.265625.65625 3 0 1.03125-.921875 1.03125h-7.078125q.15625 1.65625.9375 2.4375.796875.78125 2.3125.78125.765625.0 1.34375-.1875.59375-.203125 1.34375-.53125.71875-.390625 1.046875-.390625zm-4.140625-6.6875q-1.234375.0-1.96875.765625-.71875.765625-.875 2.203125h5.421875q-.046875-1.46875-.71875-2.21875t-1.859375-.75zm9.0877075 10.046875q-.640625.0-1.0625-.359375-.421875-.375-.421875-1.078125v-14.328125q0-.6875.421875-1.046875.421875-.375 1.0625-.375.65625.0 1.078125.375.4375.359375.4375 1.046875v14.328125q0 .703125-.4375 1.078125-.421875.359375-1.078125.359375zm8.861633.046875q-2.625.0-4.234375-1.03125-.765625-.453125-.765625-1.296875.0-.46875.265625-.765625.265625-.3125.65625-.3125.40625.0 1.125.390625.765625.359375 1.390625.546875.640625.1875 1.625.1875 1.015625.0 1.578125-.328125.5625-.34375.5625-.9375.0-.40625-.234375-.640625-.21875-.25-.8125-.453125-.578125-.203125-1.78125-.46875-2.140625-.4375-3.0625-1.21875-.921875-.796875-.921875-2.1875.0-1.0625.625-1.90625.625-.859375 1.703125-1.328125 1.09375-.46875 2.5-.46875 1 0 1.9375.265625.9375.25 1.671875.71875.78125.484375.78125 1.28125.0.484375-.265625.8125-.265625.3125-.65625.3125-.265625.0-.515625-.109375t-.625-.328125q-.703125-.359375-1.21875-.53125-.5-.1875-1.234375-.1875-.890625.0-1.40625.359375t-.515625.984375q0 .609375.53125.921875t2.03125.625q1.609375.328125 2.515625.765625.921875.421875 1.3125 1.078125.40625.640625.40625 1.65625.0 1.625-1.359375 2.609375t-3.609375.984375zm13.3637085-2.28125q1.203125.078125 1.203125 1.078125.0.578125-.46875.890625-.46875.296875-1.328125.25l-.65625-.046875q-4.03125-.296875-4.03125-4.328125v-5.234375h-1.203125q-.640625.0-1-.28125-.34375-.296875-.34375-.84375t.34375-.828125q.359375-.296875 1-.296875h1.203125v-2.203125q0-.65625.40625-1.03125.40625-.390625 1.109375-.390625.671875.0 1.078125.390625.40625.375.40625 1.03125v2.203125h2.046875q.640625.0.984375.296875.359375.28125.359375.828125t-.359375.84375q-.34375.28125-.984375.28125h-2.046875v5.453125q0 1.78125 1.640625 1.890625l.640625.046875zm11.141724-9.015625q.1875-.4375.5-.640625.328125-.203125.71875-.203125.546875.0.984375.375.453125.375.453125.921875.0.265625-.140625.546875l-6.546875 13.734375q-.421875.8125-1.28125.8125-.546875.0-.96875-.34375t-.421875-.875q0-.265625.140625-.609375l1.640625-3.421875-4.46875-9.296875q-.125-.234375-.125-.546875.0-.546875.46875-.921875.46875-.390625 1.078125-.390625.40625.0.734375.203125.34375.203125.53125.625l3.359375 7.421875 3.34375-7.390625zm10.983337-.859375q.625-.0625.984375.25t.359375.9375q0 .65625-.3125.96875t-1.125.40625l-.71875.0625q-1.421875.15625-2.078125.96875t-.65625 2.03125v5.046875q0 .703125-.4375 1.078125-.421875.359375-1.078125.359375-.640625.0-1.0625-.359375-.421875-.375-.421875-1.078125v-9.28125q0-.671875.421875-1.03125t1.046875-.359375q.609375.0 1 .34375t.390625 1v.953125q.453125-1.0625 1.34375-1.625.90625-.578125 2.015625-.65625l.328125-.015625zm13.082581 9.640625q.484375.453125.484375 1.03125.0.546875-.40625.984375-.390625.4375-.921875.4375t-.984375-.4375l-5.609375-5.09375v4.109375q0 .703125-.4375 1.0625-.421875.359375-1.078125.359375-.640625.0-1.0625-.359375t-.421875-1.0625v-14.328125q0-.6875.421875-1.046875.421875-.375 1.0625-.375.65625.0 1.078125.375.4375.359375.4375 1.046875v9.03125l5.140625-4.921875q.421875-.4375.984375-.4375.546875.0.953125.40625t.40625.96875q0 .546875-.453125 1l-3.765625 3.5 4.171875 3.75zm11.539734-.890625q.40625.0.65625.3125.265625.3125.265625.84375.0.75-.890625 1.25-.8125.453125-1.859375.734375-1.03125.265625-1.953125.265625-2.84375.0-4.5-1.625-1.65625-1.640625-1.65625-4.46875.0-1.796875.71875-3.1875.734375-1.390625 2.03125-2.15625 1.3125-.78125 2.96875-.78125 1.578125.0 2.75.703125 1.1875.703125 1.828125 1.96875.65625 1.265625.65625 3 0 1.03125-.921875 1.03125h-7.078125q.15625 1.65625.9375 2.4375.796875.78125 2.3125.78125.765625.0 1.34375-.1875.59375-.203125 1.34375-.53125.71875-.390625 1.046875-.390625zm-4.140625-6.6875q-1.234375.0-1.96875.765625-.71875.765625-.875 2.203125h5.421875q-.046875-1.46875-.71875-2.21875t-1.859375-.75z" fill-rule="nonzero"/><path fill="#000" fill-opacity="0" d="m751.79004 213.19423h308.72437v68.535416H751.79004z" fill-rule="evenodd"/><path fill="#000" d="m763.9619 231.29672q.6875.0625 1.125.53125.453125.46875.453125 1.171875.0.765625-.5 1.28125-.484375.515625-1.203125.515625-.8125.0-1.328125-.59375-.515625-.609375-.515625-1.765625.0-2.25 1.578125-3.953125.296875-.3125.671875-.3125.34375.0.609375.25.28125.25.28125.59375.0.28125-.234375.546875-.71875.765625-.9375 1.734375zm6.0925903 13.9375q-.703125.0-1.09375-.375-.390625-.390625-.390625-1.09375v-13.984375q0-.703125.390625-1.078125.390625-.390625 1.09375-.390625h8.65625q.703125.0 1.078125.3125.390625.3125.390625.890625.0.59375-.390625.921875-.375.328125-1.078125.328125h-7.125v4.65625h6.65625q.6875.0 1.0625.3125.390625.3125.390625.90625.0.578125-.390625.890625-.375.3125-1.0625.3125h-6.65625v4.9375h7.125q.703125.0 1.078125.328125.390625.328125.390625.921875.0.578125-.390625.890625-.375.3125-1.078125.3125h-8.65625zm22.823486-2.328125q.484375.453125.484375 1.03125.0.546875-.40625.984375-.390625.4375-.921875.4375t-.984375-.4375l-5.609375-5.09375v4.109375q0 .703125-.4375 1.0625-.421875.359375-1.078125.359375-.640625.0-1.0625-.359375t-.421875-1.0625V229.60922q0-.6875.421875-1.046875.421875-.375 1.0625-.375.65625.0 1.078125.375.4375.359375.4375 1.046875v9.03125l5.140625-4.921875q.421875-.4375.984375-.4375.546875.0.953125.40625t.40625.96875q0 .546875-.453125 1l-3.765625 3.5 4.171875 3.75zm6.508423 2.515625q-2.625.0-4.234375-1.03125-.765625-.453125-.765625-1.296875.0-.46875.265625-.765625.265625-.3125.65625-.3125.40625.0 1.125.390625.765625.359375 1.390625.546875.640625.1875 1.625.1875 1.015625.0 1.578125-.328125.5625-.34375.5625-.9375.0-.40625-.234375-.640625-.21875-.25-.8125-.453125-.578125-.203125-1.78125-.46875-2.140625-.4375-3.0625-1.21875-.921875-.796875-.921875-2.1875.0-1.0625.625-1.90625.625-.859375 1.703125-1.328125 1.09375-.46875 2.5-.46875 1 0 1.9375.265625.9375.25 1.671875.71875.78125.484375.78125 1.28125.0.484375-.265625.8125-.265625.3125-.65625.3125-.265625.0-.515625-.109375t-.625-.328125q-.703125-.359375-1.21875-.53125-.5-.1875-1.234375-.1875-.890625.0-1.40625.359375t-.515625.984375q0 .609375.53125.921875t2.03125.625q1.609375.328125 2.515625.765625.921875.421875 1.3125 1.078125.40625.640625.40625 1.65625.0 1.625-1.359375 2.609375t-3.609375.984375zm14.12439-12.21875q1.515625.0 2.703125.78125 1.1875.765625 1.84375 2.171875.671875 1.390625.671875 3.21875t-.671875 3.203125q-.65625 1.359375-1.828125 2.109375-1.171875.734375-2.71875.734375-1.234375.0-2.21875-.515625-.984375-.53125-1.515625-1.46875v4.890625q0 .625-.40625.984375t-1.078125.359375-1.09375-.390625q-.421875-.375-.421875-1V234.67172q0-.640625.390625-1.015625.40625-.390625 1.078125-.390625t1.078125.390625q.40625.375.40625 1.015625v.609375q.53125-.984375 1.515625-1.53125 1-.546875 2.265625-.546875zm-.78125 9.890625q1.40625.0 2.203125-.96875t.796875-2.75q0-1.828125-.796875-2.828125-.796875-1.015625-2.203125-1.015625-1.4375.0-2.21875.984375t-.78125 2.8125q0 1.796875.78125 2.78125t2.21875.984375zm9.9552 2.28125q-.640625.0-1.0625-.359375-.421875-.375-.421875-1.078125V229.60922q0-.6875.421875-1.046875.421875-.375 1.0625-.375.65625.0 1.078125.375.4375.359375.4375 1.046875v14.328125q0 .703125-.4375 1.078125-.421875.359375-1.078125.359375zm9.955322.046875q-1.796875.0-3.15625-.734375-1.34375-.75-2.09375-2.140625t-.75-3.234375q0-1.859375.75-3.234375t2.09375-2.125q1.359375-.75 3.15625-.75 1.8125.0 3.15625.75 1.359375.75 2.09375 2.125t.734375 3.234375q0 1.84375-.734375 3.234375t-2.09375 2.140625q-1.34375.734375-3.15625.734375zm-.015625-2.328125q1.46875.0 2.234375-.953125.765625-.96875.765625-2.828125t-.765625-2.828125-2.21875-.96875q-1.4375.0-2.21875.96875t-.78125 2.828125.765625 2.828125q.78125.953125 2.21875.953125zm12.721863 2.328125q-2.625.0-4.234375-1.03125-.765625-.453125-.765625-1.296875.0-.46875.265625-.765625.265625-.3125.65625-.3125.40625.0 1.125.390625.765625.359375 1.390625.546875.640625.1875 1.625.1875 1.015625.0 1.578125-.328125.5625-.34375.5625-.9375.0-.40625-.234375-.640625-.21875-.25-.8125-.453125-.578125-.203125-1.78125-.46875-2.140625-.4375-3.0625-1.21875-.921875-.796875-.921875-2.1875.0-1.0625.625-1.90625.625-.859375 1.703125-1.328125 1.09375-.46875 2.5-.46875 1 0 1.9375.265625.9375.25 1.671875.71875.78125.484375.78125 1.28125.0.484375-.265625.8125-.265625.3125-.65625.3125-.265625.0-.515625-.109375t-.625-.328125q-.703125-.359375-1.21875-.53125-.5-.1875-1.234375-.1875-.890625.0-1.40625.359375t-.515625.984375q0 .609375.53125.921875t2.03125.625q1.609375.328125 2.515625.765625.921875.421875 1.3125 1.078125.40625.640625.40625 1.65625.0 1.625-1.359375 2.609375t-3.609375.984375zm8.874329-.046875q-.640625.0-1.0625-.359375-.421875-.375-.421875-1.078125v-9.265625q0-.6875.421875-1.046875t1.0625-.359375q.65625.0 1.078125.359375.4375.359375.4375 1.046875v9.265625q0 .703125-.4375 1.078125-.421875.359375-1.078125.359375zm0-14.25q-.828125.0-1.3125-.4375-.46875-.453125-.46875-1.171875t.46875-1.140625q.484375-.4375 1.3125-.4375.78125.0 1.265625.4375.5.421875.5 1.140625t-.484375 1.171875q-.46875.4375-1.28125.4375zm12.799072 3q.1875-.4375.5-.640625.328125-.21875.71875-.21875.546875.0.984375.375.453125.359375.453125.90625.0.296875-.140625.578125l-4.4375 9.296875q-.21875.453125-.625.703125-.390625.234375-.859375.234375t-.890625-.234375q-.40625-.25-.625-.703125l-4.46875-9.296875q-.125-.234375-.125-.546875.0-.546875.46875-.921875.46875-.390625 1.078125-.390625.859375.0 1.265625.828125l3.359375 7.421875 3.34375-7.390625zm24.87799-.921875q1.921875.0 2.9375 1.140625 1.03125 1.140625 1.03125 3.6875v5.90625q0 .703125-.421875 1.078125-.421875.359375-1.09375.359375-.65625.0-1.078125-.359375-.40625-.375-.40625-1.078125v-5.90625q0-1.3125-.46875-1.875t-1.4375-.5625q-1.171875.0-1.875.796875-.6875.796875-.6875 2.203125v5.34375q0 .703125-.421875 1.078125-.421875.359375-1.0625.359375-.65625.0-1.09375-.359375-.421875-.375-.421875-1.078125v-5.90625q0-1.3125-.46875-1.875t-1.421875-.5625q-1.1875.0-1.875.796875-.671875.796875-.671875 2.203125v5.34375q0 .703125-.4375 1.078125-.421875.359375-1.078125.359375-.640625.0-1.0625-.359375-.421875-.375-.421875-1.078125v-9.28125q0-.671875.421875-1.03125.4375-.359375 1.09375-.359375.625.0 1.015625.34375t.390625 1v.5625q.5625-.953125 1.484375-1.453125.921875-.515625 2.125-.515625 2.640625.0 3.515625 2.21875.53125-1.015625 1.5625-1.609375 1.03125-.609375 2.328125-.609375zm16.28003.0625q.6875.0 1.09375.390625.421875.375.421875 1.015625v9.3125q0 .625-.421875 1.015625-.421875.375-1.09375.375-.65625.0-1.046875-.359375-.375-.359375-.375-.984375v-.59375q-.546875.953125-1.484375 1.46875t-2.109375.515625q-4.328125.0-4.328125-4.84375v-5.90625q0-.640625.40625-1.015625.40625-.390625 1.078125-.390625.703125.0 1.109375.390625.40625.375.40625 1.015625v5.9375q0 1.234375.5 1.84375.515625.59375 1.59375.59375 1.25.0 2-.828125.765625-.828125.765625-2.1875v-5.359375q0-.640625.40625-1.015625.40625-.390625 1.078125-.390625zm8.880371 12.15625q-2.625.0-4.234375-1.03125-.765625-.453125-.765625-1.296875.0-.46875.265625-.765625.265625-.3125.65625-.3125.40625.0 1.125.390625.765625.359375 1.390625.546875.640625.1875 1.625.1875 1.015625.0 1.578125-.328125.5625-.34375.5625-.9375.0-.40625-.234375-.640625-.21875-.25-.8125-.453125-.578125-.203125-1.78125-.46875-2.140625-.4375-3.0625-1.21875-.921875-.796875-.921875-2.1875.0-1.0625.625-1.90625.625-.859375 1.703125-1.328125 1.09375-.46875 2.5-.46875 1 0 1.9375.265625.9375.25 1.671875.71875.78125.484375.78125 1.28125.0.484375-.265625.8125-.265625.3125-.65625.3125-.265625.0-.515625-.109375t-.625-.328125q-.703125-.359375-1.21875-.53125-.5-.1875-1.234375-.1875-.890625.0-1.40625.359375t-.515625.984375q0 .609375.53125.921875t2.03125.625q1.609375.328125 2.515625.765625.921875.421875 1.3125 1.078125.40625.640625.40625 1.65625.0 1.625-1.359375 2.609375t-3.609375.984375zm17.827454-2.515625q.484375.453125.484375 1.03125.0.546875-.40625.984375-.390625.4375-.921875.4375t-.984375-.4375l-5.609375-5.09375v4.109375q0 .703125-.4375 1.0625-.421875.359375-1.078125.359375-.640625.0-1.0625-.359375t-.421875-1.0625V229.60922q0-.6875.421875-1.046875.421875-.375 1.0625-.375.65625.0 1.078125.375.4375.359375.4375 1.046875v9.03125l5.140625-4.921875q.421875-.4375.984375-.4375.546875.0.953125.40625t.40625.96875q0 .546875-.453125 1l-3.765625 3.5 4.171875 3.75zm11.539734-.890625q.40625.0.65625.3125.265625.3125.265625.84375.0.75-.890625 1.25-.8125.453125-1.859375.734375-1.03125.265625-1.953125.265625-2.84375.0-4.5-1.625-1.65625-1.640625-1.65625-4.46875.0-1.796875.71875-3.1875.734375-1.390625 2.03125-2.15625 1.3125-.78125 2.96875-.78125 1.578125.0 2.75.703125 1.1875.703125 1.828125 1.96875.65625 1.265625.65625 3 0 1.03125-.921875 1.03125h-7.078125q.15625 1.65625.9375 2.4375.796875.78125 2.3125.78125.765625.0 1.34375-.1875.59375-.203125 1.34375-.53125.71875-.390625 1.046875-.390625zm-4.140625-6.6875q-1.234375.0-1.96875.765625-.71875.765625-.875 2.203125h5.421875q-.046875-1.46875-.71875-2.21875t-1.859375-.75zm9.0877075 10.046875q-.640625.0-1.0625-.359375-.421875-.375-.421875-1.078125V229.60922q0-.6875.421875-1.046875.421875-.375 1.0625-.375.65625.0 1.078125.375.4375.359375.4375 1.046875v14.328125q0 .703125-.4375 1.078125-.421875.359375-1.078125.359375zm8.861572.046875q-2.625.0-4.234375-1.03125-.765625-.453125-.765625-1.296875.0-.46875.265625-.765625.265625-.3125.65625-.3125.40625.0 1.125.390625.765625.359375 1.390625.546875.640625.1875 1.625.1875 1.015625.0 1.578125-.328125.5625-.34375.5625-.9375.0-.40625-.234375-.640625-.21875-.25-.8125-.453125-.578125-.203125-1.78125-.46875-2.140625-.4375-3.0625-1.21875-.921875-.796875-.921875-2.1875.0-1.0625.625-1.90625.625-.859375 1.703125-1.328125 1.09375-.46875 2.5-.46875 1 0 1.9375.265625.9375.25 1.671875.71875.78125.484375.78125 1.28125.0.484375-.265625.8125-.265625.3125-.65625.3125-.265625.0-.515625-.109375t-.625-.328125q-.703125-.359375-1.21875-.53125-.5-.1875-1.234375-.1875-.890625.0-1.40625.359375t-.515625.984375q0 .609375.53125.921875t2.03125.625q1.609375.328125 2.515625.765625.921875.421875 1.3125 1.078125.40625.640625.40625 1.65625.0 1.625-1.359375 2.609375t-3.609375.984375zm13.3637085-2.28125q1.203125.078125 1.203125 1.078125.0.578125-.46875.890625-.46875.296875-1.328125.25l-.65625-.046875q-4.03125-.296875-4.03125-4.328125v-5.234375h-1.203125q-.640625.0-1-.28125-.34375-.296875-.34375-.84375t.34375-.828125q.359375-.296875 1-.296875h1.203125v-2.203125q0-.65625.40625-1.03125.40625-.390625 1.109375-.390625.671875.0 1.078125.390625.40625.375.40625 1.03125v2.203125h2.046875q.640625.0.984375.296875.359375.28125.359375.828125t-.359375.84375q-.34375.28125-.984375.28125h-2.046875v5.453125q0 1.78125 1.640625 1.890625l.640625.046875zm11.141724-9.015625q.1875-.4375.5-.640625.328125-.203125.71875-.203125.546875.0.984375.375.453125.375.453125.921875.0.265625-.140625.546875l-6.546875 13.734375q-.421875.8125-1.28125.8125-.546875.0-.96875-.34375t-.421875-.875q0-.265625.140625-.609375l1.640625-3.421875-4.46875-9.296875q-.125-.234375-.125-.546875.0-.546875.46875-.921875.46875-.390625 1.078125-.390625.40625.0.734375.203125.34375.203125.53125.625l3.359375 7.421875 3.34375-7.390625zm10.983337-.859375q.625-.0625.984375.25t.359375.9375q0 .65625-.3125.96875t-1.125.40625l-.71875.0625q-1.421875.15625-2.078125.96875t-.65625 2.03125v5.046875q0 .703125-.4375 1.078125-.421875.359375-1.078125.359375-.640625.0-1.0625-.359375-.421875-.375-.421875-1.078125v-9.28125q0-.671875.421875-1.03125t1.046875-.359375q.609375.0 1 .34375t.390625 1v.953125q.453125-1.0625 1.34375-1.625.90625-.578125 2.015625-.65625l.328125-.015625zm13.082642 9.640625q.484375.453125.484375 1.03125.0.546875-.40625.984375-.390625.4375-.921875.4375t-.984375-.4375l-5.609375-5.09375v4.109375q0 .703125-.4375 1.0625-.421875.359375-1.078125.359375-.640625.0-1.0625-.359375t-.421875-1.0625V229.60922q0-.6875.421875-1.046875.421875-.375 1.0625-.375.65625.0 1.078125.375.4375.359375.4375 1.046875v9.03125l5.140625-4.921875q.421875-.4375.984375-.4375.546875.0.953125.40625t.40625.96875q0 .546875-.453125 1l-3.765625 3.5 4.171875 3.75zm11.539673-.890625q.40625.0.65625.3125.265625.3125.265625.84375.0.75-.890625 1.25-.8125.453125-1.859375.734375-1.03125.265625-1.953125.265625-2.84375.0-4.5-1.625-1.65625-1.640625-1.65625-4.46875.0-1.796875.71875-3.1875.734375-1.390625 2.03125-2.15625 1.3125-.78125 2.96875-.78125 1.578125.0 2.75.703125 1.1875.703125 1.828125 1.96875.65625 1.265625.65625 3 0 1.03125-.921875 1.03125h-7.078125q.15625 1.65625.9375 2.4375.796875.78125 2.3125.78125.765625.0 1.34375-.1875.59375-.203125 1.34375-.53125.71875-.390625 1.046875-.390625zm-4.140625-6.6875q-1.234375.0-1.96875.765625-.71875.765625-.875 2.203125h5.421875q-.046875-1.46875-.71875-2.21875t-1.859375-.75zm8.314758-7.140625q.828125.0 1.328125.609375.5.59375.5 1.75.0 2.25-1.578125 3.953125-.296875.3125-.671875.3125-.34375.0-.625-.25-.265625-.25-.265625-.578125.0-.296875.234375-.5625.71875-.765625.9375-1.71875-.6875-.078125-1.140625-.546875-.4375-.46875-.4375-1.15625.0-.78125.484375-1.296875.5-.515625 1.234375-.515625z" fill-rule="nonzero"/><path fill="#000" d="m764.6963 271.83298q-2.015625-3.515625-2.015625-7.625.0-4.15625 2.015625-7.65625.21875-.34375.5-.515625.296875-.1875.59375-.1875.3125.0.53125.203125.21875.1875.21875.53125.0.25-.09375.453125-1.390625 3.40625-1.390625 7.171875.0 1.890625.328125 3.640625.34375 1.734375 1.0625 3.484375.09375.203125.09375.46875.0.328125-.21875.53125t-.53125.203125q-.296875.0-.59375-.171875t-.5-.53125zm14.598267-4.234375q.21875.34375.21875.65625.0.4375-.34375.71875-.34375.265625-.8125.265625-.296875.0-.5625-.140625t-.453125-.40625l-2.484375-3.78125q-.375-.59375-.796875-.828125-.421875-.25-1.09375-.25h-1.828125v4.1875q0 .546875-.3125.875t-.859375.328125q-.53125.0-.859375-.328125t-.328125-.875v-10.921875q0-.546875.296875-.84375.3125-.296875.859375-.296875h4.65625q2.25.0 3.40625 1 1.171875 1 1.171875 2.890625.0 1.515625-.875 2.5-.859375.984375-2.453125 1.265625.546875.125.953125.46875.40625.328125.8125.921875l1.6875 2.59375zm-5.03125-5.609375q1.359375.0 1.984375-.515625.640625-.515625.640625-1.578125.0-1.078125-.640625-1.5625-.625-.5-1.984375-.5h-3.140625v4.15625h3.140625zm11.17572-2.21875q1.90625.0 2.828125.9375t.921875 2.859375v4.5625q0 .5-.296875.796875-.296875.28125-.828125.28125-.484375.0-.796875-.296875-.296875-.296875-.296875-.78125v-.421875q-.328125.734375-1.015625 1.15625-.671875.40625-1.5625.40625-.921875.0-1.671875-.375-.734375-.375-1.171875-1.03125-.421875-.65625-.421875-1.453125.0-1.015625.515625-1.59375t1.671875-.828125q1.15625-.265625 3.1875-.265625h.46875v-.4375q0-.90625-.40625-1.328125-.390625-.421875-1.265625-.421875-.53125.0-1.09375.171875-.5625.15625-1.328125.453125-.484375.234375-.703125.234375-.34375.0-.5625-.234375-.203125-.25-.203125-.640625.0-.3125.15625-.546875t.53125-.4375q.65625-.359375 1.5625-.5625t1.78125-.203125zm-.578125 7.8125q.921875.0 1.515625-.625t.59375-1.609375v-.390625h-.34375q-1.25.0-1.9375.109375t-.984375.390625-.296875.765625q0 .59375.40625.984375.421875.375 1.046875.375zm11.433716-.09375q.9375.0625.9375.84375.0.453125-.375.6875-.359375.21875-1.03125.1875l-.5-.03125q-3.140625-.234375-3.140625-3.359375v-4.078125h-.921875q-.515625.0-.78125-.21875t-.265625-.65625q0-.421875.265625-.640625.265625-.234375.78125-.234375h.921875v-1.71875q0-.5.3125-.796875.328125-.296875.859375-.296875t.84375.296875.3125.796875v1.71875h1.59375q.5.0.765625.234375.28125.21875.28125.640625.0.4375-.28125.65625-.265625.21875-.765625.21875h-1.59375v4.234375q0 1.390625 1.28125 1.484375l.5.03125zm9.36853-.875q.3125.0.5.25.203125.234375.203125.640625.0.578125-.6875.96875-.640625.359375-1.4375.578125t-1.53125.21875q-2.203125.0-3.5-1.265625-1.28125-1.28125-1.28125-3.484375.0-1.390625.5625-2.46875.5625-1.09375 1.578125-1.6875t2.3125-.59375q1.21875.0 2.125.546875.921875.53125 1.421875 1.53125.515625.984375.515625 2.328125.0.796875-.71875.796875h-5.5q.109375 1.28125.71875 1.890625.625.609375 1.796875.609375.609375.0 1.0625-.140625.453125-.15625 1.03125-.421875.5625-.296875.828125-.296875zm-3.234375-5.203125q-.953125.0-1.53125.59375-.5625.59375-.671875 1.71875h4.21875q-.03125-1.140625-.5625-1.71875-.515625-.59375-1.453125-.59375zm15.134216 7.859375q-1.40625.0-2.46875-.578125-1.046875-.578125-1.625-1.65625-.578125-1.09375-.578125-2.53125t.578125-2.5q.578125-1.078125 1.625-1.65625 1.0625-.578125 2.46875-.578125 1.390625.0 2.4375.578125 1.0625.578125 1.625 1.65625.578125 1.0625.578125 2.5t-.578125 2.53125q-.5625 1.078125-1.625 1.65625-1.046875.578125-2.4375.578125zm-.015625-1.8125q1.140625.0 1.734375-.75t.59375-2.203125q0-1.4375-.59375-2.1875-.59375-.765625-1.71875-.765625t-1.734375.765625q-.59375.75-.59375 2.1875.0 1.453125.59375 2.203125t1.71875.75zm11.140076-9.765625q-.859375.0625-1.265625.53125-.390625.46875-.390625 1.34375v.421875h1.59375q1.046875.0 1.046875.875t-1.046875.875h-1.59375v6.375q0 .53125-.328125.8125-.3125.28125-.828125.28125-.5.0-.84375-.28125-.328125-.28125-.328125-.8125v-6.375h-.921875q-1.046875.0-1.046875-.875t1.046875-.875h.921875v-.125q0-1.75.921875-2.75t2.609375-1.140625l.484375-.03125q.75-.0625 1.046875.15625.3125.21875.3125.671875.0.796875-.90625.890625l-.484375.03125zm8.516052 11.53125q-.53125.0-.859375-.328125-.328125-.34375-.328125-.875v-10.921875q0-.546875.296875-.84375.3125-.296875.859375-.296875h6.546875q1.140625.0 1.140625.96875.0.953125-1.140625.953125h-5.34375v3.578125h4.96875q1.140625.0 1.140625.984375.0.9375-1.140625.9375h-4.96875v4.640625q0 .53125-.3125.875-.3125.328125-.859375.328125zm13.138367.046875q-1.40625.0-2.46875-.578125-1.046875-.578125-1.625-1.65625-.578125-1.09375-.578125-2.53125t.578125-2.5q.578125-1.078125 1.625-1.65625 1.0625-.578125 2.46875-.578125 1.390625.0 2.4375.578125 1.0625.578125 1.625 1.65625.578125 1.0625.578125 2.5t-.578125 2.53125q-.5625 1.078125-1.625 1.65625-1.046875.578125-2.4375.578125zm-.015625-1.8125q1.140625.0 1.734375-.75t.59375-2.203125q0-1.4375-.59375-2.1875-.59375-.765625-1.71875-.765625t-1.734375.765625q-.59375.75-.59375 2.1875.0 1.453125.59375 2.203125t1.71875.75zm11.680481-7.65625q.484375-.03125.75.21875.28125.234375.28125.71875.0.5-.25.75-.234375.234375-.859375.3125l-.5625.0625q-1.09375.109375-1.609375.75-.515625.625-.515625 1.578125v3.921875q0 .53125-.34375.828125-.328125.28125-.828125.28125-.515625.0-.84375-.28125-.3125-.296875-.3125-.828125v-7.234375q0-.515625.3125-.796875.328125-.28125.8125-.28125t.78125.28125q.3125.265625.3125.765625v.75q.34375-.828125 1.046875-1.265625.703125-.453125 1.5625-.515625l.265625-.015625zm5.911804 9.46875q-1.359375.0-2.40625-.578125-1.03125-.578125-1.59375-1.640625-.5625-1.078125-.5625-2.484375.0-1.421875.59375-2.515625t1.65625-1.6875 2.4375-.59375q.734375.0 1.46875.203125t1.296875.5625q.59375.390625.59375.984375.0.40625-.203125.671875-.1875.25-.5.25-.21875.0-.4375-.09375t-.453125-.234375q-.40625-.234375-.78125-.375t-.859375-.140625q-1.15625.0-1.78125.765625-.625.75-.625 2.15625t.625 2.171875q.625.75 1.78125.75.46875.0.828125-.140625.375-.140625.8125-.390625.28125-.171875.484375-.25.21875-.078125.421875-.078125.296875.0.5.265625.203125.25.203125.640625.0.3125-.140625.546875t-.453125.421875q-.578125.375-1.34375.59375t-1.5625.21875zm12.276123-2.65625q.3125.0.5.25.203125.234375.203125.640625.0.578125-.6875.96875-.640625.359375-1.4375.578125t-1.53125.21875q-2.203125.0-3.5-1.265625-1.28125-1.28125-1.28125-3.484375.0-1.390625.5625-2.46875.5625-1.09375 1.578125-1.6875t2.3125-.59375q1.21875.0 2.125.546875.921875.53125 1.421875 1.53125.515625.984375.515625 2.328125.0.796875-.71875.796875h-5.5q.109375 1.28125.71875 1.890625.625.609375 1.796875.609375.609375.0 1.0625-.140625.453125-.15625 1.03125-.421875.5625-.296875.828125-.296875zm-3.234375-5.203125q-.953125.0-1.53125.59375-.5625.59375-.671875 1.71875h4.21875q-.03125-1.140625-.5625-1.71875-.515625-.59375-1.453125-.59375zm12.33728 7.703125q-.546875.0-.859375-.296875-.296875-.296875-.296875-.84375v-10.875q0-.546875.296875-.84375.3125-.296875.859375-.296875h3.6875q3.234375.0 5.015625 1.734375 1.78125 1.71875 1.78125 4.84375t-1.78125 4.859375q-1.78125 1.71875-5.015625 1.71875h-3.6875zm3.546875-1.953125q4.53125.0 4.53125-4.625.0-4.609375-4.53125-4.609375h-2.296875v9.234375h2.296875zm16.379333-.546875q.3125.0.5.25.203125.234375.203125.640625.0.578125-.6875.96875-.640625.359375-1.4375.578125t-1.53125.21875q-2.203125.0-3.5-1.265625-1.28125-1.28125-1.28125-3.484375.0-1.390625.5625-2.46875.5625-1.09375 1.578125-1.6875t2.3125-.59375q1.21875.0 2.125.546875.921875.53125 1.421875 1.53125.515625.984375.515625 2.328125.0.796875-.71875.796875h-5.5q.109375 1.28125.71875 1.890625.625.609375 1.796875.609375.609375.0 1.0625-.140625.453125-.15625 1.03125-.421875.5625-.296875.828125-.296875zm-3.234375-5.203125q-.953125.0-1.53125.59375-.5625.59375-.671875 1.71875h4.21875q-.03125-1.140625-.5625-1.71875-.515625-.59375-1.453125-.59375zm12.132141-.9375q.140625-.328125.390625-.5.265625-.171875.5625-.171875.421875.0.765625.296875.34375.28125.34375.71875.0.21875-.109375.4375l-3.453125 7.21875q-.171875.359375-.484375.546875-.296875.1875-.671875.1875-.34375.0-.671875-.1875t-.5-.546875l-3.46875-7.21875q-.09375-.1875-.09375-.421875.0-.4375.359375-.734375.375-.296875.828125-.296875.671875.0 1 .65625l2.609375 5.765625 2.59375-5.75zm10.523193 6.140625q.3125.0.5.25.203125.234375.203125.640625.0.578125-.6875.96875-.640625.359375-1.4375.578125t-1.53125.21875q-2.203125.0-3.5-1.265625-1.28125-1.28125-1.28125-3.484375.0-1.390625.5625-2.46875.5625-1.09375 1.578125-1.6875t2.3125-.59375q1.21875.0 2.125.546875.921875.53125 1.421875 1.53125.515625.984375.515625 2.328125.0.796875-.71875.796875h-5.5q.109375 1.28125.71875 1.890625.625.609375 1.796875.609375.609375.0 1.0625-.140625.453125-.15625 1.03125-.421875.5625-.296875.828125-.296875zm-3.234375-5.203125q-.953125.0-1.53125.59375-.5625.59375-.671875 1.71875h4.21875q-.03125-1.140625-.5625-1.71875-.515625-.59375-1.453125-.59375zm7.078369 7.8125q-.515625.0-.84375-.28125-.3125-.296875-.3125-.828125v-11.140625q0-.546875.3125-.828125.328125-.28125.84375-.28125.5.0.828125.28125.34375.28125.34375.828125v11.140625q0 .53125-.34375.828125-.328125.28125-.828125.28125zm7.7387085.046875q-1.40625.0-2.46875-.578125-1.046875-.578125-1.625-1.65625-.578125-1.09375-.578125-2.53125t.578125-2.5q.578125-1.078125 1.625-1.65625 1.0625-.578125 2.46875-.578125 1.390625.0 2.4375.578125 1.0625.578125 1.625 1.65625.578125 1.0625.578125 2.5t-.578125 2.53125q-.5625 1.078125-1.625 1.65625-1.046875.578125-2.4375.578125zm-.015625-1.8125q1.140625.0 1.734375-.75t.59375-2.203125q0-1.4375-.59375-2.1875-.59375-.765625-1.71875-.765625t-1.734375.765625q-.59375.75-.59375 2.1875.0 1.453125.59375 2.203125t1.71875.75zm11.821045-7.6875q1.171875.0 2.09375.59375.9375.59375 1.4375 1.6875.515625 1.09375.515625 2.515625.0 1.40625-.515625 2.484375-.5 1.0625-1.421875 1.640625-.90625.578125-2.109375.578125-.96875.0-1.734375-.40625-.765625-.421875-1.171875-1.15625v3.8125q0 .484375-.328125.765625-.3125.28125-.828125.28125-.53125.0-.859375-.296875-.3125-.296875-.3125-.78125v-10.578125q0-.515625.296875-.8125.3125-.296875.828125-.296875.53125.0.84375.296875t.3125.8125v.453125q.421875-.75 1.1875-1.171875.78125-.421875 1.765625-.421875zm-.609375 7.6875q1.09375.0 1.703125-.75.625-.765625.625-2.140625.0-1.421875-.625-2.203125-.609375-.78125-1.703125-.78125-1.125.0-1.734375.765625t-.609375 2.171875.609375 2.171875 1.734375.765625zm17.415527-7.6875q1.5.0 2.28125.890625.796875.875.796875 2.859375v4.59375q0 .53125-.328125.828125-.3125.28125-.84375.28125-.5.0-.828125-.28125-.328125-.296875-.328125-.828125v-4.59375q0-1.03125-.359375-1.46875t-1.109375-.4375q-.921875.0-1.46875.625-.53125.625-.53125 1.703125v4.171875q0 .53125-.328125.828125-.328125.28125-.828125.28125t-.84375-.28125q-.328125-.296875-.328125-.828125v-4.59375q0-1.03125-.375-1.46875-.359375-.4375-1.109375-.4375-.90625.0-1.4375.625t-.53125 1.703125v4.171875q0 .53125-.34375.828125-.328125.28125-.828125.28125-.515625.0-.84375-.28125-.3125-.296875-.3125-.828125v-7.234375q0-.515625.328125-.796875.34375-.28125.84375-.28125.484375.0.78125.28125.3125.265625.3125.765625v.453125q.4375-.75 1.15625-1.140625t1.640625-.390625q2.0625.0 2.75 1.71875.40625-.78125 1.203125-1.25.8125-.46875 1.8125-.46875zm12.677551 6.84375q.3125.0.5.25.203125.234375.203125.640625.0.578125-.6875.96875-.640625.359375-1.4375.578125t-1.53125.21875q-2.203125.0-3.5-1.265625-1.28125-1.28125-1.28125-3.484375.0-1.390625.5625-2.46875.5625-1.09375 1.578125-1.6875t2.3125-.59375q1.21875.0 2.125.546875.921875.53125 1.421875 1.53125.515625.984375.515625 2.328125.0.796875-.71875.796875h-5.5q.109375 1.28125.71875 1.890625.625.609375 1.796875.609375.609375.0 1.0625-.140625.453125-.15625 1.03125-.421875.5625-.296875.828125-.296875zm-3.234375-5.203125q-.953125.0-1.53125.59375-.5625.59375-.671875 1.71875h4.21875q-.03125-1.140625-.5625-1.71875-.515625-.59375-1.453125-.59375zm11.218994-1.640625q1.640625.0 2.4375.9375.796875.921875.796875 2.8125v4.59375q0 .515625-.3125.8125-.296875.296875-.84375.296875-.53125.0-.859375-.296875-.3125-.296875-.3125-.8125v-4.46875q0-1.0625-.40625-1.546875-.390625-.484375-1.25-.484375-1.015625.0-1.625.640625-.59375.625-.59375 1.6875v4.171875q0 .515625-.328125.8125-.3125.296875-.84375.296875-.546875.0-.859375-.296875-.296875-.296875-.296875-.8125v-7.234375q0-.484375.3125-.78125t.859375-.296875q.484375.0.78125.296875.3125.28125.3125.75v.5q.46875-.765625 1.25-1.171875t1.78125-.40625zm10.351379 7.71875q.9375.0625.9375.84375.0.453125-.375.6875-.359375.21875-1.03125.1875l-.5-.03125q-3.140625-.234375-3.140625-3.359375v-4.078125h-.921875q-.515625.0-.78125-.21875t-.265625-.65625q0-.421875.265625-.640625.265625-.234375.78125-.234375h.921875v-1.71875q0-.5.3125-.796875.328125-.296875.859375-.296875t.84375.296875.3125.796875v1.71875h1.59375q.5.0.765625.234375.28125.21875.28125.640625.0.4375-.28125.65625-.265625.21875-.765625.21875h-1.59375v4.234375q0 1.390625 1.28125 1.484375l.5.03125zm5.0962524 4.34375q-.203125.359375-.515625.53125-.296875.171875-.59375.171875-.3125.0-.53125-.203125-.203125-.203125-.203125-.53125.0-.265625.09375-.46875.703125-1.75 1.03125-3.484375.34375-1.75.34375-3.640625.0-3.765625-1.375-7.171875-.09375-.203125-.09375-.453125.0-.34375.203125-.53125.21875-.203125.53125-.203125.296875.0.578125.1875.296875.171875.53125.515625 2.015625 3.5 2.015625 7.65625.0 4.109375-2.015625 7.625z" fill-rule="nonzero"/><path fill="#000" fill-opacity="0" d="m751.79004 318.77036h293.1023v68.53543h-293.1023z" fill-rule="evenodd"/><path fill="#000" d="m764.10254 350.81033q-.703125.0-1.09375-.375-.390625-.390625-.390625-1.09375v-13.984375q0-.703125.390625-1.078125.390625-.390625 1.09375-.390625h8.65625q.703125.0 1.078125.3125.390625.3125.390625.890625.0.59375-.390625.921875-.375.328125-1.078125.328125h-7.125v4.65625h6.65625q.6875.0 1.0625.3125.390625.3125.390625.90625.0.578125-.390625.890625-.375.3125-1.0625.3125h-6.65625v4.9375h7.125q.703125.0 1.078125.328125.390625.328125.390625.921875.0.578125-.390625.890625-.375.3125-1.078125.3125h-8.65625zm22.5578-2.203125q.4375.421875.4375.984375.0.515625-.40625.9375t-.96875.421875q-.59375.0-1.03125-.5l-3.375-3.75-3.390625 3.75q-.453125.484375-1.03125.484375-.53125.0-.9375-.40625-.40625-.421875-.40625-.9375.0-.5625.4375-.984375l3.5-3.828125-3.3125-3.59375q-.4375-.4375-.4375-.984375t.40625-.9375q.40625-.40625.9375-.40625.578125.0 1.03125.484375l3.203125 3.5 3.1875-3.5q.453125-.484375 1.03125-.484375.546875.0.9375.40625.40625.390625.40625.9375t-.4375.984375l-3.3125 3.59375 3.53125 3.828125zm7.559204 2.390625q-1.75.0-3.078125-.734375-1.328125-.75-2.0625-2.109375-.71875-1.375-.71875-3.203125t.75-3.21875q.765625-1.40625 2.125-2.171875 1.375-.78125 3.15625-.78125.9375.0 1.875.265625.953125.265625 1.671875.71875.765625.515625.765625 1.28125.0.53125-.25.859375-.25.3125-.65625.3125-.265625.0-.5625-.109375-.28125-.125-.5625-.296875-.53125-.3125-1.015625-.484375-.46875-.1875-1.09375-.1875-1.5.0-2.296875.96875t-.796875 2.796875q0 1.796875.796875 2.78125.796875.96875 2.296875.96875.59375.0 1.0625-.171875.46875-.1875 1.046875-.5.359375-.21875.625-.328125t.53125-.109375q.375.0.640625.34375.265625.328125.265625.828125.0.40625-.1875.71875-.171875.296875-.578125.53125-.75.484375-1.734375.765625-.984375.265625-2.015625.265625zm15.7901-3.40625q.40625.0.65625.3125.265625.3125.265625.84375.0.75-.890625 1.25-.8125.453125-1.859375.734375-1.03125.265625-1.953125.265625-2.84375.0-4.5-1.625-1.65625-1.640625-1.65625-4.46875.0-1.796875.71875-3.1875.734375-1.390625 2.03125-2.15625 1.3125-.78125 2.96875-.78125 1.578125.0 2.75.703125 1.1875.703125 1.828125 1.96875.65625 1.265625.65625 3 0 1.03125-.921875 1.03125h-7.078125q.15625 1.65625.9375 2.4375.796875.78125 2.3125.78125.765625.0 1.34375-.1875.59375-.203125 1.34375-.53125.71875-.390625 1.046875-.390625zm-4.140625-6.6875q-1.234375.0-1.96875.765625-.71875.765625-.875 2.203125h5.421875q-.046875-1.46875-.71875-2.21875t-1.859375-.75zm14.4158325-2.125q2.109375.0 3.140625 1.203125t1.03125 3.625v5.90625q0 .671875-.390625 1.0625-.390625.375-1.09375.375-.6875.0-1.109375-.375-.40625-.390625-.40625-1.0625v-5.734375q0-1.375-.515625-1.984375-.515625-.625-1.609375-.625-1.296875.0-2.078125.8125t-.78125 2.1875v5.34375q0 .671875-.40625 1.0625-.40625.375-1.109375.375-.6875.0-1.09375-.375-.390625-.390625-.390625-1.0625v-9.28125q0-.625.40625-1 .40625-.390625 1.109375-.390625.625.0 1.015625.375.390625.359375.390625.96875v.640625q.609375-.984375 1.609375-1.515625 1.015625-.53125 2.28125-.53125zm13.321228 9.9375q1.203125.078125 1.203125 1.078125.0.578125-.46875.890625-.46875.296875-1.328125.25l-.65625-.046875q-4.03125-.296875-4.03125-4.328125v-5.234375h-1.203125q-.640625.0-1-.28125-.34375-.296875-.34375-.84375t.34375-.828125q.359375-.296875 1-.296875h1.203125v-2.203125q0-.65625.40625-1.03125.40625-.390625 1.109375-.390625.671875.0 1.078125.390625.40625.375.40625 1.03125v2.203125h2.046875q.640625.0.984375.296875.359375.28125.359375.828125t-.359375.84375q-.34375.28125-.984375.28125h-2.046875v5.453125q0 1.78125 1.640625 1.890625l.640625.046875zm9.309082-9.875q.625-.0625.984375.25t.359375.9375q0 .65625-.3125.96875t-1.125.40625l-.71875.0625q-1.421875.15625-2.078125.96875t-.65625 2.03125v5.046875q0 .703125-.4375 1.078125-.421875.359375-1.078125.359375-.640625.0-1.0625-.359375-.421875-.375-.421875-1.078125v-9.28125q0-.671875.421875-1.03125t1.046875-.359375q.609375.0 1 .34375t.390625 1v.953125q.453125-1.0625 1.34375-1.625.90625-.578125 2.015625-.65625l.328125-.015625zm4.1294556 12.109375q-.640625.0-1.0625-.359375-.421875-.375-.421875-1.078125v-9.265625q0-.6875.421875-1.046875t1.0625-.359375q.65625.0 1.078125.359375.4375.359375.4375 1.046875v9.265625q0 .703125-.4375 1.078125-.421875.359375-1.078125.359375zm0-14.25q-.828125.0-1.3125-.4375-.46875-.453125-.46875-1.171875t.46875-1.140625q.484375-.4375 1.3125-.4375.78125.0 1.265625.4375.5.421875.5 1.140625t-.484375 1.171875q-.46875.4375-1.28125.4375zm8.861633 14.296875q-2.625.0-4.234375-1.03125-.765625-.453125-.765625-1.296875.0-.46875.265625-.765625.265625-.3125.65625-.3125.40625.0 1.125.390625.765625.359375 1.390625.546875.640625.1875 1.625.1875 1.015625.0 1.578125-.328125.5625-.34375.5625-.9375.0-.40625-.234375-.640625-.21875-.25-.8125-.453125-.578125-.203125-1.78125-.46875-2.140625-.4375-3.0625-1.21875-.921875-.796875-.921875-2.1875.0-1.0625.625-1.90625.625-.859375 1.703125-1.328125 1.09375-.46875 2.5-.46875 1 0 1.9375.265625.9375.25 1.671875.71875.78125.484375.78125 1.28125.0.484375-.265625.8125-.265625.3125-.65625.3125-.265625.0-.515625-.109375t-.625-.328125q-.703125-.359375-1.21875-.53125-.5-.1875-1.234375-.1875-.890625.0-1.40625.359375t-.515625.984375q0 .609375.53125.921875t2.03125.625q1.609375.328125 2.515625.765625.921875.421875 1.3125 1.078125.40625.640625.40625 1.65625.0 1.625-1.359375 2.609375t-3.609375.984375zm17.827454-2.515625q.484375.453125.484375 1.03125.0.546875-.40625.984375-.390625.4375-.921875.4375t-.984375-.4375l-5.609375-5.09375v4.109375q0 .703125-.4375 1.0625-.421875.359375-1.078125.359375-.640625.0-1.0625-.359375t-.421875-1.0625V335.18533q0-.6875.421875-1.046875.421875-.375 1.0625-.375.65625.0 1.078125.375.4375.359375.4375 1.046875v9.03125l5.140625-4.921875q.421875-.4375.984375-.4375.546875.0.953125.40625t.40625.96875q0 .546875-.453125 1l-3.765625 3.5 4.171875 3.75zm22.867981-9.703125q1.921875.0 2.9375 1.140625 1.03125 1.140625 1.03125 3.6875v5.90625q0 .703125-.421875 1.078125-.421875.359375-1.09375.359375-.65625.0-1.078125-.359375-.40625-.375-.40625-1.078125v-5.90625q0-1.3125-.46875-1.875t-1.4375-.5625q-1.171875.0-1.875.796875-.6875.796875-.6875 2.203125v5.34375q0 .703125-.421875 1.078125-.421875.359375-1.0625.359375-.65625.0-1.09375-.359375-.421875-.375-.421875-1.078125v-5.90625q0-1.3125-.46875-1.875t-1.421875-.5625q-1.1875.0-1.875.796875-.671875.796875-.671875 2.203125v5.34375q0 .703125-.4375 1.078125-.421875.359375-1.078125.359375-.640625.0-1.0625-.359375-.421875-.375-.421875-1.078125v-9.28125q0-.671875.421875-1.03125.4375-.359375 1.09375-.359375.625.0 1.015625.34375t.390625 1v.5625q.5625-.953125 1.484375-1.453125.921875-.515625 2.125-.515625 2.640625.0 3.515625 2.21875.53125-1.015625 1.5625-1.609375 1.03125-.609375 2.328125-.609375zm16.28003.0625q.6875.0 1.09375.390625.421875.375.421875 1.015625v9.3125q0 .625-.421875 1.015625-.421875.375-1.09375.375-.65625.0-1.046875-.359375-.375-.359375-.375-.984375v-.59375q-.546875.953125-1.484375 1.46875t-2.109375.515625q-4.328125.0-4.328125-4.84375v-5.90625q0-.640625.40625-1.015625.40625-.390625 1.078125-.390625.703125.0 1.109375.390625.40625.375.40625 1.015625v5.9375q0 1.234375.5 1.84375.515625.59375 1.59375.59375 1.25.0 2-.828125.765625-.828125.765625-2.1875v-5.359375q0-.640625.40625-1.015625.40625-.390625 1.078125-.390625zm8.880371 12.15625q-2.625.0-4.234375-1.03125-.765625-.453125-.765625-1.296875.0-.46875.265625-.765625.265625-.3125.65625-.3125.40625.0 1.125.390625.765625.359375 1.390625.546875.640625.1875 1.625.1875 1.015625.0 1.578125-.328125.5625-.34375.5625-.9375.0-.40625-.234375-.640625-.21875-.25-.8125-.453125-.578125-.203125-1.78125-.46875-2.140625-.4375-3.0625-1.21875-.921875-.796875-.921875-2.1875.0-1.0625.625-1.90625.625-.859375 1.703125-1.328125 1.09375-.46875 2.5-.46875 1 0 1.9375.265625.9375.25 1.671875.71875.78125.484375.78125 1.28125.0.484375-.265625.8125-.265625.3125-.65625.3125-.265625.0-.515625-.109375t-.625-.328125q-.703125-.359375-1.21875-.53125-.5-.1875-1.234375-.1875-.890625.0-1.40625.359375t-.515625.984375q0 .609375.53125.921875t2.03125.625q1.609375.328125 2.515625.765625.921875.421875 1.3125 1.078125.40625.640625.40625 1.65625.0 1.625-1.359375 2.609375t-3.609375.984375zm17.827454-2.515625q.484375.453125.484375 1.03125.0.546875-.40625.984375-.390625.4375-.921875.4375t-.984375-.4375l-5.609375-5.09375v4.109375q0 .703125-.4375 1.0625-.421875.359375-1.078125.359375-.640625.0-1.0625-.359375t-.421875-1.0625V335.18533q0-.6875.421875-1.046875.421875-.375 1.0625-.375.65625.0 1.078125.375.4375.359375.4375 1.046875v9.03125l5.140625-4.921875q.421875-.4375.984375-.4375.546875.0.953125.40625t.40625.96875q0 .546875-.453125 1l-3.765625 3.5 4.171875 3.75zm11.539734-.890625q.40625.0.65625.3125.265625.3125.265625.84375.0.75-.890625 1.25-.8125.453125-1.859375.734375-1.03125.265625-1.953125.265625-2.84375.0-4.5-1.625-1.65625-1.640625-1.65625-4.46875.0-1.796875.71875-3.1875.734375-1.390625 2.03125-2.15625 1.3125-.78125 2.96875-.78125 1.578125.0 2.75.703125 1.1875.703125 1.828125 1.96875.65625 1.265625.65625 3 0 1.03125-.921875 1.03125h-7.078125q.15625 1.65625.9375 2.4375.796875.78125 2.3125.78125.765625.0 1.34375-.1875.59375-.203125 1.34375-.53125.71875-.390625 1.046875-.390625zm-4.140625-6.6875q-1.234375.0-1.96875.765625-.71875.765625-.875 2.203125h5.421875q-.046875-1.46875-.71875-2.21875t-1.859375-.75zm9.0877075 10.046875q-.640625.0-1.0625-.359375-.421875-.375-.421875-1.078125V335.18533q0-.6875.421875-1.046875.421875-.375 1.0625-.375.65625.0 1.078125.375.4375.359375.4375 1.046875v14.328125q0 .703125-.4375 1.078125-.421875.359375-1.078125.359375zm8.861572.046875q-2.625.0-4.234375-1.03125-.765625-.453125-.765625-1.296875.0-.46875.265625-.765625.265625-.3125.65625-.3125.40625.0 1.125.390625.765625.359375 1.390625.546875.640625.1875 1.625.1875 1.015625.0 1.578125-.328125.5625-.34375.5625-.9375.0-.40625-.234375-.640625-.21875-.25-.8125-.453125-.578125-.203125-1.78125-.46875-2.140625-.4375-3.0625-1.21875-.921875-.796875-.921875-2.1875.0-1.0625.625-1.90625.625-.859375 1.703125-1.328125 1.09375-.46875 2.5-.46875 1 0 1.9375.265625.9375.25 1.671875.71875.78125.484375.78125 1.28125.0.484375-.265625.8125-.265625.3125-.65625.3125-.265625.0-.515625-.109375t-.625-.328125q-.703125-.359375-1.21875-.53125-.5-.1875-1.234375-.1875-.890625.0-1.40625.359375t-.515625.984375q0 .609375.53125.921875t2.03125.625q1.609375.328125 2.515625.765625.921875.421875 1.3125 1.078125.40625.640625.40625 1.65625.0 1.625-1.359375 2.609375t-3.609375.984375zm13.3637085-2.28125q1.203125.078125 1.203125 1.078125.0.578125-.46875.890625-.46875.296875-1.328125.25l-.65625-.046875q-4.03125-.296875-4.03125-4.328125v-5.234375h-1.203125q-.640625.0-1-.28125-.34375-.296875-.34375-.84375t.34375-.828125q.359375-.296875 1-.296875h1.203125v-2.203125q0-.65625.40625-1.03125.40625-.390625 1.109375-.390625.671875.0 1.078125.390625.40625.375.40625 1.03125v2.203125h2.046875q.640625.0.984375.296875.359375.28125.359375.828125t-.359375.84375q-.34375.28125-.984375.28125h-2.046875v5.453125q0 1.78125 1.640625 1.890625l.640625.046875zm11.141724-9.015625q.1875-.4375.5-.640625.328125-.203125.71875-.203125.546875.0.984375.375.453125.375.453125.921875.0.265625-.140625.546875l-6.546875 13.734375q-.421875.8125-1.28125.8125-.546875.0-.96875-.34375t-.421875-.875q0-.265625.140625-.609375l1.640625-3.421875-4.46875-9.296875q-.125-.234375-.125-.546875.0-.546875.46875-.921875.46875-.390625 1.078125-.390625.40625.0.734375.203125.34375.203125.53125.625l3.359375 7.421875 3.34375-7.390625zm10.983337-.859375q.625-.0625.984375.25t.359375.9375q0 .65625-.3125.96875t-1.125.40625l-.71875.0625q-1.421875.15625-2.078125.96875t-.65625 2.03125v5.046875q0 .703125-.4375 1.078125-.421875.359375-1.078125.359375-.640625.0-1.0625-.359375-.421875-.375-.421875-1.078125v-9.28125q0-.671875.421875-1.03125t1.046875-.359375q.609375.0 1 .34375t.390625 1v.953125q.453125-1.0625 1.34375-1.625.90625-.578125 2.015625-.65625l.328125-.015625zm13.082642 9.640625q.484375.453125.484375 1.03125.0.546875-.40625.984375-.390625.4375-.921875.4375t-.984375-.4375l-5.609375-5.09375v4.109375q0 .703125-.4375 1.0625-.421875.359375-1.078125.359375-.640625.0-1.0625-.359375t-.421875-1.0625V335.18533q0-.6875.421875-1.046875.421875-.375 1.0625-.375.65625.0 1.078125.375.4375.359375.4375 1.046875v9.03125l5.140625-4.921875q.421875-.4375.984375-.4375.546875.0.953125.40625t.40625.96875q0 .546875-.453125 1l-3.765625 3.5 4.171875 3.75zm11.539734-.890625q.40625.0.65625.3125.265625.3125.265625.84375.0.75-.890625 1.25-.8125.453125-1.859436.734375-1.03125.265625-1.953125.265625-2.84375.0-4.5-1.625-1.65625-1.640625-1.65625-4.46875.0-1.796875.71875-3.1875.734375-1.390625 2.03125-2.15625 1.3125-.78125 2.96875-.78125 1.578125.0 2.75.703125 1.187561.703125 1.828186 1.96875.65625 1.265625.65625 3 0 1.03125-.921875 1.03125h-7.078186q.15625 1.65625.9375 2.4375.796875.78125 2.3125.78125.765625.0 1.34375-.1875.59375-.203125 1.343811-.53125.71875-.390625 1.046875-.390625zm-4.140686-6.6875q-1.234375.0-1.96875.765625-.71875.765625-.875 2.203125h5.421875q-.046875-1.46875-.71875-2.21875t-1.859375-.75z" fill-rule="nonzero"/><path fill="#000" fill-opacity="0" d="m248.89764 167.89764 121.38583-2.2047272" fill-rule="evenodd"/><path stroke="#000" stroke-width="8" stroke-linejoin="round" stroke-linecap="butt" d="m248.89764 167.89764 93.97363-1.7068481" fill-rule="evenodd"/><path fill="#000" stroke="#000" stroke-width="8" stroke-linecap="butt" d="m342.8713 166.1908-8.831818 9.158569 24.55069-9.444061-24.877441-8.54631z" fill-rule="evenodd"/><path fill="#000" fill-opacity="0" d="m242.7769 313.60892 138.74016-115.27559" fill-rule="evenodd"/><path stroke="#000" stroke-width="4" stroke-linejoin="round" stroke-linecap="butt" d="m242.7769 313.60892 128.19637-106.51503" fill-rule="evenodd"/><path fill="#000" stroke="#000" stroke-width="4" stroke-linecap="butt" d="m370.97327 207.09389-.58514404 6.3346405 6.631256-11.358185-12.380737 4.438385z" fill-rule="evenodd"/><path fill="#000" fill-opacity="0" d="m248.89764 332.40158 121.38583-2.2047424" fill-rule="evenodd"/><path stroke="#000" stroke-width="8" stroke-linejoin="round" stroke-linecap="butt" d="m248.89764 332.40158 93.97363-1.7068481" fill-rule="evenodd"/><path fill="#000" stroke="#000" stroke-width="8" stroke-linecap="butt" d="m342.8713 330.69473-8.831818 9.158569 24.55069-9.444061-24.877441-8.546295z" fill-rule="evenodd"/><path fill="#000" fill-opacity="0" d="m242.7769 193.23885 138.74016 125.03938" fill-rule="evenodd"/><path stroke="#000" stroke-width="4" stroke-linejoin="round" stroke-linecap="butt" d="m242.7769 193.23885 128.55717 115.86192" fill-rule="evenodd"/><path fill="#000" stroke="#000" stroke-width="4" stroke-linecap="butt" d="m371.33405 309.1008-6.3530273.32998657 12.192261 4.9325867-6.16922-11.615631z" fill-rule="evenodd"/><path fill="#000" fill-opacity="0" d="m608.66144 169 121.3858-2.2047272" fill-rule="evenodd"/><path stroke="#000" stroke-width="8" stroke-linejoin="round" stroke-linecap="butt" d="m608.66144 169 93.97363-1.7068329" fill-rule="evenodd"/><path fill="#000" stroke="#000" stroke-width="8" stroke-linecap="butt" d="m702.6351 167.29317-8.831787 9.158554 24.55066-9.444061-24.877441-8.54631z" fill-rule="evenodd"/><path fill="#000" fill-opacity="0" d="m608.66144 332.40158 137.00787-.4409485" fill-rule="evenodd"/><path stroke="#000" stroke-width="8" stroke-linejoin="round" stroke-linecap="butt" d="m608.66144 332.40158 109.59125-.35272217" fill-rule="evenodd"/><path fill="#000" stroke="#000" stroke-width="8" stroke-linecap="butt" d="m718.25275 332.04886-8.967651 9.025574 24.689026-9.076172-24.746948-8.917053z" fill-rule="evenodd"/><path fill="#000" fill-opacity="0" d="m602.93964 330.2021 148.8504-82.74014" fill-rule="evenodd"/><path stroke="#000" stroke-width="8" stroke-linejoin="round" stroke-linecap="butt" d="m602.93964 330.2021 124.88696-69.41983" fill-rule="evenodd"/><path fill="#000" stroke="#000" stroke-width="8" stroke-linecap="butt" d="m727.82666 260.78226-3.4924927 12.234497 17.233704-19.872726-25.975708 4.145767z" fill-rule="evenodd"/><path fill="#000" fill-opacity="0" d="m597.76117 323.8084 140.75592-138.70868" fill-rule="evenodd"/><path stroke="#000" stroke-width="8" stroke-linejoin="round" stroke-linecap="butt" d="m597.76117 323.8084 121.227844-119.464676" fill-rule="evenodd"/><path fill="#000" stroke="#000" stroke-width="8" stroke-linecap="butt" d="m718.989 204.34373-.09320068 12.72287 11.291138-23.757904-23.920776 10.9418335z" fill-rule="evenodd"/><path fill="#000" fill-opacity="0" d="m605.93176 193.23885 142.86615 51.55905" fill-rule="evenodd"/><path stroke="#000" stroke-width="4" stroke-linejoin="round" stroke-linecap="butt" d="m605.93176 193.23885 129.9718 46.90561" fill-rule="evenodd"/><path fill="#000" stroke="#000" stroke-width="4" stroke-linecap="butt" d="m735.90356 240.14445-5.7582397 2.7042084 13.152222-.03579712-10.098206-8.426651z" fill-rule="evenodd"/><path fill="#000" fill-opacity="0" d="m605.93176 202.16536 132.59845 125.732285" fill-rule="evenodd"/><path stroke="#000" stroke-width="4" stroke-linejoin="round" stroke-linecap="butt" stroke-dasharray="16.0,12.0" d="m605.93176 202.16536 122.651 116.29997" fill-rule="evenodd"/><path fill="#000" stroke="#000" stroke-width="4" stroke-linecap="butt" d="m728.5828 318.46533-6.359375.16903687 12.063477 5.2397156-5.873169-11.768097z" fill-rule="evenodd"/></g></svg>