<svg viewBox="0 0 800 600" fill="none" stroke="none" stroke-linecap="square" stroke-miterlimit="10" xmlns:xlink="http://www.w3.org/1999/xlink" xmlns="http://www.w3.org/2000/svg"><clipPath id="p.0"><path d="m0 0h8e2v6e2H0V0z" clip-rule="nonzero"/></clipPath><g clip-path="url(#p.0)"><path fill="#000" fill-opacity="0" d="m0 0h8e2v6e2H0z" fill-rule="evenodd"/><path fill="#c9daf8" d="m195.53018 267.1706 15.125992-60.50392h360.7401l15.126038 60.50392z" fill-rule="evenodd"/><path stroke="#000" stroke-width="2" stroke-linejoin="round" stroke-linecap="butt" d="m195.53018 267.1706 15.125992-60.50392h360.7401l15.126038 60.50392z" fill-rule="evenodd"/><path fill="#000" d="m372.2754 231.69698v1.5625h-4.078125v11.359375h-1.8125V233.25948h-4.0625v-1.5625h9.953125zm.21725464 8.09375q0-1.296875.375-2.25.375-.96875.984375-1.59375.609375-.640625 1.40625-.953125.8125-.3125 1.65625-.3125 1.953125.0 3 1.21875t1.046875 3.71875q0 .109375.0.296875.0.171875-.015625.3125h-6.640625q.109375 1.515625.875 2.296875t2.390625.78125q.90625.0 1.53125-.15625t.9375-.296875l.25 1.453125q-.3125.15625-1.109375.34375t-1.796875.1875q-1.265625.0-2.203125-.375-.921875-.390625-1.515625-1.0625t-.890625-1.59375q-.28125-.921875-.28125-2.015625zm6.65625-.953125q.015625-1.171875-.59375-1.921875-.59375-.765625-1.65625-.765625-.609375.0-1.0625.234375t-.78125.609375q-.3125.375-.484375.859375t-.234375.984375h4.8125zm4.319458-3.640625q.59375-.15625 1.5625-.3125.984375-.171875 2.265625-.171875.9375.0 1.5625.25.640625.25 1.078125.734375.125-.09375.40625-.25.28125-.171875.6875-.328125.421875-.15625.921875-.28125t1.078125-.125q1.125.0 1.828125.328125t1.109375.921875.546875 1.421875q.140625.8125.140625 1.78125v5.453125h-1.734375v-5.078125q0-.859375-.09375-1.46875-.078125-.609375-.3125-1.015625-.234375-.421875-.640625-.609375-.390625-.203125-1.03125-.203125-.875.0-1.453125.234375-.5625.234375-.765625.421875.15625.484375.21875 1.0625.078125.578125.078125 1.203125v5.453125h-1.734375v-5.078125q0-.859375-.09375-1.46875t-.328125-1.015625q-.234375-.421875-.640625-.609375-.390625-.203125-1-.203125-.265625.0-.5625.015625t-.578125.046875q-.265625.03125-.5.078125-.21875.03125-.28125.046875v8.1875h-1.734375v-9.421875zm22.797424 4.59375q0-1.703125-.84375-2.609375-.84375-.921875-2.234375-.921875-.796875.0-1.234375.0625-.4375.046875-.6875.125v6.125q.3125.25.90625.5.59375.234375 1.3125.234375.734375.0 1.265625-.265625t.859375-.734375q.34375-.484375.5-1.125t.15625-1.390625zm1.796875.0q0 1.09375-.296875 2.03125-.28125.9375-.84375 1.609375-.546875.671875-1.359375 1.046875-.8125.359375-1.859375.359375-.84375.0-1.484375-.21875t-.953125-.421875v3.875h-1.734375v-12.859375q.609375-.140625 1.53125-.3125.921875-.1875 2.140625-.1875 1.109375.0 2 .359375.90625.34375 1.53125 1 .640625.65625.984375 1.609375.34375.9375.34375 2.109375zm11.019775-.015625q0 1.15625-.34375 2.09375-.328125.921875-.9375 1.59375t-1.453125 1.046875q-.828125.359375-1.828125.359375-.984375.0-1.828125-.359375-.84375-.375-1.453125-1.046875-.59375-.671875-.9375-1.59375-.328125-.9375-.328125-2.09375.0-1.140625.328125-2.078125.34375-.953125.9375-1.625.609375-.671875 1.453125-1.03125t1.828125-.359375q1 0 1.828125.359375.84375.359375 1.453125 1.03125t.9375 1.625q.34375.9375.34375 2.078125zm-1.8125.0q0-1.65625-.75-2.609375-.734375-.953125-2-.953125t-2 .953125-.734375 2.609375q0 1.640625.734375 2.609375.734375.953125 2 .953125t2-.953125q.75-.96875.75-2.609375z" fill-rule="nonzero"/><path fill="#a4c2f4" d="m180.7769 327.67093 15.125992-60.503937h390.22046l15.125977 60.503937z" fill-rule="evenodd"/><path stroke="#000" stroke-width="2" stroke-linejoin="round" stroke-linecap="butt" d="m180.7769 327.67093 15.125992-60.503937h390.22046l15.125977 60.503937z" fill-rule="evenodd"/><path fill="#000" d="m345.96057 299.65823q.3125.375.765625.984375.453125.59375.9375 1.34375.484375.734375.953125 1.53125.484375.796875.828125 1.546875h-1.984375q-.375-.703125-.8125-1.4375t-.890625-1.390625q-.4375-.65625-.875-1.234375t-.796875-1.015625q-.25.015625-.5.015625t-.515625.0h-1.609375v5.0625h-1.8125v-12.75q.765625-.171875 1.703125-.234375.9375-.078125 1.71875-.078125 2.734375.0 4.15625 1.03125t1.421875 3.0625q0 1.28125-.6875 2.203125-.671875.90625-2 1.359375zm-2.734375-6.0625q-1.15625.0-1.765625.046875v4.875h1.28125q.9375.0 1.671875-.09375.75-.09375 1.265625-.34375.515625-.265625.796875-.734375.28125-.484375.28125-1.28125.0-.71875-.28125-1.203125t-.765625-.765625q-.46875-.28125-1.125-.390625-.640625-.109375-1.359375-.109375zm7.5003967 6.640625q0-1.296875.375-2.25.375-.96875.984375-1.59375.609375-.640625 1.40625-.953125.8125-.3125 1.65625-.3125 1.953125.0 3 1.21875t1.046875 3.71875q0 .109375.0.296875.0.171875-.015625.3125h-6.640625q.109375 1.515625.875 2.296875t2.390625.78125q.90625.0 1.53125-.15625t.9375-.296875l.25 1.453125q-.3125.15625-1.109375.34375t-1.796875.1875q-1.265625.0-2.203125-.375-.921875-.390625-1.515625-1.0625t-.890625-1.59375q-.28125-.921875-.28125-2.015625zm6.65625-.953125q.015625-1.171875-.59375-1.921875-.59375-.765625-1.65625-.765625-.609375.0-1.0625.234375t-.78125.609375q-.3125.375-.484375.859375t-.234375.984375h4.8125zm6.5694885 4.53125q1.0625.0 1.578125-.28125t.515625-.890625q0-.640625-.515625-1.015625-.5-.375-1.65625-.828125-.5625-.234375-1.078125-.46875-.5-.234375-.875-.546875t-.609375-.765625q-.21875-.453125-.21875-1.09375.0-1.296875.953125-2.046875t2.59375-.75q.40625.0.8125.046875.421875.046875.765625.109375.359375.0625.625.140625.28125.0625.4375.125l-.328125 1.5q-.28125-.15625-.875-.3125t-1.4375-.15625q-.71875.0-1.265625.296875-.546875.28125-.546875.890625.0.3125.125.5625.125.234375.375.4375t.625.375q.375.15625.890625.34375.6875.265625 1.234375.515625t.921875.59375q.390625.328125.59375.8125.203125.46875.203125 1.15625.0 1.34375-1 2.03125t-2.84375.6875q-1.28125.0-2.015625-.21875-.734375-.203125-.984375-.3125l.3125-1.5q.296875.109375.953125.34375.65625.21875 1.734375.21875zm7.6800537-8.453125h3.6875v1.453125h-3.6875v4.484375q0 .71875.109375 1.203125.125.46875.34375.75.21875.265625.546875.375.34375.109375.796875.109375.78125.0 1.25-.171875.484375-.171875.671875-.25l.328125 1.4375q-.25.125-.90625.3125-.65625.203125-1.5.203125-.984375.0-1.625-.25t-1.03125-.75q-.390625-.515625-.5625-1.25-.15625-.734375-.15625-1.703125v-8.65625l1.734375-.296875v3zm16.934418 4.875q0-1.703125-.84375-2.609375-.84375-.921875-2.234375-.921875-.796875.0-1.234375.0625-.4375.046875-.6875.125v6.125q.3125.25.90625.5.59375.234375 1.3125.234375.734375.0 1.265625-.265625t.859375-.734375q.34375-.484375.5-1.125t.15625-1.390625zm1.796875.0q0 1.09375-.296875 2.03125-.28125.9375-.84375 1.609375-.546875.671875-1.359375 1.046875-.8125.359375-1.859375.359375-.84375.0-1.484375-.21875t-.953125-.421875v3.875h-1.734375V295.65823q.609375-.140625 1.53125-.3125.921875-.1875 2.140625-.1875 1.109375.0 2 .359375.90625.34375 1.53125 1 .640625.65625.984375 1.609375.34375.9375.34375 2.109375zm1.9104309.0q0-1.296875.375-2.25.375-.96875.984375-1.59375.609375-.640625 1.40625-.953125.8125-.3125 1.65625-.3125 1.953125.0 3 1.21875t1.046875 3.71875q0 .109375.0.296875.0.171875-.015625.3125h-6.640625q.109375 1.515625.875 2.296875t2.390625.78125q.90625.0 1.53125-.15625t.9375-.296875l.25 1.453125q-.3125.15625-1.109375.34375t-1.796875.1875q-1.265625.0-2.203125-.375-.921875-.390625-1.515625-1.0625t-.890625-1.59375q-.28125-.921875-.28125-2.015625zm6.65625-.953125q.015625-1.171875-.59375-1.921875-.59375-.765625-1.65625-.765625-.609375.0-1.0625.234375t-.78125.609375q-.3125.375-.484375.859375t-.234375.984375h4.8125zm7.897583-4.125q.21875.0.5.03125.296875.03125.578125.078125t.515625.09375.34375.078125l-.296875 1.515625q-.203125-.078125-.6875-.171875-.46875-.109375-1.21875-.109375-.484375.0-.96875.109375-.46875.09375-.609375.125v8.15625h-1.734375v-9.296875q.609375-.21875 1.515625-.40625.921875-.203125 2.0625-.203125zm5.3575745 9.90625h-1.734375v-9.703125h1.734375v9.703125zm-.890625-11.453125q-.453125.0-.78125-.3125t-.328125-.828125.328125-.828125.78125-.3125q.46875.0.796875.3125t.328125.828125-.328125.828125-.796875.3125zm12.438782 6.609375q0 1.15625-.34375 2.09375-.328125.921875-.9375 1.59375t-1.453125 1.046875q-.828125.359375-1.828125.359375-.984375.0-1.828125-.359375-.84375-.375-1.453125-1.046875-.59375-.671875-.9375-1.59375-.328125-.9375-.328125-2.09375.0-1.140625.328125-2.078125.34375-.953125.9375-1.625.609375-.671875 1.453125-1.03125t1.828125-.359375q1 0 1.828125.359375.84375.359375 1.453125 1.03125t.9375 1.625q.34375.9375.34375 2.078125zm-1.8125.0q0-1.65625-.75-2.609375-.734375-.953125-2-.953125t-2 .953125-.734375 2.609375q0 1.640625.734375 2.609375.734375.953125 2 .953125t2-.953125q.75-.96875.75-2.609375zm10.522797-2.8125q-.328125-.25-.921875-.484375-.59375-.25-1.296875-.25-.75.0-1.28125.265625t-.875.75q-.328125.46875-.484375 1.125-.140625.65625-.140625 1.40625.0 1.6875.828125 2.609375.84375.921875 2.25.921875.703125.0 1.171875-.0625.484375-.0625.75-.140625v-6.140625zm0-6.515625 1.734375-.3125v14.203125q-.59375.171875-1.53125.328125-.9375.171875-2.140625.171875-1.125.0-2.03125-.34375-.890625-.359375-1.53125-1.015625-.625-.65625-.96875-1.59375t-.34375-2.109375q0-1.125.28125-2.046875.296875-.9375.859375-1.609375t1.359375-1.046875q.8125-.375 1.859375-.375.84375.0 1.484375.21875t.96875.4375v-4.90625zm6.972931 12.921875q1.0625.0 1.578125-.28125t.515625-.890625q0-.640625-.515625-1.015625-.5-.375-1.65625-.828125-.5625-.234375-1.078125-.46875-.5-.234375-.875-.546875t-.609375-.765625q-.21875-.453125-.21875-1.09375.0-1.296875.953125-2.046875t2.59375-.75q.40625.0.8125.046875.421875.046875.765625.109375.359375.0625.625.140625.28125.0625.4375.125l-.328125 1.5q-.28125-.15625-.875-.3125t-1.4375-.15625q-.71875.0-1.265625.296875-.546875.28125-.546875.890625.0.3125.125.5625.125.234375.375.4375t.625.375q.375.15625.890625.34375.6875.265625 1.234375.515625t.921875.59375q.390625.328125.59375.8125.203125.46875.203125 1.15625.0 1.34375-1 2.03125t-2.84375.6875q-1.28125.0-2.015625-.21875-.734375-.203125-.984375-.3125l.3125-1.5q.296875.109375.953125.34375.65625.21875 1.734375.21875z" fill-rule="nonzero"/><path fill="#6d9eeb" d="m166.02368 388.17114 15.125992-60.503937h419.7323l15.125977 60.503937z" fill-rule="evenodd"/><path stroke="#000" stroke-width="2" stroke-linejoin="round" stroke-linecap="butt" d="m166.02368 388.17114 15.125992-60.503937h419.7323l15.125977 60.503937z" fill-rule="evenodd"/><path fill="#000" d="m317.16068 365.51712v-12.921875h7.890625v1.546875h-6.078125v3.84375h5.40625v1.5h-5.40625v4.484375h6.546875v1.546875h-8.359375zm16.50824.0q-.203125-.40625-.5-.90625-.296875-.515625-.65625-1.046875t-.734375-1.046875q-.375-.53125-.71875-1-.359375.46875-.734375 1t-.71875 1.0625-.640625 1.046875q-.296875.5-.5.890625h-1.796875q.65625-1.265625 1.5625-2.578125.90625-1.328125 1.796875-2.515625l-3.203125-4.609375h1.953125l2.3125 3.390625 2.328125-3.390625h1.859375l-3.140625 4.5q.890625 1.203125 1.828125 2.5625.953125 1.359375 1.609375 2.640625h-1.90625zm2.797577-4.828125q0-1.296875.375-2.25.375-.96875.984375-1.59375.609375-.640625 1.40625-.953125.8125-.3125 1.65625-.3125 1.953125.0 3 1.21875t1.046875 3.71875q0 .109375.0.296875.0.171875-.015625.3125h-6.640625q.109375 1.515625.875 2.296875t2.390625.78125q.90625.0 1.53125-.15625t.9375-.296875l.25 1.453125q-.3125.15625-1.109375.34375t-1.796875.1875q-1.265625.0-2.203125-.375-.921875-.390625-1.515625-1.0625t-.890625-1.59375q-.28125-.921875-.28125-2.015625zm6.65625-.953125q.015625-1.171875-.59375-1.921875-.59375-.765625-1.65625-.765625-.609375.0-1.0625.234375t-.78125.609375q-.3125.375-.484375.859375t-.234375.984375h4.8125zm7.8976135-4.125q.21875.0.5.03125.296875.03125.578125.078125t.515625.09375.34375.078125l-.296875 1.515625q-.203125-.078125-.6875-.171875-.46875-.109375-1.21875-.109375-.484375.0-.96875.109375-.46875.09375-.609375.125v8.15625h-1.734375v-9.296875q.609375-.21875 1.515625-.40625.921875-.203125 2.0625-.203125zm7.826294 10.125q-1.171875.0-2.0625-.359375-.875-.375-1.484375-1.046875t-.90625-1.59375q-.296875-.9375-.296875-2.046875.0-1.125.328125-2.046875.328125-.9375.921875-1.609375.59375-.6875 1.453125-1.0625.875-.390625 1.9375-.390625.65625.0 1.3125.109375t1.25.34375l-.390625 1.484375q-.390625-.1875-.90625-.296875t-1.09375-.109375q-1.453125.0-2.234375.921875-.765625.90625-.765625 2.65625.0.78125.171875 1.4375.171875.640625.546875 1.109375.390625.46875.984375.71875.609375.25 1.46875.25.6875.0 1.25-.125t.875-.28125l.234375 1.453125q-.140625.09375-.421875.1875-.28125.078125-.640625.140625-.34375.0625-.75.109375t-.78125.046875zm6.206421-.21875h-1.734375v-9.703125h1.734375v9.703125zm-.890625-11.453125q-.453125.0-.78125-.3125t-.328125-.828125.328125-.828125.78125-.3125q.46875.0.796875.3125t.328125.828125-.328125.828125-.796875.3125zm6.1262817 10.203125q1.0625.0 1.578125-.28125t.515625-.890625q0-.640625-.515625-1.015625-.5-.375-1.65625-.828125-.5625-.234375-1.078125-.46875-.5-.234375-.875-.546875t-.609375-.765625q-.21875-.453125-.21875-1.09375.0-1.296875.953125-2.046875t2.59375-.75q.40625.0.8125.046875.421875.046875.765625.109375.359375.0625.625.140625.28125.0625.4375.125l-.328125 1.5q-.28125-.15625-.875-.3125t-1.4375-.15625q-.71875.0-1.265625.296875-.546875.28125-.546875.890625.0.3125.125.5625.125.234375.375.4375t.625.375q.375.15625.890625.34375.6875.265625 1.234375.515625t.921875.59375q.390625.328125.59375.8125.203125.46875.203125 1.15625.0 1.34375-1 2.03125t-2.84375.6875q-1.28125.0-2.015625-.21875-.734375-.203125-.984375-.3125l.3125-1.5q.296875.109375.953125.34375.65625.21875 1.734375.21875zm5.5238037-3.578125q0-1.296875.375-2.25.375-.96875.984375-1.59375.609375-.640625 1.40625-.953125.8125-.3125 1.65625-.3125 1.953125.0 3 1.21875t1.046875 3.71875q0 .109375.0.296875.0.171875-.015625.3125h-6.640625q.109375 1.515625.875 2.296875t2.390625.78125q.90625.0 1.53125-.15625t.9375-.296875l.25 1.453125q-.3125.15625-1.109375.34375t-1.796875.1875q-1.265625.0-2.203125-.375-.921875-.390625-1.515625-1.0625t-.890625-1.59375q-.28125-.921875-.28125-2.015625zm6.65625-.953125q.015625-1.171875-.59375-1.921875-.59375-.765625-1.65625-.765625-.609375.0-1.0625.234375t-.78125.609375q-.3125.375-.484375.859375t-.234375.984375h4.8125zm10.879089 4.53125q1.0625.0 1.578125-.28125t.515625-.890625q0-.640625-.515625-1.015625-.5-.375-1.65625-.828125-.5625-.234375-1.078125-.46875-.5-.234375-.875-.546875t-.609375-.765625q-.21875-.453125-.21875-1.09375.0-1.296875.953125-2.046875t2.59375-.75q.40625.0.8125.046875.421875.046875.765625.109375.359375.0625.625.140625.28125.0625.4375.125l-.328125 1.5q-.28125-.15625-.875-.3125t-1.4375-.15625q-.71875.0-1.265625.296875-.546875.28125-.546875.890625.0.3125.125.5625.125.234375.375.4375t.625.375q.375.15625.890625.34375.6875.265625 1.234375.515625t.921875.59375q.390625.328125.59375.8125.203125.46875.203125 1.15625.0 1.34375-1 2.03125t-2.84375.6875q-1.28125.0-2.015625-.21875-.734375-.203125-.984375-.3125l.3125-1.5q.296875.109375.953125.34375.65625.21875 1.734375.21875zm5.5238037-3.578125q0-1.296875.375-2.25.375-.96875.984375-1.59375.609375-.640625 1.40625-.953125.8125-.3125 1.65625-.3125 1.953125.0 3 1.21875t1.046875 3.71875q0 .109375.0.296875.0.171875-.015625.3125h-6.640625q.109375 1.515625.875 2.296875t2.390625.78125q.90625.0 1.53125-.15625t.9375-.296875l.25 1.453125q-.3125.15625-1.109375.34375t-1.796875.1875q-1.265625.0-2.203125-.375-.921875-.390625-1.515625-1.0625t-.890625-1.59375q-.28125-.921875-.28125-2.015625zm6.65625-.953125q.015625-1.171875-.59375-1.921875-.59375-.765625-1.65625-.765625-.609375.0-1.0625.234375t-.78125.609375q-.3125.375-.484375.859375t-.234375.984375h4.8125zm7.2257385 5.96875q-1.609375-.03125-2.28125-.6875t-.671875-2.03125v-11.640625l1.734375-.3125v11.671875q0 .421875.078125.703125t.234375.453125q.171875.15625.453125.25.28125.078125.6875.140625l-.234375 1.453125zm1.6400146-5.015625q0-1.296875.375-2.25.375-.96875.984375-1.59375.609375-.640625 1.40625-.953125.8125-.3125 1.65625-.3125 1.953125.0 3 1.21875t1.046875 3.71875q0 .109375.0.296875.0.171875-.015625.3125h-6.640625q.109375 1.515625.875 2.296875t2.390625.78125q.90625.0 1.53125-.15625t.9375-.296875l.25 1.453125q-.3125.15625-1.109375.34375t-1.796875.1875q-1.265625.0-2.203125-.375-.921875-.390625-1.515625-1.0625t-.890625-1.59375q-.28125-.921875-.28125-2.015625zm6.65625-.953125q.015625-1.171875-.59375-1.921875-.59375-.765625-1.65625-.765625-.609375.0-1.0625.234375t-.78125.609375q-.3125.375-.484375.859375t-.234375.984375h4.8125zm8.522614 6q-1.171875.0-2.0625-.359375-.875-.375-1.484375-1.046875t-.90625-1.59375q-.296875-.9375-.296875-2.046875.0-1.125.328125-2.046875.328125-.9375.921875-1.609375.59375-.6875 1.453125-1.0625.875-.390625 1.9375-.390625.65625.0 1.3125.109375t1.25.34375l-.390625 1.484375q-.390625-.1875-.90625-.296875t-1.09375-.109375q-1.453125.0-2.234375.921875-.765625.90625-.765625 2.65625.0.78125.171875 1.4375.171875.640625.546875 1.109375.390625.46875.984375.71875.609375.25 1.46875.25.6875.0 1.25-.125t.875-.28125l.23434448 1.453125q-.14059448.09375-.42184448.1875-.28125.078125-.640625.140625-.34375.0625-.75.109375t-.78125.046875zm6.0813904-9.921875h3.6875v1.453125h-3.6875v4.484375q0 .71875.109375 1.203125.125.46875.34375.75.21875.265625.546875.375.34375.109375.796875.109375.78125.0 1.25-.171875.484375-.171875.671875-.25l.328125 1.4375q-.25.125-.90625.3125-.65625.203125-1.5.203125-.984375.0-1.625-.25t-1.03125-.75q-.390625-.515625-.5625-1.25-.15625-.734375-.15625-1.703125v-8.65625l1.734375-.296875v3zm7.624817 9.703125h-1.734375v-9.703125h1.734375v9.703125zm-.890625-11.453125q-.453125.0-.78125-.3125t-.328125-.828125.328125-.828125.78125-.3125q.46875.0.796875.3125t.328125.828125-.328125.828125-.796875.3125zm12.438782 6.609375q0 1.15625-.34375 2.09375-.328125.921875-.9375 1.59375t-1.453125 1.046875q-.828125.359375-1.828125.359375-.984375.0-1.828125-.359375-.84375-.375-1.453125-1.046875-.59375-.671875-.9375-1.59375-.328125-.9375-.328125-2.09375.0-1.140625.328125-2.078125.34375-.953125.9375-1.625.609375-.671875 1.453125-1.03125t1.828125-.359375q1 0 1.828125.359375.84375.359375 1.453125 1.03125t.9375 1.625q.34375.9375.34375 2.078125zm-1.8125.0q0-1.65625-.75-2.609375-.734375-.953125-2-.953125t-2 .953125-.734375 2.609375q0 1.640625.734375 2.609375.734375.953125 2 .953125t2-.953125q.75-.96875.75-2.609375zm4.257202-4.578125q.59375-.15625 1.578125-.3125.984375-.171875 2.28125-.171875 1.15625.0 1.921875.328125t1.21875.921875q.453125.578125.640625 1.40625.1875.8125.1875 1.796875v5.453125h-1.734375v-5.078125q0-.890625-.125-1.515625-.125-.640625-.40625-1.03125-.265625-.390625-.734375-.5625-.46875-.1875-1.15625-.1875-.28125.0-.578125.015625t-.578125.046875q-.265625.03125-.484375.078125-.203125.03125-.296875.046875v8.1875h-1.734375v-9.421875z" fill-rule="nonzero"/><path fill="#cfe2f3" d="m151.27048 448.6713 15.125977-60.503937h450.7244l15.125977 60.503937z" fill-rule="evenodd"/><path stroke="#000" stroke-width="2" stroke-linejoin="round" stroke-linecap="butt" d="m151.27048 448.6713 15.125977-60.503937h450.7244l15.125977 60.503937z" fill-rule="evenodd"/><path fill="#000" d="m346.26877 412.91107q2.734375.0 4.1875 1.046875 1.46875 1.03125 1.46875 3.078125.0 1.125-.40625 1.921875-.390625.78125-1.15625 1.28125-.75.484375-1.828125.71875-1.078125.21875-2.453125.21875h-1.421875v4.796875h-1.8125v-12.75q.765625-.171875 1.703125-.234375.9375-.078125 1.71875-.078125zm.15625 1.59375q-1.15625.0-1.765625.046875v5.078125h1.359375q.921875.0 1.671875-.109375.75-.125 1.265625-.40625.515625-.296875.78125-.796875.28125-.515625.28125-1.296875.0-.75-.296875-1.234375-.28125-.484375-.78125-.765625-.484375-.296875-1.140625-.40625t-1.375-.109375zm11.233643 1.5625q.21875.0.5.03125.296875.03125.578125.078125t.515625.09375.34375.078125l-.296875 1.515625q-.203125-.078125-.6875-.171875-.46875-.109375-1.21875-.109375-.484375.0-.96875.109375-.46875.09375-.609375.125v8.15625h-1.734375v-9.296875q.609375-.21875 1.515625-.40625.921875-.203125 2.0625-.203125zm12.185669 5.0625q0 1.15625-.34375 2.09375-.328125.921875-.9375 1.59375t-1.453125 1.046875q-.828125.359375-1.828125.359375-.984375.0-1.828125-.359375-.84375-.375-1.453125-1.046875-.59375-.671875-.9375-1.59375-.328125-.9375-.328125-2.09375.0-1.140625.328125-2.078125.34375-.953125.9375-1.625.609375-.671875 1.453125-1.03125t1.828125-.359375q1 0 1.828125.359375.84375.359375 1.453125 1.03125t.9375 1.625q.34375.9375.34375 2.078125zm-1.8125.0q0-1.65625-.75-2.609375-.734375-.953125-2-.953125t-2 .953125-.734375 2.609375q0 1.640625.734375 2.609375.734375.953125 2 .953125t2-.953125q.75-.96875.75-2.609375zm10.335327 3.875q-.234375.140625-.875.375t-1.5.234375q-.875.0-1.65625-.28125-.765625-.28125-1.34375-.859375-.578125-.59375-.921875-1.46875-.328125-.875-.328125-2.09375.0-1.0625.3125-1.9375.3125-.890625.921875-1.53125t1.484375-1q.875-.375 1.984375-.375 1.203125.0 2.109375.1875.90625.171875 1.53125.3125v8.65625q0 2.25-1.15625 3.25t-3.515625 1q-.90625.0-1.71875-.15625-.8125-.140625-1.40625-.34375l.3125-1.5q.515625.203125 1.265625.359375.765625.15625 1.59375.15625 1.546875.0 2.21875-.625.6875-.609375.6875-1.953125v-.40625zm-.015625-7.203125q-.265625-.078125-.703125-.140625t-1.1875-.0625q-1.40625.0-2.15625.921875-.75.90625-.75 2.421875.0.828125.203125 1.4375.21875.59375.578125.984375.375.390625.84375.578125.484375.1875.984375.1875.6875.0 1.265625-.1875.578125-.203125.921875-.46875v-5.671875zm8.29892-1.734375q.21875.0.5.03125.296875.03125.578125.078125t.515625.09375.34375.078125l-.296875 1.515625q-.203125-.078125-.6875-.171875-.46875-.109375-1.21875-.109375-.484375.0-.96875.109375-.46875.09375-.609375.125v8.15625h-1.734375v-9.296875q.609375-.21875 1.515625-.40625.921875-.203125 2.0625-.203125zm3.0763245 5.078125q0-1.296875.375-2.25.375-.96875.984375-1.59375.609375-.640625 1.40625-.953125.8125-.3125 1.65625-.3125 1.953125.0 3 1.21875t1.046875 3.71875q0 .109375.0.296875.0.171875-.015625.3125h-6.640625q.109375 1.515625.875 2.296875t2.390625.78125q.90625.0 1.53125-.15625t.9375-.296875l.25 1.453125q-.3125.15625-1.109375.34375t-1.796875.1875q-1.265625.0-2.203125-.375-.921875-.390625-1.515625-1.0625t-.890625-1.59375q-.28125-.921875-.28125-2.015625zm6.65625-.953125q.015625-1.171875-.59375-1.921875-.59375-.765625-1.65625-.765625-.609375.0-1.0625.234375t-.78125.609375q-.3125.375-.484375.859375t-.234375.984375h4.8125zm6.569458 4.53125q1.0625.0 1.578125-.28125t.515625-.890625q0-.640625-.515625-1.015625-.5-.375-1.65625-.828125-.5625-.234375-1.078125-.46875-.5-.234375-.875-.546875t-.609375-.765625q-.21875-.453125-.21875-1.09375.0-1.296875.953125-2.046875t2.59375-.75q.40625.0.8125.046875.421875.046875.765625.109375.359375.0625.625.140625.28125.0625.4375.125l-.328125 1.5q-.28125-.15625-.875-.3125t-1.4375-.15625q-.71875.0-1.265625.296875-.546875.28125-.546875.890625.0.3125.125.5625.125.234375.375.4375t.625.375q.375.15625.890625.34375.6875.265625 1.234375.515625t.921875.59375q.390625.328125.59375.8125.203125.46875.203125 1.15625.0 1.34375-1 2.03125t-2.84375.6875q-1.28125.0-2.015625-.21875-.734375-.203125-.984375-.3125l.3125-1.5q.296875.109375.953125.34375.65625.21875 1.734375.21875zm8.320709.0q1.0625.0 1.578125-.28125t.515625-.890625q0-.640625-.515625-1.015625-.5-.375-1.65625-.828125-.5625-.234375-1.078125-.46875-.5-.234375-.875-.546875t-.609375-.765625q-.21875-.453125-.21875-1.09375.0-1.296875.953125-2.046875t2.59375-.75q.40625.0.8125.046875.421875.046875.765625.109375.359375.0625.625.140625.28125.0625.4375.125l-.328125 1.5q-.28125-.15625-.875-.3125t-1.4375-.15625q-.71875.0-1.265625.296875-.546875.28125-.546875.890625.0.3125.125.5625.125.234375.375.4375t.625.375q.375.15625.890625.34375.6875.265625 1.234375.515625t.921875.59375q.390625.328125.59375.8125.203125.46875.203125 1.15625.0 1.34375-1 2.03125t-2.84375.6875q-1.28125.0-2.015625-.21875-.734375-.203125-.984375-.3125l.3125-1.5q.296875.109375.953125.34375.65625.21875 1.734375.21875zm7.8050537 1.25h-1.734375v-9.703125h1.734375v9.703125zm-.890625-11.453125q-.453125.0-.78125-.3125t-.328125-.828125.328125-.828125.78125-.3125q.46875.0.796875.3125t.328125.828125-.328125.828125-.796875.3125zm12.438782 6.609375q0 1.15625-.34375 2.09375-.328125.921875-.9375 1.59375t-1.453125 1.046875q-.828125.359375-1.828125.359375-.984375.0-1.828125-.359375-.84375-.375-1.453125-1.046875-.59375-.671875-.9375-1.59375-.328125-.9375-.328125-2.09375.0-1.140625.328125-2.078125.34375-.953125.9375-1.625.609375-.671875 1.453125-1.03125t1.828125-.359375q1 0 1.828125.359375.84375.359375 1.453125 1.03125t.9375 1.625q.34375.9375.34375 2.078125zm-1.8125.0q0-1.65625-.75-2.609375-.734375-.953125-2-.953125t-2 .953125-.734375 2.609375q0 1.640625.734375 2.609375.734375.953125 2 .953125t2-.953125q.75-.96875.75-2.609375zm4.2571716-4.578125q.59375-.15625 1.578125-.3125.984375-.171875 2.28125-.171875 1.15625.0 1.921875.328125t1.21875.921875q.453125.578125.640625 1.40625.1875.8125.1875 1.796875v5.453125h-1.734375v-5.078125q0-.890625-.125-1.515625-.125-.640625-.40625-1.03125-.265625-.390625-.734375-.5625-.46875-.1875-1.15625-.1875-.28125.0-.578125.015625t-.578125.046875q-.265625.03125-.484375.078125-.203125.03125-.296875.046875v8.1875h-1.734375v-9.421875z" fill-rule="nonzero"/><path fill="#9fc5e8" d="m136.51726 509.17154 15.125977-60.503937h480.17322l15.125977 60.503937z" fill-rule="evenodd"/><path stroke="#000" stroke-width="2" stroke-linejoin="round" stroke-linecap="butt" d="m136.51726 509.17154 15.125977-60.503937h480.17322l15.125977 60.503937z" fill-rule="evenodd"/><path fill="#000" d="m282.77246 473.51535q-.703125 2.046875-1.34375 3.796875-.640625 1.734375-1.265625 3.3125-.609375 1.5625-1.21875 2.984375t-1.234375 2.828125h-1.703125q-.640625-1.40625-1.25-2.828125-.59375-1.421875-1.21875-2.984375-.625-1.578125-1.28125-3.3125-.65625-1.75-1.34375-3.796875h2q1 2.9375 1.96875 5.671875.96875 2.71875 2 5.109375 1.03125-2.375 2-5.109375t1.953125-5.671875h1.9375zm9.414154 8.078125q0 1.15625-.34375 2.09375-.328125.921875-.9375 1.59375t-1.453125 1.046875q-.828125.359375-1.828125.359375-.984375.0-1.828125-.359375-.84375-.375-1.453125-1.046875-.59375-.671875-.9375-1.59375-.328125-.9375-.328125-2.09375.0-1.140625.328125-2.078125.34375-.953125.9375-1.625.609375-.671875 1.453125-1.03125t1.828125-.359375q1 0 1.828125.359375.84375.359375 1.453125 1.03125t.9375 1.625q.34375.9375.34375 2.078125zm-1.8125.0q0-1.65625-.75-2.609375-.734375-.953125-2-.953125t-2 .953125-.734375 2.609375q0 1.640625.734375 2.609375.734375.953125 2 .953125t2-.953125q.75-.96875.75-2.609375zm7.1634216 5.03125q-1.609375-.03125-2.28125-.6875t-.671875-2.03125V472.26535l1.734375-.3125v11.671875q0 .421875.078125.703125t.234375.453125q.171875.15625.453125.25.28125.078125.6875.140625l-.234375 1.453125zm9.90567-.46875q-.59375.15625-1.578125.3125-.984375.171875-2.265625.171875-1.125.0-1.890625-.328125t-1.234375-.921875q-.453125-.59375-.671875-1.40625-.203125-.8125-.203125-1.796875V476.7341h1.734375v5.078125q0 1.765625.5625 2.53125t1.890625.765625q.28125.0.578125-.015625t.546875-.046875q.265625-.03125.484375-.046875.21875-.03125.3125-.078125v-8.1875h1.734375v9.421875zm2.9899292-9.140625q.59375-.15625 1.5625-.3125.984375-.171875 2.265625-.171875.9375.0 1.5625.25.640625.25 1.078125.734375.125-.09375.40625-.25.28125-.171875.6875-.328125.421875-.15625.921875-.28125t1.078125-.125q1.125.0 1.828125.328125t1.109375.921875.546875 1.421875q.140625.8125.140625 1.78125v5.453125h-1.734375V481.3591q0-.859375-.09375-1.46875-.078125-.609375-.3125-1.015625-.234375-.421875-.640625-.609375-.390625-.203125-1.03125-.203125-.875.0-1.453125.234375-.5625.234375-.765625.421875.15625.484375.21875 1.0625.078125.578125.078125 1.203125v5.453125h-1.734375V481.3591q0-.859375-.09375-1.46875t-.328125-1.015625q-.234375-.421875-.640625-.609375-.390625-.203125-1-.203125-.265625.0-.5625.015625t-.578125.046875q-.265625.03125-.5.078125-.21875.03125-.28125.046875v8.1875h-1.734375v-9.421875zm15.516174 4.59375q0-1.296875.375-2.25.375-.96875.984375-1.59375.609375-.640625 1.40625-.953125.8125-.3125 1.65625-.3125 1.953125.0 3 1.21875t1.046875 3.71875q0 .109375.0.296875.0.171875-.015625.3125h-6.640625q.109375 1.515625.875 2.296875t2.390625.78125q.90625.0 1.53125-.15625t.9375-.296875l.25 1.453125q-.3125.15625-1.109375.34375t-1.796875.1875q-1.265625.0-2.203125-.375-.921875-.390625-1.515625-1.0625t-.890625-1.59375q-.28125-.921875-.28125-2.015625zm6.65625-.953125q.015625-1.171875-.59375-1.921875-.59375-.765625-1.65625-.765625-.609375.0-1.0625.234375t-.78125.609375q-.3125.375-.484375.859375t-.234375.984375h4.8125zm6.147583 3.65625q.015625.140625.015625.28125t0 .296875q0 1.171875-.34375 2.3125-.34375 1.15625-.953125 2.203125l-1.34375-.4375q.46875-.953125.609375-1.9375.15625-.96875.15625-1.828125.0-.234375-.015625-.453125.0-.234375-.015625-.4375h1.890625zm8.805298 2.125h-1.734375V476.7341h1.734375v9.703125zm-.890625-11.453125q-.453125.0-.78125-.3125t-.328125-.828125.328125-.828125.78125-.3125q.46875.0.796875.3125t.328125.828125-.328125.828125-.796875.3125zm3.8762817 2.03125q.59375-.15625 1.578125-.3125.984375-.171875 2.28125-.171875 1.15625.0 1.921875.328125t1.21875.921875q.453125.578125.640625 1.40625.1875.8125.1875 1.796875v5.453125h-1.734375V481.3591q0-.890625-.125-1.515625-.125-.640625-.40625-1.03125-.265625-.390625-.734375-.5625-.46875-.1875-1.15625-.1875-.28125.0-.578125.015625t-.578125.046875q-.265625.03125-.484375.078125-.203125.03125-.296875.046875v8.1875h-1.734375v-9.421875zm12.318054-.28125h3.6875v1.453125h-3.6875v4.484375q0 .71875.109375 1.203125.125.46875.34375.75.21875.265625.546875.375.34375.109375.796875.109375.78125.0 1.25-.171875.484375-.171875.671875-.25l.328125 1.4375q-.25.125-.90625.3125-.65625.203125-1.5.203125-.984375.0-1.625-.25t-1.03125-.75q-.390625-.515625-.5625-1.25-.15625-.734375-.15625-1.703125v-8.65625l1.734375-.296875v3zm5.1569214 4.875q0-1.296875.375-2.25.375-.96875.984375-1.59375.609375-.640625 1.40625-.953125.8125-.3125 1.65625-.3125 1.953125.0 3 1.21875t1.046875 3.71875q0 .109375.0.296875.0.171875-.015625.3125h-6.640625q.109375 1.515625.875 2.296875t2.390625.78125q.90625.0 1.53125-.15625t.9375-.296875l.25 1.453125q-.3125.15625-1.109375.34375t-1.796875.1875q-1.265625.0-2.203125-.375-.921875-.390625-1.515625-1.0625t-.890625-1.59375q-.28125-.921875-.28125-2.015625zm6.65625-.953125q.015625-1.171875-.59375-1.921875-.59375-.765625-1.65625-.765625-.609375.0-1.0625.234375t-.78125.609375q-.3125.375-.484375.859375t-.234375.984375h4.8125zm4.319458-3.640625q.59375-.15625 1.578125-.3125.984375-.171875 2.28125-.171875 1.15625.0 1.921875.328125t1.21875.921875q.453125.578125.640625 1.40625.1875.8125.1875 1.796875v5.453125h-1.734375V481.3591q0-.890625-.125-1.515625-.125-.640625-.40625-1.03125-.265625-.390625-.734375-.5625-.46875-.1875-1.15625-.1875-.28125.0-.578125.015625t-.578125.046875q-.265625.03125-.484375.078125-.203125.03125-.296875.046875v8.1875h-1.734375v-9.421875zm12.95871 8.171875q1.0625.0 1.578125-.28125t.515625-.890625q0-.640625-.515625-1.015625-.5-.375-1.65625-.828125-.5625-.234375-1.078125-.46875-.5-.234375-.875-.546875t-.609375-.765625q-.21875-.453125-.21875-1.09375.0-1.296875.953125-2.046875t2.59375-.75q.40625.0.8125.046875.421875.046875.765625.109375.359375.0625.625.140625.28125.0625.4375.125l-.328125 1.5q-.28125-.15625-.875-.3125t-1.4375-.15625q-.71875.0-1.265625.296875-.546875.28125-.546875.890625.0.3125.125.5625.125.234375.375.4375t.625.375q.375.15625.890625.34375.6875.265625 1.234375.515625t.921875.59375q.390625.328125.59375.8125.203125.46875.203125 1.15625.0 1.34375-1 2.03125t-2.84375.6875q-1.28125.0-2.015625-.21875-.734375-.203125-.984375-.3125l.3125-1.5q.296875.109375.953125.34375.65625.21875 1.734375.21875zm7.8050537 1.25h-1.734375V476.7341h1.734375v9.703125zm-.890625-11.453125q-.453125.0-.78125-.3125t-.328125-.828125.328125-.828125.78125-.3125q.46875.0.796875.3125t.328125.828125-.328125.828125-.796875.3125zm5.4856567 1.75h3.6875v1.453125h-3.6875v4.484375q0 .71875.109375 1.203125.125.46875.34375.75.21875.265625.546875.375.34375.109375.796875.109375.78125.0 1.25-.171875.484375-.171875.671875-.25l.328125 1.4375q-.25.125-.90625.3125-.65625.203125-1.5.203125-.984375.0-1.625-.25t-1.03125-.75q-.390625-.515625-.5625-1.25-.15625-.734375-.15625-1.703125v-8.65625l1.734375-.296875v3zm4.749817 11.515625q.203125.09375.53125.171875.328125.09375.640625.09375 1.03125.0 1.609375-.46875.578125-.453125 1.03125-1.484375-1.171875-2.234375-2.1875-4.734375-1.015625-2.515625-1.6875-5.09375h1.875q.203125.84375.484375 1.8125.296875.96875.640625 2 .359375 1.015625.765625 2.046875.421875 1.03125.859375 1.984375.71875-1.96875 1.234375-3.890625t.984375-3.953125h1.796875q-.671875 2.75-1.5 5.28125-.8125 2.515625-1.765625 4.71875-.375.84375-.78125 1.4375-.390625.609375-.875 1-.484375.40625-1.09375.578125-.609375.1875-1.375.1875-.203125.0-.4375-.03125-.21875-.015625-.4375-.0625-.203125-.046875-.390625-.109375-.171875-.046875-.25-.09375l.328125-1.390625zm12.240906-3.9375q.015625.140625.015625.28125t0 .296875q0 1.171875-.34375 2.3125-.34375 1.15625-.953125 2.203125l-1.34375-.4375q.46875-.953125.609375-1.9375.15625-.96875.15625-1.828125.0-.234375-.015625-.453125.0-.234375-.015625-.4375h1.890625zm10.852173-12.359375q.765625.0 1.3125.125.546875.109375.78125.203125l-.328125 1.484375q-.21875-.109375-.640625-.203125-.40625-.109375-1-.109375-1.203125.0-1.6875.671875-.484375.65625-.484375 1.765625v.84375h3.71875v1.453125h-3.71875v8.25h-1.734375V475.8591q0-1.859375.90625-2.875.921875-1.03125 2.875-1.03125zm6.998169 4.578125q.21875.0.5.03125.296875.03125.578125.078125t.515625.09375.34375.078125l-.296875 1.515625q-.203125-.078125-.6875-.171875-.46875-.109375-1.21875-.109375-.484375.0-.96875.109375-.46875.09375-.609375.125v8.15625h-1.734375v-9.296875q.609375-.21875 1.515625-.40625.921875-.203125 2.0625-.203125zm3.0763245 5.078125q0-1.296875.375-2.25.375-.96875.984375-1.59375.609375-.640625 1.40625-.953125.8125-.3125 1.65625-.3125 1.953125.0 3 1.21875t1.046875 3.71875q0 .109375.0.296875.0.171875-.015625.3125h-6.640625q.109375 1.515625.875 2.296875t2.390625.78125q.90625.0 1.53125-.15625t.9375-.296875l.25 1.453125q-.3125.15625-1.109375.34375t-1.796875.1875q-1.265625.0-2.203125-.375-.921875-.390625-1.515625-1.0625t-.890625-1.59375q-.28125-.921875-.28125-2.015625zm6.65625-.953125q.015625-1.171875-.59375-1.921875-.59375-.765625-1.65625-.765625-.609375.0-1.0625.234375t-.78125.609375q-.3125.375-.484375.859375t-.234375.984375h4.8125zm5.5851135.953125q0 .75.140625 1.390625.15625.640625.484375 1.125.34375.46875.875.734375t1.28125.265625q.703125.0 1.296875-.234375.59375-.25.921875-.5v-6.125q-.265625-.078125-.703125-.125-.4375-.0625-1.21875-.0625-1.40625.0-2.25.921875-.828125.90625-.828125 2.609375zm-1.8125.0q0-1.171875.34375-2.109375.34375-.953125.96875-1.609375.640625-.65625 1.53125-1 .90625-.359375 2.03125-.359375 1.203125.0 2.125.1875.921875.171875 1.546875.3125v12.859375h-1.734375v-3.875q-.328125.203125-.96875.421875t-1.484375.21875q-1.046875.0-1.859375-.359375-.796875-.375-1.359375-1.046875t-.859375-1.609375q-.28125-.9375-.28125-2.03125zm19.25415 4.546875q-.59375.15625-1.578125.3125-.984375.171875-2.265625.171875-1.125.0-1.890625-.328125t-1.234375-.921875q-.453125-.59375-.671875-1.40625-.203125-.8125-.203125-1.796875V476.7341h1.734375v5.078125q0 1.765625.5625 2.53125t1.890625.765625q.28125.0.578125-.015625t.546875-.046875q.265625-.03125.484375-.046875.21875-.03125.3125-.078125v-8.1875h1.734375v9.421875zm2.4430542-4.546875q0-1.296875.375-2.25.375-.96875.984375-1.59375.609375-.640625 1.40625-.953125.8125-.3125 1.65625-.3125 1.953125.0 3 1.21875t1.046875 3.71875q0 .109375.0.296875.0.171875-.015625.3125h-6.640625q.109375 1.515625.875 2.296875t2.390625.78125q.90625.0 1.53125-.15625t.9375-.296875l.25 1.453125q-.3125.15625-1.109375.34375t-1.796875.1875q-1.265625.0-2.203125-.375-.921875-.390625-1.515625-1.0625t-.890625-1.59375q-.28125-.921875-.28125-2.015625zm6.65625-.953125q.015625-1.171875-.59375-1.921875-.59375-.765625-1.65625-.765625-.609375.0-1.0625.234375t-.78125.609375q-.3125.375-.484375.859375t-.234375.984375h4.8125zm4.3194885-3.640625q.59375-.15625 1.578125-.3125.984375-.171875 2.28125-.171875 1.15625.0 1.921875.328125t1.21875.921875q.453125.578125.640625 1.40625.1875.8125.1875 1.796875v5.453125h-1.734375V481.3591q0-.890625-.125-1.515625-.125-.640625-.40625-1.03125-.265625-.390625-.734375-.5625-.46875-.1875-1.15625-.1875-.28125.0-.578125.015625t-.578125.046875q-.265625.03125-.484375.078125-.203125.03125-.296875.046875v8.1875h-1.734375v-9.421875zm14.911835 9.640625q-1.171875.0-2.0625-.359375-.875-.375-1.484375-1.046875t-.90625-1.59375q-.296875-.9375-.296875-2.046875.0-1.125.328125-2.046875.328125-.9375.921875-1.609375.59375-.6875 1.453125-1.0625.875-.390625 1.9375-.390625.65625.0 1.3125.109375t1.25.34375l-.390625 1.484375q-.390625-.1875-.90625-.296875t-1.09375-.109375q-1.453125.0-2.234375.921875-.765625.90625-.765625 2.65625.0.78125.171875 1.4375.171875.640625.546875 1.109375.390625.46875.984375.71875.609375.25 1.46875.25.6875.0 1.25-.125t.875-.28125l.234375 1.453125q-.140625.09375-.421875.1875-.28125.078125-.640625.140625-.34375.0625-.75.109375t-.78125.046875zm3.5367432 1.59375q.203125.09375.53125.171875.328125.09375.640625.09375 1.03125.0 1.609375-.46875.578125-.453125 1.03125-1.484375-1.171875-2.234375-2.1875-4.734375-1.015625-2.515625-1.6875-5.09375h1.875q.203125.84375.484375 1.8125.296875.96875.640625 2 .359375 1.015625.765625 2.046875.421875 1.03125.859375 1.984375.71875-1.96875 1.234375-3.890625t.984375-3.953125h1.796875q-.671875 2.75-1.5 5.28125-.8125 2.515625-1.765625 4.71875-.375.84375-.78125 1.4375-.390625.609375-.875 1-.484375.40625-1.09375.578125-.609375.1875-1.375.1875-.203125.0-.4375-.03125-.21875-.015625-.4375-.0625-.203125-.046875-.390625-.109375-.171875-.046875-.25-.09375l.328125-1.390625z" fill-rule="nonzero"/><path fill="#6fa8dc" d="m121 569.67194 15.125992-60.503967h510.4724l15.126038 60.503967z" fill-rule="evenodd"/><path stroke="#000" stroke-width="2" stroke-linejoin="round" stroke-linecap="butt" d="m121 569.67194 15.125992-60.503967h510.4724l15.126038 60.503967z" fill-rule="evenodd"/><path fill="#000" d="m355.7925 546.9041q-.328125-.84375-.609375-1.65625t-.578125-1.640625h-5.859375l-1.171875 3.296875h-1.875q.734375-2.046875 1.390625-3.796875t1.28125-3.3125 1.234375-2.984375q.625-1.4375 1.296875-2.828125h1.65625q.671875 1.390625 1.28125 2.828125.625 1.421875 1.25 2.984375t1.265625 3.3125q.65625 1.75 1.40625 3.796875h-1.96875zm-1.703125-4.796875q-.59375-1.625-1.1875-3.140625t-1.21875-2.921875q-.65625 1.40625-1.25 2.921875-.578125 1.515625-1.15625 3.140625h4.8125zm11.345184-2.859375q-.328125-.25-.921875-.484375-.59375-.25-1.296875-.25-.75.0-1.28125.265625t-.875.75q-.328125.46875-.484375 1.125-.140625.65625-.140625 1.40625.0 1.6875.828125 2.609375.84375.921875 2.25.921875.703125.0 1.171875-.0625.484375-.0625.75-.140625v-6.140625zm0-6.515625 1.734375-.3125v14.203125q-.59375.171875-1.53125.328125-.9375.171875-2.140625.171875-1.125.0-2.03125-.34375-.890625-.359375-1.53125-1.015625-.625-.65625-.96875-1.59375t-.34375-2.109375q0-1.125.28125-2.046875.296875-.9375.859375-1.609375t1.359375-1.046875q.8125-.375 1.859375-.375.84375.0 1.484375.21875t.96875.4375v-4.90625zm4.7229004 14.171875v-14.171875l1.734375-.3125v4.96875q.484375-.1875 1.03125-.28125.546875-.109375 1.09375-.109375 1.15625.0 1.921875.328125t1.21875.921875q.453125.578125.640625 1.40625.1875.8125.1875 1.796875v5.453125h-1.734375v-5.078125q0-.890625-.125-1.515625-.125-.640625-.40625-1.03125-.265625-.390625-.734375-.5625-.46875-.1875-1.15625-.1875-.28125.0-.578125.046875-.296875.03125-.578125.078125-.265625.046875-.484375.109375-.203125.046875-.296875.078125v8.0625h-1.734375zm10.1058655-4.828125q0-1.296875.375-2.25.375-.96875.984375-1.59375.609375-.640625 1.40625-.953125.8125-.3125 1.65625-.3125 1.953125.0 2.9999695 1.21875 1.046875 1.21875 1.046875 3.71875.0.109375.0.296875.0.171875-.015625.3125h-6.6405945q.109375 1.515625.875 2.296875t2.390625.78125q.90625.0 1.53125-.15625.6249695-.15625.9374695-.296875l.25 1.453125q-.3125.15625-1.1093445.34375-.796875.1875-1.796875.1875-1.265625.0-2.203125-.375-.921875-.390625-1.515625-1.0625t-.890625-1.59375q-.28125-.921875-.28125-2.015625zm6.65625-.953125q.015625-1.171875-.59375-1.921875-.59375-.765625-1.65625-.765625-.609375.0-1.0625.234375t-.78125.609375q-.3125.375-.484375.859375t-.234375.984375h4.8125zm7.897583-4.125q.21875.0.5.03125.296875.03125.578125.078125t.515625.09375.34375.078125l-.296875 1.515625q-.203125-.078125-.6875-.171875-.46875-.109375-1.21875-.109375-.484375.0-.96875.109375-.46875.09375-.609375.125v8.15625h-1.734375v-9.296875q.609375-.21875 1.515625-.40625.921875-.203125 2.0625-.203125zm3.0763245 5.078125q0-1.296875.375-2.25.375-.96875.984375-1.59375.609375-.640625 1.40625-.953125.8125-.3125 1.65625-.3125 1.953125.0 3 1.21875t1.046875 3.71875q0 .109375.0.296875.0.171875-.015625.3125h-6.640625q.109375 1.515625.875 2.296875t2.390625.78125q.90625.0 1.53125-.15625t.9375-.296875l.25 1.453125q-.3125.15625-1.109375.34375t-1.796875.1875q-1.265625.0-2.203125-.375-.921875-.390625-1.515625-1.0625t-.890625-1.59375q-.28125-.921875-.28125-2.015625zm6.65625-.953125q.015625-1.171875-.59375-1.921875-.59375-.765625-1.65625-.765625-.609375.0-1.0625.234375t-.78125.609375q-.3125.375-.484375.859375t-.234375.984375h4.8125zm4.319458-3.640625q.59375-.15625 1.578125-.3125.984375-.171875 2.28125-.171875 1.15625.0 1.921875.328125t1.21875.921875q.453125.578125.640625 1.40625.1875.8125.1875 1.796875v5.453125h-1.734375v-5.078125q0-.890625-.125-1.515625-.125-.640625-.40625-1.03125-.265625-.390625-.734375-.5625-.46875-.1875-1.15625-.1875-.28125.0-.578125.015625t-.578125.046875q-.265625.03125-.484375.078125-.203125.03125-.296875.046875v8.1875h-1.734375v-9.421875zm14.911804 9.640625q-1.171875.0-2.0625-.359375-.875-.375-1.484375-1.046875t-.90625-1.59375q-.296875-.9375-.296875-2.046875.0-1.125.328125-2.046875.328125-.9375.921875-1.609375.59375-.6875 1.453125-1.0625.875-.390625 1.9375-.390625.65625.0 1.3125.109375t1.25.34375l-.390625 1.484375q-.390625-.1875-.90625-.296875t-1.09375-.109375q-1.453125.0-2.234375.921875-.765625.90625-.765625 2.65625.0.78125.171875 1.4375.171875.640625.546875 1.109375.390625.46875.984375.71875.609375.25 1.46875.25.6875.0 1.25-.125t.875-.28125l.234375 1.453125q-.140625.09375-.421875.1875-.28125.078125-.640625.140625-.34375.0625-.75.109375t-.78125.046875zm3.925171-5.046875q0-1.296875.375-2.25.375-.96875.984375-1.59375.609375-.640625 1.40625-.953125.8125-.3125 1.65625-.3125 1.953125.0 3 1.21875t1.046875 3.71875q0 .109375.0.296875.0.171875-.015625.3125h-6.640625q.109375 1.515625.875 2.296875t2.390625.78125q.90625.0 1.53125-.15625t.9375-.296875l.25 1.453125q-.3125.15625-1.109375.34375t-1.796875.1875q-1.265625.0-2.203125-.375-.921875-.390625-1.515625-1.0625t-.890625-1.59375q-.28125-.921875-.28125-2.015625zm6.65625-.953125q.015625-1.171875-.59375-1.921875-.59375-.765625-1.65625-.765625-.609375.0-1.0625.234375t-.78125.609375q-.3125.375-.484375.859375t-.234375.984375h4.8125z" fill-rule="nonzero"/><path fill="#cfe2f3" d="m143.73753 539.4199c0-10.219421 8.29155-18.503906 18.519684-18.503906 4.911728.0 9.622284 1.9495239 13.095398 5.4196777 3.473114 3.4701538 5.424286 8.176697 5.424286 13.0842285.0 10.219482-8.29155 18.503967-18.519684 18.503967-10.228134.0-18.519684-8.284485-18.519684-18.503967z" fill-rule="evenodd"/><path stroke="#000" stroke-width="2" stroke-linejoin="round" stroke-linecap="butt" d="m143.73753 539.4199c0-10.219421 8.29155-18.503906 18.519684-18.503906 4.911728.0 9.622284 1.9495239 13.095398 5.4196777 3.473114 3.4701538 5.424286 8.176697 5.424286 13.0842285.0 10.219482-8.29155 18.503967-18.519684 18.503967-10.228134.0-18.519684-8.284485-18.519684-18.503967z" fill-rule="evenodd"/><path fill="#000" d="m163.80098 544.22h-1.828125v-6.890625q-1 .9375-2.375 1.390625v-1.671875q.71875-.234375 1.5625-.875.84375-.65625 1.15625-1.53125h1.484375V544.22z" fill-rule="nonzero"/><path fill="#cfe2f3" d="m158.49081 478.91995c0-10.219452 8.29155-18.503937 18.519684-18.503937 4.911728.0 9.622284 1.9495239 13.095398 5.4196777 3.473114 3.4701538 5.424286 8.176697 5.424286 13.084259.0 10.219452-8.29155 18.503937-18.519684 18.503937-10.228134.0-18.519684-8.284485-18.519684-18.503937z" fill-rule="evenodd"/><path stroke="#000" stroke-width="2" stroke-linejoin="round" stroke-linecap="butt" d="m158.49081 478.91995c0-10.219452 8.29155-18.503937 18.519684-18.503937 4.911728.0 9.622284 1.9495239 13.095398 5.4196777 3.473114 3.4701538 5.424286 8.176697 5.424286 13.084259.0 10.219452-8.29155 18.503937-18.519684 18.503937-10.228134.0-18.519684-8.284485-18.519684-18.503937z" fill-rule="evenodd"/><path fill="#000" d="m180.03864 482.0168v1.703125h-6.40625q.109375-.96875.625-1.828125.53125-.859375 2.0625-2.28125 1.234375-1.15625 1.515625-1.5625.375-.5625.375-1.125.0-.609375-.328125-.9375t-.90625-.328125-.921875.34375q-.328125.34375-.375 1.140625l-1.828125-.171875q.15625-1.515625 1.015625-2.171875t2.15625-.65625q1.40625.0 2.203125.765625.8125.75.8125 1.890625.0.640625-.234375 1.234375-.21875.578125-.71875 1.203125-.328125.4375-1.203125 1.234375-.859375.78125-1.09375 1.046875-.234375.25-.375.5h3.625z" fill-rule="nonzero"/><path fill="#cfe2f3" d="m172.73753 418.41864c0-10.219452 8.29155-18.503937 18.519684-18.503937 4.911728.0 9.622284 1.9495239 13.095398 5.4196777 3.473114 3.4701538 5.424286 8.176697 5.424286 13.084259.0 10.219452-8.29155 18.503937-18.519684 18.503937-10.228134.0-18.519684-8.284485-18.519684-18.503937z" fill-rule="evenodd"/><path stroke="#000" stroke-width="2" stroke-linejoin="round" stroke-linecap="butt" d="m172.73753 418.41864c0-10.219452 8.29155-18.503937 18.519684-18.503937 4.911728.0 9.622284 1.9495239 13.095398 5.4196777 3.473114 3.4701538 5.424286 8.176697 5.424286 13.084259.0 10.219452-8.29155 18.503937-18.519684 18.503937-10.228134.0-18.519684-8.284485-18.519684-18.503937z" fill-rule="evenodd"/><path fill="#000" d="m188.05098 420.68738 1.765625-.21875q.09375.6875.453125 1.046875.375.34375.90625.34375.5625.0.953125-.421875.390625-.4375.390625-1.15625.0-.6875-.375-1.09375t-.90625-.40625q-.34375.0-.84375.140625l.203125-1.5q.75.03125 1.140625-.3125t.390625-.90625q0-.484375-.296875-.765625-.28125-.296875-.75-.296875t-.8125.328125q-.328125.328125-.390625.953125l-1.6875-.296875q.171875-.859375.515625-1.375.359375-.515625 1-.8125t1.421875-.296875q1.34375.0 2.15625.859375.671875.703125.671875 1.59375.0 1.25-1.375 2 .828125.171875 1.3125.78125.5.609375.5 1.484375.0 1.25-.921875 2.140625-.921875.875-2.28125.875-1.296875.0-2.15625-.734375-.84375-.75-.984375-1.953125z" fill-rule="nonzero"/><path fill="#cfe2f3" d="m187.73753 357.91995c0-10.219452 8.29155-18.503937 18.519684-18.503937 4.911728.0 9.622284 1.9495239 13.095398 5.4196777 3.473114 3.4701538 5.424286 8.176697 5.424286 13.084259.0 10.219452-8.29155 18.503937-18.519684 18.503937-10.228134.0-18.519684-8.284485-18.519684-18.503937z" fill-rule="evenodd"/><path stroke="#000" stroke-width="2" stroke-linejoin="round" stroke-linecap="butt" d="m187.73753 357.91995c0-10.219452 8.29155-18.503937 18.519684-18.503937 4.911728.0 9.622284 1.9495239 13.095398 5.4196777 3.473114 3.4701538 5.424286 8.176697 5.424286 13.084259.0 10.219452-8.29155 18.503937-18.519684 18.503937-10.228134.0-18.519684-8.284485-18.519684-18.503937z" fill-rule="evenodd"/><path fill="#000" d="m206.70723 362.71994v-1.921875h-3.90625v-1.59375l4.140625-6.0625h1.53125v6.046875h1.1875v1.609375h-1.1875v1.921875h-1.765625zm0-3.53125v-3.25l-2.203125 3.25h2.203125z" fill-rule="nonzero"/><path fill="#cfe2f3" d="m203.73753 297.41864c0-10.219452 8.29155-18.503937 18.519684-18.503937 4.911728.0 9.622284 1.9495239 13.095398 5.4196777 3.473114 3.4701538 5.424286 8.176697 5.424286 13.084259.0 10.219452-8.29155 18.503937-18.519684 18.503937-10.228134.0-18.519684-8.284485-18.519684-18.503937z" fill-rule="evenodd"/><path stroke="#000" stroke-width="2" stroke-linejoin="round" stroke-linecap="butt" d="m203.73753 297.41864c0-10.219452 8.29155-18.503937 18.519684-18.503937 4.911728.0 9.622284 1.9495239 13.095398 5.4196777 3.473114 3.4701538 5.424286 8.176697 5.424286 13.084259.0 10.219452-8.29155 18.503937-18.519684 18.503937-10.228134.0-18.519684-8.284485-18.519684-18.503937z" fill-rule="evenodd"/><path fill="#000" d="m219.14473 299.7655 1.828125-.1875q.078125.609375.453125.984375.390625.359375.890625.359375.5625.0.953125-.46875.40625-.46875.40625-1.40625.0-.875-.390625-1.3125t-1.03125-.4375q-.78125.0-1.40625.6875l-1.484375-.203125.9375-4.96875h4.84375v1.703125h-3.453125l-.296875 1.625q.625-.3125 1.25-.3125 1.21875.0 2.0625.890625.859375.890625.859375 2.296875.0 1.171875-.6875 2.109375-.9375 1.25-2.59375 1.25-1.3125.0-2.15625-.703125-.828125-.703125-.984375-1.90625z" fill-rule="nonzero"/><path fill="#cfe2f3" d="m218.73753 236.91864c0-10.219452 8.29155-18.503937 18.519684-18.503937 4.911728.0 9.622284 1.9495087 13.095398 5.4196777 3.473114 3.4701538 5.424286 8.176712 5.424286 13.084259.0 10.219437-8.29155 18.503937-18.519684 18.503937-10.228134.0-18.519684-8.2845-18.519684-18.503937z" fill-rule="evenodd"/><path stroke="#000" stroke-width="2" stroke-linejoin="round" stroke-linecap="butt" d="m218.73753 236.91864c0-10.219452 8.29155-18.503937 18.519684-18.503937 4.911728.0 9.622284 1.9495087 13.095398 5.4196777 3.473114 3.4701538 5.424286 8.176712 5.424286 13.084259.0 10.219437-8.29155 18.503937-18.519684 18.503937-10.228134.0-18.519684-8.2845-18.519684-18.503937z" fill-rule="evenodd"/><path fill="#000" d="m240.3166 234.5155-1.78125.1875q-.0625-.546875-.34375-.796875-.265625-.265625-.703125-.265625-.578125.0-.984375.53125-.390625.515625-.5 2.15625.6875-.8125 1.703125-.8125 1.140625.0 1.953125.875.828125.875.828125 2.25.0 1.46875-.859375 2.359375-.859375.875-2.203125.875-1.453125.0-2.390625-1.109375-.921875-1.125-.921875-3.6875.0-2.625.96875-3.78125t2.515625-1.15625q1.09375.0 1.796875.609375.71875.609375.921875 1.765625zm-4.15625 3.984375q0 .890625.40625 1.375.421875.484375.953125.484375.5.0.828125-.390625.34375-.390625.34375-1.296875.0-.9375-.359375-1.359375-.359375-.4375-.90625-.4375-.53125.0-.90625.421875-.359375.40625-.359375 1.203125z" fill-rule="nonzero"/><path fill="#000" fill-opacity="0" d="m72.38976 568.68243V206.66668" fill-rule="evenodd"/><path stroke="#c27ba0" stroke-width="4" stroke-linejoin="round" stroke-linecap="butt" d="m72.38976 568.68243V230.66668" fill-rule="evenodd"/><path fill="#c27ba0" stroke="#c27ba0" stroke-width="4" stroke-linecap="butt" d="m78.9967 230.66667-6.6069336-18.15239-6.606926 18.15239z" fill-rule="evenodd"/><path fill="#000" fill-opacity="0" d="m205.61679 41.67454h372.28348v70.99213H205.61679z" fill-rule="evenodd"/><path fill="#000" d="m282.3014 78.316414q-.3125-.765625-.84375-1.9375-.53125-1.1875-1.140625-2.5625t-1.296875-2.828125q-.6875-1.46875-1.296875-2.765625t-1.140625-2.3125q-.515625-1.03125-.84375-1.578125-.34375 3.78125-.578125 8.1875-.21875 4.390625-.375 8.875H271.7389q.125-2.875.28125-5.796875.171875-2.9375.375-5.765625.21875-2.84375.453125-5.53125.234375-2.6874962.53125-5.078121h2.71875q.859375 1.40625 1.84375 3.328125 1 1.9218712 1.984375 4.015621 1 2.09375 1.921875 4.1875.9375 2.09375 1.703125 3.828125.765625-1.734375 1.6875-3.828125.9375-2.09375 1.921875-4.1875 1-2.09375 1.984375-4.015621 1-1.921875 1.859375-3.328125h2.71875q1.09375 10.718746 1.640625 22.171871h-3.046875q-.15625-4.484375-.390625-8.875-.21875-4.40625-.5625-8.1875-.328125.546875-.859375 1.578125-.515625 1.015625-1.125 2.3125t-1.296875 2.765625q-.6875 1.453125-1.296875 2.828125t-1.140625 2.5625q-.53125 1.171875-.84375 1.9375h-2.5zm30.981445 2.59375q-1.03125.265625-2.71875.546875-1.671875.296875-3.875.296875-1.921875.0-3.234375-.5625t-2.109375-1.578125q-.796875-1.03125-1.15625-2.421875-.34375-1.390625-.34375-3.09375v-9.34375h2.96875v8.703125q0 3.046875.953125 4.359375.96875 1.3125 3.234375 1.3125.484375.0 1-.03125.515625-.046875.953125-.09375.453125-.046875.8125-.09375.375-.046875.53125-.109375V64.753914h2.984375v16.15625zm8.993042-1.65625q1.8125.0 2.6875-.484375.890625-.484375.890625-1.53125.0-1.09375-.875-1.734375-.859375-.640625-2.84375-1.4375-.953125-.390625-1.84375-.78125-.875-.40625-1.515625-.9375-.640625-.546875-1.03125-1.3125-.375-.78125-.375-1.890625.0-2.21875 1.625-3.515625 1.640625-1.296875 4.453125-1.296875.703125.0 1.40625.09375.71875.078125 1.3125.1875.609375.109375 1.078125.234375t.71875.234375l-.546875 2.546875q-.46875-.25-1.5-.515625-1.015625-.28125-2.46875-.28125-1.234375.0-2.171875.5-.921875.5-.921875 1.546875.0.546875.203125.96875.203125.40625.640625.75.4375.328125 1.078125.625.640625.28125 1.53125.609375 1.1875.4375 2.109375.875.9375.4375 1.578125 1.015625.65625.5625 1.015625 1.390625.359375.8125.359375 2 0 2.296875-1.71875 3.484375t-4.875 1.1875q-2.21875.0-3.46875-.375-1.234375-.375-1.6875-.5625l.546875-2.5625q.515625.203125 1.625.59375 1.125.375 2.984375.375zm16.412659-7.015625q.953125.734375 2.03125 1.828125t2.109375 2.359375q1.046875 1.25 1.96875 2.546875t1.5625 2.421875h-3.484375q-.671875-1.125-1.546875-2.28125-.875-1.171875-1.84375-2.234375-.953125-1.078125-1.953125-1.96875-.984375-.90625-1.890625-1.515625v8h-2.96875V57.082043l2.96875-.515625v15.171871q.765625-.78125 1.6875-1.703125.9375-.921875 1.828125-1.875.90625-.96875 1.703125-1.84375.796875-.890625 1.375-1.5625h3.484375q-.734375.796875-1.59375 1.765625-.859375.953125-1.796875 1.9375-.921875.96875-1.875 1.953125-.9375.96875-1.765625 1.828125zm8.918915.875q0-2.21875.640625-3.859375.640625-1.65625 1.703125-2.734375 1.0625-1.09375 2.4375-1.640625t2.8125-.546875q3.359375.0 5.140625 2.109375 1.796875 2.09375 1.796875 6.375.0.1875.0.5.0.296875-.03125.5625h-11.390625q.1875 2.59375 1.5 3.9375t4.109375 1.34375q1.5625.0 2.625-.265625 1.078125-.28125 1.625-.546875l.421875 2.5q-.546875.296875-1.90625.609375-1.359375.328125-3.09375.328125-2.171875.0-3.765625-.65625-1.578125-.65625-2.609375-1.8125-1.015625-1.15625-1.515625-2.734375-.5-1.59375-.5-3.46875zm11.4375-1.640625q.03125-2.015625-1.015625-3.3125-1.03125-1.296875-2.859375-1.296875-1.03125.0-1.8125.40625-.78125.390625-1.328125 1.03125t-.859375 1.484375q-.296875.828125-.390625 1.6875h8.265625zm12.372406 10.234375q-2.75-.0625-3.90625-1.171875-1.140625-1.125-1.140625-3.5V57.082043l2.96875-.515625v19.999996q0 .734375.125 1.21875.140625.46875.421875.765625.28125.28125.765625.4375.484375.140625 1.1875.234375l-.421875 2.484375zm25.831146-8.625q0 1.96875-.578125 3.578125-.578125 1.59375-1.625 2.75-1.03125 1.15625-2.46875 1.78125t-3.140625.625q-1.6875.0-3.140625-.625-1.4375-.625-2.484375-1.78125-1.03125-1.15625-1.609375-2.75-.578125-1.609375-.578125-3.578125.0-1.953125.578125-3.5625.578125-1.625 1.609375-2.78125 1.046875-1.15625 2.484375-1.78125 1.453125-.625 3.140625-.625 1.703125.0 3.140625.625t2.46875 1.78125q1.046875 1.15625 1.625 2.78125.578125 1.609375.578125 3.5625zm-3.109375.0q0-2.828125-1.265625-4.46875-1.265625-1.65625-3.4375-1.65625t-3.4375 1.65625q-1.265625 1.640625-1.265625 4.46875.0 2.8125 1.265625 4.46875 1.265625 1.640625 3.4375 1.640625t3.4375-1.640625q1.265625-1.65625 1.265625-4.46875zm17.723785 6.65625q-.375.25-1.484375.65625-1.09375.390625-2.578125.390625-1.5.0-2.828125-.46875-1.328125-.484375-2.328125-1.484375-.984375-1.015625-1.5625-2.515625-.578125-1.515625-.578125-3.59375.0-1.828125.546875-3.34375t1.578125-2.625q1.046875-1.109375 2.546875-1.71875 1.515625-.625 3.40625-.625 2.078125.0 3.625.296875t2.609375.5625v14.84375q0 3.84375-1.984375 5.5625-1.984375 1.734375-6.015625 1.734375-1.5625.0-2.96875-.265625-1.390625-.25-2.40625-.59375l.546875-2.59375q.890625.34375 2.1875.609375 1.296875.28125 2.703125.28125 2.65625.0 3.8125-1.0625 1.171875-1.046875 1.171875-3.34375v-.703125zm-.03125-12.359375q-.4375-.125-1.1875-.234375-.75-.125-2.03125-.125-2.40625.0-3.703125 1.578125-1.296875 1.5625-1.296875 4.15625.0 1.4375.359375 2.46875.375 1.015625 1 1.6875t1.4375 1q.828125.3125 1.6875.3125 1.1875.0 2.171875-.328125 1-.34375 1.5625-.78125v-9.734375zm19.372437 11.875q1.8125.0 2.6875-.484375.890625-.484375.890625-1.53125.0-1.09375-.875-1.734375-.859375-.640625-2.84375-1.4375-.953125-.390625-1.84375-.78125-.875-.40625-1.515625-.9375-.640625-.546875-1.03125-1.3125-.375-.78125-.375-1.890625.0-2.21875 1.625-3.515625 1.640625-1.296875 4.453125-1.296875.703125.0 1.40625.09375.71875.078125 1.3125.1875.609375.109375 1.078125.234375t.71875.234375l-.546875 2.546875q-.46875-.25-1.5-.515625-1.015625-.28125-2.46875-.28125-1.234375.0-2.171875.5-.921875.5-.921875 1.546875.0.546875.203125.96875.203125.40625.640625.75.4375.328125 1.078125.625.640625.28125 1.53125.609375 1.1875.4375 2.109375.875.9375.4375 1.578125 1.015625.65625.5625 1.015625 1.390625.359375.8125.359375 2 0 2.296875-1.71875 3.484375t-4.875 1.1875q-2.21875.0-3.46875-.375-1.234375-.375-1.6875-.5625l.546875-2.5625q.515625.203125 1.625.59375 1.125.375 2.984375.375zm13.178284-14.5h6.296875v2.5h-6.296875v7.671875q0 1.25.1875 2.078125.203125.8125.578125 1.28125.390625.453125.953125.65625.578125.1875 1.359375.1875 1.34375.0 2.15625-.296875.8125-.3125 1.140625-.453125l.5625 2.46875q-.4375.234375-1.5625.5625-1.125.34375-2.5625.34375-1.6875.0-2.796875-.4375t-1.78125-1.296875-.9375-2.125-.265625-2.9375V60.113293l2.96875-.515625v5.156246zm8.129639 19.75q.34375.15625.90625.296875t1.109375.140625q1.765625.0 2.75-.78125 1-.78125 1.796875-2.546875-2.015625-3.828125-3.765625-8.125-1.75-4.3125-2.890625-8.734375h3.203125q.34375 1.4375.84375 3.109375.5 1.65625 1.09375 3.421875.609375 1.75 1.3125 3.515625.71875 1.765625 1.484375 3.390625 1.203125-3.359375 2.09375-6.65625.90625-3.296875 1.703125-6.78125h3.078125q-1.15625 4.703125-2.5625 9.046875-1.40625 4.328125-3.03125 8.109375-.640625 1.4375-1.328125 2.46875-.6875 1.046875-1.53125 1.71875-.828125.671875-1.875.984375-1.03125.328125-2.34375.328125-.359375.0-.75-.046875-.375-.046875-.75-.125-.359375-.078125-.671875-.1875-.296875-.09375-.421875-.15625l.546875-2.390625zm23.997803-20.09375q.390625.0.875.046875.5.046875.984375.125t.875.15625q.40625.078125.59375.140625l-.515625 2.59375q-.34375-.125-1.171875-.296875-.8125-.1875-2.09375-.1875-.828125.0-1.640625.1875-.8125.171875-1.078125.234375v13.984375h-2.96875v-15.9375q1.046875-.375 2.609375-.703125 1.578125-.34375 3.53125-.34375zm12.22702 7.828125q.953125.734375 2.03125 1.828125t2.109375 2.359375q1.046875 1.25 1.96875 2.546875t1.5625 2.421875h-3.484375q-.671875-1.125-1.546875-2.28125-.875-1.171875-1.84375-2.234375-.953125-1.078125-1.953125-1.96875-.984375-.90625-1.890625-1.515625v8h-2.96875V57.082043l2.96875-.515625v15.171871q.765625-.78125 1.6875-1.703125.9375-.921875 1.828125-1.875.90625-.96875 1.703125-1.84375.796875-.890625 1.375-1.5625h3.484375q-.734375.796875-1.59375 1.765625-.859375.953125-1.796875 1.9375-.921875.96875-1.875 1.953125-.9375.96875-1.765625 1.828125zm8.918915.875q0-2.21875.640625-3.859375.640625-1.65625 1.703125-2.734375 1.0625-1.09375 2.4375-1.640625t2.8125-.546875q3.359375.0 5.140625 2.109375 1.796875 2.09375 1.796875 6.375.0.1875.0.5.0.296875-.03125.5625h-11.390625q.1875 2.59375 1.5 3.9375t4.109375 1.34375q1.5625.0 2.625-.265625 1.078125-.28125 1.625-.546875l.421875 2.5q-.546875.296875-1.90625.609375-1.359375.328125-3.09375.328125-2.171875.0-3.765625-.65625-1.578125-.65625-2.609375-1.8125-1.015625-1.15625-1.515625-2.734375-.5-1.59375-.5-3.46875zm11.4375-1.640625q.03125-2.015625-1.015625-3.3125-1.03125-1.296875-2.859375-1.296875-1.03125.0-1.8125.40625-.78125.390625-1.328125 1.03125t-.859375 1.484375q-.296875.828125-.390625 1.6875h8.265625z" fill-rule="nonzero"/><path fill="#000" fill-opacity="0" d="m203.73753 63.427822h372.28345v70.99213H203.73753z" fill-rule="evenodd"/><path fill="#000" d="m290.78012 89.508446v5.390625h-13.953125v38.968758h-6.21875V94.899071h-13.9375v-5.390625h34.109375zm15.86557 10.375q.765625.0 1.75.09375 1 .09375 1.953125.265625.96875.15625 1.765625.3125.8125.15625 1.1875.28125l-1.015625 5.1875q-.703125-.25-2.34375-.59375-1.625-.359375-4.1875-.359375-1.671875.0-3.3125.359375-1.625.34375-2.125.46875v27.968758h-5.953125v-31.875008q2.109375-.765625 5.234375-1.4375 3.140625-.671875 7.046875-.671875zm46.532074 34.750008q-3.65625.0-6.375-.859375t-4.765625-2.53125q-.640625.453125-1.703125 1.03125-1.046875.5625-2.515625 1.109375t-3.296875.890625q-1.828125.359375-4 .359375-3.203125.0-5.734375-.578125t-4.328125-1.84375q-1.78125-1.28125-2.75-3.328125-.953125-2.0625076-.953125-4.9375076.0-2.75 1.125-4.734375t3.03125-3.203125q1.921875-1.21875 4.484375-1.78125 2.5625-.578125 5.375-.578125.90625.0 1.859375.09375t1.78125.25q.84375.15625 1.484375.296875.640625.125.890625.1875v-1.671875q0-1.46875-.328125-2.90625-.3125-1.4375-1.140625-2.546875-.828125-1.125-2.28125-1.796875-1.4375-.671875-3.734375-.671875-2.9375.0-5.15625.421875-2.203125.40625-3.296875.84375l-.703125-4.921875q1.15625-.515625 3.8125-.984375 2.65625-.484375 5.734375-.484375 4.40625.0 7 1.5t3.875 4.1875q2.109375-2.875 4.984375-4.28125 2.890625-1.40625 6.015625-1.40625 6.65625.0 10.265625 4.234375 3.625 4.21875 3.625 12.71875.0.515625-.03125.875-.03125.34375-.03125.671875v.5625h-22.78125q.390625 5.125 3.046875 7.84375 2.65625 2.7187576 8.15625 2.7187576 3.140625.0 5.28125-.53125 2.140625-.546875 3.234375-1.0625076l.828125 4.9843826q-1.09375.578125-3.8125 1.21875t-6.171875.640625zm-22.53125-5.046875q3.328125.0 5.25-.734375 1.921875-.75 2.9375-1.4531326-.953125-1.78125-1.5-3.828125-.546875-2.0625-.609375-4.359375-.703125-.3125-2.046875-.53125-1.34375-.234375-3.390625-.234375-1.34375.0-2.859375.1875-1.5.1875-2.75.796875-1.234375.609375-2.078125 1.671875-.828125 1.046875-.828125 2.78125.0 3.265625 2.078125 4.4843826 2.078125 1.21875 5.796875 1.21875zm28.609375-15.562508q.0625-4.03125-2.015625-6.625t-5.734375-2.59375q-2.046875.0-3.609375.8125-1.5625.796875-2.625 2.078125t-1.703125 2.953125q-.640625 1.65625-.828125 3.375h16.515625zm14.788422-12.46875q2.046875-.515625 5.4375-1.09375t7.8125-.578125q3.96875.0 6.578125 1.125 2.625 1.109375 4.1875 3.125 1.578125 2.015625 2.21875 4.84375.640625 2.8125.640625 6.203125v18.687508h-5.953125v-17.406258q0-3.078125-.421875-5.25-.40625-2.171875-1.375-3.515625-.953125-1.34375-2.5625-1.953125-1.59375-.609375-3.953125-.609375-.96875.0-2 .0625-1.015625.0625-1.953125.15625-.921875.09375-1.65625.234375-.734375.125-1.046875.1875v28.093758h-5.953125v-32.312508zm42.689056 32.312508h-5.953125v-33.281258h5.953125v33.281258zm-3.015625-39.296883q-1.59375.0-2.71875-1.046875-1.125-1.0625-1.125-2.859375.0-1.78125 1.125-2.84375t2.71875-1.0625 2.71875 1.0625 1.125 2.84375q0 1.796875-1.125 2.859375-1.125 1.046875-2.71875 1.046875zm13.254456 6.984375q2.046875-.515625 5.4375-1.09375t7.8125-.578125q3.96875.0 6.578125 1.125 2.625 1.109375 4.1875 3.125 1.578125 2.015625 2.21875 4.84375.640625 2.8125.640625 6.203125v18.687508h-5.953125v-17.406258q0-3.078125-.421875-5.25-.40625-2.171875-1.375-3.515625-.953125-1.34375-2.5625-1.953125-1.59375-.609375-3.953125-.609375-.96875.0-2 .0625-1.015625.0625-1.953125.15625-.921875.09375-1.65625.234375-.734375.125-1.046875.1875v28.093758h-5.953125v-32.312508zm57.595306 28.984383q-.765625.515625-2.984375 1.3125-2.203125.796875-5.140625.796875-3.015625.0-5.671875-.953125-2.65625-.96875-4.640625-2.984375-1.984375-2.0156326-3.140625-5.0156326-1.140625-3.015625-1.140625-7.171875.0-3.640625 1.078125-6.6875 1.09375-3.046875 3.171875-5.25t5.078125-3.453125q3.015625-1.25 6.796875-1.25 4.15625.0 7.265625.609375t5.21875 1.125v29.687508q0 7.6875-3.96875 11.140625t-12.03125 3.453125q-3.140625.0-5.921875-.515625-2.78125-.5-4.828125-1.21875l1.078125-5.171875q1.796875.703125 4.390625 1.234375 2.59375.546875 5.40625.546875 5.3125.0 7.640625-2.109375 2.34375-2.109375 2.34375-6.71875v-1.40625zm-.0625-24.703133q-.890625-.25-2.40625-.46875-1.5-.234375-4.0625-.234375-4.796875.0-7.390625 3.140625-2.59375 3.125-2.59375 8.3125.0 2.875.734375 4.9375.734375 2.046875 1.984375 3.390625t2.875 1.984375q1.640625.625 3.375.625 2.359375.0 4.34375-.671875t3.140625-1.5625v-19.453125zm23.929443 23.750008q3.65625.0 5.40625-.953125 1.765625-.9687576 1.765625-3.0781326.0-2.1875-1.734375-3.46875-1.71875-1.28125-5.6875-2.875-1.921875-.765625-3.6875-1.5625-1.75-.8125-3.03125-1.890625-1.28125-1.09375-2.046875-2.625t-.765625-3.78125q0-4.40625 3.25-7 3.265625-2.59375 8.90625-2.59375 1.40625.0 2.8125.15625t2.625.390625q1.21875.21875 2.140625.484375.9375.25 1.4375.4375l-1.078125 5.125q-.96875-.515625-3.015625-1.0625t-4.921875-.546875q-2.5.0-4.359375 1-1.84375.984375-1.84375 3.09375.0 1.09375.40625 1.9375.421875.828125 1.28125 1.5t2.140625 1.25q1.28125.5625 3.078125 1.203125 2.359375.90625 4.21875 1.765625t3.171875 2.015625 2.015625 2.796875q.703125 1.625.703125 3.984375.0 4.6093826-3.421875 6.9843826-3.421875 2.359375-9.765625 2.359375-4.40625.0-6.90625-.734375t-3.390625-1.125l1.078125-5.1093826q1.03125.37500763 3.265625 1.1562576 2.25.765625 5.953125.765625z" fill-rule="nonzero"/><path fill="#000" fill-opacity="0" d="m203.73753 107.666664h372.28345v70.992134H203.73753z" fill-rule="evenodd"/><path fill="#000" d="m240.07318 137.46666q11.6875.0 17.96875 4.4375t6.28125 13.25q0 4.796875-1.71875 8.203125-1.71875 3.390625-4.96875 5.515625-3.234375 2.109375-7.875 3.078125-4.640625.953125-10.484375.953125h-6.15625v20.5625h-7.765625v-54.640625q3.28125-.796875 7.3125-1.078125 4.046875-.28125 7.40625-.28125zm.640625 6.796875q-4.953125.0-7.59375.25v21.75h5.84375q4 0 7.1875-.515625 3.203125-.515625 5.40625-1.75 2.203125-1.25 3.40625-3.40625 1.203125-2.171875 1.203125-5.53125.0-3.1875-1.25-5.265625-1.234375-2.09375-3.359375-3.328125t-4.921875-1.71875-5.921875-.484375zm28.721191 56.96875q.890625.390625 2.28125.75 1.40625.359375 2.765625.359375 4.390625.0 6.875-1.96875 2.484375-1.953125 4.484375-6.34375-5.046875-9.609375-9.40625-20.359375-4.359375-10.765625-7.234375-21.796875h8q.875 3.59375 2.109375 7.75 1.25 4.15625 2.765625 8.5625 1.53125 4.40625 3.28125 8.8125 1.765625 4.390625 3.6875 8.46875 3.03125-8.40625 5.265625-16.640625 2.25-8.234375 4.25-16.953125h7.671875q-2.875 11.75-6.390625 22.59375t-7.609375 20.28125q-1.59375 3.59375-3.3125 6.1875-1.71875 2.609375-3.796875 4.28125-2.078125 1.6875-4.6875 2.484375-2.59375.8125-5.875.8125-.875.0-1.84375-.125-.953125-.125-1.875-.328125-.921875-.1875-1.6875-.4375-.75-.234375-1.078125-.390625l1.359375-6zm60.00998-50.25q.953125.0 2.1875.125 1.25.125 2.4375.328125 1.203125.1875 2.203125.390625t1.484375.359375l-1.28125 6.484375q-.875-.328125-2.921875-.765625-2.03125-.4375-5.234375-.4375-2.078125.0-4.125.4375-2.03125.4375-2.671875.609375v34.953125h-7.4375v-39.84375q2.640625-.953125 6.546875-1.796875 3.921875-.84375 8.8125-.84375zm29.598724 37.125q2.640625.0 4.671875-.109375 2.046875-.125 3.40625-.453125V175.15416q-.796875-.40625-2.609375-.6875-1.796875-.28125-4.359375-.28125-1.671875.0-3.5625.25-1.875.234375-3.4375 1-1.546875.75-2.59375 2.078125-1.046875 1.3125-1.046875 3.46875.0 4 2.5625 5.5625t6.96875 1.5625zm-.640625-37.28125q4.46875.0 7.546875 1.171875 3.09375 1.15625 4.96875 3.28125 1.875 2.109375 2.671875 5.03125.8125 2.921875.8125 6.4375v26q-.96875.15625-2.6875.4375t-3.875.515625q-2.15625.25-4.6875.4375-2.515625.203125-5 .203125-3.515625.0-6.484375-.71875-2.953125-.71875-5.109375-2.28125t-3.359375-4.109375q-1.203125-2.5625-1.203125-6.171875.0-3.4375 1.390625-5.90625 1.40625-2.484375 3.8125-4 2.40625-1.53125 5.59375-2.25 3.203125-.71875 6.71875-.71875 1.125.0 2.328125.125 1.203125.109375 2.28125.3125t1.875.375q.796875.15625 1.125.234375v-2.078125q0-1.84375-.40625-3.640625-.390625-1.8125-1.4375-3.203125-1.03125-1.40625-2.84375-2.234375-1.796875-.84375-4.671875-.84375-3.6875.0-6.453125.515625-2.75.515625-4.109375 1.078125l-.875-6.15625q1.4375-.640625 4.796875-1.234375 3.359375-.609375 7.28125-.609375zm28.322449 2.234375q2.546875-.640625 6.75-1.359375t9.71875-.71875q4 0 6.71875 1.09375 2.71875 1.078125 4.5625 3.15625.5625-.40625 1.765625-1.125t2.953125-1.390625q1.765625-.6875 3.921875-1.203125 2.15625-.53125 4.640625-.53125 4.796875.0 7.828125 1.40625 3.046875 1.390625 4.765625 3.953125 1.734375 2.5625 2.328125 6.09375.59375 3.515625.59375 7.671875v23.359375h-7.4375v-21.765625q0-3.671875-.359375-6.3125t-1.359375-4.390625q-1-1.765625-2.71875-2.609375t-4.4375-.84375q-3.765625.0-6.203125 1t-3.3125 1.796875q.640625 2.078125.953125 4.5625.328125 2.484375.328125 5.203125v23.359375h-7.453125v-21.765625q0-3.671875-.40625-6.3125-.390625-2.640625-1.390625-4.390625-1-1.765625-2.71875-2.609375t-4.359375-.84375q-1.125.0-2.40625.078125-1.265625.078125-2.4375.203125-1.15625.125-2.125.28125-.953125.15625-1.265625.234375v35.125h-7.4375v-40.40625zm76.31741 40.40625h-7.4374695v-41.59375h7.4374695v41.59375zm-3.7655945-49.125q-2 0-3.40625-1.3125-1.390625-1.328125-1.390625-3.5625t1.390625-3.546875q1.40625-1.328125 3.40625-1.328125 1.9999695.0 3.3905945 1.328125 1.40625 1.3125 1.40625 3.546875t-1.40625 3.5625q-1.390625 1.3125-3.3905945 1.3125zm43.443085 16.328125q-1.359375-1.125-3.921875-2.15625-2.5625-1.046875-5.59375-1.046875-3.203125.0-5.484375 1.15625t-3.71875 3.203125-2.078125 4.84375-.640625 6q0 7.28125 3.59375 11.25 3.609375 3.953125 9.609375 3.953125 3.03125.0 5.0625-.28125 2.046875-.28125 3.171875-.609375v-26.3125zm0-28 7.4375-1.28125v60.875q-2.5625.71875-6.5625 1.4375t-9.203125.71875q-4.796875.0-8.640625-1.515625-3.828125-1.515625-6.546875-4.3125-2.71875-2.8125-4.203125-6.84375-1.484375-4.046875-1.484375-9.078125.0-4.796875 1.234375-8.796875 1.25-4 3.640625-6.875 2.40625-2.890625 5.875-4.484375 3.484375-1.609375 7.96875-1.609375 3.609375.0 6.359375.96875 2.765625.953125 4.125 1.828125v-21.03125zm17.91684 40.078125q0-5.515625 1.59375-9.640625 1.609375-4.125 4.25-6.84375t6.078125-4.078125 7.046875-1.359375q8.390625.0 12.875 5.25 4.484375 5.234375 4.484375 15.953125.0.484375.0 1.25.0.75-.09375 1.390625h-28.46875q.46875 6.484375 3.75 9.84375t10.25 3.359375q3.921875.0 6.59375-.671875 2.6875-.6875 4.046875-1.328125l1.03125 6.234375q-1.359375.71875-4.765625 1.515625-3.390625.796875-7.703125.796875-5.453125.0-9.40625-1.625-3.953125-1.640625-6.515625-4.515625-2.5625-2.890625-3.8125-6.84375-1.234375-3.96875-1.234375-8.6875zm28.5625-4.078125q.078125-5.046875-2.53125-8.28125-2.59375-3.234375-7.15625-3.234375-2.546875.0-4.515625 1-1.953125 1-3.3125 2.59375t-2.125 3.6875q-.765625 2.078125-1 4.234375h20.640625z" fill-rule="nonzero"/><path fill="#000" fill-opacity="0" d="m693 206.6665c12.150269.0 22 1.6415558 22 3.6665192v173.67482c0 2.0249634 9.849731 3.6665344 22 3.6665344-12.150269.0-22 1.6415405-22 3.666504v173.67487c0 2.0249634-9.849731 3.666504-22 3.666504z" fill-rule="evenodd"/><path fill="#000" fill-opacity="0" d="m693 206.6665c12.150269.0 22 1.6415558 22 3.6665192v173.67482c0 2.0249634 9.849731 3.6665344 22 3.6665344-12.150269.0-22 1.6415405-22 3.666504v173.67487c0 2.0249634-9.849731 3.666504-22 3.666504" fill-rule="evenodd"/><path stroke="#000" stroke-width="2" stroke-linejoin="round" stroke-linecap="butt" d="m693 206.6665c12.150269.0 22 1.6415558 22 3.6665192v173.67482c0 2.0249634 9.849731 3.6665344 22 3.6665344-12.150269.0-22 1.6415405-22 3.666504v173.67487c0 2.0249634-9.849731 3.666504-22 3.666504" fill-rule="evenodd"/><path fill="#c27ba0" d="m649.9816 387.67453 16-16v8h36.283447v16H665.9816v8z" fill-rule="evenodd"/><path stroke="#a64d79" stroke-width="2" stroke-linejoin="round" stroke-linecap="butt" d="m649.9816 387.67453 16-16v8h36.283447v16H665.9816v8z" fill-rule="evenodd"/><path fill="#000" fill-opacity="0" d="m772 225.66667V564.6588h-29.007874V225.66667z" fill-rule="evenodd"/><path fill="#000" d="m758.1425 344.20673q0 2.734375-1.046875 4.1875-1.03125 1.46875-3.078125 1.46875-1.125.0-1.921875-.40625-.78125-.390625-1.28125-1.15625-.484375-.75-.71875-1.828125-.21875-1.078125-.21875-2.453125v-1.421875H745.08v-1.8125h12.75q.171875.765625.234375 1.703125.078125.9375.078125 1.71875zm-1.59375.15625q0-1.15625-.046875-1.765625h-5.078125v1.359375q0 .921875.109375 1.671875.125.75.40625 1.265625.296875.515625.796875.78125.515625.28125 1.296875.28125.75.0 1.234375-.296875.484375-.28125.765625-.78125.296875-.484375.40625-1.140625t.109375-1.375zm-6.640625 6.5112915q1.296875.0 2.25.375.96875.375 1.59375.984375.640625.609375.953125 1.40625.3125.8125.3125 1.65625.0 1.953125-1.21875 3t-3.71875 1.046875q-.109375.0-.296875.0-.171875.0-.3125-.015625v-6.640625q-1.515625.109375-2.296875.875t-.78125 2.390625q0 .90625.15625 1.53125t.296875.9375l-1.453125.25q-.15625-.3125-.34375-1.109375t-.1875-1.796875q0-1.265625.375-2.203125.390625-.921875 1.0625-1.515625t1.59375-.890625q.921875-.28125 2.015625-.28125zm.953125 6.65625q1.171875.015625 1.921875-.59375.765625-.59375.765625-1.65625.0-.609375-.234375-1.0625t-.609375-.78125q-.375-.3125-.859375-.484375t-.984375-.234375v4.8125zm4.125 7.897583q0 .21875-.03125.5-.03125.296875-.078125.578125t-.09375.515625-.078125.34375l-1.515625-.296875q.078125-.203125.171875-.6875.109375-.46875.109375-1.21875.0-.484375-.109375-.96875-.09375-.46875-.125-.609375H745.08v-1.734375h9.296875q.21875.609375.40625 1.515625.203125.921875.203125 2.0625zM745.08 370.785679v-1.734375h9.703125v1.734375H745.08zm11.453125-.890625q0-.453125.3125-.78125t.828125-.328125.828125.328125.3125.78125q0 .46875-.3125.796875t-.828125.328125-.828125-.328125-.3125-.796875zm-6.609375 12.438782q-1.15625.0-2.09375-.34375-.921875-.328125-1.59375-.9375t-1.046875-1.453125q-.359375-.828125-.359375-1.828125.0-.984375.359375-1.828125.375-.84375 1.046875-1.453125.671875-.59375 1.59375-.9375.9375-.328125 2.09375-.328125 1.140625.0 2.078125.328125.953125.34375 1.625.9375.671875.609375 1.03125 1.453125t.359375 1.828125q0 1-.359375 1.828125-.359375.84375-1.03125 1.453125t-1.625.9375q-.9375.34375-2.078125.34375zm0-1.8125q1.65625.0 2.609375-.75.953125-.734375.953125-2t-.953125-2-2.609375-.734375q-1.640625.0-2.609375.734375-.953125.734375-.953125 2t.953125 2q.96875.75 2.609375.75zm2.8125 10.522797q.25-.328125.484375-.921875.25-.59375.25-1.296875.0-.75-.265625-1.28125t-.75-.875q-.46875-.328125-1.125-.484375-.65625-.140625-1.40625-.140625-1.6875.0-2.609375.828125-.921875.84375-.921875 2.25.0.703125.0625 1.171875.0625.484375.140625.75h6.140625zm6.515625.0.3125 1.734375H745.36125q-.171875-.59375-.328125-1.53125-.171875-.9375-.171875-2.140625.0-1.125.34375-2.03125.359375-.890625 1.015625-1.53125.65625-.625 1.59375-.96875t2.109375-.34375q1.125.0 2.046875.28125.9375.296875 1.609375.859375t1.046875 1.359375q.375.8125.375 1.859375.0.84375-.21875 1.484375t-.4375.96875h4.90625zM745.08 397.501439v-1.734375h9.703125v1.734375H745.08zm11.453125-.890625q0-.453125.3125-.78125t.828125-.328125.828125.328125.3125.78125q0 .46875-.3125.796875t-.828125.328125-.828125-.328125-.3125-.796875zM746.33 402.7370957q0 1.0625.28125 1.578125t.890625.515625q.640625.0 1.015625-.515625.375-.5.828125-1.65625.234375-.5625.46875-1.078125.234375-.5.546875-.875t.765625-.609375q.453125-.21875 1.09375-.21875 1.296875.0 2.046875.953125t.75 2.59375q0 .40625-.046875.8125-.046875.421875-.109375.765625-.0625.359375-.140625.625-.0625.28125-.125.4375l-1.5-.328125q.15625-.28125.3125-.875t.15625-1.4375q0-.71875-.296875-1.265625-.28125-.546875-.890625-.546875-.3125.0-.5625.125-.234375.125-.4375.375t-.375.625q-.15625.375-.34375.890625-.265625.6875-.515625 1.234375t-.59375.921875q-.328125.390625-.8125.59375-.46875.203125-1.15625.203125-1.34375.0-2.03125-1t-.6875-2.84375q0-1.28125.21875-2.015625.203125-.734375.3125-.984375l1.5.3125q-.109375.296875-.34375.953125-.21875.65625-.21875 1.734375zm3.578125 5.5238037q1.296875.0 2.25.375.96875.375 1.59375.984375.640625.609375.953125 1.40625.3125.8125.3125 1.65625.0 1.953125-1.21875 3t-3.71875 1.046875q-.109375.0-.296875.0-.171875.0-.3125-.015625v-6.640625q-1.515625.109375-2.296875.875t-.78125 2.390625q0 .90625.15625 1.53125t.296875.9375l-1.453125.25q-.15625-.3125-.34375-1.109375t-.1875-1.796875q0-1.265625.375-2.203125.390625-.921875 1.0625-1.515625t1.59375-.890625q.921875-.28125 2.015625-.28125zm.953125 6.65625q1.171875.015625 1.921875-.59375.765625-.59375.765625-1.65625.0-.609375-.234375-1.0625t-.609375-.78125q-.375-.3125-.859375-.484375t-.984375-.234375v4.8125zm4.125 7.8976135q0 .21875-.03125.5-.03125.296875-.078125.578125t-.09375.515625-.078125.34375l-1.515625-.296875q.078125-.203125.171875-.6875.109375-.46875.109375-1.21875.0-.484375-.109375-.96875-.09375-.46875-.125-.609375H745.08v-1.734375h9.296875q.21875.609375.40625 1.515625.203125.921875.203125 2.0625zm-9.90625 5.357544v-1.734375h9.703125v1.734375H745.08zm11.453125-.890625q0-.453125.3125-.78125t.828125-.328125.828125.328125.3125.78125q0 .46875-.3125.796875t-.828125.328125-.828125-.328125-.3125-.796875zm-2.03125 3.8762817q.15625.59375.3125 1.578125.171875.984375.171875 2.28125.0 1.15625-.328125 1.921875t-.921875 1.21875q-.578125.453125-1.40625.640625-.8125.1875-1.796875.1875H745.08v-1.734375h5.078125q.890625.0 1.515625-.125.640625-.125 1.03125-.40625.390625-.265625.5625-.734375.1875-.46875.1875-1.15625.0-.28125-.015625-.578125t-.046875-.578125q-.03125-.265625-.078125-.484375-.03125-.203125-.046875-.296875H745.08v-1.734375h9.421875zm-8.453125 16.786835q-.140625-.234375-.375-.875t-.234375-1.5q0-.875.28125-1.65625.28125-.765625.859375-1.34375.59375-.578125 1.46875-.921875.875-.328125 2.09375-.328125 1.0625.0 1.9375.3125.890625.3125 1.53125.921875t1 1.484375q.375.875.375 1.984375.0 1.203125-.1875 2.109375-.171875.90625-.3125 1.53125H745.83q-2.25.0-3.25-1.15625t-1-3.515625q0-.90625.15625-1.71875.140625-.8125.34375-1.40625l1.5.3125q-.203125.515625-.359375 1.265625-.15625.765625-.15625 1.59375.0 1.546875.625 2.21875.609375.6875 1.953125.6875h.40625zm7.203125-.015625q.078125-.265625.140625-.703125t.0625-1.1875q0-1.40625-.921875-2.15625-.90625-.75-2.421875-.75-.828125.0-1.4375.203125-.59375.21875-.984375.578125-.390625.375-.578125.84375-.1875.484375-.1875.984375.0.6875.1875 1.265625.203125.578125.46875.921875h5.671875z" fill-rule="nonzero"/></g></svg>